%TF.GenerationSoftware,KiCad,Pcbnew,10.0.5*%
%TF.CreationDate,2026-08-31T21:52:52-04:00*%
%TF.ProjectId,binfohub_bridge,62696e66-6f68-4756-925f-627269646765,2.1*%
%TF.SameCoordinates,Original*%
%TF.FileFunction,Soldermask,Bot*%
%TF.FilePolarity,Negative*%
%FSLAX46Y46*%
G04 Gerber Fmt 4.6, Leading zero omitted, Abs format (unit mm)*
G04 Created by KiCad (PCBNEW 10.0.5) date 2026-08-31 21:52:52*
%MOMM*%
%LPD*%
G01*
G04 APERTURE LIST*
G04 Aperture macros list*
%AMRoundRect*
0 Rectangle with rounded corners*
0 $1 Rounding radius*
0 $2 $3 $4 $5 $6 $7 $8 $9 X,Y pos of 4 corners*
0 Add a 4 corners polygon primitive as box body*
4,1,4,$2,$3,$4,$5,$6,$7,$8,$9,$2,$3,0*
0 Add four circle primitives for the rounded corners*
1,1,$1+$1,$2,$3*
1,1,$1+$1,$4,$5*
1,1,$1+$1,$6,$7*
1,1,$1+$1,$8,$9*
0 Add four rect primitives between the rounded corners*
20,1,$1+$1,$2,$3,$4,$5,0*
20,1,$1+$1,$4,$5,$6,$7,0*
20,1,$1+$1,$6,$7,$8,$9,0*
20,1,$1+$1,$8,$9,$2,$3,0*%
G04 Aperture macros list end*
%ADD10R,1.700000X1.700000*%
%ADD11C,1.700000*%
%ADD12RoundRect,0.250000X1.050000X1.050000X-1.050000X1.050000X-1.050000X-1.050000X1.050000X-1.050000X0*%
%ADD13C,2.600000*%
%ADD14RoundRect,0.249999X0.850001X0.850001X-0.850001X0.850001X-0.850001X-0.850001X0.850001X-0.850001X0*%
%ADD15C,2.200000*%
%ADD16C,3.200000*%
G04 APERTURE END LIST*
D10*
%TO.C,U1*%
X22140000Y-67700000D03*
D11*
X24680000Y-67700000D03*
X27220000Y-67700000D03*
X29760000Y-67700000D03*
X32300000Y-67700000D03*
X34840000Y-67700000D03*
X37380000Y-67700000D03*
X39920000Y-67700000D03*
X42460000Y-67700000D03*
X45000000Y-67700000D03*
X47540000Y-67700000D03*
X50080000Y-67700000D03*
X52620000Y-67700000D03*
X55160000Y-67700000D03*
X57700000Y-67700000D03*
X60240000Y-67700000D03*
X62780000Y-67700000D03*
X65320000Y-67700000D03*
X67860000Y-67700000D03*
D10*
X22140000Y-42300000D03*
D11*
X24680000Y-42300000D03*
X27220000Y-42300000D03*
X29760000Y-42300000D03*
X32300000Y-42300000D03*
X34840000Y-42300000D03*
X37380000Y-42300000D03*
X39920000Y-42300000D03*
X42460000Y-42300000D03*
X45000000Y-42300000D03*
X47540000Y-42300000D03*
X50080000Y-42300000D03*
X52620000Y-42300000D03*
X55160000Y-42300000D03*
X57700000Y-42300000D03*
X60240000Y-42300000D03*
X62780000Y-42300000D03*
X65320000Y-42300000D03*
X67860000Y-42300000D03*
%TD*%
D12*
%TO.C,J1*%
X17080000Y-7000000D03*
D13*
X12000000Y-7000000D03*
%TD*%
D14*
%TO.C,J2*%
X52540000Y-7000000D03*
D15*
X50000000Y-7000000D03*
%TD*%
D10*
%TO.C,JP1*%
X62500000Y-20500000D03*
D11*
X62500000Y-23040000D03*
%TD*%
D14*
%TO.C,J3*%
X77620000Y-7000000D03*
D15*
X75080000Y-7000000D03*
X72540000Y-7000000D03*
X70000000Y-7000000D03*
%TD*%
D10*
%TO.C,JP2*%
X82500000Y-20500000D03*
D11*
X82500000Y-23040000D03*
%TD*%
D10*
%TO.C,J4*%
X85000000Y-54000000D03*
D11*
X85000000Y-56540000D03*
X85000000Y-59080000D03*
X85000000Y-61620000D03*
X85000000Y-64160000D03*
X85000000Y-66700000D03*
%TD*%
D16*
%TO.C,H1*%
X4500000Y-4500000D03*
%TD*%
%TO.C,H2*%
X85500000Y-4500000D03*
%TD*%
%TO.C,H3*%
X4500000Y-87500000D03*
%TD*%
%TO.C,H4*%
X85500000Y-87500000D03*
%TD*%
%TO.C,H5*%
X4500000Y-46000000D03*
%TD*%
%TO.C,H6*%
X85500000Y-46000000D03*
%TD*%
M02*
