%TF.GenerationSoftware,KiCad,Pcbnew,10.0.5*%
%TF.CreationDate,2026-10-01T16:28:30-04:00*%
%TF.ProjectId,binfohub_bridge,62696e66-6f68-4756-925f-627269646765,1.1*%
%TF.SameCoordinates,Original*%
%TF.FileFunction,Paste,Top*%
%TF.FilePolarity,Positive*%
%FSLAX46Y46*%
G04 Gerber Fmt 4.6, Leading zero omitted, Abs format (unit mm)*
G04 Created by KiCad (PCBNEW 10.0.5) date 2026-10-01 16:28:30*
%MOMM*%
%LPD*%
G01*
G04 APERTURE LIST*
G04 Aperture macros list*
%AMRoundRect*
0 Rectangle with rounded corners*
0 $1 Rounding radius*
0 $2 $3 $4 $5 $6 $7 $8 $9 X,Y pos of 4 corners*
0 Add a 4 corners polygon primitive as box body*
4,1,4,$2,$3,$4,$5,$6,$7,$8,$9,$2,$3,0*
0 Add four circle primitives for the rounded corners*
1,1,$1+$1,$2,$3*
1,1,$1+$1,$4,$5*
1,1,$1+$1,$6,$7*
1,1,$1+$1,$8,$9*
0 Add four rect primitives between the rounded corners*
20,1,$1+$1,$2,$3,$4,$5,0*
20,1,$1+$1,$4,$5,$6,$7,0*
20,1,$1+$1,$6,$7,$8,$9,0*
20,1,$1+$1,$8,$9,$2,$3,0*%
G04 Aperture macros list end*
%ADD10R,0.900000X1.500000*%
%ADD11R,1.500000X0.900000*%
%ADD12R,0.900000X0.900000*%
%ADD13RoundRect,0.250000X-0.250000X-0.475000X0.250000X-0.475000X0.250000X0.475000X-0.250000X0.475000X0*%
%ADD14RoundRect,0.225000X-0.225000X-0.250000X0.225000X-0.250000X0.225000X0.250000X-0.225000X0.250000X0*%
%ADD15RoundRect,0.200000X-0.200000X-0.275000X0.200000X-0.275000X0.200000X0.275000X-0.200000X0.275000X0*%
%ADD16R,1.500000X1.000000*%
%ADD17RoundRect,0.150000X-0.587500X-0.150000X0.587500X-0.150000X0.587500X0.150000X-0.587500X0.150000X0*%
%ADD18RoundRect,0.200000X0.275000X-0.200000X0.275000X0.200000X-0.275000X0.200000X-0.275000X-0.200000X0*%
%ADD19RoundRect,0.225000X0.375000X-0.225000X0.375000X0.225000X-0.375000X0.225000X-0.375000X-0.225000X0*%
%ADD20RoundRect,0.250000X0.900000X-1.000000X0.900000X1.000000X-0.900000X1.000000X-0.900000X-1.000000X0*%
%ADD21RoundRect,0.250000X-1.500000X-0.550000X1.500000X-0.550000X1.500000X0.550000X-1.500000X0.550000X0*%
%ADD22RoundRect,0.225000X0.250000X-0.225000X0.250000X0.225000X-0.250000X0.225000X-0.250000X-0.225000X0*%
%ADD23RoundRect,0.250000X-0.312500X-1.450000X0.312500X-1.450000X0.312500X1.450000X-0.312500X1.450000X0*%
%ADD24RoundRect,0.150000X-0.512500X-0.150000X0.512500X-0.150000X0.512500X0.150000X-0.512500X0.150000X0*%
%ADD25RoundRect,0.250000X-0.325000X-0.650000X0.325000X-0.650000X0.325000X0.650000X-0.325000X0.650000X0*%
%ADD26R,2.350000X5.100000*%
%ADD27RoundRect,0.250000X0.475000X-0.250000X0.475000X0.250000X-0.475000X0.250000X-0.475000X-0.250000X0*%
%ADD28RoundRect,0.250000X-1.000000X-0.650000X1.000000X-0.650000X1.000000X0.650000X-1.000000X0.650000X0*%
%ADD29RoundRect,0.150000X-0.825000X-0.150000X0.825000X-0.150000X0.825000X0.150000X-0.825000X0.150000X0*%
%ADD30RoundRect,0.218750X-0.218750X-0.256250X0.218750X-0.256250X0.218750X0.256250X-0.218750X0.256250X0*%
G04 APERTURE END LIST*
D10*
%TO.C,U1*%
X71260000Y-53250000D03*
X69990000Y-53250000D03*
X68720000Y-53250000D03*
X67450000Y-53250000D03*
X66180000Y-53250000D03*
X64910000Y-53250000D03*
X63640000Y-53250000D03*
X62370000Y-53250000D03*
X61100000Y-53250000D03*
X59830000Y-53250000D03*
X58560000Y-53250000D03*
X57290000Y-53250000D03*
X56020000Y-53250000D03*
X54750000Y-53250000D03*
D11*
X53500000Y-56285000D03*
X53500000Y-57555000D03*
X53500000Y-58825000D03*
X53500000Y-60095000D03*
X53500000Y-61365000D03*
X53500000Y-62635000D03*
X53500000Y-63905000D03*
X53500000Y-65175000D03*
X53500000Y-66445000D03*
X53500000Y-67715000D03*
D10*
X54750000Y-70750000D03*
X56020000Y-70750000D03*
X57290000Y-70750000D03*
X58560000Y-70750000D03*
X59830000Y-70750000D03*
X61100000Y-70750000D03*
X62370000Y-70750000D03*
X63640000Y-70750000D03*
X64910000Y-70750000D03*
X66180000Y-70750000D03*
X67450000Y-70750000D03*
X68720000Y-70750000D03*
X69990000Y-70750000D03*
X71260000Y-70750000D03*
D12*
X64940000Y-59100000D03*
X63540000Y-59100000D03*
X62140000Y-59100000D03*
X64940000Y-60500000D03*
X63540000Y-60500000D03*
X62140000Y-60500000D03*
X64940000Y-61900000D03*
X63540000Y-61900000D03*
X62140000Y-61900000D03*
%TD*%
D13*
%TO.C,C7*%
X68050000Y-49000000D03*
X69950000Y-49000000D03*
%TD*%
D14*
%TO.C,C8*%
X71725000Y-46500000D03*
X73275000Y-46500000D03*
%TD*%
D15*
%TO.C,R14*%
X64175000Y-49000000D03*
X65825000Y-49000000D03*
%TD*%
D14*
%TO.C,C11*%
X60225000Y-49000000D03*
X61775000Y-49000000D03*
%TD*%
D15*
%TO.C,R15*%
X46175000Y-71500000D03*
X47825000Y-71500000D03*
%TD*%
D16*
%TO.C,SW1*%
X53750000Y-40150000D03*
X60250000Y-43850000D03*
X60250000Y-40150000D03*
X53750000Y-43850000D03*
%TD*%
%TO.C,SW2*%
X65750000Y-40150000D03*
X72250000Y-43850000D03*
X72250000Y-40150000D03*
X65750000Y-43850000D03*
%TD*%
D17*
%TO.C,Q1*%
X9062500Y-17050000D03*
X9062500Y-18950000D03*
X10937500Y-18000000D03*
%TD*%
D18*
%TO.C,R1*%
X16000000Y-18825000D03*
X16000000Y-17175000D03*
%TD*%
D19*
%TO.C,D1*%
X21000000Y-19650000D03*
X21000000Y-16350000D03*
%TD*%
D20*
%TO.C,D2*%
X26500000Y-20150000D03*
X26500000Y-15850000D03*
%TD*%
D21*
%TO.C,C1*%
X32800000Y-18000000D03*
X38200000Y-18000000D03*
%TD*%
D22*
%TO.C,C2*%
X41000000Y-18775000D03*
X41000000Y-17225000D03*
%TD*%
D23*
%TO.C,F2*%
X43362500Y-33500000D03*
X47637500Y-33500000D03*
%TD*%
D24*
%TO.C,U2*%
X12862500Y-27050000D03*
X12862500Y-28000000D03*
X12862500Y-28950000D03*
X15137500Y-28950000D03*
X15137500Y-28000000D03*
X15137500Y-27050000D03*
%TD*%
D25*
%TO.C,C3*%
X12525000Y-33500000D03*
X15475000Y-33500000D03*
%TD*%
D18*
%TO.C,R2*%
X7500000Y-28825000D03*
X7500000Y-27175000D03*
%TD*%
D22*
%TO.C,C4*%
X19000000Y-26775000D03*
X19000000Y-25225000D03*
%TD*%
D26*
%TO.C,L1*%
X22925000Y-32000000D03*
X27075000Y-32000000D03*
%TD*%
D27*
%TO.C,C5*%
X31000000Y-32950000D03*
X31000000Y-31050000D03*
%TD*%
%TO.C,C6*%
X34000000Y-32950000D03*
X34000000Y-31050000D03*
%TD*%
D23*
%TO.C,F1*%
X29862500Y-26500000D03*
X34137500Y-26500000D03*
%TD*%
%TO.C,F3*%
X35362500Y-42000000D03*
X39637500Y-42000000D03*
%TD*%
D28*
%TO.C,D10*%
X35500000Y-47500000D03*
X39500000Y-47500000D03*
%TD*%
D17*
%TO.C,Q2*%
X28062500Y-50050000D03*
X28062500Y-51950000D03*
X29937500Y-51000000D03*
%TD*%
D15*
%TO.C,R12*%
X22175000Y-51000000D03*
X23825000Y-51000000D03*
%TD*%
%TO.C,R13*%
X22175000Y-55000000D03*
X23825000Y-55000000D03*
%TD*%
D29*
%TO.C,U3*%
X49525000Y-25095000D03*
X49525000Y-26365000D03*
X49525000Y-27635000D03*
X49525000Y-28905000D03*
X54475000Y-28905000D03*
X54475000Y-27635000D03*
X54475000Y-26365000D03*
X54475000Y-25095000D03*
%TD*%
D22*
%TO.C,C9*%
X58500000Y-32775000D03*
X58500000Y-31225000D03*
%TD*%
D17*
%TO.C,D3*%
X49062500Y-19550000D03*
X49062500Y-21450000D03*
X50937500Y-20500000D03*
%TD*%
D15*
%TO.C,R3*%
X57675000Y-20500000D03*
X59325000Y-20500000D03*
%TD*%
D29*
%TO.C,U4*%
X69525000Y-25095000D03*
X69525000Y-26365000D03*
X69525000Y-27635000D03*
X69525000Y-28905000D03*
X74475000Y-28905000D03*
X74475000Y-27635000D03*
X74475000Y-26365000D03*
X74475000Y-25095000D03*
%TD*%
D22*
%TO.C,C10*%
X64500000Y-33775000D03*
X64500000Y-32225000D03*
%TD*%
D17*
%TO.C,D4*%
X69062500Y-19550000D03*
X69062500Y-21450000D03*
X70937500Y-20500000D03*
%TD*%
D15*
%TO.C,R4*%
X77675000Y-20500000D03*
X79325000Y-20500000D03*
%TD*%
D18*
%TO.C,R10*%
X66000000Y-25825000D03*
X66000000Y-24175000D03*
%TD*%
%TO.C,R11*%
X66000000Y-29825000D03*
X66000000Y-28175000D03*
%TD*%
D15*
%TO.C,R5*%
X17175000Y-77500000D03*
X18825000Y-77500000D03*
%TD*%
D30*
%TO.C,D5*%
X17212500Y-80000000D03*
X18787500Y-80000000D03*
%TD*%
D15*
%TO.C,R6*%
X28175000Y-77500000D03*
X29825000Y-77500000D03*
%TD*%
D30*
%TO.C,D6*%
X28212500Y-80000000D03*
X29787500Y-80000000D03*
%TD*%
D15*
%TO.C,R7*%
X39175000Y-77500000D03*
X40825000Y-77500000D03*
%TD*%
D30*
%TO.C,D7*%
X39212500Y-80000000D03*
X40787500Y-80000000D03*
%TD*%
D15*
%TO.C,R8*%
X50175000Y-77500000D03*
X51825000Y-77500000D03*
%TD*%
D30*
%TO.C,D8*%
X50212500Y-80000000D03*
X51787500Y-80000000D03*
%TD*%
D15*
%TO.C,R9*%
X61175000Y-77500000D03*
X62825000Y-77500000D03*
%TD*%
D30*
%TO.C,D9*%
X61212500Y-80000000D03*
X62787500Y-80000000D03*
%TD*%
M02*
