%TF.GenerationSoftware,KiCad,Pcbnew,10.0.5*%
%TF.CreationDate,2026-08-31T21:52:52-04:00*%
%TF.ProjectId,binfohub_bridge,62696e66-6f68-4756-925f-627269646765,2.1*%
%TF.SameCoordinates,Original*%
%TF.FileFunction,Legend,Top*%
%TF.FilePolarity,Positive*%
%FSLAX46Y46*%
G04 Gerber Fmt 4.6, Leading zero omitted, Abs format (unit mm)*
G04 Created by KiCad (PCBNEW 10.0.5) date 2026-08-31 21:52:52*
%MOMM*%
%LPD*%
G01*
G04 APERTURE LIST*
%ADD10C,0.150000*%
%ADD11C,0.135000*%
%ADD12C,0.093000*%
%ADD13C,0.098000*%
%ADD14C,0.120000*%
%ADD15C,0.105000*%
%ADD16C,0.100000*%
G04 APERTURE END LIST*
D10*
X36166667Y-89731009D02*
X36309524Y-89778628D01*
X36309524Y-89778628D02*
X36357143Y-89826247D01*
X36357143Y-89826247D02*
X36404762Y-89921485D01*
X36404762Y-89921485D02*
X36404762Y-90064342D01*
X36404762Y-90064342D02*
X36357143Y-90159580D01*
X36357143Y-90159580D02*
X36309524Y-90207200D01*
X36309524Y-90207200D02*
X36214286Y-90254819D01*
X36214286Y-90254819D02*
X35833334Y-90254819D01*
X35833334Y-90254819D02*
X35833334Y-89254819D01*
X35833334Y-89254819D02*
X36166667Y-89254819D01*
X36166667Y-89254819D02*
X36261905Y-89302438D01*
X36261905Y-89302438D02*
X36309524Y-89350057D01*
X36309524Y-89350057D02*
X36357143Y-89445295D01*
X36357143Y-89445295D02*
X36357143Y-89540533D01*
X36357143Y-89540533D02*
X36309524Y-89635771D01*
X36309524Y-89635771D02*
X36261905Y-89683390D01*
X36261905Y-89683390D02*
X36166667Y-89731009D01*
X36166667Y-89731009D02*
X35833334Y-89731009D01*
X36833334Y-89873866D02*
X37595239Y-89873866D01*
X38071429Y-90254819D02*
X38071429Y-89254819D01*
X38547619Y-90254819D02*
X38547619Y-89254819D01*
X38547619Y-89254819D02*
X39119047Y-90254819D01*
X39119047Y-90254819D02*
X39119047Y-89254819D01*
X39928571Y-89731009D02*
X39595238Y-89731009D01*
X39595238Y-90254819D02*
X39595238Y-89254819D01*
X39595238Y-89254819D02*
X40071428Y-89254819D01*
X40642857Y-89254819D02*
X40833333Y-89254819D01*
X40833333Y-89254819D02*
X40928571Y-89302438D01*
X40928571Y-89302438D02*
X41023809Y-89397676D01*
X41023809Y-89397676D02*
X41071428Y-89588152D01*
X41071428Y-89588152D02*
X41071428Y-89921485D01*
X41071428Y-89921485D02*
X41023809Y-90111961D01*
X41023809Y-90111961D02*
X40928571Y-90207200D01*
X40928571Y-90207200D02*
X40833333Y-90254819D01*
X40833333Y-90254819D02*
X40642857Y-90254819D01*
X40642857Y-90254819D02*
X40547619Y-90207200D01*
X40547619Y-90207200D02*
X40452381Y-90111961D01*
X40452381Y-90111961D02*
X40404762Y-89921485D01*
X40404762Y-89921485D02*
X40404762Y-89588152D01*
X40404762Y-89588152D02*
X40452381Y-89397676D01*
X40452381Y-89397676D02*
X40547619Y-89302438D01*
X40547619Y-89302438D02*
X40642857Y-89254819D01*
X41500000Y-90254819D02*
X41500000Y-89254819D01*
X41500000Y-89731009D02*
X42071428Y-89731009D01*
X42071428Y-90254819D02*
X42071428Y-89254819D01*
X42547619Y-89254819D02*
X42547619Y-90064342D01*
X42547619Y-90064342D02*
X42595238Y-90159580D01*
X42595238Y-90159580D02*
X42642857Y-90207200D01*
X42642857Y-90207200D02*
X42738095Y-90254819D01*
X42738095Y-90254819D02*
X42928571Y-90254819D01*
X42928571Y-90254819D02*
X43023809Y-90207200D01*
X43023809Y-90207200D02*
X43071428Y-90159580D01*
X43071428Y-90159580D02*
X43119047Y-90064342D01*
X43119047Y-90064342D02*
X43119047Y-89254819D01*
X43928571Y-89731009D02*
X44071428Y-89778628D01*
X44071428Y-89778628D02*
X44119047Y-89826247D01*
X44119047Y-89826247D02*
X44166666Y-89921485D01*
X44166666Y-89921485D02*
X44166666Y-90064342D01*
X44166666Y-90064342D02*
X44119047Y-90159580D01*
X44119047Y-90159580D02*
X44071428Y-90207200D01*
X44071428Y-90207200D02*
X43976190Y-90254819D01*
X43976190Y-90254819D02*
X43595238Y-90254819D01*
X43595238Y-90254819D02*
X43595238Y-89254819D01*
X43595238Y-89254819D02*
X43928571Y-89254819D01*
X43928571Y-89254819D02*
X44023809Y-89302438D01*
X44023809Y-89302438D02*
X44071428Y-89350057D01*
X44071428Y-89350057D02*
X44119047Y-89445295D01*
X44119047Y-89445295D02*
X44119047Y-89540533D01*
X44119047Y-89540533D02*
X44071428Y-89635771D01*
X44071428Y-89635771D02*
X44023809Y-89683390D01*
X44023809Y-89683390D02*
X43928571Y-89731009D01*
X43928571Y-89731009D02*
X43595238Y-89731009D01*
X45690476Y-89731009D02*
X45833333Y-89778628D01*
X45833333Y-89778628D02*
X45880952Y-89826247D01*
X45880952Y-89826247D02*
X45928571Y-89921485D01*
X45928571Y-89921485D02*
X45928571Y-90064342D01*
X45928571Y-90064342D02*
X45880952Y-90159580D01*
X45880952Y-90159580D02*
X45833333Y-90207200D01*
X45833333Y-90207200D02*
X45738095Y-90254819D01*
X45738095Y-90254819D02*
X45357143Y-90254819D01*
X45357143Y-90254819D02*
X45357143Y-89254819D01*
X45357143Y-89254819D02*
X45690476Y-89254819D01*
X45690476Y-89254819D02*
X45785714Y-89302438D01*
X45785714Y-89302438D02*
X45833333Y-89350057D01*
X45833333Y-89350057D02*
X45880952Y-89445295D01*
X45880952Y-89445295D02*
X45880952Y-89540533D01*
X45880952Y-89540533D02*
X45833333Y-89635771D01*
X45833333Y-89635771D02*
X45785714Y-89683390D01*
X45785714Y-89683390D02*
X45690476Y-89731009D01*
X45690476Y-89731009D02*
X45357143Y-89731009D01*
X46928571Y-90254819D02*
X46595238Y-89778628D01*
X46357143Y-90254819D02*
X46357143Y-89254819D01*
X46357143Y-89254819D02*
X46738095Y-89254819D01*
X46738095Y-89254819D02*
X46833333Y-89302438D01*
X46833333Y-89302438D02*
X46880952Y-89350057D01*
X46880952Y-89350057D02*
X46928571Y-89445295D01*
X46928571Y-89445295D02*
X46928571Y-89588152D01*
X46928571Y-89588152D02*
X46880952Y-89683390D01*
X46880952Y-89683390D02*
X46833333Y-89731009D01*
X46833333Y-89731009D02*
X46738095Y-89778628D01*
X46738095Y-89778628D02*
X46357143Y-89778628D01*
X47357143Y-90254819D02*
X47357143Y-89254819D01*
X47833333Y-90254819D02*
X47833333Y-89254819D01*
X47833333Y-89254819D02*
X48071428Y-89254819D01*
X48071428Y-89254819D02*
X48214285Y-89302438D01*
X48214285Y-89302438D02*
X48309523Y-89397676D01*
X48309523Y-89397676D02*
X48357142Y-89492914D01*
X48357142Y-89492914D02*
X48404761Y-89683390D01*
X48404761Y-89683390D02*
X48404761Y-89826247D01*
X48404761Y-89826247D02*
X48357142Y-90016723D01*
X48357142Y-90016723D02*
X48309523Y-90111961D01*
X48309523Y-90111961D02*
X48214285Y-90207200D01*
X48214285Y-90207200D02*
X48071428Y-90254819D01*
X48071428Y-90254819D02*
X47833333Y-90254819D01*
X49357142Y-89302438D02*
X49261904Y-89254819D01*
X49261904Y-89254819D02*
X49119047Y-89254819D01*
X49119047Y-89254819D02*
X48976190Y-89302438D01*
X48976190Y-89302438D02*
X48880952Y-89397676D01*
X48880952Y-89397676D02*
X48833333Y-89492914D01*
X48833333Y-89492914D02*
X48785714Y-89683390D01*
X48785714Y-89683390D02*
X48785714Y-89826247D01*
X48785714Y-89826247D02*
X48833333Y-90016723D01*
X48833333Y-90016723D02*
X48880952Y-90111961D01*
X48880952Y-90111961D02*
X48976190Y-90207200D01*
X48976190Y-90207200D02*
X49119047Y-90254819D01*
X49119047Y-90254819D02*
X49214285Y-90254819D01*
X49214285Y-90254819D02*
X49357142Y-90207200D01*
X49357142Y-90207200D02*
X49404761Y-90159580D01*
X49404761Y-90159580D02*
X49404761Y-89826247D01*
X49404761Y-89826247D02*
X49214285Y-89826247D01*
X49833333Y-89731009D02*
X50166666Y-89731009D01*
X50309523Y-90254819D02*
X49833333Y-90254819D01*
X49833333Y-90254819D02*
X49833333Y-89254819D01*
X49833333Y-89254819D02*
X50309523Y-89254819D01*
X51404762Y-89588152D02*
X51642857Y-90254819D01*
X51642857Y-90254819D02*
X51880952Y-89588152D01*
X52785714Y-90254819D02*
X52214286Y-90254819D01*
X52500000Y-90254819D02*
X52500000Y-89254819D01*
X52500000Y-89254819D02*
X52404762Y-89397676D01*
X52404762Y-89397676D02*
X52309524Y-89492914D01*
X52309524Y-89492914D02*
X52214286Y-89540533D01*
X53214286Y-90159580D02*
X53261905Y-90207200D01*
X53261905Y-90207200D02*
X53214286Y-90254819D01*
X53214286Y-90254819D02*
X53166667Y-90207200D01*
X53166667Y-90207200D02*
X53214286Y-90159580D01*
X53214286Y-90159580D02*
X53214286Y-90254819D01*
X53880952Y-89254819D02*
X53976190Y-89254819D01*
X53976190Y-89254819D02*
X54071428Y-89302438D01*
X54071428Y-89302438D02*
X54119047Y-89350057D01*
X54119047Y-89350057D02*
X54166666Y-89445295D01*
X54166666Y-89445295D02*
X54214285Y-89635771D01*
X54214285Y-89635771D02*
X54214285Y-89873866D01*
X54214285Y-89873866D02*
X54166666Y-90064342D01*
X54166666Y-90064342D02*
X54119047Y-90159580D01*
X54119047Y-90159580D02*
X54071428Y-90207200D01*
X54071428Y-90207200D02*
X53976190Y-90254819D01*
X53976190Y-90254819D02*
X53880952Y-90254819D01*
X53880952Y-90254819D02*
X53785714Y-90207200D01*
X53785714Y-90207200D02*
X53738095Y-90159580D01*
X53738095Y-90159580D02*
X53690476Y-90064342D01*
X53690476Y-90064342D02*
X53642857Y-89873866D01*
X53642857Y-89873866D02*
X53642857Y-89635771D01*
X53642857Y-89635771D02*
X53690476Y-89445295D01*
X53690476Y-89445295D02*
X53738095Y-89350057D01*
X53738095Y-89350057D02*
X53785714Y-89302438D01*
X53785714Y-89302438D02*
X53880952Y-89254819D01*
D11*
X11585714Y-14109337D02*
X11585714Y-14752194D01*
X11585714Y-14752194D02*
X11542857Y-14880765D01*
X11542857Y-14880765D02*
X11457143Y-14966480D01*
X11457143Y-14966480D02*
X11328571Y-15009337D01*
X11328571Y-15009337D02*
X11242857Y-15009337D01*
X12485714Y-15009337D02*
X11971428Y-15009337D01*
X12228571Y-15009337D02*
X12228571Y-14109337D01*
X12228571Y-14109337D02*
X12142857Y-14237908D01*
X12142857Y-14237908D02*
X12057142Y-14323622D01*
X12057142Y-14323622D02*
X11971428Y-14366480D01*
X14028571Y-15009337D02*
X13514285Y-15009337D01*
X13771428Y-15009337D02*
X13771428Y-14109337D01*
X13771428Y-14109337D02*
X13685714Y-14237908D01*
X13685714Y-14237908D02*
X13599999Y-14323622D01*
X13599999Y-14323622D02*
X13514285Y-14366480D01*
X14371428Y-14195051D02*
X14414285Y-14152194D01*
X14414285Y-14152194D02*
X14500000Y-14109337D01*
X14500000Y-14109337D02*
X14714285Y-14109337D01*
X14714285Y-14109337D02*
X14800000Y-14152194D01*
X14800000Y-14152194D02*
X14842857Y-14195051D01*
X14842857Y-14195051D02*
X14885714Y-14280765D01*
X14885714Y-14280765D02*
X14885714Y-14366480D01*
X14885714Y-14366480D02*
X14842857Y-14495051D01*
X14842857Y-14495051D02*
X14328571Y-15009337D01*
X14328571Y-15009337D02*
X14885714Y-15009337D01*
X15142857Y-14109337D02*
X15442857Y-15009337D01*
X15442857Y-15009337D02*
X15742857Y-14109337D01*
X16728571Y-15009337D02*
X16728571Y-14109337D01*
X17157142Y-15009337D02*
X17157142Y-14109337D01*
X17157142Y-14109337D02*
X17671428Y-15009337D01*
X17671428Y-15009337D02*
X17671428Y-14109337D01*
D10*
X11619048Y-16673866D02*
X12380953Y-16673866D01*
X12000000Y-17054819D02*
X12000000Y-16292914D01*
X16699048Y-16673866D02*
X17460953Y-16673866D01*
D11*
X49307143Y-14109337D02*
X49307143Y-14752194D01*
X49307143Y-14752194D02*
X49264286Y-14880765D01*
X49264286Y-14880765D02*
X49178572Y-14966480D01*
X49178572Y-14966480D02*
X49050000Y-15009337D01*
X49050000Y-15009337D02*
X48964286Y-15009337D01*
X49692857Y-14195051D02*
X49735714Y-14152194D01*
X49735714Y-14152194D02*
X49821429Y-14109337D01*
X49821429Y-14109337D02*
X50035714Y-14109337D01*
X50035714Y-14109337D02*
X50121429Y-14152194D01*
X50121429Y-14152194D02*
X50164286Y-14195051D01*
X50164286Y-14195051D02*
X50207143Y-14280765D01*
X50207143Y-14280765D02*
X50207143Y-14366480D01*
X50207143Y-14366480D02*
X50164286Y-14495051D01*
X50164286Y-14495051D02*
X49650000Y-15009337D01*
X49650000Y-15009337D02*
X50207143Y-15009337D01*
X51578571Y-14537908D02*
X51707143Y-14580765D01*
X51707143Y-14580765D02*
X51750000Y-14623622D01*
X51750000Y-14623622D02*
X51792857Y-14709337D01*
X51792857Y-14709337D02*
X51792857Y-14837908D01*
X51792857Y-14837908D02*
X51750000Y-14923622D01*
X51750000Y-14923622D02*
X51707143Y-14966480D01*
X51707143Y-14966480D02*
X51621428Y-15009337D01*
X51621428Y-15009337D02*
X51278571Y-15009337D01*
X51278571Y-15009337D02*
X51278571Y-14109337D01*
X51278571Y-14109337D02*
X51578571Y-14109337D01*
X51578571Y-14109337D02*
X51664286Y-14152194D01*
X51664286Y-14152194D02*
X51707143Y-14195051D01*
X51707143Y-14195051D02*
X51750000Y-14280765D01*
X51750000Y-14280765D02*
X51750000Y-14366480D01*
X51750000Y-14366480D02*
X51707143Y-14452194D01*
X51707143Y-14452194D02*
X51664286Y-14495051D01*
X51664286Y-14495051D02*
X51578571Y-14537908D01*
X51578571Y-14537908D02*
X51278571Y-14537908D01*
X52178571Y-14109337D02*
X52178571Y-14837908D01*
X52178571Y-14837908D02*
X52221428Y-14923622D01*
X52221428Y-14923622D02*
X52264286Y-14966480D01*
X52264286Y-14966480D02*
X52350000Y-15009337D01*
X52350000Y-15009337D02*
X52521428Y-15009337D01*
X52521428Y-15009337D02*
X52607143Y-14966480D01*
X52607143Y-14966480D02*
X52650000Y-14923622D01*
X52650000Y-14923622D02*
X52692857Y-14837908D01*
X52692857Y-14837908D02*
X52692857Y-14109337D01*
X53078571Y-14966480D02*
X53207143Y-15009337D01*
X53207143Y-15009337D02*
X53421428Y-15009337D01*
X53421428Y-15009337D02*
X53507143Y-14966480D01*
X53507143Y-14966480D02*
X53550000Y-14923622D01*
X53550000Y-14923622D02*
X53592857Y-14837908D01*
X53592857Y-14837908D02*
X53592857Y-14752194D01*
X53592857Y-14752194D02*
X53550000Y-14666480D01*
X53550000Y-14666480D02*
X53507143Y-14623622D01*
X53507143Y-14623622D02*
X53421428Y-14580765D01*
X53421428Y-14580765D02*
X53250000Y-14537908D01*
X53250000Y-14537908D02*
X53164285Y-14495051D01*
X53164285Y-14495051D02*
X53121428Y-14452194D01*
X53121428Y-14452194D02*
X53078571Y-14366480D01*
X53078571Y-14366480D02*
X53078571Y-14280765D01*
X53078571Y-14280765D02*
X53121428Y-14195051D01*
X53121428Y-14195051D02*
X53164285Y-14152194D01*
X53164285Y-14152194D02*
X53250000Y-14109337D01*
X53250000Y-14109337D02*
X53464285Y-14109337D01*
X53464285Y-14109337D02*
X53592857Y-14152194D01*
D12*
X49852381Y-16704844D02*
X50147619Y-16704844D01*
X49793333Y-16881987D02*
X50000000Y-16261987D01*
X50000000Y-16261987D02*
X50206666Y-16881987D01*
X52584285Y-16557225D02*
X52672857Y-16586749D01*
X52672857Y-16586749D02*
X52702380Y-16616273D01*
X52702380Y-16616273D02*
X52731904Y-16675321D01*
X52731904Y-16675321D02*
X52731904Y-16763892D01*
X52731904Y-16763892D02*
X52702380Y-16822940D01*
X52702380Y-16822940D02*
X52672857Y-16852464D01*
X52672857Y-16852464D02*
X52613809Y-16881987D01*
X52613809Y-16881987D02*
X52377619Y-16881987D01*
X52377619Y-16881987D02*
X52377619Y-16261987D01*
X52377619Y-16261987D02*
X52584285Y-16261987D01*
X52584285Y-16261987D02*
X52643333Y-16291511D01*
X52643333Y-16291511D02*
X52672857Y-16321035D01*
X52672857Y-16321035D02*
X52702380Y-16380083D01*
X52702380Y-16380083D02*
X52702380Y-16439130D01*
X52702380Y-16439130D02*
X52672857Y-16498178D01*
X52672857Y-16498178D02*
X52643333Y-16527702D01*
X52643333Y-16527702D02*
X52584285Y-16557225D01*
X52584285Y-16557225D02*
X52377619Y-16557225D01*
D11*
X70221429Y-14109337D02*
X70221429Y-14752194D01*
X70221429Y-14752194D02*
X70178572Y-14880765D01*
X70178572Y-14880765D02*
X70092858Y-14966480D01*
X70092858Y-14966480D02*
X69964286Y-15009337D01*
X69964286Y-15009337D02*
X69878572Y-15009337D01*
X70564286Y-14109337D02*
X71121429Y-14109337D01*
X71121429Y-14109337D02*
X70821429Y-14452194D01*
X70821429Y-14452194D02*
X70950000Y-14452194D01*
X70950000Y-14452194D02*
X71035715Y-14495051D01*
X71035715Y-14495051D02*
X71078572Y-14537908D01*
X71078572Y-14537908D02*
X71121429Y-14623622D01*
X71121429Y-14623622D02*
X71121429Y-14837908D01*
X71121429Y-14837908D02*
X71078572Y-14923622D01*
X71078572Y-14923622D02*
X71035715Y-14966480D01*
X71035715Y-14966480D02*
X70950000Y-15009337D01*
X70950000Y-15009337D02*
X70692857Y-15009337D01*
X70692857Y-15009337D02*
X70607143Y-14966480D01*
X70607143Y-14966480D02*
X70564286Y-14923622D01*
X72192857Y-15009337D02*
X72192857Y-14109337D01*
X72621428Y-15009337D02*
X72621428Y-14109337D01*
X72621428Y-14109337D02*
X73135714Y-15009337D01*
X73135714Y-15009337D02*
X73135714Y-14109337D01*
X73864285Y-14537908D02*
X73564285Y-14537908D01*
X73564285Y-15009337D02*
X73564285Y-14109337D01*
X73564285Y-14109337D02*
X73992857Y-14109337D01*
X74507143Y-14109337D02*
X74678571Y-14109337D01*
X74678571Y-14109337D02*
X74764286Y-14152194D01*
X74764286Y-14152194D02*
X74850000Y-14237908D01*
X74850000Y-14237908D02*
X74892857Y-14409337D01*
X74892857Y-14409337D02*
X74892857Y-14709337D01*
X74892857Y-14709337D02*
X74850000Y-14880765D01*
X74850000Y-14880765D02*
X74764286Y-14966480D01*
X74764286Y-14966480D02*
X74678571Y-15009337D01*
X74678571Y-15009337D02*
X74507143Y-15009337D01*
X74507143Y-15009337D02*
X74421429Y-14966480D01*
X74421429Y-14966480D02*
X74335714Y-14880765D01*
X74335714Y-14880765D02*
X74292857Y-14709337D01*
X74292857Y-14709337D02*
X74292857Y-14409337D01*
X74292857Y-14409337D02*
X74335714Y-14237908D01*
X74335714Y-14237908D02*
X74421429Y-14152194D01*
X74421429Y-14152194D02*
X74507143Y-14109337D01*
X75278571Y-15009337D02*
X75278571Y-14109337D01*
X75278571Y-14537908D02*
X75792857Y-14537908D01*
X75792857Y-15009337D02*
X75792857Y-14109337D01*
X76221428Y-14109337D02*
X76221428Y-14837908D01*
X76221428Y-14837908D02*
X76264285Y-14923622D01*
X76264285Y-14923622D02*
X76307143Y-14966480D01*
X76307143Y-14966480D02*
X76392857Y-15009337D01*
X76392857Y-15009337D02*
X76564285Y-15009337D01*
X76564285Y-15009337D02*
X76650000Y-14966480D01*
X76650000Y-14966480D02*
X76692857Y-14923622D01*
X76692857Y-14923622D02*
X76735714Y-14837908D01*
X76735714Y-14837908D02*
X76735714Y-14109337D01*
X77464285Y-14537908D02*
X77592857Y-14580765D01*
X77592857Y-14580765D02*
X77635714Y-14623622D01*
X77635714Y-14623622D02*
X77678571Y-14709337D01*
X77678571Y-14709337D02*
X77678571Y-14837908D01*
X77678571Y-14837908D02*
X77635714Y-14923622D01*
X77635714Y-14923622D02*
X77592857Y-14966480D01*
X77592857Y-14966480D02*
X77507142Y-15009337D01*
X77507142Y-15009337D02*
X77164285Y-15009337D01*
X77164285Y-15009337D02*
X77164285Y-14109337D01*
X77164285Y-14109337D02*
X77464285Y-14109337D01*
X77464285Y-14109337D02*
X77550000Y-14152194D01*
X77550000Y-14152194D02*
X77592857Y-14195051D01*
X77592857Y-14195051D02*
X77635714Y-14280765D01*
X77635714Y-14280765D02*
X77635714Y-14366480D01*
X77635714Y-14366480D02*
X77592857Y-14452194D01*
X77592857Y-14452194D02*
X77550000Y-14495051D01*
X77550000Y-14495051D02*
X77464285Y-14537908D01*
X77464285Y-14537908D02*
X77164285Y-14537908D01*
D12*
X69616190Y-16881987D02*
X69261905Y-16881987D01*
X69439048Y-16881987D02*
X69439048Y-16261987D01*
X69439048Y-16261987D02*
X69380000Y-16350559D01*
X69380000Y-16350559D02*
X69320952Y-16409606D01*
X69320952Y-16409606D02*
X69261905Y-16439130D01*
X69852381Y-16321035D02*
X69881905Y-16291511D01*
X69881905Y-16291511D02*
X69940952Y-16261987D01*
X69940952Y-16261987D02*
X70088571Y-16261987D01*
X70088571Y-16261987D02*
X70147619Y-16291511D01*
X70147619Y-16291511D02*
X70177143Y-16321035D01*
X70177143Y-16321035D02*
X70206666Y-16380083D01*
X70206666Y-16380083D02*
X70206666Y-16439130D01*
X70206666Y-16439130D02*
X70177143Y-16527702D01*
X70177143Y-16527702D02*
X69822857Y-16881987D01*
X69822857Y-16881987D02*
X70206666Y-16881987D01*
X70383809Y-16261987D02*
X70590476Y-16881987D01*
X70590476Y-16881987D02*
X70797142Y-16261987D01*
X72067618Y-16291511D02*
X72008571Y-16261987D01*
X72008571Y-16261987D02*
X71919999Y-16261987D01*
X71919999Y-16261987D02*
X71831428Y-16291511D01*
X71831428Y-16291511D02*
X71772380Y-16350559D01*
X71772380Y-16350559D02*
X71742857Y-16409606D01*
X71742857Y-16409606D02*
X71713333Y-16527702D01*
X71713333Y-16527702D02*
X71713333Y-16616273D01*
X71713333Y-16616273D02*
X71742857Y-16734368D01*
X71742857Y-16734368D02*
X71772380Y-16793416D01*
X71772380Y-16793416D02*
X71831428Y-16852464D01*
X71831428Y-16852464D02*
X71919999Y-16881987D01*
X71919999Y-16881987D02*
X71979047Y-16881987D01*
X71979047Y-16881987D02*
X72067618Y-16852464D01*
X72067618Y-16852464D02*
X72097142Y-16822940D01*
X72097142Y-16822940D02*
X72097142Y-16616273D01*
X72097142Y-16616273D02*
X71979047Y-16616273D01*
X72362857Y-16881987D02*
X72362857Y-16261987D01*
X72362857Y-16261987D02*
X72717142Y-16881987D01*
X72717142Y-16881987D02*
X72717142Y-16261987D01*
X73012381Y-16881987D02*
X73012381Y-16261987D01*
X73012381Y-16261987D02*
X73160000Y-16261987D01*
X73160000Y-16261987D02*
X73248571Y-16291511D01*
X73248571Y-16291511D02*
X73307619Y-16350559D01*
X73307619Y-16350559D02*
X73337142Y-16409606D01*
X73337142Y-16409606D02*
X73366666Y-16527702D01*
X73366666Y-16527702D02*
X73366666Y-16616273D01*
X73366666Y-16616273D02*
X73337142Y-16734368D01*
X73337142Y-16734368D02*
X73307619Y-16793416D01*
X73307619Y-16793416D02*
X73248571Y-16852464D01*
X73248571Y-16852464D02*
X73160000Y-16881987D01*
X73160000Y-16881987D02*
X73012381Y-16881987D01*
X74932381Y-16704844D02*
X75227619Y-16704844D01*
X74873333Y-16881987D02*
X75080000Y-16261987D01*
X75080000Y-16261987D02*
X75286666Y-16881987D01*
X77664285Y-16557225D02*
X77752857Y-16586749D01*
X77752857Y-16586749D02*
X77782380Y-16616273D01*
X77782380Y-16616273D02*
X77811904Y-16675321D01*
X77811904Y-16675321D02*
X77811904Y-16763892D01*
X77811904Y-16763892D02*
X77782380Y-16822940D01*
X77782380Y-16822940D02*
X77752857Y-16852464D01*
X77752857Y-16852464D02*
X77693809Y-16881987D01*
X77693809Y-16881987D02*
X77457619Y-16881987D01*
X77457619Y-16881987D02*
X77457619Y-16261987D01*
X77457619Y-16261987D02*
X77664285Y-16261987D01*
X77664285Y-16261987D02*
X77723333Y-16291511D01*
X77723333Y-16291511D02*
X77752857Y-16321035D01*
X77752857Y-16321035D02*
X77782380Y-16380083D01*
X77782380Y-16380083D02*
X77782380Y-16439130D01*
X77782380Y-16439130D02*
X77752857Y-16498178D01*
X77752857Y-16498178D02*
X77723333Y-16527702D01*
X77723333Y-16527702D02*
X77664285Y-16557225D01*
X77664285Y-16557225D02*
X77457619Y-16557225D01*
D13*
X60472619Y-24645606D02*
X60472619Y-25109892D01*
X60472619Y-25109892D02*
X60441666Y-25202749D01*
X60441666Y-25202749D02*
X60379762Y-25264654D01*
X60379762Y-25264654D02*
X60286904Y-25295606D01*
X60286904Y-25295606D02*
X60225000Y-25295606D01*
X60782142Y-25295606D02*
X60782142Y-24645606D01*
X60782142Y-24645606D02*
X61029761Y-24645606D01*
X61029761Y-24645606D02*
X61091666Y-24676558D01*
X61091666Y-24676558D02*
X61122619Y-24707511D01*
X61122619Y-24707511D02*
X61153571Y-24769415D01*
X61153571Y-24769415D02*
X61153571Y-24862273D01*
X61153571Y-24862273D02*
X61122619Y-24924177D01*
X61122619Y-24924177D02*
X61091666Y-24955130D01*
X61091666Y-24955130D02*
X61029761Y-24986082D01*
X61029761Y-24986082D02*
X60782142Y-24986082D01*
X61772619Y-25295606D02*
X61401190Y-25295606D01*
X61586904Y-25295606D02*
X61586904Y-24645606D01*
X61586904Y-24645606D02*
X61525000Y-24738463D01*
X61525000Y-24738463D02*
X61463095Y-24800368D01*
X61463095Y-24800368D02*
X61401190Y-24831320D01*
X62453571Y-24645606D02*
X62825000Y-24645606D01*
X62639286Y-25295606D02*
X62639286Y-24645606D01*
X63041666Y-24955130D02*
X63258333Y-24955130D01*
X63351190Y-25295606D02*
X63041666Y-25295606D01*
X63041666Y-25295606D02*
X63041666Y-24645606D01*
X63041666Y-24645606D02*
X63351190Y-24645606D01*
X64001190Y-25295606D02*
X63784523Y-24986082D01*
X63629761Y-25295606D02*
X63629761Y-24645606D01*
X63629761Y-24645606D02*
X63877380Y-24645606D01*
X63877380Y-24645606D02*
X63939285Y-24676558D01*
X63939285Y-24676558D02*
X63970238Y-24707511D01*
X63970238Y-24707511D02*
X64001190Y-24769415D01*
X64001190Y-24769415D02*
X64001190Y-24862273D01*
X64001190Y-24862273D02*
X63970238Y-24924177D01*
X63970238Y-24924177D02*
X63939285Y-24955130D01*
X63939285Y-24955130D02*
X63877380Y-24986082D01*
X63877380Y-24986082D02*
X63629761Y-24986082D01*
X64279761Y-25295606D02*
X64279761Y-24645606D01*
X64279761Y-24645606D02*
X64496428Y-25109892D01*
X64496428Y-25109892D02*
X64713095Y-24645606D01*
X64713095Y-24645606D02*
X64713095Y-25295606D01*
X80472619Y-24645606D02*
X80472619Y-25109892D01*
X80472619Y-25109892D02*
X80441666Y-25202749D01*
X80441666Y-25202749D02*
X80379762Y-25264654D01*
X80379762Y-25264654D02*
X80286904Y-25295606D01*
X80286904Y-25295606D02*
X80225000Y-25295606D01*
X80782142Y-25295606D02*
X80782142Y-24645606D01*
X80782142Y-24645606D02*
X81029761Y-24645606D01*
X81029761Y-24645606D02*
X81091666Y-24676558D01*
X81091666Y-24676558D02*
X81122619Y-24707511D01*
X81122619Y-24707511D02*
X81153571Y-24769415D01*
X81153571Y-24769415D02*
X81153571Y-24862273D01*
X81153571Y-24862273D02*
X81122619Y-24924177D01*
X81122619Y-24924177D02*
X81091666Y-24955130D01*
X81091666Y-24955130D02*
X81029761Y-24986082D01*
X81029761Y-24986082D02*
X80782142Y-24986082D01*
X81401190Y-24707511D02*
X81432142Y-24676558D01*
X81432142Y-24676558D02*
X81494047Y-24645606D01*
X81494047Y-24645606D02*
X81648809Y-24645606D01*
X81648809Y-24645606D02*
X81710714Y-24676558D01*
X81710714Y-24676558D02*
X81741666Y-24707511D01*
X81741666Y-24707511D02*
X81772619Y-24769415D01*
X81772619Y-24769415D02*
X81772619Y-24831320D01*
X81772619Y-24831320D02*
X81741666Y-24924177D01*
X81741666Y-24924177D02*
X81370238Y-25295606D01*
X81370238Y-25295606D02*
X81772619Y-25295606D01*
X82453571Y-24645606D02*
X82825000Y-24645606D01*
X82639286Y-25295606D02*
X82639286Y-24645606D01*
X83041666Y-24955130D02*
X83258333Y-24955130D01*
X83351190Y-25295606D02*
X83041666Y-25295606D01*
X83041666Y-25295606D02*
X83041666Y-24645606D01*
X83041666Y-24645606D02*
X83351190Y-24645606D01*
X84001190Y-25295606D02*
X83784523Y-24986082D01*
X83629761Y-25295606D02*
X83629761Y-24645606D01*
X83629761Y-24645606D02*
X83877380Y-24645606D01*
X83877380Y-24645606D02*
X83939285Y-24676558D01*
X83939285Y-24676558D02*
X83970238Y-24707511D01*
X83970238Y-24707511D02*
X84001190Y-24769415D01*
X84001190Y-24769415D02*
X84001190Y-24862273D01*
X84001190Y-24862273D02*
X83970238Y-24924177D01*
X83970238Y-24924177D02*
X83939285Y-24955130D01*
X83939285Y-24955130D02*
X83877380Y-24986082D01*
X83877380Y-24986082D02*
X83629761Y-24986082D01*
X84279761Y-25295606D02*
X84279761Y-24645606D01*
X84279761Y-24645606D02*
X84496428Y-25109892D01*
X84496428Y-25109892D02*
X84713095Y-24645606D01*
X84713095Y-24645606D02*
X84713095Y-25295606D01*
D14*
X16933333Y-84363855D02*
X16933333Y-83563855D01*
X16933333Y-83563855D02*
X17238095Y-83563855D01*
X17238095Y-83563855D02*
X17314285Y-83601950D01*
X17314285Y-83601950D02*
X17352380Y-83640045D01*
X17352380Y-83640045D02*
X17390476Y-83716236D01*
X17390476Y-83716236D02*
X17390476Y-83830521D01*
X17390476Y-83830521D02*
X17352380Y-83906712D01*
X17352380Y-83906712D02*
X17314285Y-83944807D01*
X17314285Y-83944807D02*
X17238095Y-83982902D01*
X17238095Y-83982902D02*
X16933333Y-83982902D01*
X17657142Y-83563855D02*
X17847618Y-84363855D01*
X17847618Y-84363855D02*
X17999999Y-83792426D01*
X17999999Y-83792426D02*
X18152380Y-84363855D01*
X18152380Y-84363855D02*
X18342857Y-83563855D01*
X19104762Y-84363855D02*
X18838095Y-83982902D01*
X18647619Y-84363855D02*
X18647619Y-83563855D01*
X18647619Y-83563855D02*
X18952381Y-83563855D01*
X18952381Y-83563855D02*
X19028571Y-83601950D01*
X19028571Y-83601950D02*
X19066666Y-83640045D01*
X19066666Y-83640045D02*
X19104762Y-83716236D01*
X19104762Y-83716236D02*
X19104762Y-83830521D01*
X19104762Y-83830521D02*
X19066666Y-83906712D01*
X19066666Y-83906712D02*
X19028571Y-83944807D01*
X19028571Y-83944807D02*
X18952381Y-83982902D01*
X18952381Y-83982902D02*
X18647619Y-83982902D01*
D13*
X17086905Y-86062273D02*
X17086905Y-86588463D01*
X17086905Y-86588463D02*
X17055952Y-86650368D01*
X17055952Y-86650368D02*
X17025000Y-86681320D01*
X17025000Y-86681320D02*
X16963095Y-86712273D01*
X16963095Y-86712273D02*
X16870238Y-86712273D01*
X16870238Y-86712273D02*
X16808333Y-86681320D01*
X17086905Y-86464654D02*
X17025000Y-86495606D01*
X17025000Y-86495606D02*
X16901191Y-86495606D01*
X16901191Y-86495606D02*
X16839286Y-86464654D01*
X16839286Y-86464654D02*
X16808333Y-86433701D01*
X16808333Y-86433701D02*
X16777381Y-86371796D01*
X16777381Y-86371796D02*
X16777381Y-86186082D01*
X16777381Y-86186082D02*
X16808333Y-86124177D01*
X16808333Y-86124177D02*
X16839286Y-86093225D01*
X16839286Y-86093225D02*
X16901191Y-86062273D01*
X16901191Y-86062273D02*
X17025000Y-86062273D01*
X17025000Y-86062273D02*
X17086905Y-86093225D01*
X17396428Y-86495606D02*
X17396428Y-86062273D01*
X17396428Y-86186082D02*
X17427381Y-86124177D01*
X17427381Y-86124177D02*
X17458333Y-86093225D01*
X17458333Y-86093225D02*
X17520238Y-86062273D01*
X17520238Y-86062273D02*
X17582143Y-86062273D01*
X18046428Y-86464654D02*
X17984524Y-86495606D01*
X17984524Y-86495606D02*
X17860714Y-86495606D01*
X17860714Y-86495606D02*
X17798809Y-86464654D01*
X17798809Y-86464654D02*
X17767857Y-86402749D01*
X17767857Y-86402749D02*
X17767857Y-86155130D01*
X17767857Y-86155130D02*
X17798809Y-86093225D01*
X17798809Y-86093225D02*
X17860714Y-86062273D01*
X17860714Y-86062273D02*
X17984524Y-86062273D01*
X17984524Y-86062273D02*
X18046428Y-86093225D01*
X18046428Y-86093225D02*
X18077381Y-86155130D01*
X18077381Y-86155130D02*
X18077381Y-86217034D01*
X18077381Y-86217034D02*
X17767857Y-86278939D01*
X18603571Y-86464654D02*
X18541667Y-86495606D01*
X18541667Y-86495606D02*
X18417857Y-86495606D01*
X18417857Y-86495606D02*
X18355952Y-86464654D01*
X18355952Y-86464654D02*
X18325000Y-86402749D01*
X18325000Y-86402749D02*
X18325000Y-86155130D01*
X18325000Y-86155130D02*
X18355952Y-86093225D01*
X18355952Y-86093225D02*
X18417857Y-86062273D01*
X18417857Y-86062273D02*
X18541667Y-86062273D01*
X18541667Y-86062273D02*
X18603571Y-86093225D01*
X18603571Y-86093225D02*
X18634524Y-86155130D01*
X18634524Y-86155130D02*
X18634524Y-86217034D01*
X18634524Y-86217034D02*
X18325000Y-86278939D01*
X18913095Y-86062273D02*
X18913095Y-86495606D01*
X18913095Y-86124177D02*
X18944048Y-86093225D01*
X18944048Y-86093225D02*
X19005953Y-86062273D01*
X19005953Y-86062273D02*
X19098810Y-86062273D01*
X19098810Y-86062273D02*
X19160714Y-86093225D01*
X19160714Y-86093225D02*
X19191667Y-86155130D01*
X19191667Y-86155130D02*
X19191667Y-86495606D01*
D14*
X27933333Y-83563855D02*
X28123809Y-84363855D01*
X28123809Y-84363855D02*
X28276190Y-83792426D01*
X28276190Y-83792426D02*
X28428571Y-84363855D01*
X28428571Y-84363855D02*
X28619048Y-83563855D01*
X28923810Y-84363855D02*
X28923810Y-83563855D01*
X29571428Y-83944807D02*
X29304762Y-83944807D01*
X29304762Y-84363855D02*
X29304762Y-83563855D01*
X29304762Y-83563855D02*
X29685714Y-83563855D01*
X29990476Y-84363855D02*
X29990476Y-83563855D01*
D13*
X28117857Y-86495606D02*
X28117857Y-85845606D01*
X28117857Y-86093225D02*
X28179762Y-86062273D01*
X28179762Y-86062273D02*
X28303572Y-86062273D01*
X28303572Y-86062273D02*
X28365476Y-86093225D01*
X28365476Y-86093225D02*
X28396429Y-86124177D01*
X28396429Y-86124177D02*
X28427381Y-86186082D01*
X28427381Y-86186082D02*
X28427381Y-86371796D01*
X28427381Y-86371796D02*
X28396429Y-86433701D01*
X28396429Y-86433701D02*
X28365476Y-86464654D01*
X28365476Y-86464654D02*
X28303572Y-86495606D01*
X28303572Y-86495606D02*
X28179762Y-86495606D01*
X28179762Y-86495606D02*
X28117857Y-86464654D01*
X28798810Y-86495606D02*
X28736905Y-86464654D01*
X28736905Y-86464654D02*
X28705952Y-86402749D01*
X28705952Y-86402749D02*
X28705952Y-85845606D01*
X29325000Y-86062273D02*
X29325000Y-86495606D01*
X29046428Y-86062273D02*
X29046428Y-86402749D01*
X29046428Y-86402749D02*
X29077381Y-86464654D01*
X29077381Y-86464654D02*
X29139286Y-86495606D01*
X29139286Y-86495606D02*
X29232143Y-86495606D01*
X29232143Y-86495606D02*
X29294047Y-86464654D01*
X29294047Y-86464654D02*
X29325000Y-86433701D01*
X29882142Y-86464654D02*
X29820238Y-86495606D01*
X29820238Y-86495606D02*
X29696428Y-86495606D01*
X29696428Y-86495606D02*
X29634523Y-86464654D01*
X29634523Y-86464654D02*
X29603571Y-86402749D01*
X29603571Y-86402749D02*
X29603571Y-86155130D01*
X29603571Y-86155130D02*
X29634523Y-86093225D01*
X29634523Y-86093225D02*
X29696428Y-86062273D01*
X29696428Y-86062273D02*
X29820238Y-86062273D01*
X29820238Y-86062273D02*
X29882142Y-86093225D01*
X29882142Y-86093225D02*
X29913095Y-86155130D01*
X29913095Y-86155130D02*
X29913095Y-86217034D01*
X29913095Y-86217034D02*
X29603571Y-86278939D01*
D14*
X39257142Y-83944807D02*
X39371428Y-83982902D01*
X39371428Y-83982902D02*
X39409523Y-84020998D01*
X39409523Y-84020998D02*
X39447619Y-84097188D01*
X39447619Y-84097188D02*
X39447619Y-84211474D01*
X39447619Y-84211474D02*
X39409523Y-84287664D01*
X39409523Y-84287664D02*
X39371428Y-84325760D01*
X39371428Y-84325760D02*
X39295238Y-84363855D01*
X39295238Y-84363855D02*
X38990476Y-84363855D01*
X38990476Y-84363855D02*
X38990476Y-83563855D01*
X38990476Y-83563855D02*
X39257142Y-83563855D01*
X39257142Y-83563855D02*
X39333333Y-83601950D01*
X39333333Y-83601950D02*
X39371428Y-83640045D01*
X39371428Y-83640045D02*
X39409523Y-83716236D01*
X39409523Y-83716236D02*
X39409523Y-83792426D01*
X39409523Y-83792426D02*
X39371428Y-83868617D01*
X39371428Y-83868617D02*
X39333333Y-83906712D01*
X39333333Y-83906712D02*
X39257142Y-83944807D01*
X39257142Y-83944807D02*
X38990476Y-83944807D01*
X39790476Y-83563855D02*
X39790476Y-84211474D01*
X39790476Y-84211474D02*
X39828571Y-84287664D01*
X39828571Y-84287664D02*
X39866666Y-84325760D01*
X39866666Y-84325760D02*
X39942857Y-84363855D01*
X39942857Y-84363855D02*
X40095238Y-84363855D01*
X40095238Y-84363855D02*
X40171428Y-84325760D01*
X40171428Y-84325760D02*
X40209523Y-84287664D01*
X40209523Y-84287664D02*
X40247619Y-84211474D01*
X40247619Y-84211474D02*
X40247619Y-83563855D01*
X40590475Y-84325760D02*
X40704761Y-84363855D01*
X40704761Y-84363855D02*
X40895237Y-84363855D01*
X40895237Y-84363855D02*
X40971428Y-84325760D01*
X40971428Y-84325760D02*
X41009523Y-84287664D01*
X41009523Y-84287664D02*
X41047618Y-84211474D01*
X41047618Y-84211474D02*
X41047618Y-84135283D01*
X41047618Y-84135283D02*
X41009523Y-84059093D01*
X41009523Y-84059093D02*
X40971428Y-84020998D01*
X40971428Y-84020998D02*
X40895237Y-83982902D01*
X40895237Y-83982902D02*
X40742856Y-83944807D01*
X40742856Y-83944807D02*
X40666666Y-83906712D01*
X40666666Y-83906712D02*
X40628571Y-83868617D01*
X40628571Y-83868617D02*
X40590475Y-83792426D01*
X40590475Y-83792426D02*
X40590475Y-83716236D01*
X40590475Y-83716236D02*
X40628571Y-83640045D01*
X40628571Y-83640045D02*
X40666666Y-83601950D01*
X40666666Y-83601950D02*
X40742856Y-83563855D01*
X40742856Y-83563855D02*
X40933333Y-83563855D01*
X40933333Y-83563855D02*
X41047618Y-83601950D01*
D13*
X39086905Y-86062273D02*
X39086905Y-86588463D01*
X39086905Y-86588463D02*
X39055952Y-86650368D01*
X39055952Y-86650368D02*
X39025000Y-86681320D01*
X39025000Y-86681320D02*
X38963095Y-86712273D01*
X38963095Y-86712273D02*
X38870238Y-86712273D01*
X38870238Y-86712273D02*
X38808333Y-86681320D01*
X39086905Y-86464654D02*
X39025000Y-86495606D01*
X39025000Y-86495606D02*
X38901191Y-86495606D01*
X38901191Y-86495606D02*
X38839286Y-86464654D01*
X38839286Y-86464654D02*
X38808333Y-86433701D01*
X38808333Y-86433701D02*
X38777381Y-86371796D01*
X38777381Y-86371796D02*
X38777381Y-86186082D01*
X38777381Y-86186082D02*
X38808333Y-86124177D01*
X38808333Y-86124177D02*
X38839286Y-86093225D01*
X38839286Y-86093225D02*
X38901191Y-86062273D01*
X38901191Y-86062273D02*
X39025000Y-86062273D01*
X39025000Y-86062273D02*
X39086905Y-86093225D01*
X39396428Y-86495606D02*
X39396428Y-86062273D01*
X39396428Y-86186082D02*
X39427381Y-86124177D01*
X39427381Y-86124177D02*
X39458333Y-86093225D01*
X39458333Y-86093225D02*
X39520238Y-86062273D01*
X39520238Y-86062273D02*
X39582143Y-86062273D01*
X40046428Y-86464654D02*
X39984524Y-86495606D01*
X39984524Y-86495606D02*
X39860714Y-86495606D01*
X39860714Y-86495606D02*
X39798809Y-86464654D01*
X39798809Y-86464654D02*
X39767857Y-86402749D01*
X39767857Y-86402749D02*
X39767857Y-86155130D01*
X39767857Y-86155130D02*
X39798809Y-86093225D01*
X39798809Y-86093225D02*
X39860714Y-86062273D01*
X39860714Y-86062273D02*
X39984524Y-86062273D01*
X39984524Y-86062273D02*
X40046428Y-86093225D01*
X40046428Y-86093225D02*
X40077381Y-86155130D01*
X40077381Y-86155130D02*
X40077381Y-86217034D01*
X40077381Y-86217034D02*
X39767857Y-86278939D01*
X40603571Y-86464654D02*
X40541667Y-86495606D01*
X40541667Y-86495606D02*
X40417857Y-86495606D01*
X40417857Y-86495606D02*
X40355952Y-86464654D01*
X40355952Y-86464654D02*
X40325000Y-86402749D01*
X40325000Y-86402749D02*
X40325000Y-86155130D01*
X40325000Y-86155130D02*
X40355952Y-86093225D01*
X40355952Y-86093225D02*
X40417857Y-86062273D01*
X40417857Y-86062273D02*
X40541667Y-86062273D01*
X40541667Y-86062273D02*
X40603571Y-86093225D01*
X40603571Y-86093225D02*
X40634524Y-86155130D01*
X40634524Y-86155130D02*
X40634524Y-86217034D01*
X40634524Y-86217034D02*
X40325000Y-86278939D01*
X40913095Y-86062273D02*
X40913095Y-86495606D01*
X40913095Y-86124177D02*
X40944048Y-86093225D01*
X40944048Y-86093225D02*
X41005953Y-86062273D01*
X41005953Y-86062273D02*
X41098810Y-86062273D01*
X41098810Y-86062273D02*
X41160714Y-86093225D01*
X41160714Y-86093225D02*
X41191667Y-86155130D01*
X41191667Y-86155130D02*
X41191667Y-86495606D01*
D14*
X49723809Y-83944807D02*
X49457143Y-83944807D01*
X49457143Y-84363855D02*
X49457143Y-83563855D01*
X49457143Y-83563855D02*
X49838095Y-83563855D01*
X50104761Y-84135283D02*
X50485714Y-84135283D01*
X50028571Y-84363855D02*
X50295238Y-83563855D01*
X50295238Y-83563855D02*
X50561904Y-84363855D01*
X50828571Y-83563855D02*
X50828571Y-84211474D01*
X50828571Y-84211474D02*
X50866666Y-84287664D01*
X50866666Y-84287664D02*
X50904761Y-84325760D01*
X50904761Y-84325760D02*
X50980952Y-84363855D01*
X50980952Y-84363855D02*
X51133333Y-84363855D01*
X51133333Y-84363855D02*
X51209523Y-84325760D01*
X51209523Y-84325760D02*
X51247618Y-84287664D01*
X51247618Y-84287664D02*
X51285714Y-84211474D01*
X51285714Y-84211474D02*
X51285714Y-83563855D01*
X52047618Y-84363855D02*
X51666666Y-84363855D01*
X51666666Y-84363855D02*
X51666666Y-83563855D01*
X52199999Y-83563855D02*
X52657142Y-83563855D01*
X52428570Y-84363855D02*
X52428570Y-83563855D01*
D13*
X50380952Y-86495606D02*
X50380952Y-86062273D01*
X50380952Y-86186082D02*
X50411905Y-86124177D01*
X50411905Y-86124177D02*
X50442857Y-86093225D01*
X50442857Y-86093225D02*
X50504762Y-86062273D01*
X50504762Y-86062273D02*
X50566667Y-86062273D01*
X51030952Y-86464654D02*
X50969048Y-86495606D01*
X50969048Y-86495606D02*
X50845238Y-86495606D01*
X50845238Y-86495606D02*
X50783333Y-86464654D01*
X50783333Y-86464654D02*
X50752381Y-86402749D01*
X50752381Y-86402749D02*
X50752381Y-86155130D01*
X50752381Y-86155130D02*
X50783333Y-86093225D01*
X50783333Y-86093225D02*
X50845238Y-86062273D01*
X50845238Y-86062273D02*
X50969048Y-86062273D01*
X50969048Y-86062273D02*
X51030952Y-86093225D01*
X51030952Y-86093225D02*
X51061905Y-86155130D01*
X51061905Y-86155130D02*
X51061905Y-86217034D01*
X51061905Y-86217034D02*
X50752381Y-86278939D01*
X51619048Y-86495606D02*
X51619048Y-85845606D01*
X51619048Y-86464654D02*
X51557143Y-86495606D01*
X51557143Y-86495606D02*
X51433334Y-86495606D01*
X51433334Y-86495606D02*
X51371429Y-86464654D01*
X51371429Y-86464654D02*
X51340476Y-86433701D01*
X51340476Y-86433701D02*
X51309524Y-86371796D01*
X51309524Y-86371796D02*
X51309524Y-86186082D01*
X51309524Y-86186082D02*
X51340476Y-86124177D01*
X51340476Y-86124177D02*
X51371429Y-86093225D01*
X51371429Y-86093225D02*
X51433334Y-86062273D01*
X51433334Y-86062273D02*
X51557143Y-86062273D01*
X51557143Y-86062273D02*
X51619048Y-86093225D01*
D14*
X61390476Y-83563855D02*
X61847619Y-83563855D01*
X61619047Y-84363855D02*
X61619047Y-83563855D01*
X62038095Y-83563855D02*
X62571429Y-84363855D01*
X62571429Y-83563855D02*
X62038095Y-84363855D01*
D13*
X60591667Y-86062273D02*
X60746429Y-86495606D01*
X60901190Y-86062273D02*
X60746429Y-86495606D01*
X60746429Y-86495606D02*
X60684524Y-86650368D01*
X60684524Y-86650368D02*
X60653571Y-86681320D01*
X60653571Y-86681320D02*
X60591667Y-86712273D01*
X61396428Y-86464654D02*
X61334524Y-86495606D01*
X61334524Y-86495606D02*
X61210714Y-86495606D01*
X61210714Y-86495606D02*
X61148809Y-86464654D01*
X61148809Y-86464654D02*
X61117857Y-86402749D01*
X61117857Y-86402749D02*
X61117857Y-86155130D01*
X61117857Y-86155130D02*
X61148809Y-86093225D01*
X61148809Y-86093225D02*
X61210714Y-86062273D01*
X61210714Y-86062273D02*
X61334524Y-86062273D01*
X61334524Y-86062273D02*
X61396428Y-86093225D01*
X61396428Y-86093225D02*
X61427381Y-86155130D01*
X61427381Y-86155130D02*
X61427381Y-86217034D01*
X61427381Y-86217034D02*
X61117857Y-86278939D01*
X61798810Y-86495606D02*
X61736905Y-86464654D01*
X61736905Y-86464654D02*
X61705952Y-86402749D01*
X61705952Y-86402749D02*
X61705952Y-85845606D01*
X62139286Y-86495606D02*
X62077381Y-86464654D01*
X62077381Y-86464654D02*
X62046428Y-86402749D01*
X62046428Y-86402749D02*
X62046428Y-85845606D01*
X62479762Y-86495606D02*
X62417857Y-86464654D01*
X62417857Y-86464654D02*
X62386904Y-86433701D01*
X62386904Y-86433701D02*
X62355952Y-86371796D01*
X62355952Y-86371796D02*
X62355952Y-86186082D01*
X62355952Y-86186082D02*
X62386904Y-86124177D01*
X62386904Y-86124177D02*
X62417857Y-86093225D01*
X62417857Y-86093225D02*
X62479762Y-86062273D01*
X62479762Y-86062273D02*
X62572619Y-86062273D01*
X62572619Y-86062273D02*
X62634523Y-86093225D01*
X62634523Y-86093225D02*
X62665476Y-86124177D01*
X62665476Y-86124177D02*
X62696428Y-86186082D01*
X62696428Y-86186082D02*
X62696428Y-86371796D01*
X62696428Y-86371796D02*
X62665476Y-86433701D01*
X62665476Y-86433701D02*
X62634523Y-86464654D01*
X62634523Y-86464654D02*
X62572619Y-86495606D01*
X62572619Y-86495606D02*
X62479762Y-86495606D01*
X62913095Y-86062273D02*
X63036904Y-86495606D01*
X63036904Y-86495606D02*
X63160714Y-86186082D01*
X63160714Y-86186082D02*
X63284523Y-86495606D01*
X63284523Y-86495606D02*
X63408333Y-86062273D01*
D15*
X80018373Y-62633332D02*
X80518373Y-62633332D01*
X80518373Y-62633332D02*
X80618373Y-62666665D01*
X80618373Y-62666665D02*
X80685040Y-62733332D01*
X80685040Y-62733332D02*
X80718373Y-62833332D01*
X80718373Y-62833332D02*
X80718373Y-62899999D01*
X80251706Y-61999999D02*
X80718373Y-61999999D01*
X79985040Y-62166666D02*
X80485040Y-62333332D01*
X80485040Y-62333332D02*
X80485040Y-61899999D01*
X80351706Y-61099999D02*
X80351706Y-60866666D01*
X80718373Y-60766666D02*
X80718373Y-61099999D01*
X80718373Y-61099999D02*
X80018373Y-61099999D01*
X80018373Y-61099999D02*
X80018373Y-60766666D01*
X80018373Y-60533333D02*
X80718373Y-60066666D01*
X80018373Y-60066666D02*
X80718373Y-60533333D01*
X80018373Y-59899999D02*
X80018373Y-59499999D01*
X80718373Y-59699999D02*
X80018373Y-59699999D01*
X80718373Y-58400000D02*
X80718373Y-58733333D01*
X80718373Y-58733333D02*
X80018373Y-58733333D01*
X80351706Y-58166666D02*
X80351706Y-57933333D01*
X80718373Y-57833333D02*
X80718373Y-58166666D01*
X80718373Y-58166666D02*
X80018373Y-58166666D01*
X80018373Y-58166666D02*
X80018373Y-57833333D01*
X80718373Y-57533333D02*
X80018373Y-57533333D01*
X80018373Y-57533333D02*
X80018373Y-57366666D01*
X80018373Y-57366666D02*
X80051706Y-57266666D01*
X80051706Y-57266666D02*
X80118373Y-57200000D01*
X80118373Y-57200000D02*
X80185040Y-57166666D01*
X80185040Y-57166666D02*
X80318373Y-57133333D01*
X80318373Y-57133333D02*
X80418373Y-57133333D01*
X80418373Y-57133333D02*
X80551706Y-57166666D01*
X80551706Y-57166666D02*
X80618373Y-57200000D01*
X80618373Y-57200000D02*
X80685040Y-57266666D01*
X80685040Y-57266666D02*
X80718373Y-57366666D01*
X80718373Y-57366666D02*
X80718373Y-57533333D01*
D12*
X82962380Y-53691511D02*
X82903333Y-53661987D01*
X82903333Y-53661987D02*
X82814761Y-53661987D01*
X82814761Y-53661987D02*
X82726190Y-53691511D01*
X82726190Y-53691511D02*
X82667142Y-53750559D01*
X82667142Y-53750559D02*
X82637619Y-53809606D01*
X82637619Y-53809606D02*
X82608095Y-53927702D01*
X82608095Y-53927702D02*
X82608095Y-54016273D01*
X82608095Y-54016273D02*
X82637619Y-54134368D01*
X82637619Y-54134368D02*
X82667142Y-54193416D01*
X82667142Y-54193416D02*
X82726190Y-54252464D01*
X82726190Y-54252464D02*
X82814761Y-54281987D01*
X82814761Y-54281987D02*
X82873809Y-54281987D01*
X82873809Y-54281987D02*
X82962380Y-54252464D01*
X82962380Y-54252464D02*
X82991904Y-54222940D01*
X82991904Y-54222940D02*
X82991904Y-54016273D01*
X82991904Y-54016273D02*
X82873809Y-54016273D01*
X82637619Y-56821987D02*
X82637619Y-56201987D01*
X82637619Y-56201987D02*
X82873809Y-56201987D01*
X82873809Y-56201987D02*
X82932857Y-56231511D01*
X82932857Y-56231511D02*
X82962380Y-56261035D01*
X82962380Y-56261035D02*
X82991904Y-56320083D01*
X82991904Y-56320083D02*
X82991904Y-56408654D01*
X82991904Y-56408654D02*
X82962380Y-56467702D01*
X82962380Y-56467702D02*
X82932857Y-56497225D01*
X82932857Y-56497225D02*
X82873809Y-56526749D01*
X82873809Y-56526749D02*
X82637619Y-56526749D01*
X82534286Y-58741987D02*
X82681905Y-59361987D01*
X82681905Y-59361987D02*
X82800000Y-58919130D01*
X82800000Y-58919130D02*
X82918095Y-59361987D01*
X82918095Y-59361987D02*
X83065715Y-58741987D01*
X82844285Y-61577225D02*
X82932857Y-61606749D01*
X82932857Y-61606749D02*
X82962380Y-61636273D01*
X82962380Y-61636273D02*
X82991904Y-61695321D01*
X82991904Y-61695321D02*
X82991904Y-61783892D01*
X82991904Y-61783892D02*
X82962380Y-61842940D01*
X82962380Y-61842940D02*
X82932857Y-61872464D01*
X82932857Y-61872464D02*
X82873809Y-61901987D01*
X82873809Y-61901987D02*
X82637619Y-61901987D01*
X82637619Y-61901987D02*
X82637619Y-61281987D01*
X82637619Y-61281987D02*
X82844285Y-61281987D01*
X82844285Y-61281987D02*
X82903333Y-61311511D01*
X82903333Y-61311511D02*
X82932857Y-61341035D01*
X82932857Y-61341035D02*
X82962380Y-61400083D01*
X82962380Y-61400083D02*
X82962380Y-61459130D01*
X82962380Y-61459130D02*
X82932857Y-61518178D01*
X82932857Y-61518178D02*
X82903333Y-61547702D01*
X82903333Y-61547702D02*
X82844285Y-61577225D01*
X82844285Y-61577225D02*
X82637619Y-61577225D01*
X82888571Y-64117225D02*
X82681905Y-64117225D01*
X82681905Y-64441987D02*
X82681905Y-63821987D01*
X82681905Y-63821987D02*
X82977143Y-63821987D01*
X82622857Y-66361987D02*
X82977143Y-66361987D01*
X82800000Y-66981987D02*
X82800000Y-66361987D01*
D14*
X82428571Y-52263855D02*
X81971428Y-52263855D01*
X82200000Y-52263855D02*
X82200000Y-51463855D01*
X82200000Y-51463855D02*
X82123809Y-51578140D01*
X82123809Y-51578140D02*
X82047619Y-51654331D01*
X82047619Y-51654331D02*
X81971428Y-51692426D01*
D10*
X63619048Y-54454819D02*
X63619048Y-55264342D01*
X63619048Y-55264342D02*
X63666667Y-55359580D01*
X63666667Y-55359580D02*
X63714286Y-55407200D01*
X63714286Y-55407200D02*
X63809524Y-55454819D01*
X63809524Y-55454819D02*
X64000000Y-55454819D01*
X64000000Y-55454819D02*
X64095238Y-55407200D01*
X64095238Y-55407200D02*
X64142857Y-55359580D01*
X64142857Y-55359580D02*
X64190476Y-55264342D01*
X64190476Y-55264342D02*
X64190476Y-54454819D01*
X64619048Y-55407200D02*
X64761905Y-55454819D01*
X64761905Y-55454819D02*
X65000000Y-55454819D01*
X65000000Y-55454819D02*
X65095238Y-55407200D01*
X65095238Y-55407200D02*
X65142857Y-55359580D01*
X65142857Y-55359580D02*
X65190476Y-55264342D01*
X65190476Y-55264342D02*
X65190476Y-55169104D01*
X65190476Y-55169104D02*
X65142857Y-55073866D01*
X65142857Y-55073866D02*
X65095238Y-55026247D01*
X65095238Y-55026247D02*
X65000000Y-54978628D01*
X65000000Y-54978628D02*
X64809524Y-54931009D01*
X64809524Y-54931009D02*
X64714286Y-54883390D01*
X64714286Y-54883390D02*
X64666667Y-54835771D01*
X64666667Y-54835771D02*
X64619048Y-54740533D01*
X64619048Y-54740533D02*
X64619048Y-54645295D01*
X64619048Y-54645295D02*
X64666667Y-54550057D01*
X64666667Y-54550057D02*
X64714286Y-54502438D01*
X64714286Y-54502438D02*
X64809524Y-54454819D01*
X64809524Y-54454819D02*
X65047619Y-54454819D01*
X65047619Y-54454819D02*
X65190476Y-54502438D01*
X65952381Y-54931009D02*
X66095238Y-54978628D01*
X66095238Y-54978628D02*
X66142857Y-55026247D01*
X66142857Y-55026247D02*
X66190476Y-55121485D01*
X66190476Y-55121485D02*
X66190476Y-55264342D01*
X66190476Y-55264342D02*
X66142857Y-55359580D01*
X66142857Y-55359580D02*
X66095238Y-55407200D01*
X66095238Y-55407200D02*
X66000000Y-55454819D01*
X66000000Y-55454819D02*
X65619048Y-55454819D01*
X65619048Y-55454819D02*
X65619048Y-54454819D01*
X65619048Y-54454819D02*
X65952381Y-54454819D01*
X65952381Y-54454819D02*
X66047619Y-54502438D01*
X66047619Y-54502438D02*
X66095238Y-54550057D01*
X66095238Y-54550057D02*
X66142857Y-54645295D01*
X66142857Y-54645295D02*
X66142857Y-54740533D01*
X66142857Y-54740533D02*
X66095238Y-54835771D01*
X66095238Y-54835771D02*
X66047619Y-54883390D01*
X66047619Y-54883390D02*
X65952381Y-54931009D01*
X65952381Y-54931009D02*
X65619048Y-54931009D01*
X66619048Y-55073866D02*
X67380953Y-55073866D01*
X68428571Y-55359580D02*
X68380952Y-55407200D01*
X68380952Y-55407200D02*
X68238095Y-55454819D01*
X68238095Y-55454819D02*
X68142857Y-55454819D01*
X68142857Y-55454819D02*
X68000000Y-55407200D01*
X68000000Y-55407200D02*
X67904762Y-55311961D01*
X67904762Y-55311961D02*
X67857143Y-55216723D01*
X67857143Y-55216723D02*
X67809524Y-55026247D01*
X67809524Y-55026247D02*
X67809524Y-54883390D01*
X67809524Y-54883390D02*
X67857143Y-54692914D01*
X67857143Y-54692914D02*
X67904762Y-54597676D01*
X67904762Y-54597676D02*
X68000000Y-54502438D01*
X68000000Y-54502438D02*
X68142857Y-54454819D01*
X68142857Y-54454819D02*
X68238095Y-54454819D01*
X68238095Y-54454819D02*
X68380952Y-54502438D01*
X68380952Y-54502438D02*
X68428571Y-54550057D01*
X69619048Y-54788152D02*
X70380953Y-55073866D01*
X70380953Y-55073866D02*
X69619048Y-55359580D01*
X21169104Y-56142856D02*
X21169104Y-55666666D01*
X21454819Y-56238094D02*
X20454819Y-55904761D01*
X20454819Y-55904761D02*
X21454819Y-55571428D01*
X21454819Y-55238094D02*
X20454819Y-55238094D01*
X20454819Y-55238094D02*
X21454819Y-54666666D01*
X21454819Y-54666666D02*
X20454819Y-54666666D01*
X20454819Y-54333332D02*
X20454819Y-53761904D01*
X21454819Y-54047618D02*
X20454819Y-54047618D01*
D16*
X21758633Y-71866667D02*
X21758633Y-71433333D01*
X21758633Y-71433333D02*
X22025300Y-71666667D01*
X22025300Y-71666667D02*
X22025300Y-71566667D01*
X22025300Y-71566667D02*
X22058633Y-71500000D01*
X22058633Y-71500000D02*
X22091966Y-71466667D01*
X22091966Y-71466667D02*
X22158633Y-71433333D01*
X22158633Y-71433333D02*
X22325300Y-71433333D01*
X22325300Y-71433333D02*
X22391966Y-71466667D01*
X22391966Y-71466667D02*
X22425300Y-71500000D01*
X22425300Y-71500000D02*
X22458633Y-71566667D01*
X22458633Y-71566667D02*
X22458633Y-71766667D01*
X22458633Y-71766667D02*
X22425300Y-71833333D01*
X22425300Y-71833333D02*
X22391966Y-71866667D01*
X21758633Y-71233333D02*
X22458633Y-71000000D01*
X22458633Y-71000000D02*
X21758633Y-70766666D01*
X21758633Y-70600000D02*
X21758633Y-70166666D01*
X21758633Y-70166666D02*
X22025300Y-70400000D01*
X22025300Y-70400000D02*
X22025300Y-70300000D01*
X22025300Y-70300000D02*
X22058633Y-70233333D01*
X22058633Y-70233333D02*
X22091966Y-70200000D01*
X22091966Y-70200000D02*
X22158633Y-70166666D01*
X22158633Y-70166666D02*
X22325300Y-70166666D01*
X22325300Y-70166666D02*
X22391966Y-70200000D01*
X22391966Y-70200000D02*
X22425300Y-70233333D01*
X22425300Y-70233333D02*
X22458633Y-70300000D01*
X22458633Y-70300000D02*
X22458633Y-70500000D01*
X22458633Y-70500000D02*
X22425300Y-70566666D01*
X22425300Y-70566666D02*
X22391966Y-70600000D01*
X24631966Y-71516666D02*
X24631966Y-71283333D01*
X24998633Y-71183333D02*
X24998633Y-71516666D01*
X24998633Y-71516666D02*
X24298633Y-71516666D01*
X24298633Y-71516666D02*
X24298633Y-71183333D01*
X24998633Y-70883333D02*
X24298633Y-70883333D01*
X24298633Y-70883333D02*
X24998633Y-70483333D01*
X24998633Y-70483333D02*
X24298633Y-70483333D01*
X27538633Y-72033333D02*
X26838633Y-72033333D01*
X26838633Y-71566667D02*
X26838633Y-71433333D01*
X26838633Y-71433333D02*
X26871966Y-71366667D01*
X26871966Y-71366667D02*
X26938633Y-71300000D01*
X26938633Y-71300000D02*
X27071966Y-71266667D01*
X27071966Y-71266667D02*
X27305300Y-71266667D01*
X27305300Y-71266667D02*
X27438633Y-71300000D01*
X27438633Y-71300000D02*
X27505300Y-71366667D01*
X27505300Y-71366667D02*
X27538633Y-71433333D01*
X27538633Y-71433333D02*
X27538633Y-71566667D01*
X27538633Y-71566667D02*
X27505300Y-71633333D01*
X27505300Y-71633333D02*
X27438633Y-71700000D01*
X27438633Y-71700000D02*
X27305300Y-71733333D01*
X27305300Y-71733333D02*
X27071966Y-71733333D01*
X27071966Y-71733333D02*
X26938633Y-71700000D01*
X26938633Y-71700000D02*
X26871966Y-71633333D01*
X26871966Y-71633333D02*
X26838633Y-71566667D01*
X26838633Y-71033334D02*
X26838633Y-70600000D01*
X26838633Y-70600000D02*
X27105300Y-70833334D01*
X27105300Y-70833334D02*
X27105300Y-70733334D01*
X27105300Y-70733334D02*
X27138633Y-70666667D01*
X27138633Y-70666667D02*
X27171966Y-70633334D01*
X27171966Y-70633334D02*
X27238633Y-70600000D01*
X27238633Y-70600000D02*
X27405300Y-70600000D01*
X27405300Y-70600000D02*
X27471966Y-70633334D01*
X27471966Y-70633334D02*
X27505300Y-70666667D01*
X27505300Y-70666667D02*
X27538633Y-70733334D01*
X27538633Y-70733334D02*
X27538633Y-70933334D01*
X27538633Y-70933334D02*
X27505300Y-71000000D01*
X27505300Y-71000000D02*
X27471966Y-71033334D01*
X26838633Y-70000000D02*
X26838633Y-70133333D01*
X26838633Y-70133333D02*
X26871966Y-70200000D01*
X26871966Y-70200000D02*
X26905300Y-70233333D01*
X26905300Y-70233333D02*
X27005300Y-70300000D01*
X27005300Y-70300000D02*
X27138633Y-70333333D01*
X27138633Y-70333333D02*
X27405300Y-70333333D01*
X27405300Y-70333333D02*
X27471966Y-70300000D01*
X27471966Y-70300000D02*
X27505300Y-70266667D01*
X27505300Y-70266667D02*
X27538633Y-70200000D01*
X27538633Y-70200000D02*
X27538633Y-70066667D01*
X27538633Y-70066667D02*
X27505300Y-70000000D01*
X27505300Y-70000000D02*
X27471966Y-69966667D01*
X27471966Y-69966667D02*
X27405300Y-69933333D01*
X27405300Y-69933333D02*
X27238633Y-69933333D01*
X27238633Y-69933333D02*
X27171966Y-69966667D01*
X27171966Y-69966667D02*
X27138633Y-70000000D01*
X27138633Y-70000000D02*
X27105300Y-70066667D01*
X27105300Y-70066667D02*
X27105300Y-70200000D01*
X27105300Y-70200000D02*
X27138633Y-70266667D01*
X27138633Y-70266667D02*
X27171966Y-70300000D01*
X27171966Y-70300000D02*
X27238633Y-70333333D01*
X30078633Y-72033333D02*
X29378633Y-72033333D01*
X29378633Y-71566667D02*
X29378633Y-71433333D01*
X29378633Y-71433333D02*
X29411966Y-71366667D01*
X29411966Y-71366667D02*
X29478633Y-71300000D01*
X29478633Y-71300000D02*
X29611966Y-71266667D01*
X29611966Y-71266667D02*
X29845300Y-71266667D01*
X29845300Y-71266667D02*
X29978633Y-71300000D01*
X29978633Y-71300000D02*
X30045300Y-71366667D01*
X30045300Y-71366667D02*
X30078633Y-71433333D01*
X30078633Y-71433333D02*
X30078633Y-71566667D01*
X30078633Y-71566667D02*
X30045300Y-71633333D01*
X30045300Y-71633333D02*
X29978633Y-71700000D01*
X29978633Y-71700000D02*
X29845300Y-71733333D01*
X29845300Y-71733333D02*
X29611966Y-71733333D01*
X29611966Y-71733333D02*
X29478633Y-71700000D01*
X29478633Y-71700000D02*
X29411966Y-71633333D01*
X29411966Y-71633333D02*
X29378633Y-71566667D01*
X29378633Y-71033334D02*
X29378633Y-70600000D01*
X29378633Y-70600000D02*
X29645300Y-70833334D01*
X29645300Y-70833334D02*
X29645300Y-70733334D01*
X29645300Y-70733334D02*
X29678633Y-70666667D01*
X29678633Y-70666667D02*
X29711966Y-70633334D01*
X29711966Y-70633334D02*
X29778633Y-70600000D01*
X29778633Y-70600000D02*
X29945300Y-70600000D01*
X29945300Y-70600000D02*
X30011966Y-70633334D01*
X30011966Y-70633334D02*
X30045300Y-70666667D01*
X30045300Y-70666667D02*
X30078633Y-70733334D01*
X30078633Y-70733334D02*
X30078633Y-70933334D01*
X30078633Y-70933334D02*
X30045300Y-71000000D01*
X30045300Y-71000000D02*
X30011966Y-71033334D01*
X30078633Y-70266667D02*
X30078633Y-70133333D01*
X30078633Y-70133333D02*
X30045300Y-70066667D01*
X30045300Y-70066667D02*
X30011966Y-70033333D01*
X30011966Y-70033333D02*
X29911966Y-69966667D01*
X29911966Y-69966667D02*
X29778633Y-69933333D01*
X29778633Y-69933333D02*
X29511966Y-69933333D01*
X29511966Y-69933333D02*
X29445300Y-69966667D01*
X29445300Y-69966667D02*
X29411966Y-70000000D01*
X29411966Y-70000000D02*
X29378633Y-70066667D01*
X29378633Y-70066667D02*
X29378633Y-70200000D01*
X29378633Y-70200000D02*
X29411966Y-70266667D01*
X29411966Y-70266667D02*
X29445300Y-70300000D01*
X29445300Y-70300000D02*
X29511966Y-70333333D01*
X29511966Y-70333333D02*
X29678633Y-70333333D01*
X29678633Y-70333333D02*
X29745300Y-70300000D01*
X29745300Y-70300000D02*
X29778633Y-70266667D01*
X29778633Y-70266667D02*
X29811966Y-70200000D01*
X29811966Y-70200000D02*
X29811966Y-70066667D01*
X29811966Y-70066667D02*
X29778633Y-70000000D01*
X29778633Y-70000000D02*
X29745300Y-69966667D01*
X29745300Y-69966667D02*
X29678633Y-69933333D01*
X32618633Y-72033333D02*
X31918633Y-72033333D01*
X31918633Y-71566667D02*
X31918633Y-71433333D01*
X31918633Y-71433333D02*
X31951966Y-71366667D01*
X31951966Y-71366667D02*
X32018633Y-71300000D01*
X32018633Y-71300000D02*
X32151966Y-71266667D01*
X32151966Y-71266667D02*
X32385300Y-71266667D01*
X32385300Y-71266667D02*
X32518633Y-71300000D01*
X32518633Y-71300000D02*
X32585300Y-71366667D01*
X32585300Y-71366667D02*
X32618633Y-71433333D01*
X32618633Y-71433333D02*
X32618633Y-71566667D01*
X32618633Y-71566667D02*
X32585300Y-71633333D01*
X32585300Y-71633333D02*
X32518633Y-71700000D01*
X32518633Y-71700000D02*
X32385300Y-71733333D01*
X32385300Y-71733333D02*
X32151966Y-71733333D01*
X32151966Y-71733333D02*
X32018633Y-71700000D01*
X32018633Y-71700000D02*
X31951966Y-71633333D01*
X31951966Y-71633333D02*
X31918633Y-71566667D01*
X31918633Y-71033334D02*
X31918633Y-70600000D01*
X31918633Y-70600000D02*
X32185300Y-70833334D01*
X32185300Y-70833334D02*
X32185300Y-70733334D01*
X32185300Y-70733334D02*
X32218633Y-70666667D01*
X32218633Y-70666667D02*
X32251966Y-70633334D01*
X32251966Y-70633334D02*
X32318633Y-70600000D01*
X32318633Y-70600000D02*
X32485300Y-70600000D01*
X32485300Y-70600000D02*
X32551966Y-70633334D01*
X32551966Y-70633334D02*
X32585300Y-70666667D01*
X32585300Y-70666667D02*
X32618633Y-70733334D01*
X32618633Y-70733334D02*
X32618633Y-70933334D01*
X32618633Y-70933334D02*
X32585300Y-71000000D01*
X32585300Y-71000000D02*
X32551966Y-71033334D01*
X32151966Y-70000000D02*
X32618633Y-70000000D01*
X31885300Y-70166667D02*
X32385300Y-70333333D01*
X32385300Y-70333333D02*
X32385300Y-69900000D01*
X35158633Y-72033333D02*
X34458633Y-72033333D01*
X34458633Y-71566667D02*
X34458633Y-71433333D01*
X34458633Y-71433333D02*
X34491966Y-71366667D01*
X34491966Y-71366667D02*
X34558633Y-71300000D01*
X34558633Y-71300000D02*
X34691966Y-71266667D01*
X34691966Y-71266667D02*
X34925300Y-71266667D01*
X34925300Y-71266667D02*
X35058633Y-71300000D01*
X35058633Y-71300000D02*
X35125300Y-71366667D01*
X35125300Y-71366667D02*
X35158633Y-71433333D01*
X35158633Y-71433333D02*
X35158633Y-71566667D01*
X35158633Y-71566667D02*
X35125300Y-71633333D01*
X35125300Y-71633333D02*
X35058633Y-71700000D01*
X35058633Y-71700000D02*
X34925300Y-71733333D01*
X34925300Y-71733333D02*
X34691966Y-71733333D01*
X34691966Y-71733333D02*
X34558633Y-71700000D01*
X34558633Y-71700000D02*
X34491966Y-71633333D01*
X34491966Y-71633333D02*
X34458633Y-71566667D01*
X34458633Y-71033334D02*
X34458633Y-70600000D01*
X34458633Y-70600000D02*
X34725300Y-70833334D01*
X34725300Y-70833334D02*
X34725300Y-70733334D01*
X34725300Y-70733334D02*
X34758633Y-70666667D01*
X34758633Y-70666667D02*
X34791966Y-70633334D01*
X34791966Y-70633334D02*
X34858633Y-70600000D01*
X34858633Y-70600000D02*
X35025300Y-70600000D01*
X35025300Y-70600000D02*
X35091966Y-70633334D01*
X35091966Y-70633334D02*
X35125300Y-70666667D01*
X35125300Y-70666667D02*
X35158633Y-70733334D01*
X35158633Y-70733334D02*
X35158633Y-70933334D01*
X35158633Y-70933334D02*
X35125300Y-71000000D01*
X35125300Y-71000000D02*
X35091966Y-71033334D01*
X34458633Y-69966667D02*
X34458633Y-70300000D01*
X34458633Y-70300000D02*
X34791966Y-70333333D01*
X34791966Y-70333333D02*
X34758633Y-70300000D01*
X34758633Y-70300000D02*
X34725300Y-70233333D01*
X34725300Y-70233333D02*
X34725300Y-70066667D01*
X34725300Y-70066667D02*
X34758633Y-70000000D01*
X34758633Y-70000000D02*
X34791966Y-69966667D01*
X34791966Y-69966667D02*
X34858633Y-69933333D01*
X34858633Y-69933333D02*
X35025300Y-69933333D01*
X35025300Y-69933333D02*
X35091966Y-69966667D01*
X35091966Y-69966667D02*
X35125300Y-70000000D01*
X35125300Y-70000000D02*
X35158633Y-70066667D01*
X35158633Y-70066667D02*
X35158633Y-70233333D01*
X35158633Y-70233333D02*
X35125300Y-70300000D01*
X35125300Y-70300000D02*
X35091966Y-70333333D01*
X37698633Y-72033333D02*
X36998633Y-72033333D01*
X36998633Y-71566667D02*
X36998633Y-71433333D01*
X36998633Y-71433333D02*
X37031966Y-71366667D01*
X37031966Y-71366667D02*
X37098633Y-71300000D01*
X37098633Y-71300000D02*
X37231966Y-71266667D01*
X37231966Y-71266667D02*
X37465300Y-71266667D01*
X37465300Y-71266667D02*
X37598633Y-71300000D01*
X37598633Y-71300000D02*
X37665300Y-71366667D01*
X37665300Y-71366667D02*
X37698633Y-71433333D01*
X37698633Y-71433333D02*
X37698633Y-71566667D01*
X37698633Y-71566667D02*
X37665300Y-71633333D01*
X37665300Y-71633333D02*
X37598633Y-71700000D01*
X37598633Y-71700000D02*
X37465300Y-71733333D01*
X37465300Y-71733333D02*
X37231966Y-71733333D01*
X37231966Y-71733333D02*
X37098633Y-71700000D01*
X37098633Y-71700000D02*
X37031966Y-71633333D01*
X37031966Y-71633333D02*
X36998633Y-71566667D01*
X36998633Y-71033334D02*
X36998633Y-70600000D01*
X36998633Y-70600000D02*
X37265300Y-70833334D01*
X37265300Y-70833334D02*
X37265300Y-70733334D01*
X37265300Y-70733334D02*
X37298633Y-70666667D01*
X37298633Y-70666667D02*
X37331966Y-70633334D01*
X37331966Y-70633334D02*
X37398633Y-70600000D01*
X37398633Y-70600000D02*
X37565300Y-70600000D01*
X37565300Y-70600000D02*
X37631966Y-70633334D01*
X37631966Y-70633334D02*
X37665300Y-70666667D01*
X37665300Y-70666667D02*
X37698633Y-70733334D01*
X37698633Y-70733334D02*
X37698633Y-70933334D01*
X37698633Y-70933334D02*
X37665300Y-71000000D01*
X37665300Y-71000000D02*
X37631966Y-71033334D01*
X37065300Y-70333333D02*
X37031966Y-70300000D01*
X37031966Y-70300000D02*
X36998633Y-70233333D01*
X36998633Y-70233333D02*
X36998633Y-70066667D01*
X36998633Y-70066667D02*
X37031966Y-70000000D01*
X37031966Y-70000000D02*
X37065300Y-69966667D01*
X37065300Y-69966667D02*
X37131966Y-69933333D01*
X37131966Y-69933333D02*
X37198633Y-69933333D01*
X37198633Y-69933333D02*
X37298633Y-69966667D01*
X37298633Y-69966667D02*
X37698633Y-70366667D01*
X37698633Y-70366667D02*
X37698633Y-69933333D01*
X40238633Y-72033333D02*
X39538633Y-72033333D01*
X39538633Y-71566667D02*
X39538633Y-71433333D01*
X39538633Y-71433333D02*
X39571966Y-71366667D01*
X39571966Y-71366667D02*
X39638633Y-71300000D01*
X39638633Y-71300000D02*
X39771966Y-71266667D01*
X39771966Y-71266667D02*
X40005300Y-71266667D01*
X40005300Y-71266667D02*
X40138633Y-71300000D01*
X40138633Y-71300000D02*
X40205300Y-71366667D01*
X40205300Y-71366667D02*
X40238633Y-71433333D01*
X40238633Y-71433333D02*
X40238633Y-71566667D01*
X40238633Y-71566667D02*
X40205300Y-71633333D01*
X40205300Y-71633333D02*
X40138633Y-71700000D01*
X40138633Y-71700000D02*
X40005300Y-71733333D01*
X40005300Y-71733333D02*
X39771966Y-71733333D01*
X39771966Y-71733333D02*
X39638633Y-71700000D01*
X39638633Y-71700000D02*
X39571966Y-71633333D01*
X39571966Y-71633333D02*
X39538633Y-71566667D01*
X39538633Y-71033334D02*
X39538633Y-70600000D01*
X39538633Y-70600000D02*
X39805300Y-70833334D01*
X39805300Y-70833334D02*
X39805300Y-70733334D01*
X39805300Y-70733334D02*
X39838633Y-70666667D01*
X39838633Y-70666667D02*
X39871966Y-70633334D01*
X39871966Y-70633334D02*
X39938633Y-70600000D01*
X39938633Y-70600000D02*
X40105300Y-70600000D01*
X40105300Y-70600000D02*
X40171966Y-70633334D01*
X40171966Y-70633334D02*
X40205300Y-70666667D01*
X40205300Y-70666667D02*
X40238633Y-70733334D01*
X40238633Y-70733334D02*
X40238633Y-70933334D01*
X40238633Y-70933334D02*
X40205300Y-71000000D01*
X40205300Y-71000000D02*
X40171966Y-71033334D01*
X39538633Y-70366667D02*
X39538633Y-69933333D01*
X39538633Y-69933333D02*
X39805300Y-70166667D01*
X39805300Y-70166667D02*
X39805300Y-70066667D01*
X39805300Y-70066667D02*
X39838633Y-70000000D01*
X39838633Y-70000000D02*
X39871966Y-69966667D01*
X39871966Y-69966667D02*
X39938633Y-69933333D01*
X39938633Y-69933333D02*
X40105300Y-69933333D01*
X40105300Y-69933333D02*
X40171966Y-69966667D01*
X40171966Y-69966667D02*
X40205300Y-70000000D01*
X40205300Y-70000000D02*
X40238633Y-70066667D01*
X40238633Y-70066667D02*
X40238633Y-70266667D01*
X40238633Y-70266667D02*
X40205300Y-70333333D01*
X40205300Y-70333333D02*
X40171966Y-70366667D01*
X42778633Y-72033333D02*
X42078633Y-72033333D01*
X42078633Y-71566667D02*
X42078633Y-71433333D01*
X42078633Y-71433333D02*
X42111966Y-71366667D01*
X42111966Y-71366667D02*
X42178633Y-71300000D01*
X42178633Y-71300000D02*
X42311966Y-71266667D01*
X42311966Y-71266667D02*
X42545300Y-71266667D01*
X42545300Y-71266667D02*
X42678633Y-71300000D01*
X42678633Y-71300000D02*
X42745300Y-71366667D01*
X42745300Y-71366667D02*
X42778633Y-71433333D01*
X42778633Y-71433333D02*
X42778633Y-71566667D01*
X42778633Y-71566667D02*
X42745300Y-71633333D01*
X42745300Y-71633333D02*
X42678633Y-71700000D01*
X42678633Y-71700000D02*
X42545300Y-71733333D01*
X42545300Y-71733333D02*
X42311966Y-71733333D01*
X42311966Y-71733333D02*
X42178633Y-71700000D01*
X42178633Y-71700000D02*
X42111966Y-71633333D01*
X42111966Y-71633333D02*
X42078633Y-71566667D01*
X42145300Y-71000000D02*
X42111966Y-70966667D01*
X42111966Y-70966667D02*
X42078633Y-70900000D01*
X42078633Y-70900000D02*
X42078633Y-70733334D01*
X42078633Y-70733334D02*
X42111966Y-70666667D01*
X42111966Y-70666667D02*
X42145300Y-70633334D01*
X42145300Y-70633334D02*
X42211966Y-70600000D01*
X42211966Y-70600000D02*
X42278633Y-70600000D01*
X42278633Y-70600000D02*
X42378633Y-70633334D01*
X42378633Y-70633334D02*
X42778633Y-71033334D01*
X42778633Y-71033334D02*
X42778633Y-70600000D01*
X42078633Y-69966667D02*
X42078633Y-70300000D01*
X42078633Y-70300000D02*
X42411966Y-70333333D01*
X42411966Y-70333333D02*
X42378633Y-70300000D01*
X42378633Y-70300000D02*
X42345300Y-70233333D01*
X42345300Y-70233333D02*
X42345300Y-70066667D01*
X42345300Y-70066667D02*
X42378633Y-70000000D01*
X42378633Y-70000000D02*
X42411966Y-69966667D01*
X42411966Y-69966667D02*
X42478633Y-69933333D01*
X42478633Y-69933333D02*
X42645300Y-69933333D01*
X42645300Y-69933333D02*
X42711966Y-69966667D01*
X42711966Y-69966667D02*
X42745300Y-70000000D01*
X42745300Y-70000000D02*
X42778633Y-70066667D01*
X42778633Y-70066667D02*
X42778633Y-70233333D01*
X42778633Y-70233333D02*
X42745300Y-70300000D01*
X42745300Y-70300000D02*
X42711966Y-70333333D01*
X45318633Y-72033333D02*
X44618633Y-72033333D01*
X44618633Y-71566667D02*
X44618633Y-71433333D01*
X44618633Y-71433333D02*
X44651966Y-71366667D01*
X44651966Y-71366667D02*
X44718633Y-71300000D01*
X44718633Y-71300000D02*
X44851966Y-71266667D01*
X44851966Y-71266667D02*
X45085300Y-71266667D01*
X45085300Y-71266667D02*
X45218633Y-71300000D01*
X45218633Y-71300000D02*
X45285300Y-71366667D01*
X45285300Y-71366667D02*
X45318633Y-71433333D01*
X45318633Y-71433333D02*
X45318633Y-71566667D01*
X45318633Y-71566667D02*
X45285300Y-71633333D01*
X45285300Y-71633333D02*
X45218633Y-71700000D01*
X45218633Y-71700000D02*
X45085300Y-71733333D01*
X45085300Y-71733333D02*
X44851966Y-71733333D01*
X44851966Y-71733333D02*
X44718633Y-71700000D01*
X44718633Y-71700000D02*
X44651966Y-71633333D01*
X44651966Y-71633333D02*
X44618633Y-71566667D01*
X44685300Y-71000000D02*
X44651966Y-70966667D01*
X44651966Y-70966667D02*
X44618633Y-70900000D01*
X44618633Y-70900000D02*
X44618633Y-70733334D01*
X44618633Y-70733334D02*
X44651966Y-70666667D01*
X44651966Y-70666667D02*
X44685300Y-70633334D01*
X44685300Y-70633334D02*
X44751966Y-70600000D01*
X44751966Y-70600000D02*
X44818633Y-70600000D01*
X44818633Y-70600000D02*
X44918633Y-70633334D01*
X44918633Y-70633334D02*
X45318633Y-71033334D01*
X45318633Y-71033334D02*
X45318633Y-70600000D01*
X44618633Y-70000000D02*
X44618633Y-70133333D01*
X44618633Y-70133333D02*
X44651966Y-70200000D01*
X44651966Y-70200000D02*
X44685300Y-70233333D01*
X44685300Y-70233333D02*
X44785300Y-70300000D01*
X44785300Y-70300000D02*
X44918633Y-70333333D01*
X44918633Y-70333333D02*
X45185300Y-70333333D01*
X45185300Y-70333333D02*
X45251966Y-70300000D01*
X45251966Y-70300000D02*
X45285300Y-70266667D01*
X45285300Y-70266667D02*
X45318633Y-70200000D01*
X45318633Y-70200000D02*
X45318633Y-70066667D01*
X45318633Y-70066667D02*
X45285300Y-70000000D01*
X45285300Y-70000000D02*
X45251966Y-69966667D01*
X45251966Y-69966667D02*
X45185300Y-69933333D01*
X45185300Y-69933333D02*
X45018633Y-69933333D01*
X45018633Y-69933333D02*
X44951966Y-69966667D01*
X44951966Y-69966667D02*
X44918633Y-70000000D01*
X44918633Y-70000000D02*
X44885300Y-70066667D01*
X44885300Y-70066667D02*
X44885300Y-70200000D01*
X44885300Y-70200000D02*
X44918633Y-70266667D01*
X44918633Y-70266667D02*
X44951966Y-70300000D01*
X44951966Y-70300000D02*
X45018633Y-70333333D01*
X47858633Y-72033333D02*
X47158633Y-72033333D01*
X47158633Y-71566667D02*
X47158633Y-71433333D01*
X47158633Y-71433333D02*
X47191966Y-71366667D01*
X47191966Y-71366667D02*
X47258633Y-71300000D01*
X47258633Y-71300000D02*
X47391966Y-71266667D01*
X47391966Y-71266667D02*
X47625300Y-71266667D01*
X47625300Y-71266667D02*
X47758633Y-71300000D01*
X47758633Y-71300000D02*
X47825300Y-71366667D01*
X47825300Y-71366667D02*
X47858633Y-71433333D01*
X47858633Y-71433333D02*
X47858633Y-71566667D01*
X47858633Y-71566667D02*
X47825300Y-71633333D01*
X47825300Y-71633333D02*
X47758633Y-71700000D01*
X47758633Y-71700000D02*
X47625300Y-71733333D01*
X47625300Y-71733333D02*
X47391966Y-71733333D01*
X47391966Y-71733333D02*
X47258633Y-71700000D01*
X47258633Y-71700000D02*
X47191966Y-71633333D01*
X47191966Y-71633333D02*
X47158633Y-71566667D01*
X47225300Y-71000000D02*
X47191966Y-70966667D01*
X47191966Y-70966667D02*
X47158633Y-70900000D01*
X47158633Y-70900000D02*
X47158633Y-70733334D01*
X47158633Y-70733334D02*
X47191966Y-70666667D01*
X47191966Y-70666667D02*
X47225300Y-70633334D01*
X47225300Y-70633334D02*
X47291966Y-70600000D01*
X47291966Y-70600000D02*
X47358633Y-70600000D01*
X47358633Y-70600000D02*
X47458633Y-70633334D01*
X47458633Y-70633334D02*
X47858633Y-71033334D01*
X47858633Y-71033334D02*
X47858633Y-70600000D01*
X47158633Y-70366667D02*
X47158633Y-69900000D01*
X47158633Y-69900000D02*
X47858633Y-70200000D01*
X50398633Y-72033333D02*
X49698633Y-72033333D01*
X49698633Y-71566667D02*
X49698633Y-71433333D01*
X49698633Y-71433333D02*
X49731966Y-71366667D01*
X49731966Y-71366667D02*
X49798633Y-71300000D01*
X49798633Y-71300000D02*
X49931966Y-71266667D01*
X49931966Y-71266667D02*
X50165300Y-71266667D01*
X50165300Y-71266667D02*
X50298633Y-71300000D01*
X50298633Y-71300000D02*
X50365300Y-71366667D01*
X50365300Y-71366667D02*
X50398633Y-71433333D01*
X50398633Y-71433333D02*
X50398633Y-71566667D01*
X50398633Y-71566667D02*
X50365300Y-71633333D01*
X50365300Y-71633333D02*
X50298633Y-71700000D01*
X50298633Y-71700000D02*
X50165300Y-71733333D01*
X50165300Y-71733333D02*
X49931966Y-71733333D01*
X49931966Y-71733333D02*
X49798633Y-71700000D01*
X49798633Y-71700000D02*
X49731966Y-71633333D01*
X49731966Y-71633333D02*
X49698633Y-71566667D01*
X50398633Y-70600000D02*
X50398633Y-71000000D01*
X50398633Y-70800000D02*
X49698633Y-70800000D01*
X49698633Y-70800000D02*
X49798633Y-70866667D01*
X49798633Y-70866667D02*
X49865300Y-70933334D01*
X49865300Y-70933334D02*
X49898633Y-71000000D01*
X49931966Y-70000000D02*
X50398633Y-70000000D01*
X49665300Y-70166667D02*
X50165300Y-70333333D01*
X50165300Y-70333333D02*
X50165300Y-69900000D01*
X52938633Y-72033333D02*
X52238633Y-72033333D01*
X52238633Y-71566667D02*
X52238633Y-71433333D01*
X52238633Y-71433333D02*
X52271966Y-71366667D01*
X52271966Y-71366667D02*
X52338633Y-71300000D01*
X52338633Y-71300000D02*
X52471966Y-71266667D01*
X52471966Y-71266667D02*
X52705300Y-71266667D01*
X52705300Y-71266667D02*
X52838633Y-71300000D01*
X52838633Y-71300000D02*
X52905300Y-71366667D01*
X52905300Y-71366667D02*
X52938633Y-71433333D01*
X52938633Y-71433333D02*
X52938633Y-71566667D01*
X52938633Y-71566667D02*
X52905300Y-71633333D01*
X52905300Y-71633333D02*
X52838633Y-71700000D01*
X52838633Y-71700000D02*
X52705300Y-71733333D01*
X52705300Y-71733333D02*
X52471966Y-71733333D01*
X52471966Y-71733333D02*
X52338633Y-71700000D01*
X52338633Y-71700000D02*
X52271966Y-71633333D01*
X52271966Y-71633333D02*
X52238633Y-71566667D01*
X52938633Y-70600000D02*
X52938633Y-71000000D01*
X52938633Y-70800000D02*
X52238633Y-70800000D01*
X52238633Y-70800000D02*
X52338633Y-70866667D01*
X52338633Y-70866667D02*
X52405300Y-70933334D01*
X52405300Y-70933334D02*
X52438633Y-71000000D01*
X52305300Y-70333333D02*
X52271966Y-70300000D01*
X52271966Y-70300000D02*
X52238633Y-70233333D01*
X52238633Y-70233333D02*
X52238633Y-70066667D01*
X52238633Y-70066667D02*
X52271966Y-70000000D01*
X52271966Y-70000000D02*
X52305300Y-69966667D01*
X52305300Y-69966667D02*
X52371966Y-69933333D01*
X52371966Y-69933333D02*
X52438633Y-69933333D01*
X52438633Y-69933333D02*
X52538633Y-69966667D01*
X52538633Y-69966667D02*
X52938633Y-70366667D01*
X52938633Y-70366667D02*
X52938633Y-69933333D01*
X54811966Y-71533332D02*
X54778633Y-71599999D01*
X54778633Y-71599999D02*
X54778633Y-71699999D01*
X54778633Y-71699999D02*
X54811966Y-71799999D01*
X54811966Y-71799999D02*
X54878633Y-71866666D01*
X54878633Y-71866666D02*
X54945300Y-71899999D01*
X54945300Y-71899999D02*
X55078633Y-71933332D01*
X55078633Y-71933332D02*
X55178633Y-71933332D01*
X55178633Y-71933332D02*
X55311966Y-71899999D01*
X55311966Y-71899999D02*
X55378633Y-71866666D01*
X55378633Y-71866666D02*
X55445300Y-71799999D01*
X55445300Y-71799999D02*
X55478633Y-71699999D01*
X55478633Y-71699999D02*
X55478633Y-71633332D01*
X55478633Y-71633332D02*
X55445300Y-71533332D01*
X55445300Y-71533332D02*
X55411966Y-71499999D01*
X55411966Y-71499999D02*
X55178633Y-71499999D01*
X55178633Y-71499999D02*
X55178633Y-71633332D01*
X55478633Y-71199999D02*
X54778633Y-71199999D01*
X54778633Y-71199999D02*
X55478633Y-70799999D01*
X55478633Y-70799999D02*
X54778633Y-70799999D01*
X55478633Y-70466666D02*
X54778633Y-70466666D01*
X54778633Y-70466666D02*
X54778633Y-70299999D01*
X54778633Y-70299999D02*
X54811966Y-70199999D01*
X54811966Y-70199999D02*
X54878633Y-70133333D01*
X54878633Y-70133333D02*
X54945300Y-70099999D01*
X54945300Y-70099999D02*
X55078633Y-70066666D01*
X55078633Y-70066666D02*
X55178633Y-70066666D01*
X55178633Y-70066666D02*
X55311966Y-70099999D01*
X55311966Y-70099999D02*
X55378633Y-70133333D01*
X55378633Y-70133333D02*
X55445300Y-70199999D01*
X55445300Y-70199999D02*
X55478633Y-70299999D01*
X55478633Y-70299999D02*
X55478633Y-70466666D01*
X58018633Y-72033333D02*
X57318633Y-72033333D01*
X57318633Y-71566667D02*
X57318633Y-71433333D01*
X57318633Y-71433333D02*
X57351966Y-71366667D01*
X57351966Y-71366667D02*
X57418633Y-71300000D01*
X57418633Y-71300000D02*
X57551966Y-71266667D01*
X57551966Y-71266667D02*
X57785300Y-71266667D01*
X57785300Y-71266667D02*
X57918633Y-71300000D01*
X57918633Y-71300000D02*
X57985300Y-71366667D01*
X57985300Y-71366667D02*
X58018633Y-71433333D01*
X58018633Y-71433333D02*
X58018633Y-71566667D01*
X58018633Y-71566667D02*
X57985300Y-71633333D01*
X57985300Y-71633333D02*
X57918633Y-71700000D01*
X57918633Y-71700000D02*
X57785300Y-71733333D01*
X57785300Y-71733333D02*
X57551966Y-71733333D01*
X57551966Y-71733333D02*
X57418633Y-71700000D01*
X57418633Y-71700000D02*
X57351966Y-71633333D01*
X57351966Y-71633333D02*
X57318633Y-71566667D01*
X58018633Y-70600000D02*
X58018633Y-71000000D01*
X58018633Y-70800000D02*
X57318633Y-70800000D01*
X57318633Y-70800000D02*
X57418633Y-70866667D01*
X57418633Y-70866667D02*
X57485300Y-70933334D01*
X57485300Y-70933334D02*
X57518633Y-71000000D01*
X57318633Y-70366667D02*
X57318633Y-69933333D01*
X57318633Y-69933333D02*
X57585300Y-70166667D01*
X57585300Y-70166667D02*
X57585300Y-70066667D01*
X57585300Y-70066667D02*
X57618633Y-70000000D01*
X57618633Y-70000000D02*
X57651966Y-69966667D01*
X57651966Y-69966667D02*
X57718633Y-69933333D01*
X57718633Y-69933333D02*
X57885300Y-69933333D01*
X57885300Y-69933333D02*
X57951966Y-69966667D01*
X57951966Y-69966667D02*
X57985300Y-70000000D01*
X57985300Y-70000000D02*
X58018633Y-70066667D01*
X58018633Y-70066667D02*
X58018633Y-70266667D01*
X58018633Y-70266667D02*
X57985300Y-70333333D01*
X57985300Y-70333333D02*
X57951966Y-70366667D01*
X60558633Y-71699999D02*
X59858633Y-71699999D01*
X59858633Y-71233333D02*
X59858633Y-71099999D01*
X59858633Y-71099999D02*
X59891966Y-71033333D01*
X59891966Y-71033333D02*
X59958633Y-70966666D01*
X59958633Y-70966666D02*
X60091966Y-70933333D01*
X60091966Y-70933333D02*
X60325300Y-70933333D01*
X60325300Y-70933333D02*
X60458633Y-70966666D01*
X60458633Y-70966666D02*
X60525300Y-71033333D01*
X60525300Y-71033333D02*
X60558633Y-71099999D01*
X60558633Y-71099999D02*
X60558633Y-71233333D01*
X60558633Y-71233333D02*
X60525300Y-71299999D01*
X60525300Y-71299999D02*
X60458633Y-71366666D01*
X60458633Y-71366666D02*
X60325300Y-71399999D01*
X60325300Y-71399999D02*
X60091966Y-71399999D01*
X60091966Y-71399999D02*
X59958633Y-71366666D01*
X59958633Y-71366666D02*
X59891966Y-71299999D01*
X59891966Y-71299999D02*
X59858633Y-71233333D01*
X60558633Y-70600000D02*
X60558633Y-70466666D01*
X60558633Y-70466666D02*
X60525300Y-70400000D01*
X60525300Y-70400000D02*
X60491966Y-70366666D01*
X60491966Y-70366666D02*
X60391966Y-70300000D01*
X60391966Y-70300000D02*
X60258633Y-70266666D01*
X60258633Y-70266666D02*
X59991966Y-70266666D01*
X59991966Y-70266666D02*
X59925300Y-70300000D01*
X59925300Y-70300000D02*
X59891966Y-70333333D01*
X59891966Y-70333333D02*
X59858633Y-70400000D01*
X59858633Y-70400000D02*
X59858633Y-70533333D01*
X59858633Y-70533333D02*
X59891966Y-70600000D01*
X59891966Y-70600000D02*
X59925300Y-70633333D01*
X59925300Y-70633333D02*
X59991966Y-70666666D01*
X59991966Y-70666666D02*
X60158633Y-70666666D01*
X60158633Y-70666666D02*
X60225300Y-70633333D01*
X60225300Y-70633333D02*
X60258633Y-70600000D01*
X60258633Y-70600000D02*
X60291966Y-70533333D01*
X60291966Y-70533333D02*
X60291966Y-70400000D01*
X60291966Y-70400000D02*
X60258633Y-70333333D01*
X60258633Y-70333333D02*
X60225300Y-70300000D01*
X60225300Y-70300000D02*
X60158633Y-70266666D01*
X63098633Y-72033333D02*
X62398633Y-72033333D01*
X62398633Y-71566667D02*
X62398633Y-71433333D01*
X62398633Y-71433333D02*
X62431966Y-71366667D01*
X62431966Y-71366667D02*
X62498633Y-71300000D01*
X62498633Y-71300000D02*
X62631966Y-71266667D01*
X62631966Y-71266667D02*
X62865300Y-71266667D01*
X62865300Y-71266667D02*
X62998633Y-71300000D01*
X62998633Y-71300000D02*
X63065300Y-71366667D01*
X63065300Y-71366667D02*
X63098633Y-71433333D01*
X63098633Y-71433333D02*
X63098633Y-71566667D01*
X63098633Y-71566667D02*
X63065300Y-71633333D01*
X63065300Y-71633333D02*
X62998633Y-71700000D01*
X62998633Y-71700000D02*
X62865300Y-71733333D01*
X62865300Y-71733333D02*
X62631966Y-71733333D01*
X62631966Y-71733333D02*
X62498633Y-71700000D01*
X62498633Y-71700000D02*
X62431966Y-71633333D01*
X62431966Y-71633333D02*
X62398633Y-71566667D01*
X63098633Y-70600000D02*
X63098633Y-71000000D01*
X63098633Y-70800000D02*
X62398633Y-70800000D01*
X62398633Y-70800000D02*
X62498633Y-70866667D01*
X62498633Y-70866667D02*
X62565300Y-70933334D01*
X62565300Y-70933334D02*
X62598633Y-71000000D01*
X62398633Y-70166667D02*
X62398633Y-70100000D01*
X62398633Y-70100000D02*
X62431966Y-70033333D01*
X62431966Y-70033333D02*
X62465300Y-70000000D01*
X62465300Y-70000000D02*
X62531966Y-69966667D01*
X62531966Y-69966667D02*
X62665300Y-69933333D01*
X62665300Y-69933333D02*
X62831966Y-69933333D01*
X62831966Y-69933333D02*
X62965300Y-69966667D01*
X62965300Y-69966667D02*
X63031966Y-70000000D01*
X63031966Y-70000000D02*
X63065300Y-70033333D01*
X63065300Y-70033333D02*
X63098633Y-70100000D01*
X63098633Y-70100000D02*
X63098633Y-70166667D01*
X63098633Y-70166667D02*
X63065300Y-70233333D01*
X63065300Y-70233333D02*
X63031966Y-70266667D01*
X63031966Y-70266667D02*
X62965300Y-70300000D01*
X62965300Y-70300000D02*
X62831966Y-70333333D01*
X62831966Y-70333333D02*
X62665300Y-70333333D01*
X62665300Y-70333333D02*
X62531966Y-70300000D01*
X62531966Y-70300000D02*
X62465300Y-70266667D01*
X62465300Y-70266667D02*
X62431966Y-70233333D01*
X62431966Y-70233333D02*
X62398633Y-70166667D01*
X65638633Y-72033333D02*
X64938633Y-72033333D01*
X64938633Y-71566667D02*
X64938633Y-71433333D01*
X64938633Y-71433333D02*
X64971966Y-71366667D01*
X64971966Y-71366667D02*
X65038633Y-71300000D01*
X65038633Y-71300000D02*
X65171966Y-71266667D01*
X65171966Y-71266667D02*
X65405300Y-71266667D01*
X65405300Y-71266667D02*
X65538633Y-71300000D01*
X65538633Y-71300000D02*
X65605300Y-71366667D01*
X65605300Y-71366667D02*
X65638633Y-71433333D01*
X65638633Y-71433333D02*
X65638633Y-71566667D01*
X65638633Y-71566667D02*
X65605300Y-71633333D01*
X65605300Y-71633333D02*
X65538633Y-71700000D01*
X65538633Y-71700000D02*
X65405300Y-71733333D01*
X65405300Y-71733333D02*
X65171966Y-71733333D01*
X65171966Y-71733333D02*
X65038633Y-71700000D01*
X65038633Y-71700000D02*
X64971966Y-71633333D01*
X64971966Y-71633333D02*
X64938633Y-71566667D01*
X65638633Y-70600000D02*
X65638633Y-71000000D01*
X65638633Y-70800000D02*
X64938633Y-70800000D01*
X64938633Y-70800000D02*
X65038633Y-70866667D01*
X65038633Y-70866667D02*
X65105300Y-70933334D01*
X65105300Y-70933334D02*
X65138633Y-71000000D01*
X65638633Y-69933333D02*
X65638633Y-70333333D01*
X65638633Y-70133333D02*
X64938633Y-70133333D01*
X64938633Y-70133333D02*
X65038633Y-70200000D01*
X65038633Y-70200000D02*
X65105300Y-70266667D01*
X65105300Y-70266667D02*
X65138633Y-70333333D01*
X67478633Y-71133333D02*
X67478633Y-71466666D01*
X67478633Y-71466666D02*
X67811966Y-71499999D01*
X67811966Y-71499999D02*
X67778633Y-71466666D01*
X67778633Y-71466666D02*
X67745300Y-71399999D01*
X67745300Y-71399999D02*
X67745300Y-71233333D01*
X67745300Y-71233333D02*
X67778633Y-71166666D01*
X67778633Y-71166666D02*
X67811966Y-71133333D01*
X67811966Y-71133333D02*
X67878633Y-71099999D01*
X67878633Y-71099999D02*
X68045300Y-71099999D01*
X68045300Y-71099999D02*
X68111966Y-71133333D01*
X68111966Y-71133333D02*
X68145300Y-71166666D01*
X68145300Y-71166666D02*
X68178633Y-71233333D01*
X68178633Y-71233333D02*
X68178633Y-71399999D01*
X68178633Y-71399999D02*
X68145300Y-71466666D01*
X68145300Y-71466666D02*
X68111966Y-71499999D01*
X67478633Y-70899999D02*
X68178633Y-70666666D01*
X68178633Y-70666666D02*
X67478633Y-70433332D01*
X21791966Y-39533332D02*
X21758633Y-39599999D01*
X21758633Y-39599999D02*
X21758633Y-39699999D01*
X21758633Y-39699999D02*
X21791966Y-39799999D01*
X21791966Y-39799999D02*
X21858633Y-39866666D01*
X21858633Y-39866666D02*
X21925300Y-39899999D01*
X21925300Y-39899999D02*
X22058633Y-39933332D01*
X22058633Y-39933332D02*
X22158633Y-39933332D01*
X22158633Y-39933332D02*
X22291966Y-39899999D01*
X22291966Y-39899999D02*
X22358633Y-39866666D01*
X22358633Y-39866666D02*
X22425300Y-39799999D01*
X22425300Y-39799999D02*
X22458633Y-39699999D01*
X22458633Y-39699999D02*
X22458633Y-39633332D01*
X22458633Y-39633332D02*
X22425300Y-39533332D01*
X22425300Y-39533332D02*
X22391966Y-39499999D01*
X22391966Y-39499999D02*
X22158633Y-39499999D01*
X22158633Y-39499999D02*
X22158633Y-39633332D01*
X22458633Y-39199999D02*
X21758633Y-39199999D01*
X21758633Y-39199999D02*
X22458633Y-38799999D01*
X22458633Y-38799999D02*
X21758633Y-38799999D01*
X22458633Y-38466666D02*
X21758633Y-38466666D01*
X21758633Y-38466666D02*
X21758633Y-38299999D01*
X21758633Y-38299999D02*
X21791966Y-38199999D01*
X21791966Y-38199999D02*
X21858633Y-38133333D01*
X21858633Y-38133333D02*
X21925300Y-38099999D01*
X21925300Y-38099999D02*
X22058633Y-38066666D01*
X22058633Y-38066666D02*
X22158633Y-38066666D01*
X22158633Y-38066666D02*
X22291966Y-38099999D01*
X22291966Y-38099999D02*
X22358633Y-38133333D01*
X22358633Y-38133333D02*
X22425300Y-38199999D01*
X22425300Y-38199999D02*
X22458633Y-38299999D01*
X22458633Y-38299999D02*
X22458633Y-38466666D01*
X24998633Y-40033333D02*
X24298633Y-40033333D01*
X24298633Y-39566667D02*
X24298633Y-39433333D01*
X24298633Y-39433333D02*
X24331966Y-39366667D01*
X24331966Y-39366667D02*
X24398633Y-39300000D01*
X24398633Y-39300000D02*
X24531966Y-39266667D01*
X24531966Y-39266667D02*
X24765300Y-39266667D01*
X24765300Y-39266667D02*
X24898633Y-39300000D01*
X24898633Y-39300000D02*
X24965300Y-39366667D01*
X24965300Y-39366667D02*
X24998633Y-39433333D01*
X24998633Y-39433333D02*
X24998633Y-39566667D01*
X24998633Y-39566667D02*
X24965300Y-39633333D01*
X24965300Y-39633333D02*
X24898633Y-39700000D01*
X24898633Y-39700000D02*
X24765300Y-39733333D01*
X24765300Y-39733333D02*
X24531966Y-39733333D01*
X24531966Y-39733333D02*
X24398633Y-39700000D01*
X24398633Y-39700000D02*
X24331966Y-39633333D01*
X24331966Y-39633333D02*
X24298633Y-39566667D01*
X24365300Y-39000000D02*
X24331966Y-38966667D01*
X24331966Y-38966667D02*
X24298633Y-38900000D01*
X24298633Y-38900000D02*
X24298633Y-38733334D01*
X24298633Y-38733334D02*
X24331966Y-38666667D01*
X24331966Y-38666667D02*
X24365300Y-38633334D01*
X24365300Y-38633334D02*
X24431966Y-38600000D01*
X24431966Y-38600000D02*
X24498633Y-38600000D01*
X24498633Y-38600000D02*
X24598633Y-38633334D01*
X24598633Y-38633334D02*
X24998633Y-39033334D01*
X24998633Y-39033334D02*
X24998633Y-38600000D01*
X24298633Y-38366667D02*
X24298633Y-37933333D01*
X24298633Y-37933333D02*
X24565300Y-38166667D01*
X24565300Y-38166667D02*
X24565300Y-38066667D01*
X24565300Y-38066667D02*
X24598633Y-38000000D01*
X24598633Y-38000000D02*
X24631966Y-37966667D01*
X24631966Y-37966667D02*
X24698633Y-37933333D01*
X24698633Y-37933333D02*
X24865300Y-37933333D01*
X24865300Y-37933333D02*
X24931966Y-37966667D01*
X24931966Y-37966667D02*
X24965300Y-38000000D01*
X24965300Y-38000000D02*
X24998633Y-38066667D01*
X24998633Y-38066667D02*
X24998633Y-38266667D01*
X24998633Y-38266667D02*
X24965300Y-38333333D01*
X24965300Y-38333333D02*
X24931966Y-38366667D01*
X27538633Y-40033333D02*
X26838633Y-40033333D01*
X26838633Y-39566667D02*
X26838633Y-39433333D01*
X26838633Y-39433333D02*
X26871966Y-39366667D01*
X26871966Y-39366667D02*
X26938633Y-39300000D01*
X26938633Y-39300000D02*
X27071966Y-39266667D01*
X27071966Y-39266667D02*
X27305300Y-39266667D01*
X27305300Y-39266667D02*
X27438633Y-39300000D01*
X27438633Y-39300000D02*
X27505300Y-39366667D01*
X27505300Y-39366667D02*
X27538633Y-39433333D01*
X27538633Y-39433333D02*
X27538633Y-39566667D01*
X27538633Y-39566667D02*
X27505300Y-39633333D01*
X27505300Y-39633333D02*
X27438633Y-39700000D01*
X27438633Y-39700000D02*
X27305300Y-39733333D01*
X27305300Y-39733333D02*
X27071966Y-39733333D01*
X27071966Y-39733333D02*
X26938633Y-39700000D01*
X26938633Y-39700000D02*
X26871966Y-39633333D01*
X26871966Y-39633333D02*
X26838633Y-39566667D01*
X26905300Y-39000000D02*
X26871966Y-38966667D01*
X26871966Y-38966667D02*
X26838633Y-38900000D01*
X26838633Y-38900000D02*
X26838633Y-38733334D01*
X26838633Y-38733334D02*
X26871966Y-38666667D01*
X26871966Y-38666667D02*
X26905300Y-38633334D01*
X26905300Y-38633334D02*
X26971966Y-38600000D01*
X26971966Y-38600000D02*
X27038633Y-38600000D01*
X27038633Y-38600000D02*
X27138633Y-38633334D01*
X27138633Y-38633334D02*
X27538633Y-39033334D01*
X27538633Y-39033334D02*
X27538633Y-38600000D01*
X26905300Y-38333333D02*
X26871966Y-38300000D01*
X26871966Y-38300000D02*
X26838633Y-38233333D01*
X26838633Y-38233333D02*
X26838633Y-38066667D01*
X26838633Y-38066667D02*
X26871966Y-38000000D01*
X26871966Y-38000000D02*
X26905300Y-37966667D01*
X26905300Y-37966667D02*
X26971966Y-37933333D01*
X26971966Y-37933333D02*
X27038633Y-37933333D01*
X27038633Y-37933333D02*
X27138633Y-37966667D01*
X27138633Y-37966667D02*
X27538633Y-38366667D01*
X27538633Y-38366667D02*
X27538633Y-37933333D01*
X30078633Y-39699999D02*
X29378633Y-39699999D01*
X29378633Y-39233333D02*
X29378633Y-39099999D01*
X29378633Y-39099999D02*
X29411966Y-39033333D01*
X29411966Y-39033333D02*
X29478633Y-38966666D01*
X29478633Y-38966666D02*
X29611966Y-38933333D01*
X29611966Y-38933333D02*
X29845300Y-38933333D01*
X29845300Y-38933333D02*
X29978633Y-38966666D01*
X29978633Y-38966666D02*
X30045300Y-39033333D01*
X30045300Y-39033333D02*
X30078633Y-39099999D01*
X30078633Y-39099999D02*
X30078633Y-39233333D01*
X30078633Y-39233333D02*
X30045300Y-39299999D01*
X30045300Y-39299999D02*
X29978633Y-39366666D01*
X29978633Y-39366666D02*
X29845300Y-39399999D01*
X29845300Y-39399999D02*
X29611966Y-39399999D01*
X29611966Y-39399999D02*
X29478633Y-39366666D01*
X29478633Y-39366666D02*
X29411966Y-39299999D01*
X29411966Y-39299999D02*
X29378633Y-39233333D01*
X30078633Y-38266666D02*
X30078633Y-38666666D01*
X30078633Y-38466666D02*
X29378633Y-38466666D01*
X29378633Y-38466666D02*
X29478633Y-38533333D01*
X29478633Y-38533333D02*
X29545300Y-38600000D01*
X29545300Y-38600000D02*
X29578633Y-38666666D01*
X32618633Y-39699999D02*
X31918633Y-39699999D01*
X31918633Y-39233333D02*
X31918633Y-39099999D01*
X31918633Y-39099999D02*
X31951966Y-39033333D01*
X31951966Y-39033333D02*
X32018633Y-38966666D01*
X32018633Y-38966666D02*
X32151966Y-38933333D01*
X32151966Y-38933333D02*
X32385300Y-38933333D01*
X32385300Y-38933333D02*
X32518633Y-38966666D01*
X32518633Y-38966666D02*
X32585300Y-39033333D01*
X32585300Y-39033333D02*
X32618633Y-39099999D01*
X32618633Y-39099999D02*
X32618633Y-39233333D01*
X32618633Y-39233333D02*
X32585300Y-39299999D01*
X32585300Y-39299999D02*
X32518633Y-39366666D01*
X32518633Y-39366666D02*
X32385300Y-39399999D01*
X32385300Y-39399999D02*
X32151966Y-39399999D01*
X32151966Y-39399999D02*
X32018633Y-39366666D01*
X32018633Y-39366666D02*
X31951966Y-39299999D01*
X31951966Y-39299999D02*
X31918633Y-39233333D01*
X31918633Y-38700000D02*
X31918633Y-38266666D01*
X31918633Y-38266666D02*
X32185300Y-38500000D01*
X32185300Y-38500000D02*
X32185300Y-38400000D01*
X32185300Y-38400000D02*
X32218633Y-38333333D01*
X32218633Y-38333333D02*
X32251966Y-38300000D01*
X32251966Y-38300000D02*
X32318633Y-38266666D01*
X32318633Y-38266666D02*
X32485300Y-38266666D01*
X32485300Y-38266666D02*
X32551966Y-38300000D01*
X32551966Y-38300000D02*
X32585300Y-38333333D01*
X32585300Y-38333333D02*
X32618633Y-38400000D01*
X32618633Y-38400000D02*
X32618633Y-38600000D01*
X32618633Y-38600000D02*
X32585300Y-38666666D01*
X32585300Y-38666666D02*
X32551966Y-38700000D01*
X35158633Y-40033333D02*
X34458633Y-40033333D01*
X34458633Y-39566667D02*
X34458633Y-39433333D01*
X34458633Y-39433333D02*
X34491966Y-39366667D01*
X34491966Y-39366667D02*
X34558633Y-39300000D01*
X34558633Y-39300000D02*
X34691966Y-39266667D01*
X34691966Y-39266667D02*
X34925300Y-39266667D01*
X34925300Y-39266667D02*
X35058633Y-39300000D01*
X35058633Y-39300000D02*
X35125300Y-39366667D01*
X35125300Y-39366667D02*
X35158633Y-39433333D01*
X35158633Y-39433333D02*
X35158633Y-39566667D01*
X35158633Y-39566667D02*
X35125300Y-39633333D01*
X35125300Y-39633333D02*
X35058633Y-39700000D01*
X35058633Y-39700000D02*
X34925300Y-39733333D01*
X34925300Y-39733333D02*
X34691966Y-39733333D01*
X34691966Y-39733333D02*
X34558633Y-39700000D01*
X34558633Y-39700000D02*
X34491966Y-39633333D01*
X34491966Y-39633333D02*
X34458633Y-39566667D01*
X34525300Y-39000000D02*
X34491966Y-38966667D01*
X34491966Y-38966667D02*
X34458633Y-38900000D01*
X34458633Y-38900000D02*
X34458633Y-38733334D01*
X34458633Y-38733334D02*
X34491966Y-38666667D01*
X34491966Y-38666667D02*
X34525300Y-38633334D01*
X34525300Y-38633334D02*
X34591966Y-38600000D01*
X34591966Y-38600000D02*
X34658633Y-38600000D01*
X34658633Y-38600000D02*
X34758633Y-38633334D01*
X34758633Y-38633334D02*
X35158633Y-39033334D01*
X35158633Y-39033334D02*
X35158633Y-38600000D01*
X35158633Y-37933333D02*
X35158633Y-38333333D01*
X35158633Y-38133333D02*
X34458633Y-38133333D01*
X34458633Y-38133333D02*
X34558633Y-38200000D01*
X34558633Y-38200000D02*
X34625300Y-38266667D01*
X34625300Y-38266667D02*
X34658633Y-38333333D01*
X37031966Y-39533332D02*
X36998633Y-39599999D01*
X36998633Y-39599999D02*
X36998633Y-39699999D01*
X36998633Y-39699999D02*
X37031966Y-39799999D01*
X37031966Y-39799999D02*
X37098633Y-39866666D01*
X37098633Y-39866666D02*
X37165300Y-39899999D01*
X37165300Y-39899999D02*
X37298633Y-39933332D01*
X37298633Y-39933332D02*
X37398633Y-39933332D01*
X37398633Y-39933332D02*
X37531966Y-39899999D01*
X37531966Y-39899999D02*
X37598633Y-39866666D01*
X37598633Y-39866666D02*
X37665300Y-39799999D01*
X37665300Y-39799999D02*
X37698633Y-39699999D01*
X37698633Y-39699999D02*
X37698633Y-39633332D01*
X37698633Y-39633332D02*
X37665300Y-39533332D01*
X37665300Y-39533332D02*
X37631966Y-39499999D01*
X37631966Y-39499999D02*
X37398633Y-39499999D01*
X37398633Y-39499999D02*
X37398633Y-39633332D01*
X37698633Y-39199999D02*
X36998633Y-39199999D01*
X36998633Y-39199999D02*
X37698633Y-38799999D01*
X37698633Y-38799999D02*
X36998633Y-38799999D01*
X37698633Y-38466666D02*
X36998633Y-38466666D01*
X36998633Y-38466666D02*
X36998633Y-38299999D01*
X36998633Y-38299999D02*
X37031966Y-38199999D01*
X37031966Y-38199999D02*
X37098633Y-38133333D01*
X37098633Y-38133333D02*
X37165300Y-38099999D01*
X37165300Y-38099999D02*
X37298633Y-38066666D01*
X37298633Y-38066666D02*
X37398633Y-38066666D01*
X37398633Y-38066666D02*
X37531966Y-38099999D01*
X37531966Y-38099999D02*
X37598633Y-38133333D01*
X37598633Y-38133333D02*
X37665300Y-38199999D01*
X37665300Y-38199999D02*
X37698633Y-38299999D01*
X37698633Y-38299999D02*
X37698633Y-38466666D01*
X40238633Y-40033333D02*
X39538633Y-40033333D01*
X39538633Y-39566667D02*
X39538633Y-39433333D01*
X39538633Y-39433333D02*
X39571966Y-39366667D01*
X39571966Y-39366667D02*
X39638633Y-39300000D01*
X39638633Y-39300000D02*
X39771966Y-39266667D01*
X39771966Y-39266667D02*
X40005300Y-39266667D01*
X40005300Y-39266667D02*
X40138633Y-39300000D01*
X40138633Y-39300000D02*
X40205300Y-39366667D01*
X40205300Y-39366667D02*
X40238633Y-39433333D01*
X40238633Y-39433333D02*
X40238633Y-39566667D01*
X40238633Y-39566667D02*
X40205300Y-39633333D01*
X40205300Y-39633333D02*
X40138633Y-39700000D01*
X40138633Y-39700000D02*
X40005300Y-39733333D01*
X40005300Y-39733333D02*
X39771966Y-39733333D01*
X39771966Y-39733333D02*
X39638633Y-39700000D01*
X39638633Y-39700000D02*
X39571966Y-39633333D01*
X39571966Y-39633333D02*
X39538633Y-39566667D01*
X40238633Y-38600000D02*
X40238633Y-39000000D01*
X40238633Y-38800000D02*
X39538633Y-38800000D01*
X39538633Y-38800000D02*
X39638633Y-38866667D01*
X39638633Y-38866667D02*
X39705300Y-38933334D01*
X39705300Y-38933334D02*
X39738633Y-39000000D01*
X40238633Y-38266667D02*
X40238633Y-38133333D01*
X40238633Y-38133333D02*
X40205300Y-38066667D01*
X40205300Y-38066667D02*
X40171966Y-38033333D01*
X40171966Y-38033333D02*
X40071966Y-37966667D01*
X40071966Y-37966667D02*
X39938633Y-37933333D01*
X39938633Y-37933333D02*
X39671966Y-37933333D01*
X39671966Y-37933333D02*
X39605300Y-37966667D01*
X39605300Y-37966667D02*
X39571966Y-38000000D01*
X39571966Y-38000000D02*
X39538633Y-38066667D01*
X39538633Y-38066667D02*
X39538633Y-38200000D01*
X39538633Y-38200000D02*
X39571966Y-38266667D01*
X39571966Y-38266667D02*
X39605300Y-38300000D01*
X39605300Y-38300000D02*
X39671966Y-38333333D01*
X39671966Y-38333333D02*
X39838633Y-38333333D01*
X39838633Y-38333333D02*
X39905300Y-38300000D01*
X39905300Y-38300000D02*
X39938633Y-38266667D01*
X39938633Y-38266667D02*
X39971966Y-38200000D01*
X39971966Y-38200000D02*
X39971966Y-38066667D01*
X39971966Y-38066667D02*
X39938633Y-38000000D01*
X39938633Y-38000000D02*
X39905300Y-37966667D01*
X39905300Y-37966667D02*
X39838633Y-37933333D01*
X42778633Y-40033333D02*
X42078633Y-40033333D01*
X42078633Y-39566667D02*
X42078633Y-39433333D01*
X42078633Y-39433333D02*
X42111966Y-39366667D01*
X42111966Y-39366667D02*
X42178633Y-39300000D01*
X42178633Y-39300000D02*
X42311966Y-39266667D01*
X42311966Y-39266667D02*
X42545300Y-39266667D01*
X42545300Y-39266667D02*
X42678633Y-39300000D01*
X42678633Y-39300000D02*
X42745300Y-39366667D01*
X42745300Y-39366667D02*
X42778633Y-39433333D01*
X42778633Y-39433333D02*
X42778633Y-39566667D01*
X42778633Y-39566667D02*
X42745300Y-39633333D01*
X42745300Y-39633333D02*
X42678633Y-39700000D01*
X42678633Y-39700000D02*
X42545300Y-39733333D01*
X42545300Y-39733333D02*
X42311966Y-39733333D01*
X42311966Y-39733333D02*
X42178633Y-39700000D01*
X42178633Y-39700000D02*
X42111966Y-39633333D01*
X42111966Y-39633333D02*
X42078633Y-39566667D01*
X42778633Y-38600000D02*
X42778633Y-39000000D01*
X42778633Y-38800000D02*
X42078633Y-38800000D01*
X42078633Y-38800000D02*
X42178633Y-38866667D01*
X42178633Y-38866667D02*
X42245300Y-38933334D01*
X42245300Y-38933334D02*
X42278633Y-39000000D01*
X42378633Y-38200000D02*
X42345300Y-38266667D01*
X42345300Y-38266667D02*
X42311966Y-38300000D01*
X42311966Y-38300000D02*
X42245300Y-38333333D01*
X42245300Y-38333333D02*
X42211966Y-38333333D01*
X42211966Y-38333333D02*
X42145300Y-38300000D01*
X42145300Y-38300000D02*
X42111966Y-38266667D01*
X42111966Y-38266667D02*
X42078633Y-38200000D01*
X42078633Y-38200000D02*
X42078633Y-38066667D01*
X42078633Y-38066667D02*
X42111966Y-38000000D01*
X42111966Y-38000000D02*
X42145300Y-37966667D01*
X42145300Y-37966667D02*
X42211966Y-37933333D01*
X42211966Y-37933333D02*
X42245300Y-37933333D01*
X42245300Y-37933333D02*
X42311966Y-37966667D01*
X42311966Y-37966667D02*
X42345300Y-38000000D01*
X42345300Y-38000000D02*
X42378633Y-38066667D01*
X42378633Y-38066667D02*
X42378633Y-38200000D01*
X42378633Y-38200000D02*
X42411966Y-38266667D01*
X42411966Y-38266667D02*
X42445300Y-38300000D01*
X42445300Y-38300000D02*
X42511966Y-38333333D01*
X42511966Y-38333333D02*
X42645300Y-38333333D01*
X42645300Y-38333333D02*
X42711966Y-38300000D01*
X42711966Y-38300000D02*
X42745300Y-38266667D01*
X42745300Y-38266667D02*
X42778633Y-38200000D01*
X42778633Y-38200000D02*
X42778633Y-38066667D01*
X42778633Y-38066667D02*
X42745300Y-38000000D01*
X42745300Y-38000000D02*
X42711966Y-37966667D01*
X42711966Y-37966667D02*
X42645300Y-37933333D01*
X42645300Y-37933333D02*
X42511966Y-37933333D01*
X42511966Y-37933333D02*
X42445300Y-37966667D01*
X42445300Y-37966667D02*
X42411966Y-38000000D01*
X42411966Y-38000000D02*
X42378633Y-38066667D01*
X45318633Y-39699999D02*
X44618633Y-39699999D01*
X44618633Y-39233333D02*
X44618633Y-39099999D01*
X44618633Y-39099999D02*
X44651966Y-39033333D01*
X44651966Y-39033333D02*
X44718633Y-38966666D01*
X44718633Y-38966666D02*
X44851966Y-38933333D01*
X44851966Y-38933333D02*
X45085300Y-38933333D01*
X45085300Y-38933333D02*
X45218633Y-38966666D01*
X45218633Y-38966666D02*
X45285300Y-39033333D01*
X45285300Y-39033333D02*
X45318633Y-39099999D01*
X45318633Y-39099999D02*
X45318633Y-39233333D01*
X45318633Y-39233333D02*
X45285300Y-39299999D01*
X45285300Y-39299999D02*
X45218633Y-39366666D01*
X45218633Y-39366666D02*
X45085300Y-39399999D01*
X45085300Y-39399999D02*
X44851966Y-39399999D01*
X44851966Y-39399999D02*
X44718633Y-39366666D01*
X44718633Y-39366666D02*
X44651966Y-39299999D01*
X44651966Y-39299999D02*
X44618633Y-39233333D01*
X44618633Y-38300000D02*
X44618633Y-38633333D01*
X44618633Y-38633333D02*
X44951966Y-38666666D01*
X44951966Y-38666666D02*
X44918633Y-38633333D01*
X44918633Y-38633333D02*
X44885300Y-38566666D01*
X44885300Y-38566666D02*
X44885300Y-38400000D01*
X44885300Y-38400000D02*
X44918633Y-38333333D01*
X44918633Y-38333333D02*
X44951966Y-38300000D01*
X44951966Y-38300000D02*
X45018633Y-38266666D01*
X45018633Y-38266666D02*
X45185300Y-38266666D01*
X45185300Y-38266666D02*
X45251966Y-38300000D01*
X45251966Y-38300000D02*
X45285300Y-38333333D01*
X45285300Y-38333333D02*
X45318633Y-38400000D01*
X45318633Y-38400000D02*
X45318633Y-38566666D01*
X45318633Y-38566666D02*
X45285300Y-38633333D01*
X45285300Y-38633333D02*
X45251966Y-38666666D01*
X47858633Y-40033333D02*
X47158633Y-40033333D01*
X47158633Y-39566667D02*
X47158633Y-39433333D01*
X47158633Y-39433333D02*
X47191966Y-39366667D01*
X47191966Y-39366667D02*
X47258633Y-39300000D01*
X47258633Y-39300000D02*
X47391966Y-39266667D01*
X47391966Y-39266667D02*
X47625300Y-39266667D01*
X47625300Y-39266667D02*
X47758633Y-39300000D01*
X47758633Y-39300000D02*
X47825300Y-39366667D01*
X47825300Y-39366667D02*
X47858633Y-39433333D01*
X47858633Y-39433333D02*
X47858633Y-39566667D01*
X47858633Y-39566667D02*
X47825300Y-39633333D01*
X47825300Y-39633333D02*
X47758633Y-39700000D01*
X47758633Y-39700000D02*
X47625300Y-39733333D01*
X47625300Y-39733333D02*
X47391966Y-39733333D01*
X47391966Y-39733333D02*
X47258633Y-39700000D01*
X47258633Y-39700000D02*
X47191966Y-39633333D01*
X47191966Y-39633333D02*
X47158633Y-39566667D01*
X47858633Y-38600000D02*
X47858633Y-39000000D01*
X47858633Y-38800000D02*
X47158633Y-38800000D01*
X47158633Y-38800000D02*
X47258633Y-38866667D01*
X47258633Y-38866667D02*
X47325300Y-38933334D01*
X47325300Y-38933334D02*
X47358633Y-39000000D01*
X47158633Y-38366667D02*
X47158633Y-37900000D01*
X47158633Y-37900000D02*
X47858633Y-38200000D01*
X50398633Y-40033333D02*
X49698633Y-40033333D01*
X49698633Y-39566667D02*
X49698633Y-39433333D01*
X49698633Y-39433333D02*
X49731966Y-39366667D01*
X49731966Y-39366667D02*
X49798633Y-39300000D01*
X49798633Y-39300000D02*
X49931966Y-39266667D01*
X49931966Y-39266667D02*
X50165300Y-39266667D01*
X50165300Y-39266667D02*
X50298633Y-39300000D01*
X50298633Y-39300000D02*
X50365300Y-39366667D01*
X50365300Y-39366667D02*
X50398633Y-39433333D01*
X50398633Y-39433333D02*
X50398633Y-39566667D01*
X50398633Y-39566667D02*
X50365300Y-39633333D01*
X50365300Y-39633333D02*
X50298633Y-39700000D01*
X50298633Y-39700000D02*
X50165300Y-39733333D01*
X50165300Y-39733333D02*
X49931966Y-39733333D01*
X49931966Y-39733333D02*
X49798633Y-39700000D01*
X49798633Y-39700000D02*
X49731966Y-39633333D01*
X49731966Y-39633333D02*
X49698633Y-39566667D01*
X50398633Y-38600000D02*
X50398633Y-39000000D01*
X50398633Y-38800000D02*
X49698633Y-38800000D01*
X49698633Y-38800000D02*
X49798633Y-38866667D01*
X49798633Y-38866667D02*
X49865300Y-38933334D01*
X49865300Y-38933334D02*
X49898633Y-39000000D01*
X49698633Y-38000000D02*
X49698633Y-38133333D01*
X49698633Y-38133333D02*
X49731966Y-38200000D01*
X49731966Y-38200000D02*
X49765300Y-38233333D01*
X49765300Y-38233333D02*
X49865300Y-38300000D01*
X49865300Y-38300000D02*
X49998633Y-38333333D01*
X49998633Y-38333333D02*
X50265300Y-38333333D01*
X50265300Y-38333333D02*
X50331966Y-38300000D01*
X50331966Y-38300000D02*
X50365300Y-38266667D01*
X50365300Y-38266667D02*
X50398633Y-38200000D01*
X50398633Y-38200000D02*
X50398633Y-38066667D01*
X50398633Y-38066667D02*
X50365300Y-38000000D01*
X50365300Y-38000000D02*
X50331966Y-37966667D01*
X50331966Y-37966667D02*
X50265300Y-37933333D01*
X50265300Y-37933333D02*
X50098633Y-37933333D01*
X50098633Y-37933333D02*
X50031966Y-37966667D01*
X50031966Y-37966667D02*
X49998633Y-38000000D01*
X49998633Y-38000000D02*
X49965300Y-38066667D01*
X49965300Y-38066667D02*
X49965300Y-38200000D01*
X49965300Y-38200000D02*
X49998633Y-38266667D01*
X49998633Y-38266667D02*
X50031966Y-38300000D01*
X50031966Y-38300000D02*
X50098633Y-38333333D01*
X52938633Y-39699999D02*
X52238633Y-39699999D01*
X52238633Y-39233333D02*
X52238633Y-39099999D01*
X52238633Y-39099999D02*
X52271966Y-39033333D01*
X52271966Y-39033333D02*
X52338633Y-38966666D01*
X52338633Y-38966666D02*
X52471966Y-38933333D01*
X52471966Y-38933333D02*
X52705300Y-38933333D01*
X52705300Y-38933333D02*
X52838633Y-38966666D01*
X52838633Y-38966666D02*
X52905300Y-39033333D01*
X52905300Y-39033333D02*
X52938633Y-39099999D01*
X52938633Y-39099999D02*
X52938633Y-39233333D01*
X52938633Y-39233333D02*
X52905300Y-39299999D01*
X52905300Y-39299999D02*
X52838633Y-39366666D01*
X52838633Y-39366666D02*
X52705300Y-39399999D01*
X52705300Y-39399999D02*
X52471966Y-39399999D01*
X52471966Y-39399999D02*
X52338633Y-39366666D01*
X52338633Y-39366666D02*
X52271966Y-39299999D01*
X52271966Y-39299999D02*
X52238633Y-39233333D01*
X52471966Y-38333333D02*
X52938633Y-38333333D01*
X52205300Y-38500000D02*
X52705300Y-38666666D01*
X52705300Y-38666666D02*
X52705300Y-38233333D01*
X55478633Y-39699999D02*
X54778633Y-39699999D01*
X54778633Y-39233333D02*
X54778633Y-39099999D01*
X54778633Y-39099999D02*
X54811966Y-39033333D01*
X54811966Y-39033333D02*
X54878633Y-38966666D01*
X54878633Y-38966666D02*
X55011966Y-38933333D01*
X55011966Y-38933333D02*
X55245300Y-38933333D01*
X55245300Y-38933333D02*
X55378633Y-38966666D01*
X55378633Y-38966666D02*
X55445300Y-39033333D01*
X55445300Y-39033333D02*
X55478633Y-39099999D01*
X55478633Y-39099999D02*
X55478633Y-39233333D01*
X55478633Y-39233333D02*
X55445300Y-39299999D01*
X55445300Y-39299999D02*
X55378633Y-39366666D01*
X55378633Y-39366666D02*
X55245300Y-39399999D01*
X55245300Y-39399999D02*
X55011966Y-39399999D01*
X55011966Y-39399999D02*
X54878633Y-39366666D01*
X54878633Y-39366666D02*
X54811966Y-39299999D01*
X54811966Y-39299999D02*
X54778633Y-39233333D01*
X54778633Y-38500000D02*
X54778633Y-38433333D01*
X54778633Y-38433333D02*
X54811966Y-38366666D01*
X54811966Y-38366666D02*
X54845300Y-38333333D01*
X54845300Y-38333333D02*
X54911966Y-38300000D01*
X54911966Y-38300000D02*
X55045300Y-38266666D01*
X55045300Y-38266666D02*
X55211966Y-38266666D01*
X55211966Y-38266666D02*
X55345300Y-38300000D01*
X55345300Y-38300000D02*
X55411966Y-38333333D01*
X55411966Y-38333333D02*
X55445300Y-38366666D01*
X55445300Y-38366666D02*
X55478633Y-38433333D01*
X55478633Y-38433333D02*
X55478633Y-38500000D01*
X55478633Y-38500000D02*
X55445300Y-38566666D01*
X55445300Y-38566666D02*
X55411966Y-38600000D01*
X55411966Y-38600000D02*
X55345300Y-38633333D01*
X55345300Y-38633333D02*
X55211966Y-38666666D01*
X55211966Y-38666666D02*
X55045300Y-38666666D01*
X55045300Y-38666666D02*
X54911966Y-38633333D01*
X54911966Y-38633333D02*
X54845300Y-38600000D01*
X54845300Y-38600000D02*
X54811966Y-38566666D01*
X54811966Y-38566666D02*
X54778633Y-38500000D01*
X58018633Y-39699999D02*
X57318633Y-39699999D01*
X57318633Y-39233333D02*
X57318633Y-39099999D01*
X57318633Y-39099999D02*
X57351966Y-39033333D01*
X57351966Y-39033333D02*
X57418633Y-38966666D01*
X57418633Y-38966666D02*
X57551966Y-38933333D01*
X57551966Y-38933333D02*
X57785300Y-38933333D01*
X57785300Y-38933333D02*
X57918633Y-38966666D01*
X57918633Y-38966666D02*
X57985300Y-39033333D01*
X57985300Y-39033333D02*
X58018633Y-39099999D01*
X58018633Y-39099999D02*
X58018633Y-39233333D01*
X58018633Y-39233333D02*
X57985300Y-39299999D01*
X57985300Y-39299999D02*
X57918633Y-39366666D01*
X57918633Y-39366666D02*
X57785300Y-39399999D01*
X57785300Y-39399999D02*
X57551966Y-39399999D01*
X57551966Y-39399999D02*
X57418633Y-39366666D01*
X57418633Y-39366666D02*
X57351966Y-39299999D01*
X57351966Y-39299999D02*
X57318633Y-39233333D01*
X57385300Y-38666666D02*
X57351966Y-38633333D01*
X57351966Y-38633333D02*
X57318633Y-38566666D01*
X57318633Y-38566666D02*
X57318633Y-38400000D01*
X57318633Y-38400000D02*
X57351966Y-38333333D01*
X57351966Y-38333333D02*
X57385300Y-38300000D01*
X57385300Y-38300000D02*
X57451966Y-38266666D01*
X57451966Y-38266666D02*
X57518633Y-38266666D01*
X57518633Y-38266666D02*
X57618633Y-38300000D01*
X57618633Y-38300000D02*
X58018633Y-38700000D01*
X58018633Y-38700000D02*
X58018633Y-38266666D01*
X60558633Y-40033333D02*
X59858633Y-40033333D01*
X59858633Y-39566667D02*
X59858633Y-39433333D01*
X59858633Y-39433333D02*
X59891966Y-39366667D01*
X59891966Y-39366667D02*
X59958633Y-39300000D01*
X59958633Y-39300000D02*
X60091966Y-39266667D01*
X60091966Y-39266667D02*
X60325300Y-39266667D01*
X60325300Y-39266667D02*
X60458633Y-39300000D01*
X60458633Y-39300000D02*
X60525300Y-39366667D01*
X60525300Y-39366667D02*
X60558633Y-39433333D01*
X60558633Y-39433333D02*
X60558633Y-39566667D01*
X60558633Y-39566667D02*
X60525300Y-39633333D01*
X60525300Y-39633333D02*
X60458633Y-39700000D01*
X60458633Y-39700000D02*
X60325300Y-39733333D01*
X60325300Y-39733333D02*
X60091966Y-39733333D01*
X60091966Y-39733333D02*
X59958633Y-39700000D01*
X59958633Y-39700000D02*
X59891966Y-39633333D01*
X59891966Y-39633333D02*
X59858633Y-39566667D01*
X60558633Y-38600000D02*
X60558633Y-39000000D01*
X60558633Y-38800000D02*
X59858633Y-38800000D01*
X59858633Y-38800000D02*
X59958633Y-38866667D01*
X59958633Y-38866667D02*
X60025300Y-38933334D01*
X60025300Y-38933334D02*
X60058633Y-39000000D01*
X59858633Y-37966667D02*
X59858633Y-38300000D01*
X59858633Y-38300000D02*
X60191966Y-38333333D01*
X60191966Y-38333333D02*
X60158633Y-38300000D01*
X60158633Y-38300000D02*
X60125300Y-38233333D01*
X60125300Y-38233333D02*
X60125300Y-38066667D01*
X60125300Y-38066667D02*
X60158633Y-38000000D01*
X60158633Y-38000000D02*
X60191966Y-37966667D01*
X60191966Y-37966667D02*
X60258633Y-37933333D01*
X60258633Y-37933333D02*
X60425300Y-37933333D01*
X60425300Y-37933333D02*
X60491966Y-37966667D01*
X60491966Y-37966667D02*
X60525300Y-38000000D01*
X60525300Y-38000000D02*
X60558633Y-38066667D01*
X60558633Y-38066667D02*
X60558633Y-38233333D01*
X60558633Y-38233333D02*
X60525300Y-38300000D01*
X60525300Y-38300000D02*
X60491966Y-38333333D01*
X63098633Y-39699999D02*
X62398633Y-39699999D01*
X62398633Y-39233333D02*
X62398633Y-39099999D01*
X62398633Y-39099999D02*
X62431966Y-39033333D01*
X62431966Y-39033333D02*
X62498633Y-38966666D01*
X62498633Y-38966666D02*
X62631966Y-38933333D01*
X62631966Y-38933333D02*
X62865300Y-38933333D01*
X62865300Y-38933333D02*
X62998633Y-38966666D01*
X62998633Y-38966666D02*
X63065300Y-39033333D01*
X63065300Y-39033333D02*
X63098633Y-39099999D01*
X63098633Y-39099999D02*
X63098633Y-39233333D01*
X63098633Y-39233333D02*
X63065300Y-39299999D01*
X63065300Y-39299999D02*
X62998633Y-39366666D01*
X62998633Y-39366666D02*
X62865300Y-39399999D01*
X62865300Y-39399999D02*
X62631966Y-39399999D01*
X62631966Y-39399999D02*
X62498633Y-39366666D01*
X62498633Y-39366666D02*
X62431966Y-39299999D01*
X62431966Y-39299999D02*
X62398633Y-39233333D01*
X62698633Y-38533333D02*
X62665300Y-38600000D01*
X62665300Y-38600000D02*
X62631966Y-38633333D01*
X62631966Y-38633333D02*
X62565300Y-38666666D01*
X62565300Y-38666666D02*
X62531966Y-38666666D01*
X62531966Y-38666666D02*
X62465300Y-38633333D01*
X62465300Y-38633333D02*
X62431966Y-38600000D01*
X62431966Y-38600000D02*
X62398633Y-38533333D01*
X62398633Y-38533333D02*
X62398633Y-38400000D01*
X62398633Y-38400000D02*
X62431966Y-38333333D01*
X62431966Y-38333333D02*
X62465300Y-38300000D01*
X62465300Y-38300000D02*
X62531966Y-38266666D01*
X62531966Y-38266666D02*
X62565300Y-38266666D01*
X62565300Y-38266666D02*
X62631966Y-38300000D01*
X62631966Y-38300000D02*
X62665300Y-38333333D01*
X62665300Y-38333333D02*
X62698633Y-38400000D01*
X62698633Y-38400000D02*
X62698633Y-38533333D01*
X62698633Y-38533333D02*
X62731966Y-38600000D01*
X62731966Y-38600000D02*
X62765300Y-38633333D01*
X62765300Y-38633333D02*
X62831966Y-38666666D01*
X62831966Y-38666666D02*
X62965300Y-38666666D01*
X62965300Y-38666666D02*
X63031966Y-38633333D01*
X63031966Y-38633333D02*
X63065300Y-38600000D01*
X63065300Y-38600000D02*
X63098633Y-38533333D01*
X63098633Y-38533333D02*
X63098633Y-38400000D01*
X63098633Y-38400000D02*
X63065300Y-38333333D01*
X63065300Y-38333333D02*
X63031966Y-38300000D01*
X63031966Y-38300000D02*
X62965300Y-38266666D01*
X62965300Y-38266666D02*
X62831966Y-38266666D01*
X62831966Y-38266666D02*
X62765300Y-38300000D01*
X62765300Y-38300000D02*
X62731966Y-38333333D01*
X62731966Y-38333333D02*
X62698633Y-38400000D01*
X65638633Y-39699999D02*
X64938633Y-39699999D01*
X64938633Y-39233333D02*
X64938633Y-39099999D01*
X64938633Y-39099999D02*
X64971966Y-39033333D01*
X64971966Y-39033333D02*
X65038633Y-38966666D01*
X65038633Y-38966666D02*
X65171966Y-38933333D01*
X65171966Y-38933333D02*
X65405300Y-38933333D01*
X65405300Y-38933333D02*
X65538633Y-38966666D01*
X65538633Y-38966666D02*
X65605300Y-39033333D01*
X65605300Y-39033333D02*
X65638633Y-39099999D01*
X65638633Y-39099999D02*
X65638633Y-39233333D01*
X65638633Y-39233333D02*
X65605300Y-39299999D01*
X65605300Y-39299999D02*
X65538633Y-39366666D01*
X65538633Y-39366666D02*
X65405300Y-39399999D01*
X65405300Y-39399999D02*
X65171966Y-39399999D01*
X65171966Y-39399999D02*
X65038633Y-39366666D01*
X65038633Y-39366666D02*
X64971966Y-39299999D01*
X64971966Y-39299999D02*
X64938633Y-39233333D01*
X64938633Y-38700000D02*
X64938633Y-38233333D01*
X64938633Y-38233333D02*
X65638633Y-38533333D01*
X68178633Y-39699999D02*
X67478633Y-39699999D01*
X67478633Y-39233333D02*
X67478633Y-39099999D01*
X67478633Y-39099999D02*
X67511966Y-39033333D01*
X67511966Y-39033333D02*
X67578633Y-38966666D01*
X67578633Y-38966666D02*
X67711966Y-38933333D01*
X67711966Y-38933333D02*
X67945300Y-38933333D01*
X67945300Y-38933333D02*
X68078633Y-38966666D01*
X68078633Y-38966666D02*
X68145300Y-39033333D01*
X68145300Y-39033333D02*
X68178633Y-39099999D01*
X68178633Y-39099999D02*
X68178633Y-39233333D01*
X68178633Y-39233333D02*
X68145300Y-39299999D01*
X68145300Y-39299999D02*
X68078633Y-39366666D01*
X68078633Y-39366666D02*
X67945300Y-39399999D01*
X67945300Y-39399999D02*
X67711966Y-39399999D01*
X67711966Y-39399999D02*
X67578633Y-39366666D01*
X67578633Y-39366666D02*
X67511966Y-39299999D01*
X67511966Y-39299999D02*
X67478633Y-39233333D01*
X67478633Y-38333333D02*
X67478633Y-38466666D01*
X67478633Y-38466666D02*
X67511966Y-38533333D01*
X67511966Y-38533333D02*
X67545300Y-38566666D01*
X67545300Y-38566666D02*
X67645300Y-38633333D01*
X67645300Y-38633333D02*
X67778633Y-38666666D01*
X67778633Y-38666666D02*
X68045300Y-38666666D01*
X68045300Y-38666666D02*
X68111966Y-38633333D01*
X68111966Y-38633333D02*
X68145300Y-38600000D01*
X68145300Y-38600000D02*
X68178633Y-38533333D01*
X68178633Y-38533333D02*
X68178633Y-38400000D01*
X68178633Y-38400000D02*
X68145300Y-38333333D01*
X68145300Y-38333333D02*
X68111966Y-38300000D01*
X68111966Y-38300000D02*
X68045300Y-38266666D01*
X68045300Y-38266666D02*
X67878633Y-38266666D01*
X67878633Y-38266666D02*
X67811966Y-38300000D01*
X67811966Y-38300000D02*
X67778633Y-38333333D01*
X67778633Y-38333333D02*
X67745300Y-38400000D01*
X67745300Y-38400000D02*
X67745300Y-38533333D01*
X67745300Y-38533333D02*
X67778633Y-38600000D01*
X67778633Y-38600000D02*
X67811966Y-38633333D01*
X67811966Y-38633333D02*
X67878633Y-38666666D01*
%TO.C,U1*%
D14*
X17500000Y-41000000D02*
X72500000Y-41000000D01*
X72500000Y-69000000D01*
X17500000Y-69000000D01*
X17500000Y-41000000D01*
%TO.C,J1*%
X19740000Y-12320000D02*
X9340000Y-12320000D01*
X19740000Y-9300000D02*
X9340000Y-9300000D01*
X19740000Y-4400000D02*
X9340000Y-4400000D01*
X19740000Y-2900000D02*
X9340000Y-2900000D01*
X19740000Y-2280000D02*
X19740000Y-12320000D01*
X17380000Y-2280000D02*
X19740000Y-2280000D01*
X9340000Y-12320000D02*
X9340000Y-2280000D01*
X9340000Y-2280000D02*
X16780000Y-2280000D01*
X17080000Y-2280000D02*
X16640000Y-1670000D01*
X17520000Y-1670000D01*
X17080000Y-2280000D01*
G36*
X17080000Y-2280000D02*
G01*
X16640000Y-1670000D01*
X17520000Y-1670000D01*
X17080000Y-2280000D01*
G37*
%TO.C,Q1*%
X9240000Y-16440000D02*
X10760000Y-16440000D01*
X9240000Y-16490000D02*
X9240000Y-16440000D01*
X9240000Y-18390000D02*
X9240000Y-17610000D01*
X9240000Y-19560000D02*
X9240000Y-19510000D01*
X10760000Y-16440000D02*
X10760000Y-17440000D01*
X10760000Y-18560000D02*
X10760000Y-19560000D01*
X10760000Y-19560000D02*
X9240000Y-19560000D01*
X8700000Y-17620000D02*
X8940000Y-17950000D01*
X8460000Y-17950000D01*
X8700000Y-17620000D01*
G36*
X8940000Y-17950000D02*
G01*
X8460000Y-17950000D01*
X8700000Y-17620000D01*
X8940000Y-17950000D01*
G37*
%TO.C,R1*%
X15477500Y-18237258D02*
X15477500Y-17762742D01*
X16522500Y-18237258D02*
X16522500Y-17762742D01*
%TO.C,D1*%
X20000000Y-20360000D02*
X22000000Y-20360000D01*
X20000000Y-20360000D02*
X20000000Y-16350000D01*
X22000000Y-20360000D02*
X22000000Y-16350000D01*
%TO.C,D2*%
X24350000Y-21660000D02*
X28650000Y-21660000D01*
X24350000Y-21660000D02*
X24350000Y-15850000D01*
X28650000Y-21660000D02*
X28650000Y-15850000D01*
%TO.C,C1*%
X31062500Y-16152500D02*
X31850000Y-16152500D01*
X31456250Y-15758750D02*
X31456250Y-16546250D01*
X32090000Y-15654437D02*
X32090000Y-16940000D01*
X32090000Y-15654437D02*
X33154437Y-14590000D01*
X32090000Y-20345563D02*
X32090000Y-19060000D01*
X32090000Y-20345563D02*
X33154437Y-21410000D01*
X33154437Y-14590000D02*
X38910000Y-14590000D01*
X33154437Y-21410000D02*
X38910000Y-21410000D01*
X38910000Y-14590000D02*
X38910000Y-16940000D01*
X38910000Y-21410000D02*
X38910000Y-19060000D01*
%TO.C,C2*%
X40490000Y-18140580D02*
X40490000Y-17859420D01*
X41510000Y-18140580D02*
X41510000Y-17859420D01*
%TO.C,F2*%
X44113748Y-31290000D02*
X46886252Y-31290000D01*
X44113748Y-34710000D02*
X46886252Y-34710000D01*
%TO.C,U2*%
X13090000Y-26440000D02*
X14910000Y-26440000D01*
X13090000Y-26490000D02*
X13090000Y-26440000D01*
X13090000Y-29560000D02*
X13090000Y-29510000D01*
X14910000Y-26440000D02*
X14910000Y-26490000D01*
X14910000Y-29510000D02*
X14910000Y-29560000D01*
X14910000Y-29560000D02*
X13090000Y-29560000D01*
X12550000Y-26490000D02*
X12310000Y-26160000D01*
X12790000Y-26160000D01*
X12550000Y-26490000D01*
G36*
X12550000Y-26490000D02*
G01*
X12310000Y-26160000D01*
X12790000Y-26160000D01*
X12550000Y-26490000D01*
G37*
%TO.C,C3*%
X13288748Y-32590000D02*
X14711252Y-32590000D01*
X13288748Y-34410000D02*
X14711252Y-34410000D01*
%TO.C,R2*%
X6977500Y-28237258D02*
X6977500Y-27762742D01*
X8022500Y-28237258D02*
X8022500Y-27762742D01*
%TO.C,C4*%
X18490000Y-26140580D02*
X18490000Y-25859420D01*
X19510000Y-26140580D02*
X19510000Y-25859420D01*
%TO.C,L1*%
X21900000Y-28900000D02*
X21900000Y-29350000D01*
X21900000Y-28900000D02*
X28100000Y-28900000D01*
X21900000Y-35100000D02*
X21900000Y-34650000D01*
X28100000Y-28900000D02*
X28100000Y-29350000D01*
X28100000Y-35100000D02*
X21900000Y-35100000D01*
X28100000Y-35100000D02*
X28100000Y-34650000D01*
%TO.C,C5*%
X30265000Y-32261252D02*
X30265000Y-31738748D01*
X31735000Y-32261252D02*
X31735000Y-31738748D01*
%TO.C,C6*%
X33265000Y-32261252D02*
X33265000Y-31738748D01*
X34735000Y-32261252D02*
X34735000Y-31738748D01*
%TO.C,F1*%
X30613748Y-24790000D02*
X33386252Y-24790000D01*
X30613748Y-28210000D02*
X33386252Y-28210000D01*
%TO.C,C7*%
X39265000Y-32261252D02*
X39265000Y-31738748D01*
X40735000Y-32261252D02*
X40735000Y-31738748D01*
%TO.C,C8*%
X42490000Y-26640580D02*
X42490000Y-26359420D01*
X43510000Y-26640580D02*
X43510000Y-26359420D01*
%TO.C,J2*%
X54160000Y-10220000D02*
X48380000Y-10220000D01*
X54160000Y-9700000D02*
X48380000Y-9700000D01*
X54160000Y-4400000D02*
X53570000Y-4400000D01*
X54160000Y-3780000D02*
X54160000Y-10220000D01*
X53570000Y-3780000D02*
X54160000Y-3780000D01*
X51510000Y-4400000D02*
X51030000Y-4400000D01*
X51030000Y-3780000D02*
X51510000Y-3780000D01*
X48970000Y-4400000D02*
X48380000Y-4400000D01*
X48380000Y-10220000D02*
X48380000Y-3780000D01*
X48380000Y-3780000D02*
X48970000Y-3780000D01*
X52540000Y-3430000D02*
X52100000Y-2820000D01*
X52980000Y-2820000D01*
X52540000Y-3430000D01*
G36*
X52540000Y-3430000D02*
G01*
X52100000Y-2820000D01*
X52980000Y-2820000D01*
X52540000Y-3430000D01*
G37*
%TO.C,U3*%
X49940000Y-24440000D02*
X54060000Y-24440000D01*
X49940000Y-24535000D02*
X49940000Y-24440000D01*
X49940000Y-29560000D02*
X49940000Y-29465000D01*
X54060000Y-24440000D02*
X54060000Y-24535000D01*
X54060000Y-29465000D02*
X54060000Y-29560000D01*
X54060000Y-29560000D02*
X49940000Y-29560000D01*
X49400000Y-24530000D02*
X49160000Y-24200000D01*
X49640000Y-24200000D01*
X49400000Y-24530000D01*
G36*
X49400000Y-24530000D02*
G01*
X49160000Y-24200000D01*
X49640000Y-24200000D01*
X49400000Y-24530000D01*
G37*
%TO.C,C9*%
X57990000Y-32140580D02*
X57990000Y-31859420D01*
X59010000Y-32140580D02*
X59010000Y-31859420D01*
%TO.C,D3*%
X49240000Y-18940000D02*
X50760000Y-18940000D01*
X49240000Y-18990000D02*
X49240000Y-18940000D01*
X49240000Y-20890000D02*
X49240000Y-20110000D01*
X49240000Y-22060000D02*
X49240000Y-22010000D01*
X50760000Y-18940000D02*
X50760000Y-19940000D01*
X50760000Y-21060000D02*
X50760000Y-22060000D01*
X50760000Y-22060000D02*
X49240000Y-22060000D01*
X48700000Y-20120000D02*
X48940000Y-20450000D01*
X48460000Y-20450000D01*
X48700000Y-20120000D01*
G36*
X48940000Y-20450000D02*
G01*
X48460000Y-20450000D01*
X48700000Y-20120000D01*
X48940000Y-20450000D01*
G37*
%TO.C,R3*%
X58262742Y-19977500D02*
X58737258Y-19977500D01*
X58262742Y-21022500D02*
X58737258Y-21022500D01*
%TO.C,JP1*%
X61120000Y-19120000D02*
X62500000Y-19120000D01*
X61120000Y-20500000D02*
X61120000Y-19120000D01*
X61120000Y-21770000D02*
X61120000Y-24420000D01*
X61120000Y-21770000D02*
X63880000Y-21770000D01*
X61120000Y-24420000D02*
X63880000Y-24420000D01*
X63880000Y-21770000D02*
X63880000Y-24420000D01*
%TO.C,J3*%
X79240000Y-10220000D02*
X68380000Y-10220000D01*
X79240000Y-9700000D02*
X68380000Y-9700000D01*
X79240000Y-4400000D02*
X68380000Y-4400000D01*
X79240000Y-3780000D02*
X79240000Y-10220000D01*
X77920000Y-3780000D02*
X79240000Y-3780000D01*
X68380000Y-10220000D02*
X68380000Y-3780000D01*
X68380000Y-3780000D02*
X77320000Y-3780000D01*
X77620000Y-3780000D02*
X77180000Y-3170000D01*
X78060000Y-3170000D01*
X77620000Y-3780000D01*
G36*
X77620000Y-3780000D02*
G01*
X77180000Y-3170000D01*
X78060000Y-3170000D01*
X77620000Y-3780000D01*
G37*
%TO.C,U4*%
X69940000Y-24440000D02*
X74060000Y-24440000D01*
X69940000Y-24535000D02*
X69940000Y-24440000D01*
X69940000Y-29560000D02*
X69940000Y-29465000D01*
X74060000Y-24440000D02*
X74060000Y-24535000D01*
X74060000Y-29465000D02*
X74060000Y-29560000D01*
X74060000Y-29560000D02*
X69940000Y-29560000D01*
X69400000Y-24530000D02*
X69160000Y-24200000D01*
X69640000Y-24200000D01*
X69400000Y-24530000D01*
G36*
X69400000Y-24530000D02*
G01*
X69160000Y-24200000D01*
X69640000Y-24200000D01*
X69400000Y-24530000D01*
G37*
%TO.C,C10*%
X77990000Y-32140580D02*
X77990000Y-31859420D01*
X79010000Y-32140580D02*
X79010000Y-31859420D01*
%TO.C,D4*%
X69240000Y-18940000D02*
X70760000Y-18940000D01*
X69240000Y-18990000D02*
X69240000Y-18940000D01*
X69240000Y-20890000D02*
X69240000Y-20110000D01*
X69240000Y-22060000D02*
X69240000Y-22010000D01*
X70760000Y-18940000D02*
X70760000Y-19940000D01*
X70760000Y-21060000D02*
X70760000Y-22060000D01*
X70760000Y-22060000D02*
X69240000Y-22060000D01*
X68700000Y-20120000D02*
X68940000Y-20450000D01*
X68460000Y-20450000D01*
X68700000Y-20120000D01*
G36*
X68940000Y-20450000D02*
G01*
X68460000Y-20450000D01*
X68700000Y-20120000D01*
X68940000Y-20450000D01*
G37*
%TO.C,R4*%
X78262742Y-19977500D02*
X78737258Y-19977500D01*
X78262742Y-21022500D02*
X78737258Y-21022500D01*
%TO.C,JP2*%
X81120000Y-19120000D02*
X82500000Y-19120000D01*
X81120000Y-20500000D02*
X81120000Y-19120000D01*
X81120000Y-21770000D02*
X81120000Y-24420000D01*
X81120000Y-21770000D02*
X83880000Y-21770000D01*
X81120000Y-24420000D02*
X83880000Y-24420000D01*
X83880000Y-21770000D02*
X83880000Y-24420000D01*
%TO.C,R5*%
X17762742Y-74477500D02*
X18237258Y-74477500D01*
X17762742Y-75522500D02*
X18237258Y-75522500D01*
%TO.C,D5*%
X16515000Y-79265000D02*
X16515000Y-80735000D01*
X16515000Y-80735000D02*
X18800000Y-80735000D01*
X18800000Y-79265000D02*
X16515000Y-79265000D01*
%TO.C,R6*%
X28762742Y-74477500D02*
X29237258Y-74477500D01*
X28762742Y-75522500D02*
X29237258Y-75522500D01*
%TO.C,D6*%
X27515000Y-79265000D02*
X27515000Y-80735000D01*
X27515000Y-80735000D02*
X29800000Y-80735000D01*
X29800000Y-79265000D02*
X27515000Y-79265000D01*
%TO.C,R7*%
X39762742Y-74477500D02*
X40237258Y-74477500D01*
X39762742Y-75522500D02*
X40237258Y-75522500D01*
%TO.C,D7*%
X38515000Y-79265000D02*
X38515000Y-80735000D01*
X38515000Y-80735000D02*
X40800000Y-80735000D01*
X40800000Y-79265000D02*
X38515000Y-79265000D01*
%TO.C,R8*%
X50762742Y-74477500D02*
X51237258Y-74477500D01*
X50762742Y-75522500D02*
X51237258Y-75522500D01*
%TO.C,D8*%
X49515000Y-79265000D02*
X49515000Y-80735000D01*
X49515000Y-80735000D02*
X51800000Y-80735000D01*
X51800000Y-79265000D02*
X49515000Y-79265000D01*
%TO.C,R9*%
X61762742Y-74477500D02*
X62237258Y-74477500D01*
X61762742Y-75522500D02*
X62237258Y-75522500D01*
%TO.C,D9*%
X60515000Y-79265000D02*
X60515000Y-80735000D01*
X60515000Y-80735000D02*
X62800000Y-80735000D01*
X62800000Y-79265000D02*
X60515000Y-79265000D01*
%TO.C,J4*%
X83620000Y-52620000D02*
X85000000Y-52620000D01*
X83620000Y-54000000D02*
X83620000Y-52620000D01*
X83620000Y-55270000D02*
X83620000Y-68080000D01*
X83620000Y-55270000D02*
X86380000Y-55270000D01*
X83620000Y-68080000D02*
X86380000Y-68080000D01*
X86380000Y-55270000D02*
X86380000Y-68080000D01*
%TD*%
M02*
