%TF.GenerationSoftware,KiCad,Pcbnew,10.0.5*%
%TF.CreationDate,2026-10-01T16:28:30-04:00*%
%TF.ProjectId,binfohub_bridge,62696e66-6f68-4756-925f-627269646765,1.1*%
%TF.SameCoordinates,Original*%
%TF.FileFunction,Drillmap*%
%TF.FilePolarity,Positive*%
%FSLAX45Y45*%
G04 Gerber Fmt 4.5, Leading zero omitted, Abs format (unit mm)*
G04 Created by KiCad (PCBNEW 10.0.5) date 2026-10-01 16:28:30*
%MOMM*%
%LPD*%
G01*
G04 APERTURE LIST*
%ADD10C,0.100000*%
%ADD11C,0.200000*%
%ADD12C,0.110000*%
%ADD13C,0.130000*%
%ADD14C,0.320000*%
G04 APERTURE END LIST*
D10*
X200000Y0D02*
X8800000Y0D01*
X9000000Y-200000D02*
X9000000Y-9000000D01*
X8800000Y-9200000D02*
X200000Y-9200000D01*
X0Y-9000000D02*
X0Y-200000D01*
X8800000Y0D02*
G75*
G02*
X9000000Y-200000I0J-200000D01*
G01*
X9000000Y-9000000D02*
G75*
G02*
X8800000Y-9200000I-200000J0D01*
G01*
X200000Y-9200000D02*
G75*
G02*
X0Y-9000000I5J200005D01*
G01*
X0Y-200000D02*
G75*
G02*
X200000Y0I200005J-5D01*
G01*
D11*
D10*
X6199000Y-5965000D02*
X6229000Y-5995000D01*
X6229000Y-5965000D02*
X6199000Y-5995000D01*
X6199000Y-6105000D02*
X6229000Y-6135000D01*
X6229000Y-6105000D02*
X6199000Y-6135000D01*
X6269000Y-5895000D02*
X6299000Y-5925000D01*
X6299000Y-5895000D02*
X6269000Y-5925000D01*
X6269000Y-6035000D02*
X6299000Y-6065000D01*
X6299000Y-6035000D02*
X6269000Y-6065000D01*
X6269000Y-6175000D02*
X6299000Y-6205000D01*
X6299000Y-6175000D02*
X6269000Y-6205000D01*
X6339000Y-5965000D02*
X6369000Y-5995000D01*
X6369000Y-5965000D02*
X6339000Y-5995000D01*
X6339000Y-6105000D02*
X6369000Y-6135000D01*
X6369000Y-6105000D02*
X6339000Y-6135000D01*
X6409000Y-5895000D02*
X6439000Y-5925000D01*
X6439000Y-5895000D02*
X6409000Y-5925000D01*
X6409000Y-6035000D02*
X6439000Y-6065000D01*
X6439000Y-6035000D02*
X6409000Y-6065000D01*
X6409000Y-6175000D02*
X6439000Y-6205000D01*
X6439000Y-6175000D02*
X6409000Y-6205000D01*
X6479000Y-5965000D02*
X6509000Y-5995000D01*
X6509000Y-5965000D02*
X6479000Y-5995000D01*
X6479000Y-6105000D02*
X6509000Y-6135000D01*
X6509000Y-6105000D02*
X6479000Y-6135000D01*
X820000Y-2725000D02*
G75*
G02*
X780000Y-2725000I-20000J0D01*
G01*
X780000Y-2725000D02*
G75*
G02*
X820000Y-2725000I20000J0D01*
G01*
X995000Y-1700000D02*
G75*
G02*
X955000Y-1700000I-20000J0D01*
G01*
X955000Y-1700000D02*
G75*
G02*
X995000Y-1700000I20000J0D01*
G01*
X1120000Y-2825000D02*
G75*
G02*
X1080000Y-2825000I-20000J0D01*
G01*
X1080000Y-2825000D02*
G75*
G02*
X1120000Y-2825000I20000J0D01*
G01*
X1270000Y-1875000D02*
G75*
G02*
X1230000Y-1875000I-20000J0D01*
G01*
X1230000Y-1875000D02*
G75*
G02*
X1270000Y-1875000I20000J0D01*
G01*
X1270000Y-5125000D02*
G75*
G02*
X1230000Y-5125000I-20000J0D01*
G01*
X1230000Y-5125000D02*
G75*
G02*
X1270000Y-5125000I20000J0D01*
G01*
X1420000Y-6900000D02*
G75*
G02*
X1380000Y-6900000I-20000J0D01*
G01*
X1380000Y-6900000D02*
G75*
G02*
X1420000Y-6900000I20000J0D01*
G01*
X1445000Y-4725000D02*
G75*
G02*
X1405000Y-4725000I-20000J0D01*
G01*
X1405000Y-4725000D02*
G75*
G02*
X1445000Y-4725000I20000J0D01*
G01*
X1670000Y-7675000D02*
G75*
G02*
X1630000Y-7675000I-20000J0D01*
G01*
X1630000Y-7675000D02*
G75*
G02*
X1670000Y-7675000I20000J0D01*
G01*
X1695000Y-4875000D02*
G75*
G02*
X1655000Y-4875000I-20000J0D01*
G01*
X1655000Y-4875000D02*
G75*
G02*
X1695000Y-4875000I20000J0D01*
G01*
X1770000Y-5525000D02*
G75*
G02*
X1730000Y-5525000I-20000J0D01*
G01*
X1730000Y-5525000D02*
G75*
G02*
X1770000Y-5525000I20000J0D01*
G01*
X1770000Y-7100000D02*
G75*
G02*
X1730000Y-7100000I-20000J0D01*
G01*
X1730000Y-7100000D02*
G75*
G02*
X1770000Y-7100000I20000J0D01*
G01*
X1795000Y-7275000D02*
G75*
G02*
X1755000Y-7275000I-20000J0D01*
G01*
X1755000Y-7275000D02*
G75*
G02*
X1795000Y-7275000I20000J0D01*
G01*
X1795000Y-7425000D02*
G75*
G02*
X1755000Y-7425000I-20000J0D01*
G01*
X1755000Y-7425000D02*
G75*
G02*
X1795000Y-7425000I20000J0D01*
G01*
X1870000Y-7750000D02*
G75*
G02*
X1830000Y-7750000I-20000J0D01*
G01*
X1830000Y-7750000D02*
G75*
G02*
X1870000Y-7750000I20000J0D01*
G01*
X1895000Y-8000000D02*
G75*
G02*
X1855000Y-8000000I-20000J0D01*
G01*
X1855000Y-8000000D02*
G75*
G02*
X1895000Y-8000000I20000J0D01*
G01*
X1945000Y-2525000D02*
G75*
G02*
X1905000Y-2525000I-20000J0D01*
G01*
X1905000Y-2525000D02*
G75*
G02*
X1945000Y-2525000I20000J0D01*
G01*
X1945000Y-5125000D02*
G75*
G02*
X1905000Y-5125000I-20000J0D01*
G01*
X1905000Y-5125000D02*
G75*
G02*
X1945000Y-5125000I20000J0D01*
G01*
X2020000Y-5775000D02*
G75*
G02*
X1980000Y-5775000I-20000J0D01*
G01*
X1980000Y-5775000D02*
G75*
G02*
X2020000Y-5775000I20000J0D01*
G01*
X2120000Y-7600000D02*
G75*
G02*
X2080000Y-7600000I-20000J0D01*
G01*
X2080000Y-7600000D02*
G75*
G02*
X2120000Y-7600000I20000J0D01*
G01*
X2220000Y-2975000D02*
G75*
G02*
X2180000Y-2975000I-20000J0D01*
G01*
X2180000Y-2975000D02*
G75*
G02*
X2220000Y-2975000I20000J0D01*
G01*
X2220000Y-5475000D02*
G75*
G02*
X2180000Y-5475000I-20000J0D01*
G01*
X2180000Y-5475000D02*
G75*
G02*
X2220000Y-5475000I20000J0D01*
G01*
X2270000Y-5775000D02*
G75*
G02*
X2230000Y-5775000I-20000J0D01*
G01*
X2230000Y-5775000D02*
G75*
G02*
X2270000Y-5775000I20000J0D01*
G01*
X2395000Y-5125000D02*
G75*
G02*
X2355000Y-5125000I-20000J0D01*
G01*
X2355000Y-5125000D02*
G75*
G02*
X2395000Y-5125000I20000J0D01*
G01*
X2395000Y-5525000D02*
G75*
G02*
X2355000Y-5525000I-20000J0D01*
G01*
X2355000Y-5525000D02*
G75*
G02*
X2395000Y-5525000I20000J0D01*
G01*
X2395000Y-7875000D02*
G75*
G02*
X2355000Y-7875000I-20000J0D01*
G01*
X2355000Y-7875000D02*
G75*
G02*
X2395000Y-7875000I20000J0D01*
G01*
X2470000Y-5250000D02*
G75*
G02*
X2430000Y-5250000I-20000J0D01*
G01*
X2430000Y-5250000D02*
G75*
G02*
X2470000Y-5250000I20000J0D01*
G01*
X2520000Y-7350000D02*
G75*
G02*
X2480000Y-7350000I-20000J0D01*
G01*
X2480000Y-7350000D02*
G75*
G02*
X2520000Y-7350000I20000J0D01*
G01*
X2770000Y-7600000D02*
G75*
G02*
X2730000Y-7600000I-20000J0D01*
G01*
X2730000Y-7600000D02*
G75*
G02*
X2770000Y-7600000I20000J0D01*
G01*
X2995000Y-5100000D02*
G75*
G02*
X2955000Y-5100000I-20000J0D01*
G01*
X2955000Y-5100000D02*
G75*
G02*
X2995000Y-5100000I20000J0D01*
G01*
X2995000Y-8000000D02*
G75*
G02*
X2955000Y-8000000I-20000J0D01*
G01*
X2955000Y-8000000D02*
G75*
G02*
X2995000Y-8000000I20000J0D01*
G01*
X3020000Y-5350000D02*
G75*
G02*
X2980000Y-5350000I-20000J0D01*
G01*
X2980000Y-5350000D02*
G75*
G02*
X3020000Y-5350000I20000J0D01*
G01*
X3220000Y-6575000D02*
G75*
G02*
X3180000Y-6575000I-20000J0D01*
G01*
X3180000Y-6575000D02*
G75*
G02*
X3220000Y-6575000I20000J0D01*
G01*
X3495000Y-6700000D02*
G75*
G02*
X3455000Y-6700000I-20000J0D01*
G01*
X3455000Y-6700000D02*
G75*
G02*
X3495000Y-6700000I20000J0D01*
G01*
X3570000Y-1875000D02*
G75*
G02*
X3530000Y-1875000I-20000J0D01*
G01*
X3530000Y-1875000D02*
G75*
G02*
X3570000Y-1875000I20000J0D01*
G01*
X3670000Y-6625000D02*
G75*
G02*
X3630000Y-6625000I-20000J0D01*
G01*
X3630000Y-6625000D02*
G75*
G02*
X3670000Y-6625000I20000J0D01*
G01*
X3770000Y-6700000D02*
G75*
G02*
X3730000Y-6700000I-20000J0D01*
G01*
X3730000Y-6700000D02*
G75*
G02*
X3770000Y-6700000I20000J0D01*
G01*
X3920000Y-6550000D02*
G75*
G02*
X3880000Y-6550000I-20000J0D01*
G01*
X3880000Y-6550000D02*
G75*
G02*
X3920000Y-6550000I20000J0D01*
G01*
X4070000Y-7775000D02*
G75*
G02*
X4030000Y-7775000I-20000J0D01*
G01*
X4030000Y-7775000D02*
G75*
G02*
X4070000Y-7775000I20000J0D01*
G01*
X4120000Y-1875000D02*
G75*
G02*
X4080000Y-1875000I-20000J0D01*
G01*
X4080000Y-1875000D02*
G75*
G02*
X4120000Y-1875000I20000J0D01*
G01*
X4245000Y-7750000D02*
G75*
G02*
X4205000Y-7750000I-20000J0D01*
G01*
X4205000Y-7750000D02*
G75*
G02*
X4245000Y-7750000I20000J0D01*
G01*
X4270000Y-3150000D02*
G75*
G02*
X4230000Y-3150000I-20000J0D01*
G01*
X4230000Y-3150000D02*
G75*
G02*
X4270000Y-3150000I20000J0D01*
G01*
X4495000Y-6850000D02*
G75*
G02*
X4455000Y-6850000I-20000J0D01*
G01*
X4455000Y-6850000D02*
G75*
G02*
X4495000Y-6850000I20000J0D01*
G01*
X4620000Y-7400000D02*
G75*
G02*
X4580000Y-7400000I-20000J0D01*
G01*
X4580000Y-7400000D02*
G75*
G02*
X4620000Y-7400000I20000J0D01*
G01*
X4645000Y-7125000D02*
G75*
G02*
X4605000Y-7125000I-20000J0D01*
G01*
X4605000Y-7125000D02*
G75*
G02*
X4645000Y-7125000I20000J0D01*
G01*
X4745000Y-3075000D02*
G75*
G02*
X4705000Y-3075000I-20000J0D01*
G01*
X4705000Y-3075000D02*
G75*
G02*
X4745000Y-3075000I20000J0D01*
G01*
X4745000Y-5550000D02*
G75*
G02*
X4705000Y-5550000I-20000J0D01*
G01*
X4705000Y-5550000D02*
G75*
G02*
X4745000Y-5550000I20000J0D01*
G01*
X4820000Y-7150000D02*
G75*
G02*
X4780000Y-7150000I-20000J0D01*
G01*
X4780000Y-7150000D02*
G75*
G02*
X4820000Y-7150000I20000J0D01*
G01*
X4895000Y-1575000D02*
G75*
G02*
X4855000Y-1575000I-20000J0D01*
G01*
X4855000Y-1575000D02*
G75*
G02*
X4895000Y-1575000I20000J0D01*
G01*
X4895000Y-1975000D02*
G75*
G02*
X4855000Y-1975000I-20000J0D01*
G01*
X4855000Y-1975000D02*
G75*
G02*
X4895000Y-1975000I20000J0D01*
G01*
X4895000Y-2500000D02*
G75*
G02*
X4855000Y-2500000I-20000J0D01*
G01*
X4855000Y-2500000D02*
G75*
G02*
X4895000Y-2500000I20000J0D01*
G01*
X4970000Y-2150000D02*
G75*
G02*
X4930000Y-2150000I-20000J0D01*
G01*
X4930000Y-2150000D02*
G75*
G02*
X4970000Y-2150000I20000J0D01*
G01*
X4970000Y-7325000D02*
G75*
G02*
X4930000Y-7325000I-20000J0D01*
G01*
X4930000Y-7325000D02*
G75*
G02*
X4970000Y-7325000I20000J0D01*
G01*
X4995000Y-2750000D02*
G75*
G02*
X4955000Y-2750000I-20000J0D01*
G01*
X4955000Y-2750000D02*
G75*
G02*
X4995000Y-2750000I20000J0D01*
G01*
X5020000Y-5450000D02*
G75*
G02*
X4980000Y-5450000I-20000J0D01*
G01*
X4980000Y-5450000D02*
G75*
G02*
X5020000Y-5450000I20000J0D01*
G01*
X5070000Y-7700000D02*
G75*
G02*
X5030000Y-7700000I-20000J0D01*
G01*
X5030000Y-7700000D02*
G75*
G02*
X5070000Y-7700000I20000J0D01*
G01*
X5120000Y-6825000D02*
G75*
G02*
X5080000Y-6825000I-20000J0D01*
G01*
X5080000Y-6825000D02*
G75*
G02*
X5120000Y-6825000I20000J0D01*
G01*
X5145000Y-1775000D02*
G75*
G02*
X5105000Y-1775000I-20000J0D01*
G01*
X5105000Y-1775000D02*
G75*
G02*
X5145000Y-1775000I20000J0D01*
G01*
X5145000Y-2075000D02*
G75*
G02*
X5105000Y-2075000I-20000J0D01*
G01*
X5105000Y-2075000D02*
G75*
G02*
X5145000Y-2075000I20000J0D01*
G01*
X5195000Y-2625000D02*
G75*
G02*
X5155000Y-2625000I-20000J0D01*
G01*
X5155000Y-2625000D02*
G75*
G02*
X5195000Y-2625000I20000J0D01*
G01*
X5220000Y-7400000D02*
G75*
G02*
X5180000Y-7400000I-20000J0D01*
G01*
X5180000Y-7400000D02*
G75*
G02*
X5220000Y-7400000I20000J0D01*
G01*
X5220000Y-8000000D02*
G75*
G02*
X5180000Y-8000000I-20000J0D01*
G01*
X5180000Y-8000000D02*
G75*
G02*
X5220000Y-8000000I20000J0D01*
G01*
X5320000Y-7750000D02*
G75*
G02*
X5280000Y-7750000I-20000J0D01*
G01*
X5280000Y-7750000D02*
G75*
G02*
X5320000Y-7750000I20000J0D01*
G01*
X5345000Y-5400000D02*
G75*
G02*
X5305000Y-5400000I-20000J0D01*
G01*
X5305000Y-5400000D02*
G75*
G02*
X5345000Y-5400000I20000J0D01*
G01*
X5395000Y-2900000D02*
G75*
G02*
X5355000Y-2900000I-20000J0D01*
G01*
X5355000Y-2900000D02*
G75*
G02*
X5395000Y-2900000I20000J0D01*
G01*
X5520000Y-5625000D02*
G75*
G02*
X5480000Y-5625000I-20000J0D01*
G01*
X5480000Y-5625000D02*
G75*
G02*
X5520000Y-5625000I20000J0D01*
G01*
X5620000Y-3250000D02*
G75*
G02*
X5580000Y-3250000I-20000J0D01*
G01*
X5580000Y-3250000D02*
G75*
G02*
X5620000Y-3250000I20000J0D01*
G01*
X5620000Y-5525000D02*
G75*
G02*
X5580000Y-5525000I-20000J0D01*
G01*
X5580000Y-5525000D02*
G75*
G02*
X5620000Y-5525000I20000J0D01*
G01*
X5645000Y-2650000D02*
G75*
G02*
X5605000Y-2650000I-20000J0D01*
G01*
X5605000Y-2650000D02*
G75*
G02*
X5645000Y-2650000I20000J0D01*
G01*
X5645000Y-4825000D02*
G75*
G02*
X5605000Y-4825000I-20000J0D01*
G01*
X5605000Y-4825000D02*
G75*
G02*
X5645000Y-4825000I20000J0D01*
G01*
X5645000Y-5950000D02*
G75*
G02*
X5605000Y-5950000I-20000J0D01*
G01*
X5605000Y-5950000D02*
G75*
G02*
X5645000Y-5950000I20000J0D01*
G01*
X5670000Y-5775000D02*
G75*
G02*
X5630000Y-5775000I-20000J0D01*
G01*
X5630000Y-5775000D02*
G75*
G02*
X5670000Y-5775000I20000J0D01*
G01*
X5770000Y-6925000D02*
G75*
G02*
X5730000Y-6925000I-20000J0D01*
G01*
X5730000Y-6925000D02*
G75*
G02*
X5770000Y-6925000I20000J0D01*
G01*
X5820000Y-2475000D02*
G75*
G02*
X5780000Y-2475000I-20000J0D01*
G01*
X5780000Y-2475000D02*
G75*
G02*
X5820000Y-2475000I20000J0D01*
G01*
X5870000Y-3100000D02*
G75*
G02*
X5830000Y-3100000I-20000J0D01*
G01*
X5830000Y-3100000D02*
G75*
G02*
X5870000Y-3100000I20000J0D01*
G01*
X5895000Y-2750000D02*
G75*
G02*
X5855000Y-2750000I-20000J0D01*
G01*
X5855000Y-2750000D02*
G75*
G02*
X5895000Y-2750000I20000J0D01*
G01*
X5970000Y-8075000D02*
G75*
G02*
X5930000Y-8075000I-20000J0D01*
G01*
X5930000Y-8075000D02*
G75*
G02*
X5970000Y-8075000I20000J0D01*
G01*
X5995000Y-7250000D02*
G75*
G02*
X5955000Y-7250000I-20000J0D01*
G01*
X5955000Y-7250000D02*
G75*
G02*
X5995000Y-7250000I20000J0D01*
G01*
X6020000Y-7500000D02*
G75*
G02*
X5980000Y-7500000I-20000J0D01*
G01*
X5980000Y-7500000D02*
G75*
G02*
X6020000Y-7500000I20000J0D01*
G01*
X6045000Y-4875000D02*
G75*
G02*
X6005000Y-4875000I-20000J0D01*
G01*
X6005000Y-4875000D02*
G75*
G02*
X6045000Y-4875000I20000J0D01*
G01*
X6170000Y-7500000D02*
G75*
G02*
X6130000Y-7500000I-20000J0D01*
G01*
X6130000Y-7500000D02*
G75*
G02*
X6170000Y-7500000I20000J0D01*
G01*
X6220000Y-7625000D02*
G75*
G02*
X6180000Y-7625000I-20000J0D01*
G01*
X6180000Y-7625000D02*
G75*
G02*
X6220000Y-7625000I20000J0D01*
G01*
X6245000Y-5700000D02*
G75*
G02*
X6205000Y-5700000I-20000J0D01*
G01*
X6205000Y-5700000D02*
G75*
G02*
X6245000Y-5700000I20000J0D01*
G01*
X6270000Y-4875000D02*
G75*
G02*
X6230000Y-4875000I-20000J0D01*
G01*
X6230000Y-4875000D02*
G75*
G02*
X6270000Y-4875000I20000J0D01*
G01*
X6295000Y-7750000D02*
G75*
G02*
X6255000Y-7750000I-20000J0D01*
G01*
X6255000Y-7750000D02*
G75*
G02*
X6295000Y-7750000I20000J0D01*
G01*
X6370000Y-4975000D02*
G75*
G02*
X6330000Y-4975000I-20000J0D01*
G01*
X6330000Y-4975000D02*
G75*
G02*
X6370000Y-4975000I20000J0D01*
G01*
X6445000Y-2800000D02*
G75*
G02*
X6405000Y-2800000I-20000J0D01*
G01*
X6405000Y-2800000D02*
G75*
G02*
X6445000Y-2800000I20000J0D01*
G01*
X6570000Y-4025000D02*
G75*
G02*
X6530000Y-4025000I-20000J0D01*
G01*
X6530000Y-4025000D02*
G75*
G02*
X6570000Y-4025000I20000J0D01*
G01*
X6570000Y-4675000D02*
G75*
G02*
X6530000Y-4675000I-20000J0D01*
G01*
X6530000Y-4675000D02*
G75*
G02*
X6570000Y-4675000I20000J0D01*
G01*
X6595000Y-2150000D02*
G75*
G02*
X6555000Y-2150000I-20000J0D01*
G01*
X6555000Y-2150000D02*
G75*
G02*
X6595000Y-2150000I20000J0D01*
G01*
X6620000Y-2975000D02*
G75*
G02*
X6580000Y-2975000I-20000J0D01*
G01*
X6580000Y-2975000D02*
G75*
G02*
X6620000Y-2975000I20000J0D01*
G01*
X6620000Y-5500000D02*
G75*
G02*
X6580000Y-5500000I-20000J0D01*
G01*
X6580000Y-5500000D02*
G75*
G02*
X6620000Y-5500000I20000J0D01*
G01*
X6645000Y-2375000D02*
G75*
G02*
X6605000Y-2375000I-20000J0D01*
G01*
X6605000Y-2375000D02*
G75*
G02*
X6645000Y-2375000I20000J0D01*
G01*
X6670000Y-4750000D02*
G75*
G02*
X6630000Y-4750000I-20000J0D01*
G01*
X6630000Y-4750000D02*
G75*
G02*
X6670000Y-4750000I20000J0D01*
G01*
X6770000Y-2775000D02*
G75*
G02*
X6730000Y-2775000I-20000J0D01*
G01*
X6730000Y-2775000D02*
G75*
G02*
X6770000Y-2775000I20000J0D01*
G01*
X6820000Y-6900000D02*
G75*
G02*
X6780000Y-6900000I-20000J0D01*
G01*
X6780000Y-6900000D02*
G75*
G02*
X6820000Y-6900000I20000J0D01*
G01*
X6870000Y-4850000D02*
G75*
G02*
X6830000Y-4850000I-20000J0D01*
G01*
X6830000Y-4850000D02*
G75*
G02*
X6870000Y-4850000I20000J0D01*
G01*
X6920000Y-3100000D02*
G75*
G02*
X6880000Y-3100000I-20000J0D01*
G01*
X6880000Y-3100000D02*
G75*
G02*
X6920000Y-3100000I20000J0D01*
G01*
X6970000Y-2125000D02*
G75*
G02*
X6930000Y-2125000I-20000J0D01*
G01*
X6930000Y-2125000D02*
G75*
G02*
X6970000Y-2125000I20000J0D01*
G01*
X7045000Y-2500000D02*
G75*
G02*
X7005000Y-2500000I-20000J0D01*
G01*
X7005000Y-2500000D02*
G75*
G02*
X7045000Y-2500000I20000J0D01*
G01*
X7095000Y-6900000D02*
G75*
G02*
X7055000Y-6900000I-20000J0D01*
G01*
X7055000Y-6900000D02*
G75*
G02*
X7095000Y-6900000I20000J0D01*
G01*
X7145000Y-4675000D02*
G75*
G02*
X7105000Y-4675000I-20000J0D01*
G01*
X7105000Y-4675000D02*
G75*
G02*
X7145000Y-4675000I20000J0D01*
G01*
X7320000Y-2625000D02*
G75*
G02*
X7280000Y-2625000I-20000J0D01*
G01*
X7280000Y-2625000D02*
G75*
G02*
X7320000Y-2625000I20000J0D01*
G01*
X7645000Y-2750000D02*
G75*
G02*
X7605000Y-2750000I-20000J0D01*
G01*
X7605000Y-2750000D02*
G75*
G02*
X7645000Y-2750000I20000J0D01*
G01*
X7770000Y-2075000D02*
G75*
G02*
X7730000Y-2075000I-20000J0D01*
G01*
X7730000Y-2075000D02*
G75*
G02*
X7770000Y-2075000I20000J0D01*
G01*
X800000Y-5350000D02*
X800000Y-5450000D01*
X750000Y-5400000D02*
X850000Y-5400000D01*
X800000Y-5604000D02*
X800000Y-5704000D01*
X750000Y-5654000D02*
X850000Y-5654000D01*
X800000Y-5858000D02*
X800000Y-5958000D01*
X750000Y-5908000D02*
X850000Y-5908000D01*
X800000Y-6112000D02*
X800000Y-6212000D01*
X750000Y-6162000D02*
X850000Y-6162000D01*
X800000Y-6366000D02*
X800000Y-6466000D01*
X750000Y-6416000D02*
X850000Y-6416000D01*
X800000Y-6620000D02*
X800000Y-6720000D01*
X750000Y-6670000D02*
X850000Y-6670000D01*
X1400000Y-4950000D02*
X1400000Y-5050000D01*
X1350000Y-5000000D02*
X1450000Y-5000000D01*
X1400000Y-5204000D02*
X1400000Y-5304000D01*
X1350000Y-5254000D02*
X1450000Y-5254000D01*
X1400000Y-5458000D02*
X1400000Y-5558000D01*
X1350000Y-5508000D02*
X1450000Y-5508000D01*
X1400000Y-5712000D02*
X1400000Y-5812000D01*
X1350000Y-5762000D02*
X1450000Y-5762000D01*
X1400000Y-5966000D02*
X1400000Y-6066000D01*
X1350000Y-6016000D02*
X1450000Y-6016000D01*
X1400000Y-6220000D02*
X1400000Y-6320000D01*
X1350000Y-6270000D02*
X1450000Y-6270000D01*
X6250000Y-2000000D02*
X6250000Y-2100000D01*
X6200000Y-2050000D02*
X6300000Y-2050000D01*
X6250000Y-2254000D02*
X6250000Y-2354000D01*
X6200000Y-2304000D02*
X6300000Y-2304000D01*
X8250000Y-2000000D02*
X8250000Y-2100000D01*
X8200000Y-2050000D02*
X8300000Y-2050000D01*
X8250000Y-2254000D02*
X8250000Y-2354000D01*
X8200000Y-2304000D02*
X8300000Y-2304000D01*
D12*
X2838891Y-4238891D02*
X2838891Y-4161109D01*
X2761109Y-4161109D01*
X2761109Y-4238891D01*
X2838891Y-4238891D01*
X3092891Y-4238891D02*
X3092891Y-4161109D01*
X3015109Y-4161109D01*
X3015109Y-4238891D01*
X3092891Y-4238891D01*
X5038891Y-738891D02*
X5038891Y-661109D01*
X4961109Y-661109D01*
X4961109Y-738891D01*
X5038891Y-738891D01*
X5292891Y-738891D02*
X5292891Y-661109D01*
X5215109Y-661109D01*
X5215109Y-738891D01*
X5292891Y-738891D01*
X7038891Y-738891D02*
X7038891Y-661109D01*
X6961109Y-661109D01*
X6961109Y-738891D01*
X7038891Y-738891D01*
X7292891Y-738891D02*
X7292891Y-661109D01*
X7215109Y-661109D01*
X7215109Y-738891D01*
X7292891Y-738891D01*
X7546891Y-738891D02*
X7546891Y-661109D01*
X7469109Y-661109D01*
X7469109Y-738891D01*
X7546891Y-738891D01*
X7800891Y-738891D02*
X7800891Y-661109D01*
X7723109Y-661109D01*
X7723109Y-738891D01*
X7800891Y-738891D01*
D13*
X1200000Y-765000D02*
X1265000Y-700000D01*
X1200000Y-635000D01*
X1135000Y-700000D01*
X1200000Y-765000D01*
X1708000Y-765000D02*
X1773000Y-700000D01*
X1708000Y-635000D01*
X1643000Y-700000D01*
X1708000Y-765000D01*
D14*
X290000Y-290000D02*
X610000Y-610000D01*
X610000Y-290000D02*
X290000Y-610000D01*
X610000Y-450000D02*
G75*
G02*
X290000Y-450000I-160000J0D01*
G01*
X290000Y-450000D02*
G75*
G02*
X610000Y-450000I160000J0D01*
G01*
X290000Y-4440000D02*
X610000Y-4760000D01*
X610000Y-4440000D02*
X290000Y-4760000D01*
X610000Y-4600000D02*
G75*
G02*
X290000Y-4600000I-160000J0D01*
G01*
X290000Y-4600000D02*
G75*
G02*
X610000Y-4600000I160000J0D01*
G01*
X290000Y-8590000D02*
X610000Y-8910000D01*
X610000Y-8590000D02*
X290000Y-8910000D01*
X610000Y-8750000D02*
G75*
G02*
X290000Y-8750000I-160000J0D01*
G01*
X290000Y-8750000D02*
G75*
G02*
X610000Y-8750000I160000J0D01*
G01*
X8390000Y-290000D02*
X8710000Y-610000D01*
X8710000Y-290000D02*
X8390000Y-610000D01*
X8710000Y-450000D02*
G75*
G02*
X8390000Y-450000I-160000J0D01*
G01*
X8390000Y-450000D02*
G75*
G02*
X8710000Y-450000I160000J0D01*
G01*
X8390000Y-4440000D02*
X8710000Y-4760000D01*
X8710000Y-4440000D02*
X8390000Y-4760000D01*
X8710000Y-4600000D02*
G75*
G02*
X8390000Y-4600000I-160000J0D01*
G01*
X8390000Y-4600000D02*
G75*
G02*
X8710000Y-4600000I160000J0D01*
G01*
X8390000Y-8590000D02*
X8710000Y-8910000D01*
X8710000Y-8590000D02*
X8390000Y-8910000D01*
X8710000Y-8750000D02*
G75*
G02*
X8390000Y-8750000I-160000J0D01*
G01*
X8390000Y-8750000D02*
G75*
G02*
X8710000Y-8750000I160000J0D01*
G01*
D11*
X255777Y-9516484D02*
X255777Y-9316484D01*
X255777Y-9316484D02*
X303396Y-9316484D01*
X303396Y-9316484D02*
X331967Y-9326008D01*
X331967Y-9326008D02*
X351015Y-9345055D01*
X351015Y-9345055D02*
X360539Y-9364103D01*
X360539Y-9364103D02*
X370062Y-9402198D01*
X370062Y-9402198D02*
X370062Y-9430770D01*
X370062Y-9430770D02*
X360539Y-9468865D01*
X360539Y-9468865D02*
X351015Y-9487912D01*
X351015Y-9487912D02*
X331967Y-9506960D01*
X331967Y-9506960D02*
X303396Y-9516484D01*
X303396Y-9516484D02*
X255777Y-9516484D01*
X455777Y-9516484D02*
X455777Y-9383150D01*
X455777Y-9421246D02*
X465301Y-9402198D01*
X465301Y-9402198D02*
X474824Y-9392674D01*
X474824Y-9392674D02*
X493872Y-9383150D01*
X493872Y-9383150D02*
X512920Y-9383150D01*
X579586Y-9516484D02*
X579586Y-9383150D01*
X579586Y-9316484D02*
X570063Y-9326008D01*
X570063Y-9326008D02*
X579586Y-9335531D01*
X579586Y-9335531D02*
X589110Y-9326008D01*
X589110Y-9326008D02*
X579586Y-9316484D01*
X579586Y-9316484D02*
X579586Y-9335531D01*
X703396Y-9516484D02*
X684348Y-9506960D01*
X684348Y-9506960D02*
X674824Y-9487912D01*
X674824Y-9487912D02*
X674824Y-9316484D01*
X808158Y-9516484D02*
X789110Y-9506960D01*
X789110Y-9506960D02*
X779586Y-9487912D01*
X779586Y-9487912D02*
X779586Y-9316484D01*
X1036729Y-9516484D02*
X1036729Y-9316484D01*
X1036729Y-9316484D02*
X1103396Y-9459341D01*
X1103396Y-9459341D02*
X1170063Y-9316484D01*
X1170063Y-9316484D02*
X1170063Y-9516484D01*
X1351015Y-9516484D02*
X1351015Y-9411722D01*
X1351015Y-9411722D02*
X1341491Y-9392674D01*
X1341491Y-9392674D02*
X1322444Y-9383150D01*
X1322444Y-9383150D02*
X1284348Y-9383150D01*
X1284348Y-9383150D02*
X1265301Y-9392674D01*
X1351015Y-9506960D02*
X1331967Y-9516484D01*
X1331967Y-9516484D02*
X1284348Y-9516484D01*
X1284348Y-9516484D02*
X1265301Y-9506960D01*
X1265301Y-9506960D02*
X1255777Y-9487912D01*
X1255777Y-9487912D02*
X1255777Y-9468865D01*
X1255777Y-9468865D02*
X1265301Y-9449817D01*
X1265301Y-9449817D02*
X1284348Y-9440293D01*
X1284348Y-9440293D02*
X1331967Y-9440293D01*
X1331967Y-9440293D02*
X1351015Y-9430770D01*
X1446253Y-9383150D02*
X1446253Y-9583150D01*
X1446253Y-9392674D02*
X1465301Y-9383150D01*
X1465301Y-9383150D02*
X1503396Y-9383150D01*
X1503396Y-9383150D02*
X1522443Y-9392674D01*
X1522443Y-9392674D02*
X1531967Y-9402198D01*
X1531967Y-9402198D02*
X1541491Y-9421246D01*
X1541491Y-9421246D02*
X1541491Y-9478389D01*
X1541491Y-9478389D02*
X1531967Y-9497436D01*
X1531967Y-9497436D02*
X1522443Y-9506960D01*
X1522443Y-9506960D02*
X1503396Y-9516484D01*
X1503396Y-9516484D02*
X1465301Y-9516484D01*
X1465301Y-9516484D02*
X1446253Y-9506960D01*
X1627205Y-9497436D02*
X1636729Y-9506960D01*
X1636729Y-9506960D02*
X1627205Y-9516484D01*
X1627205Y-9516484D02*
X1617682Y-9506960D01*
X1617682Y-9506960D02*
X1627205Y-9497436D01*
X1627205Y-9497436D02*
X1627205Y-9516484D01*
X1627205Y-9392674D02*
X1636729Y-9402198D01*
X1636729Y-9402198D02*
X1627205Y-9411722D01*
X1627205Y-9411722D02*
X1617682Y-9402198D01*
X1617682Y-9402198D02*
X1627205Y-9392674D01*
X1627205Y-9392674D02*
X1627205Y-9411722D01*
D10*
X-35000Y-9830000D02*
X-5000Y-9860000D01*
X-5000Y-9830000D02*
X-35000Y-9860000D01*
D11*
X293872Y-9736484D02*
X312920Y-9736484D01*
X312920Y-9736484D02*
X331967Y-9746008D01*
X331967Y-9746008D02*
X341491Y-9755531D01*
X341491Y-9755531D02*
X351015Y-9774579D01*
X351015Y-9774579D02*
X360539Y-9812674D01*
X360539Y-9812674D02*
X360539Y-9860293D01*
X360539Y-9860293D02*
X351015Y-9898389D01*
X351015Y-9898389D02*
X341491Y-9917436D01*
X341491Y-9917436D02*
X331967Y-9926960D01*
X331967Y-9926960D02*
X312920Y-9936484D01*
X312920Y-9936484D02*
X293872Y-9936484D01*
X293872Y-9936484D02*
X274824Y-9926960D01*
X274824Y-9926960D02*
X265301Y-9917436D01*
X265301Y-9917436D02*
X255777Y-9898389D01*
X255777Y-9898389D02*
X246253Y-9860293D01*
X246253Y-9860293D02*
X246253Y-9812674D01*
X246253Y-9812674D02*
X255777Y-9774579D01*
X255777Y-9774579D02*
X265301Y-9755531D01*
X265301Y-9755531D02*
X274824Y-9746008D01*
X274824Y-9746008D02*
X293872Y-9736484D01*
X446253Y-9917436D02*
X455777Y-9926960D01*
X455777Y-9926960D02*
X446253Y-9936484D01*
X446253Y-9936484D02*
X436729Y-9926960D01*
X436729Y-9926960D02*
X446253Y-9917436D01*
X446253Y-9917436D02*
X446253Y-9936484D01*
X522443Y-9736484D02*
X646253Y-9736484D01*
X646253Y-9736484D02*
X579586Y-9812674D01*
X579586Y-9812674D02*
X608158Y-9812674D01*
X608158Y-9812674D02*
X627205Y-9822198D01*
X627205Y-9822198D02*
X636729Y-9831722D01*
X636729Y-9831722D02*
X646253Y-9850770D01*
X646253Y-9850770D02*
X646253Y-9898389D01*
X646253Y-9898389D02*
X636729Y-9917436D01*
X636729Y-9917436D02*
X627205Y-9926960D01*
X627205Y-9926960D02*
X608158Y-9936484D01*
X608158Y-9936484D02*
X551015Y-9936484D01*
X551015Y-9936484D02*
X531967Y-9926960D01*
X531967Y-9926960D02*
X522443Y-9917436D01*
X770062Y-9736484D02*
X789110Y-9736484D01*
X789110Y-9736484D02*
X808158Y-9746008D01*
X808158Y-9746008D02*
X817682Y-9755531D01*
X817682Y-9755531D02*
X827205Y-9774579D01*
X827205Y-9774579D02*
X836729Y-9812674D01*
X836729Y-9812674D02*
X836729Y-9860293D01*
X836729Y-9860293D02*
X827205Y-9898389D01*
X827205Y-9898389D02*
X817682Y-9917436D01*
X817682Y-9917436D02*
X808158Y-9926960D01*
X808158Y-9926960D02*
X789110Y-9936484D01*
X789110Y-9936484D02*
X770062Y-9936484D01*
X770062Y-9936484D02*
X751015Y-9926960D01*
X751015Y-9926960D02*
X741491Y-9917436D01*
X741491Y-9917436D02*
X731967Y-9898389D01*
X731967Y-9898389D02*
X722443Y-9860293D01*
X722443Y-9860293D02*
X722443Y-9812674D01*
X722443Y-9812674D02*
X731967Y-9774579D01*
X731967Y-9774579D02*
X741491Y-9755531D01*
X741491Y-9755531D02*
X751015Y-9746008D01*
X751015Y-9746008D02*
X770062Y-9736484D01*
X960539Y-9736484D02*
X979586Y-9736484D01*
X979586Y-9736484D02*
X998634Y-9746008D01*
X998634Y-9746008D02*
X1008158Y-9755531D01*
X1008158Y-9755531D02*
X1017682Y-9774579D01*
X1017682Y-9774579D02*
X1027205Y-9812674D01*
X1027205Y-9812674D02*
X1027205Y-9860293D01*
X1027205Y-9860293D02*
X1017682Y-9898389D01*
X1017682Y-9898389D02*
X1008158Y-9917436D01*
X1008158Y-9917436D02*
X998634Y-9926960D01*
X998634Y-9926960D02*
X979586Y-9936484D01*
X979586Y-9936484D02*
X960539Y-9936484D01*
X960539Y-9936484D02*
X941491Y-9926960D01*
X941491Y-9926960D02*
X931967Y-9917436D01*
X931967Y-9917436D02*
X922443Y-9898389D01*
X922443Y-9898389D02*
X912920Y-9860293D01*
X912920Y-9860293D02*
X912920Y-9812674D01*
X912920Y-9812674D02*
X922443Y-9774579D01*
X922443Y-9774579D02*
X931967Y-9755531D01*
X931967Y-9755531D02*
X941491Y-9746008D01*
X941491Y-9746008D02*
X960539Y-9736484D01*
X1112920Y-9936484D02*
X1112920Y-9803150D01*
X1112920Y-9822198D02*
X1122444Y-9812674D01*
X1122444Y-9812674D02*
X1141491Y-9803150D01*
X1141491Y-9803150D02*
X1170063Y-9803150D01*
X1170063Y-9803150D02*
X1189110Y-9812674D01*
X1189110Y-9812674D02*
X1198634Y-9831722D01*
X1198634Y-9831722D02*
X1198634Y-9936484D01*
X1198634Y-9831722D02*
X1208158Y-9812674D01*
X1208158Y-9812674D02*
X1227205Y-9803150D01*
X1227205Y-9803150D02*
X1255777Y-9803150D01*
X1255777Y-9803150D02*
X1274825Y-9812674D01*
X1274825Y-9812674D02*
X1284348Y-9831722D01*
X1284348Y-9831722D02*
X1284348Y-9936484D01*
X1379586Y-9936484D02*
X1379586Y-9803150D01*
X1379586Y-9822198D02*
X1389110Y-9812674D01*
X1389110Y-9812674D02*
X1408158Y-9803150D01*
X1408158Y-9803150D02*
X1436729Y-9803150D01*
X1436729Y-9803150D02*
X1455777Y-9812674D01*
X1455777Y-9812674D02*
X1465301Y-9831722D01*
X1465301Y-9831722D02*
X1465301Y-9936484D01*
X1465301Y-9831722D02*
X1474824Y-9812674D01*
X1474824Y-9812674D02*
X1493872Y-9803150D01*
X1493872Y-9803150D02*
X1522443Y-9803150D01*
X1522443Y-9803150D02*
X1541491Y-9812674D01*
X1541491Y-9812674D02*
X1551015Y-9831722D01*
X1551015Y-9831722D02*
X1551015Y-9936484D01*
X1941491Y-9726960D02*
X1770063Y-9984103D01*
X2198634Y-9736484D02*
X2217682Y-9736484D01*
X2217682Y-9736484D02*
X2236729Y-9746008D01*
X2236729Y-9746008D02*
X2246253Y-9755531D01*
X2246253Y-9755531D02*
X2255777Y-9774579D01*
X2255777Y-9774579D02*
X2265301Y-9812674D01*
X2265301Y-9812674D02*
X2265301Y-9860293D01*
X2265301Y-9860293D02*
X2255777Y-9898389D01*
X2255777Y-9898389D02*
X2246253Y-9917436D01*
X2246253Y-9917436D02*
X2236729Y-9926960D01*
X2236729Y-9926960D02*
X2217682Y-9936484D01*
X2217682Y-9936484D02*
X2198634Y-9936484D01*
X2198634Y-9936484D02*
X2179587Y-9926960D01*
X2179587Y-9926960D02*
X2170063Y-9917436D01*
X2170063Y-9917436D02*
X2160539Y-9898389D01*
X2160539Y-9898389D02*
X2151015Y-9860293D01*
X2151015Y-9860293D02*
X2151015Y-9812674D01*
X2151015Y-9812674D02*
X2160539Y-9774579D01*
X2160539Y-9774579D02*
X2170063Y-9755531D01*
X2170063Y-9755531D02*
X2179587Y-9746008D01*
X2179587Y-9746008D02*
X2198634Y-9736484D01*
X2351015Y-9917436D02*
X2360539Y-9926960D01*
X2360539Y-9926960D02*
X2351015Y-9936484D01*
X2351015Y-9936484D02*
X2341491Y-9926960D01*
X2341491Y-9926960D02*
X2351015Y-9917436D01*
X2351015Y-9917436D02*
X2351015Y-9936484D01*
X2484348Y-9736484D02*
X2503396Y-9736484D01*
X2503396Y-9736484D02*
X2522444Y-9746008D01*
X2522444Y-9746008D02*
X2531968Y-9755531D01*
X2531968Y-9755531D02*
X2541491Y-9774579D01*
X2541491Y-9774579D02*
X2551015Y-9812674D01*
X2551015Y-9812674D02*
X2551015Y-9860293D01*
X2551015Y-9860293D02*
X2541491Y-9898389D01*
X2541491Y-9898389D02*
X2531968Y-9917436D01*
X2531968Y-9917436D02*
X2522444Y-9926960D01*
X2522444Y-9926960D02*
X2503396Y-9936484D01*
X2503396Y-9936484D02*
X2484348Y-9936484D01*
X2484348Y-9936484D02*
X2465301Y-9926960D01*
X2465301Y-9926960D02*
X2455777Y-9917436D01*
X2455777Y-9917436D02*
X2446253Y-9898389D01*
X2446253Y-9898389D02*
X2436729Y-9860293D01*
X2436729Y-9860293D02*
X2436729Y-9812674D01*
X2436729Y-9812674D02*
X2446253Y-9774579D01*
X2446253Y-9774579D02*
X2455777Y-9755531D01*
X2455777Y-9755531D02*
X2465301Y-9746008D01*
X2465301Y-9746008D02*
X2484348Y-9736484D01*
X2741491Y-9936484D02*
X2627206Y-9936484D01*
X2684348Y-9936484D02*
X2684348Y-9736484D01*
X2684348Y-9736484D02*
X2665301Y-9765055D01*
X2665301Y-9765055D02*
X2646253Y-9784103D01*
X2646253Y-9784103D02*
X2627206Y-9793627D01*
X2931967Y-9936484D02*
X2817682Y-9936484D01*
X2874825Y-9936484D02*
X2874825Y-9736484D01*
X2874825Y-9736484D02*
X2855777Y-9765055D01*
X2855777Y-9765055D02*
X2836729Y-9784103D01*
X2836729Y-9784103D02*
X2817682Y-9793627D01*
X3046253Y-9822198D02*
X3027206Y-9812674D01*
X3027206Y-9812674D02*
X3017682Y-9803150D01*
X3017682Y-9803150D02*
X3008158Y-9784103D01*
X3008158Y-9784103D02*
X3008158Y-9774579D01*
X3008158Y-9774579D02*
X3017682Y-9755531D01*
X3017682Y-9755531D02*
X3027206Y-9746008D01*
X3027206Y-9746008D02*
X3046253Y-9736484D01*
X3046253Y-9736484D02*
X3084348Y-9736484D01*
X3084348Y-9736484D02*
X3103396Y-9746008D01*
X3103396Y-9746008D02*
X3112920Y-9755531D01*
X3112920Y-9755531D02*
X3122444Y-9774579D01*
X3122444Y-9774579D02*
X3122444Y-9784103D01*
X3122444Y-9784103D02*
X3112920Y-9803150D01*
X3112920Y-9803150D02*
X3103396Y-9812674D01*
X3103396Y-9812674D02*
X3084348Y-9822198D01*
X3084348Y-9822198D02*
X3046253Y-9822198D01*
X3046253Y-9822198D02*
X3027206Y-9831722D01*
X3027206Y-9831722D02*
X3017682Y-9841246D01*
X3017682Y-9841246D02*
X3008158Y-9860293D01*
X3008158Y-9860293D02*
X3008158Y-9898389D01*
X3008158Y-9898389D02*
X3017682Y-9917436D01*
X3017682Y-9917436D02*
X3027206Y-9926960D01*
X3027206Y-9926960D02*
X3046253Y-9936484D01*
X3046253Y-9936484D02*
X3084348Y-9936484D01*
X3084348Y-9936484D02*
X3103396Y-9926960D01*
X3103396Y-9926960D02*
X3112920Y-9917436D01*
X3112920Y-9917436D02*
X3122444Y-9898389D01*
X3122444Y-9898389D02*
X3122444Y-9860293D01*
X3122444Y-9860293D02*
X3112920Y-9841246D01*
X3112920Y-9841246D02*
X3103396Y-9831722D01*
X3103396Y-9831722D02*
X3084348Y-9822198D01*
X3198634Y-9736484D02*
X3198634Y-9774579D01*
X3274825Y-9736484D02*
X3274825Y-9774579D01*
X3570063Y-10012674D02*
X3560539Y-10003150D01*
X3560539Y-10003150D02*
X3541491Y-9974579D01*
X3541491Y-9974579D02*
X3531968Y-9955531D01*
X3531968Y-9955531D02*
X3522444Y-9926960D01*
X3522444Y-9926960D02*
X3512920Y-9879341D01*
X3512920Y-9879341D02*
X3512920Y-9841246D01*
X3512920Y-9841246D02*
X3522444Y-9793627D01*
X3522444Y-9793627D02*
X3531968Y-9765055D01*
X3531968Y-9765055D02*
X3541491Y-9746008D01*
X3541491Y-9746008D02*
X3560539Y-9717436D01*
X3560539Y-9717436D02*
X3570063Y-9707912D01*
X3751015Y-9936484D02*
X3636729Y-9936484D01*
X3693872Y-9936484D02*
X3693872Y-9736484D01*
X3693872Y-9736484D02*
X3674825Y-9765055D01*
X3674825Y-9765055D02*
X3655777Y-9784103D01*
X3655777Y-9784103D02*
X3636729Y-9793627D01*
X3827206Y-9755531D02*
X3836729Y-9746008D01*
X3836729Y-9746008D02*
X3855777Y-9736484D01*
X3855777Y-9736484D02*
X3903396Y-9736484D01*
X3903396Y-9736484D02*
X3922444Y-9746008D01*
X3922444Y-9746008D02*
X3931968Y-9755531D01*
X3931968Y-9755531D02*
X3941491Y-9774579D01*
X3941491Y-9774579D02*
X3941491Y-9793627D01*
X3941491Y-9793627D02*
X3931968Y-9822198D01*
X3931968Y-9822198D02*
X3817682Y-9936484D01*
X3817682Y-9936484D02*
X3941491Y-9936484D01*
X4179587Y-9936484D02*
X4179587Y-9736484D01*
X4265301Y-9936484D02*
X4265301Y-9831722D01*
X4265301Y-9831722D02*
X4255777Y-9812674D01*
X4255777Y-9812674D02*
X4236730Y-9803150D01*
X4236730Y-9803150D02*
X4208158Y-9803150D01*
X4208158Y-9803150D02*
X4189110Y-9812674D01*
X4189110Y-9812674D02*
X4179587Y-9822198D01*
X4389111Y-9936484D02*
X4370063Y-9926960D01*
X4370063Y-9926960D02*
X4360539Y-9917436D01*
X4360539Y-9917436D02*
X4351015Y-9898389D01*
X4351015Y-9898389D02*
X4351015Y-9841246D01*
X4351015Y-9841246D02*
X4360539Y-9822198D01*
X4360539Y-9822198D02*
X4370063Y-9812674D01*
X4370063Y-9812674D02*
X4389111Y-9803150D01*
X4389111Y-9803150D02*
X4417682Y-9803150D01*
X4417682Y-9803150D02*
X4436730Y-9812674D01*
X4436730Y-9812674D02*
X4446253Y-9822198D01*
X4446253Y-9822198D02*
X4455777Y-9841246D01*
X4455777Y-9841246D02*
X4455777Y-9898389D01*
X4455777Y-9898389D02*
X4446253Y-9917436D01*
X4446253Y-9917436D02*
X4436730Y-9926960D01*
X4436730Y-9926960D02*
X4417682Y-9936484D01*
X4417682Y-9936484D02*
X4389111Y-9936484D01*
X4570063Y-9936484D02*
X4551015Y-9926960D01*
X4551015Y-9926960D02*
X4541492Y-9907912D01*
X4541492Y-9907912D02*
X4541492Y-9736484D01*
X4722444Y-9926960D02*
X4703396Y-9936484D01*
X4703396Y-9936484D02*
X4665301Y-9936484D01*
X4665301Y-9936484D02*
X4646253Y-9926960D01*
X4646253Y-9926960D02*
X4636730Y-9907912D01*
X4636730Y-9907912D02*
X4636730Y-9831722D01*
X4636730Y-9831722D02*
X4646253Y-9812674D01*
X4646253Y-9812674D02*
X4665301Y-9803150D01*
X4665301Y-9803150D02*
X4703396Y-9803150D01*
X4703396Y-9803150D02*
X4722444Y-9812674D01*
X4722444Y-9812674D02*
X4731968Y-9831722D01*
X4731968Y-9831722D02*
X4731968Y-9850770D01*
X4731968Y-9850770D02*
X4636730Y-9869817D01*
X4808158Y-9926960D02*
X4827206Y-9936484D01*
X4827206Y-9936484D02*
X4865301Y-9936484D01*
X4865301Y-9936484D02*
X4884349Y-9926960D01*
X4884349Y-9926960D02*
X4893873Y-9907912D01*
X4893873Y-9907912D02*
X4893873Y-9898389D01*
X4893873Y-9898389D02*
X4884349Y-9879341D01*
X4884349Y-9879341D02*
X4865301Y-9869817D01*
X4865301Y-9869817D02*
X4836730Y-9869817D01*
X4836730Y-9869817D02*
X4817682Y-9860293D01*
X4817682Y-9860293D02*
X4808158Y-9841246D01*
X4808158Y-9841246D02*
X4808158Y-9831722D01*
X4808158Y-9831722D02*
X4817682Y-9812674D01*
X4817682Y-9812674D02*
X4836730Y-9803150D01*
X4836730Y-9803150D02*
X4865301Y-9803150D01*
X4865301Y-9803150D02*
X4884349Y-9812674D01*
X4960539Y-10012674D02*
X4970063Y-10003150D01*
X4970063Y-10003150D02*
X4989111Y-9974579D01*
X4989111Y-9974579D02*
X4998634Y-9955531D01*
X4998634Y-9955531D02*
X5008158Y-9926960D01*
X5008158Y-9926960D02*
X5017682Y-9879341D01*
X5017682Y-9879341D02*
X5017682Y-9841246D01*
X5017682Y-9841246D02*
X5008158Y-9793627D01*
X5008158Y-9793627D02*
X4998634Y-9765055D01*
X4998634Y-9765055D02*
X4989111Y-9746008D01*
X4989111Y-9746008D02*
X4970063Y-9717436D01*
X4970063Y-9717436D02*
X4960539Y-9707912D01*
D10*
X-5000Y-10109000D02*
G75*
G02*
X-45000Y-10109000I-20000J0D01*
G01*
X-45000Y-10109000D02*
G75*
G02*
X-5000Y-10109000I20000J0D01*
G01*
D11*
X293872Y-10000484D02*
X312920Y-10000484D01*
X312920Y-10000484D02*
X331967Y-10010008D01*
X331967Y-10010008D02*
X341491Y-10019531D01*
X341491Y-10019531D02*
X351015Y-10038579D01*
X351015Y-10038579D02*
X360539Y-10076674D01*
X360539Y-10076674D02*
X360539Y-10124293D01*
X360539Y-10124293D02*
X351015Y-10162389D01*
X351015Y-10162389D02*
X341491Y-10181436D01*
X341491Y-10181436D02*
X331967Y-10190960D01*
X331967Y-10190960D02*
X312920Y-10200484D01*
X312920Y-10200484D02*
X293872Y-10200484D01*
X293872Y-10200484D02*
X274824Y-10190960D01*
X274824Y-10190960D02*
X265301Y-10181436D01*
X265301Y-10181436D02*
X255777Y-10162389D01*
X255777Y-10162389D02*
X246253Y-10124293D01*
X246253Y-10124293D02*
X246253Y-10076674D01*
X246253Y-10076674D02*
X255777Y-10038579D01*
X255777Y-10038579D02*
X265301Y-10019531D01*
X265301Y-10019531D02*
X274824Y-10010008D01*
X274824Y-10010008D02*
X293872Y-10000484D01*
X446253Y-10181436D02*
X455777Y-10190960D01*
X455777Y-10190960D02*
X446253Y-10200484D01*
X446253Y-10200484D02*
X436729Y-10190960D01*
X436729Y-10190960D02*
X446253Y-10181436D01*
X446253Y-10181436D02*
X446253Y-10200484D01*
X627205Y-10067150D02*
X627205Y-10200484D01*
X579586Y-9990960D02*
X531967Y-10133817D01*
X531967Y-10133817D02*
X655777Y-10133817D01*
X770062Y-10000484D02*
X789110Y-10000484D01*
X789110Y-10000484D02*
X808158Y-10010008D01*
X808158Y-10010008D02*
X817682Y-10019531D01*
X817682Y-10019531D02*
X827205Y-10038579D01*
X827205Y-10038579D02*
X836729Y-10076674D01*
X836729Y-10076674D02*
X836729Y-10124293D01*
X836729Y-10124293D02*
X827205Y-10162389D01*
X827205Y-10162389D02*
X817682Y-10181436D01*
X817682Y-10181436D02*
X808158Y-10190960D01*
X808158Y-10190960D02*
X789110Y-10200484D01*
X789110Y-10200484D02*
X770062Y-10200484D01*
X770062Y-10200484D02*
X751015Y-10190960D01*
X751015Y-10190960D02*
X741491Y-10181436D01*
X741491Y-10181436D02*
X731967Y-10162389D01*
X731967Y-10162389D02*
X722443Y-10124293D01*
X722443Y-10124293D02*
X722443Y-10076674D01*
X722443Y-10076674D02*
X731967Y-10038579D01*
X731967Y-10038579D02*
X741491Y-10019531D01*
X741491Y-10019531D02*
X751015Y-10010008D01*
X751015Y-10010008D02*
X770062Y-10000484D01*
X960539Y-10000484D02*
X979586Y-10000484D01*
X979586Y-10000484D02*
X998634Y-10010008D01*
X998634Y-10010008D02*
X1008158Y-10019531D01*
X1008158Y-10019531D02*
X1017682Y-10038579D01*
X1017682Y-10038579D02*
X1027205Y-10076674D01*
X1027205Y-10076674D02*
X1027205Y-10124293D01*
X1027205Y-10124293D02*
X1017682Y-10162389D01*
X1017682Y-10162389D02*
X1008158Y-10181436D01*
X1008158Y-10181436D02*
X998634Y-10190960D01*
X998634Y-10190960D02*
X979586Y-10200484D01*
X979586Y-10200484D02*
X960539Y-10200484D01*
X960539Y-10200484D02*
X941491Y-10190960D01*
X941491Y-10190960D02*
X931967Y-10181436D01*
X931967Y-10181436D02*
X922443Y-10162389D01*
X922443Y-10162389D02*
X912920Y-10124293D01*
X912920Y-10124293D02*
X912920Y-10076674D01*
X912920Y-10076674D02*
X922443Y-10038579D01*
X922443Y-10038579D02*
X931967Y-10019531D01*
X931967Y-10019531D02*
X941491Y-10010008D01*
X941491Y-10010008D02*
X960539Y-10000484D01*
X1112920Y-10200484D02*
X1112920Y-10067150D01*
X1112920Y-10086198D02*
X1122444Y-10076674D01*
X1122444Y-10076674D02*
X1141491Y-10067150D01*
X1141491Y-10067150D02*
X1170063Y-10067150D01*
X1170063Y-10067150D02*
X1189110Y-10076674D01*
X1189110Y-10076674D02*
X1198634Y-10095722D01*
X1198634Y-10095722D02*
X1198634Y-10200484D01*
X1198634Y-10095722D02*
X1208158Y-10076674D01*
X1208158Y-10076674D02*
X1227205Y-10067150D01*
X1227205Y-10067150D02*
X1255777Y-10067150D01*
X1255777Y-10067150D02*
X1274825Y-10076674D01*
X1274825Y-10076674D02*
X1284348Y-10095722D01*
X1284348Y-10095722D02*
X1284348Y-10200484D01*
X1379586Y-10200484D02*
X1379586Y-10067150D01*
X1379586Y-10086198D02*
X1389110Y-10076674D01*
X1389110Y-10076674D02*
X1408158Y-10067150D01*
X1408158Y-10067150D02*
X1436729Y-10067150D01*
X1436729Y-10067150D02*
X1455777Y-10076674D01*
X1455777Y-10076674D02*
X1465301Y-10095722D01*
X1465301Y-10095722D02*
X1465301Y-10200484D01*
X1465301Y-10095722D02*
X1474824Y-10076674D01*
X1474824Y-10076674D02*
X1493872Y-10067150D01*
X1493872Y-10067150D02*
X1522443Y-10067150D01*
X1522443Y-10067150D02*
X1541491Y-10076674D01*
X1541491Y-10076674D02*
X1551015Y-10095722D01*
X1551015Y-10095722D02*
X1551015Y-10200484D01*
X1941491Y-9990960D02*
X1770063Y-10248103D01*
X2198634Y-10000484D02*
X2217682Y-10000484D01*
X2217682Y-10000484D02*
X2236729Y-10010008D01*
X2236729Y-10010008D02*
X2246253Y-10019531D01*
X2246253Y-10019531D02*
X2255777Y-10038579D01*
X2255777Y-10038579D02*
X2265301Y-10076674D01*
X2265301Y-10076674D02*
X2265301Y-10124293D01*
X2265301Y-10124293D02*
X2255777Y-10162389D01*
X2255777Y-10162389D02*
X2246253Y-10181436D01*
X2246253Y-10181436D02*
X2236729Y-10190960D01*
X2236729Y-10190960D02*
X2217682Y-10200484D01*
X2217682Y-10200484D02*
X2198634Y-10200484D01*
X2198634Y-10200484D02*
X2179587Y-10190960D01*
X2179587Y-10190960D02*
X2170063Y-10181436D01*
X2170063Y-10181436D02*
X2160539Y-10162389D01*
X2160539Y-10162389D02*
X2151015Y-10124293D01*
X2151015Y-10124293D02*
X2151015Y-10076674D01*
X2151015Y-10076674D02*
X2160539Y-10038579D01*
X2160539Y-10038579D02*
X2170063Y-10019531D01*
X2170063Y-10019531D02*
X2179587Y-10010008D01*
X2179587Y-10010008D02*
X2198634Y-10000484D01*
X2351015Y-10181436D02*
X2360539Y-10190960D01*
X2360539Y-10190960D02*
X2351015Y-10200484D01*
X2351015Y-10200484D02*
X2341491Y-10190960D01*
X2341491Y-10190960D02*
X2351015Y-10181436D01*
X2351015Y-10181436D02*
X2351015Y-10200484D01*
X2484348Y-10000484D02*
X2503396Y-10000484D01*
X2503396Y-10000484D02*
X2522444Y-10010008D01*
X2522444Y-10010008D02*
X2531968Y-10019531D01*
X2531968Y-10019531D02*
X2541491Y-10038579D01*
X2541491Y-10038579D02*
X2551015Y-10076674D01*
X2551015Y-10076674D02*
X2551015Y-10124293D01*
X2551015Y-10124293D02*
X2541491Y-10162389D01*
X2541491Y-10162389D02*
X2531968Y-10181436D01*
X2531968Y-10181436D02*
X2522444Y-10190960D01*
X2522444Y-10190960D02*
X2503396Y-10200484D01*
X2503396Y-10200484D02*
X2484348Y-10200484D01*
X2484348Y-10200484D02*
X2465301Y-10190960D01*
X2465301Y-10190960D02*
X2455777Y-10181436D01*
X2455777Y-10181436D02*
X2446253Y-10162389D01*
X2446253Y-10162389D02*
X2436729Y-10124293D01*
X2436729Y-10124293D02*
X2436729Y-10076674D01*
X2436729Y-10076674D02*
X2446253Y-10038579D01*
X2446253Y-10038579D02*
X2455777Y-10019531D01*
X2455777Y-10019531D02*
X2465301Y-10010008D01*
X2465301Y-10010008D02*
X2484348Y-10000484D01*
X2741491Y-10200484D02*
X2627206Y-10200484D01*
X2684348Y-10200484D02*
X2684348Y-10000484D01*
X2684348Y-10000484D02*
X2665301Y-10029055D01*
X2665301Y-10029055D02*
X2646253Y-10048103D01*
X2646253Y-10048103D02*
X2627206Y-10057627D01*
X2922444Y-10000484D02*
X2827206Y-10000484D01*
X2827206Y-10000484D02*
X2817682Y-10095722D01*
X2817682Y-10095722D02*
X2827206Y-10086198D01*
X2827206Y-10086198D02*
X2846253Y-10076674D01*
X2846253Y-10076674D02*
X2893872Y-10076674D01*
X2893872Y-10076674D02*
X2912920Y-10086198D01*
X2912920Y-10086198D02*
X2922444Y-10095722D01*
X2922444Y-10095722D02*
X2931967Y-10114770D01*
X2931967Y-10114770D02*
X2931967Y-10162389D01*
X2931967Y-10162389D02*
X2922444Y-10181436D01*
X2922444Y-10181436D02*
X2912920Y-10190960D01*
X2912920Y-10190960D02*
X2893872Y-10200484D01*
X2893872Y-10200484D02*
X2846253Y-10200484D01*
X2846253Y-10200484D02*
X2827206Y-10190960D01*
X2827206Y-10190960D02*
X2817682Y-10181436D01*
X2998634Y-10000484D02*
X3131967Y-10000484D01*
X3131967Y-10000484D02*
X3046253Y-10200484D01*
X3198634Y-10000484D02*
X3198634Y-10038579D01*
X3274825Y-10000484D02*
X3274825Y-10038579D01*
X3570063Y-10276674D02*
X3560539Y-10267150D01*
X3560539Y-10267150D02*
X3541491Y-10238579D01*
X3541491Y-10238579D02*
X3531968Y-10219531D01*
X3531968Y-10219531D02*
X3522444Y-10190960D01*
X3522444Y-10190960D02*
X3512920Y-10143341D01*
X3512920Y-10143341D02*
X3512920Y-10105246D01*
X3512920Y-10105246D02*
X3522444Y-10057627D01*
X3522444Y-10057627D02*
X3531968Y-10029055D01*
X3531968Y-10029055D02*
X3541491Y-10010008D01*
X3541491Y-10010008D02*
X3560539Y-9981436D01*
X3560539Y-9981436D02*
X3570063Y-9971912D01*
X3751015Y-10200484D02*
X3636729Y-10200484D01*
X3693872Y-10200484D02*
X3693872Y-10000484D01*
X3693872Y-10000484D02*
X3674825Y-10029055D01*
X3674825Y-10029055D02*
X3655777Y-10048103D01*
X3655777Y-10048103D02*
X3636729Y-10057627D01*
X3874825Y-10000484D02*
X3893872Y-10000484D01*
X3893872Y-10000484D02*
X3912920Y-10010008D01*
X3912920Y-10010008D02*
X3922444Y-10019531D01*
X3922444Y-10019531D02*
X3931968Y-10038579D01*
X3931968Y-10038579D02*
X3941491Y-10076674D01*
X3941491Y-10076674D02*
X3941491Y-10124293D01*
X3941491Y-10124293D02*
X3931968Y-10162389D01*
X3931968Y-10162389D02*
X3922444Y-10181436D01*
X3922444Y-10181436D02*
X3912920Y-10190960D01*
X3912920Y-10190960D02*
X3893872Y-10200484D01*
X3893872Y-10200484D02*
X3874825Y-10200484D01*
X3874825Y-10200484D02*
X3855777Y-10190960D01*
X3855777Y-10190960D02*
X3846253Y-10181436D01*
X3846253Y-10181436D02*
X3836729Y-10162389D01*
X3836729Y-10162389D02*
X3827206Y-10124293D01*
X3827206Y-10124293D02*
X3827206Y-10076674D01*
X3827206Y-10076674D02*
X3836729Y-10038579D01*
X3836729Y-10038579D02*
X3846253Y-10019531D01*
X3846253Y-10019531D02*
X3855777Y-10010008D01*
X3855777Y-10010008D02*
X3874825Y-10000484D01*
X4112920Y-10067150D02*
X4112920Y-10200484D01*
X4065301Y-9990960D02*
X4017682Y-10133817D01*
X4017682Y-10133817D02*
X4141491Y-10133817D01*
X4370063Y-10200484D02*
X4370063Y-10000484D01*
X4455777Y-10200484D02*
X4455777Y-10095722D01*
X4455777Y-10095722D02*
X4446253Y-10076674D01*
X4446253Y-10076674D02*
X4427206Y-10067150D01*
X4427206Y-10067150D02*
X4398634Y-10067150D01*
X4398634Y-10067150D02*
X4379587Y-10076674D01*
X4379587Y-10076674D02*
X4370063Y-10086198D01*
X4579587Y-10200484D02*
X4560539Y-10190960D01*
X4560539Y-10190960D02*
X4551015Y-10181436D01*
X4551015Y-10181436D02*
X4541492Y-10162389D01*
X4541492Y-10162389D02*
X4541492Y-10105246D01*
X4541492Y-10105246D02*
X4551015Y-10086198D01*
X4551015Y-10086198D02*
X4560539Y-10076674D01*
X4560539Y-10076674D02*
X4579587Y-10067150D01*
X4579587Y-10067150D02*
X4608158Y-10067150D01*
X4608158Y-10067150D02*
X4627206Y-10076674D01*
X4627206Y-10076674D02*
X4636730Y-10086198D01*
X4636730Y-10086198D02*
X4646253Y-10105246D01*
X4646253Y-10105246D02*
X4646253Y-10162389D01*
X4646253Y-10162389D02*
X4636730Y-10181436D01*
X4636730Y-10181436D02*
X4627206Y-10190960D01*
X4627206Y-10190960D02*
X4608158Y-10200484D01*
X4608158Y-10200484D02*
X4579587Y-10200484D01*
X4760539Y-10200484D02*
X4741492Y-10190960D01*
X4741492Y-10190960D02*
X4731968Y-10171912D01*
X4731968Y-10171912D02*
X4731968Y-10000484D01*
X4912920Y-10190960D02*
X4893873Y-10200484D01*
X4893873Y-10200484D02*
X4855777Y-10200484D01*
X4855777Y-10200484D02*
X4836730Y-10190960D01*
X4836730Y-10190960D02*
X4827206Y-10171912D01*
X4827206Y-10171912D02*
X4827206Y-10095722D01*
X4827206Y-10095722D02*
X4836730Y-10076674D01*
X4836730Y-10076674D02*
X4855777Y-10067150D01*
X4855777Y-10067150D02*
X4893873Y-10067150D01*
X4893873Y-10067150D02*
X4912920Y-10076674D01*
X4912920Y-10076674D02*
X4922444Y-10095722D01*
X4922444Y-10095722D02*
X4922444Y-10114770D01*
X4922444Y-10114770D02*
X4827206Y-10133817D01*
X4998634Y-10190960D02*
X5017682Y-10200484D01*
X5017682Y-10200484D02*
X5055777Y-10200484D01*
X5055777Y-10200484D02*
X5074825Y-10190960D01*
X5074825Y-10190960D02*
X5084349Y-10171912D01*
X5084349Y-10171912D02*
X5084349Y-10162389D01*
X5084349Y-10162389D02*
X5074825Y-10143341D01*
X5074825Y-10143341D02*
X5055777Y-10133817D01*
X5055777Y-10133817D02*
X5027206Y-10133817D01*
X5027206Y-10133817D02*
X5008158Y-10124293D01*
X5008158Y-10124293D02*
X4998634Y-10105246D01*
X4998634Y-10105246D02*
X4998634Y-10095722D01*
X4998634Y-10095722D02*
X5008158Y-10076674D01*
X5008158Y-10076674D02*
X5027206Y-10067150D01*
X5027206Y-10067150D02*
X5055777Y-10067150D01*
X5055777Y-10067150D02*
X5074825Y-10076674D01*
X5151015Y-10276674D02*
X5160539Y-10267150D01*
X5160539Y-10267150D02*
X5179587Y-10238579D01*
X5179587Y-10238579D02*
X5189111Y-10219531D01*
X5189111Y-10219531D02*
X5198634Y-10190960D01*
X5198634Y-10190960D02*
X5208158Y-10143341D01*
X5208158Y-10143341D02*
X5208158Y-10105246D01*
X5208158Y-10105246D02*
X5198634Y-10057627D01*
X5198634Y-10057627D02*
X5189111Y-10029055D01*
X5189111Y-10029055D02*
X5179587Y-10010008D01*
X5179587Y-10010008D02*
X5160539Y-9981436D01*
X5160539Y-9981436D02*
X5151015Y-9971912D01*
D10*
X-55000Y-10323000D02*
X-55000Y-10423000D01*
X-105000Y-10373000D02*
X-5000Y-10373000D01*
D11*
X360539Y-10464484D02*
X246253Y-10464484D01*
X303396Y-10464484D02*
X303396Y-10264484D01*
X303396Y-10264484D02*
X284348Y-10293055D01*
X284348Y-10293055D02*
X265301Y-10312103D01*
X265301Y-10312103D02*
X246253Y-10321627D01*
X446253Y-10445436D02*
X455777Y-10454960D01*
X455777Y-10454960D02*
X446253Y-10464484D01*
X446253Y-10464484D02*
X436729Y-10454960D01*
X436729Y-10454960D02*
X446253Y-10445436D01*
X446253Y-10445436D02*
X446253Y-10464484D01*
X579586Y-10264484D02*
X598634Y-10264484D01*
X598634Y-10264484D02*
X617682Y-10274008D01*
X617682Y-10274008D02*
X627205Y-10283531D01*
X627205Y-10283531D02*
X636729Y-10302579D01*
X636729Y-10302579D02*
X646253Y-10340674D01*
X646253Y-10340674D02*
X646253Y-10388293D01*
X646253Y-10388293D02*
X636729Y-10426389D01*
X636729Y-10426389D02*
X627205Y-10445436D01*
X627205Y-10445436D02*
X617682Y-10454960D01*
X617682Y-10454960D02*
X598634Y-10464484D01*
X598634Y-10464484D02*
X579586Y-10464484D01*
X579586Y-10464484D02*
X560539Y-10454960D01*
X560539Y-10454960D02*
X551015Y-10445436D01*
X551015Y-10445436D02*
X541491Y-10426389D01*
X541491Y-10426389D02*
X531967Y-10388293D01*
X531967Y-10388293D02*
X531967Y-10340674D01*
X531967Y-10340674D02*
X541491Y-10302579D01*
X541491Y-10302579D02*
X551015Y-10283531D01*
X551015Y-10283531D02*
X560539Y-10274008D01*
X560539Y-10274008D02*
X579586Y-10264484D01*
X770062Y-10264484D02*
X789110Y-10264484D01*
X789110Y-10264484D02*
X808158Y-10274008D01*
X808158Y-10274008D02*
X817682Y-10283531D01*
X817682Y-10283531D02*
X827205Y-10302579D01*
X827205Y-10302579D02*
X836729Y-10340674D01*
X836729Y-10340674D02*
X836729Y-10388293D01*
X836729Y-10388293D02*
X827205Y-10426389D01*
X827205Y-10426389D02*
X817682Y-10445436D01*
X817682Y-10445436D02*
X808158Y-10454960D01*
X808158Y-10454960D02*
X789110Y-10464484D01*
X789110Y-10464484D02*
X770062Y-10464484D01*
X770062Y-10464484D02*
X751015Y-10454960D01*
X751015Y-10454960D02*
X741491Y-10445436D01*
X741491Y-10445436D02*
X731967Y-10426389D01*
X731967Y-10426389D02*
X722443Y-10388293D01*
X722443Y-10388293D02*
X722443Y-10340674D01*
X722443Y-10340674D02*
X731967Y-10302579D01*
X731967Y-10302579D02*
X741491Y-10283531D01*
X741491Y-10283531D02*
X751015Y-10274008D01*
X751015Y-10274008D02*
X770062Y-10264484D01*
X960539Y-10264484D02*
X979586Y-10264484D01*
X979586Y-10264484D02*
X998634Y-10274008D01*
X998634Y-10274008D02*
X1008158Y-10283531D01*
X1008158Y-10283531D02*
X1017682Y-10302579D01*
X1017682Y-10302579D02*
X1027205Y-10340674D01*
X1027205Y-10340674D02*
X1027205Y-10388293D01*
X1027205Y-10388293D02*
X1017682Y-10426389D01*
X1017682Y-10426389D02*
X1008158Y-10445436D01*
X1008158Y-10445436D02*
X998634Y-10454960D01*
X998634Y-10454960D02*
X979586Y-10464484D01*
X979586Y-10464484D02*
X960539Y-10464484D01*
X960539Y-10464484D02*
X941491Y-10454960D01*
X941491Y-10454960D02*
X931967Y-10445436D01*
X931967Y-10445436D02*
X922443Y-10426389D01*
X922443Y-10426389D02*
X912920Y-10388293D01*
X912920Y-10388293D02*
X912920Y-10340674D01*
X912920Y-10340674D02*
X922443Y-10302579D01*
X922443Y-10302579D02*
X931967Y-10283531D01*
X931967Y-10283531D02*
X941491Y-10274008D01*
X941491Y-10274008D02*
X960539Y-10264484D01*
X1112920Y-10464484D02*
X1112920Y-10331150D01*
X1112920Y-10350198D02*
X1122444Y-10340674D01*
X1122444Y-10340674D02*
X1141491Y-10331150D01*
X1141491Y-10331150D02*
X1170063Y-10331150D01*
X1170063Y-10331150D02*
X1189110Y-10340674D01*
X1189110Y-10340674D02*
X1198634Y-10359722D01*
X1198634Y-10359722D02*
X1198634Y-10464484D01*
X1198634Y-10359722D02*
X1208158Y-10340674D01*
X1208158Y-10340674D02*
X1227205Y-10331150D01*
X1227205Y-10331150D02*
X1255777Y-10331150D01*
X1255777Y-10331150D02*
X1274825Y-10340674D01*
X1274825Y-10340674D02*
X1284348Y-10359722D01*
X1284348Y-10359722D02*
X1284348Y-10464484D01*
X1379586Y-10464484D02*
X1379586Y-10331150D01*
X1379586Y-10350198D02*
X1389110Y-10340674D01*
X1389110Y-10340674D02*
X1408158Y-10331150D01*
X1408158Y-10331150D02*
X1436729Y-10331150D01*
X1436729Y-10331150D02*
X1455777Y-10340674D01*
X1455777Y-10340674D02*
X1465301Y-10359722D01*
X1465301Y-10359722D02*
X1465301Y-10464484D01*
X1465301Y-10359722D02*
X1474824Y-10340674D01*
X1474824Y-10340674D02*
X1493872Y-10331150D01*
X1493872Y-10331150D02*
X1522443Y-10331150D01*
X1522443Y-10331150D02*
X1541491Y-10340674D01*
X1541491Y-10340674D02*
X1551015Y-10359722D01*
X1551015Y-10359722D02*
X1551015Y-10464484D01*
X1941491Y-10254960D02*
X1770063Y-10512103D01*
X2198634Y-10264484D02*
X2217682Y-10264484D01*
X2217682Y-10264484D02*
X2236729Y-10274008D01*
X2236729Y-10274008D02*
X2246253Y-10283531D01*
X2246253Y-10283531D02*
X2255777Y-10302579D01*
X2255777Y-10302579D02*
X2265301Y-10340674D01*
X2265301Y-10340674D02*
X2265301Y-10388293D01*
X2265301Y-10388293D02*
X2255777Y-10426389D01*
X2255777Y-10426389D02*
X2246253Y-10445436D01*
X2246253Y-10445436D02*
X2236729Y-10454960D01*
X2236729Y-10454960D02*
X2217682Y-10464484D01*
X2217682Y-10464484D02*
X2198634Y-10464484D01*
X2198634Y-10464484D02*
X2179587Y-10454960D01*
X2179587Y-10454960D02*
X2170063Y-10445436D01*
X2170063Y-10445436D02*
X2160539Y-10426389D01*
X2160539Y-10426389D02*
X2151015Y-10388293D01*
X2151015Y-10388293D02*
X2151015Y-10340674D01*
X2151015Y-10340674D02*
X2160539Y-10302579D01*
X2160539Y-10302579D02*
X2170063Y-10283531D01*
X2170063Y-10283531D02*
X2179587Y-10274008D01*
X2179587Y-10274008D02*
X2198634Y-10264484D01*
X2351015Y-10445436D02*
X2360539Y-10454960D01*
X2360539Y-10454960D02*
X2351015Y-10464484D01*
X2351015Y-10464484D02*
X2341491Y-10454960D01*
X2341491Y-10454960D02*
X2351015Y-10445436D01*
X2351015Y-10445436D02*
X2351015Y-10464484D01*
X2484348Y-10264484D02*
X2503396Y-10264484D01*
X2503396Y-10264484D02*
X2522444Y-10274008D01*
X2522444Y-10274008D02*
X2531968Y-10283531D01*
X2531968Y-10283531D02*
X2541491Y-10302579D01*
X2541491Y-10302579D02*
X2551015Y-10340674D01*
X2551015Y-10340674D02*
X2551015Y-10388293D01*
X2551015Y-10388293D02*
X2541491Y-10426389D01*
X2541491Y-10426389D02*
X2531968Y-10445436D01*
X2531968Y-10445436D02*
X2522444Y-10454960D01*
X2522444Y-10454960D02*
X2503396Y-10464484D01*
X2503396Y-10464484D02*
X2484348Y-10464484D01*
X2484348Y-10464484D02*
X2465301Y-10454960D01*
X2465301Y-10454960D02*
X2455777Y-10445436D01*
X2455777Y-10445436D02*
X2446253Y-10426389D01*
X2446253Y-10426389D02*
X2436729Y-10388293D01*
X2436729Y-10388293D02*
X2436729Y-10340674D01*
X2436729Y-10340674D02*
X2446253Y-10302579D01*
X2446253Y-10302579D02*
X2455777Y-10283531D01*
X2455777Y-10283531D02*
X2465301Y-10274008D01*
X2465301Y-10274008D02*
X2484348Y-10264484D01*
X2617682Y-10264484D02*
X2741491Y-10264484D01*
X2741491Y-10264484D02*
X2674825Y-10340674D01*
X2674825Y-10340674D02*
X2703396Y-10340674D01*
X2703396Y-10340674D02*
X2722444Y-10350198D01*
X2722444Y-10350198D02*
X2731968Y-10359722D01*
X2731968Y-10359722D02*
X2741491Y-10378770D01*
X2741491Y-10378770D02*
X2741491Y-10426389D01*
X2741491Y-10426389D02*
X2731968Y-10445436D01*
X2731968Y-10445436D02*
X2722444Y-10454960D01*
X2722444Y-10454960D02*
X2703396Y-10464484D01*
X2703396Y-10464484D02*
X2646253Y-10464484D01*
X2646253Y-10464484D02*
X2627206Y-10454960D01*
X2627206Y-10454960D02*
X2617682Y-10445436D01*
X2836729Y-10464484D02*
X2874825Y-10464484D01*
X2874825Y-10464484D02*
X2893872Y-10454960D01*
X2893872Y-10454960D02*
X2903396Y-10445436D01*
X2903396Y-10445436D02*
X2922444Y-10416865D01*
X2922444Y-10416865D02*
X2931967Y-10378770D01*
X2931967Y-10378770D02*
X2931967Y-10302579D01*
X2931967Y-10302579D02*
X2922444Y-10283531D01*
X2922444Y-10283531D02*
X2912920Y-10274008D01*
X2912920Y-10274008D02*
X2893872Y-10264484D01*
X2893872Y-10264484D02*
X2855777Y-10264484D01*
X2855777Y-10264484D02*
X2836729Y-10274008D01*
X2836729Y-10274008D02*
X2827206Y-10283531D01*
X2827206Y-10283531D02*
X2817682Y-10302579D01*
X2817682Y-10302579D02*
X2817682Y-10350198D01*
X2817682Y-10350198D02*
X2827206Y-10369246D01*
X2827206Y-10369246D02*
X2836729Y-10378770D01*
X2836729Y-10378770D02*
X2855777Y-10388293D01*
X2855777Y-10388293D02*
X2893872Y-10388293D01*
X2893872Y-10388293D02*
X2912920Y-10378770D01*
X2912920Y-10378770D02*
X2922444Y-10369246D01*
X2922444Y-10369246D02*
X2931967Y-10350198D01*
X3103396Y-10331150D02*
X3103396Y-10464484D01*
X3055777Y-10254960D02*
X3008158Y-10397817D01*
X3008158Y-10397817D02*
X3131967Y-10397817D01*
X3198634Y-10264484D02*
X3198634Y-10302579D01*
X3274825Y-10264484D02*
X3274825Y-10302579D01*
X3570063Y-10540674D02*
X3560539Y-10531150D01*
X3560539Y-10531150D02*
X3541491Y-10502579D01*
X3541491Y-10502579D02*
X3531968Y-10483531D01*
X3531968Y-10483531D02*
X3522444Y-10454960D01*
X3522444Y-10454960D02*
X3512920Y-10407341D01*
X3512920Y-10407341D02*
X3512920Y-10369246D01*
X3512920Y-10369246D02*
X3522444Y-10321627D01*
X3522444Y-10321627D02*
X3531968Y-10293055D01*
X3531968Y-10293055D02*
X3541491Y-10274008D01*
X3541491Y-10274008D02*
X3560539Y-10245436D01*
X3560539Y-10245436D02*
X3570063Y-10235912D01*
X3751015Y-10464484D02*
X3636729Y-10464484D01*
X3693872Y-10464484D02*
X3693872Y-10264484D01*
X3693872Y-10264484D02*
X3674825Y-10293055D01*
X3674825Y-10293055D02*
X3655777Y-10312103D01*
X3655777Y-10312103D02*
X3636729Y-10321627D01*
X3922444Y-10264484D02*
X3884348Y-10264484D01*
X3884348Y-10264484D02*
X3865301Y-10274008D01*
X3865301Y-10274008D02*
X3855777Y-10283531D01*
X3855777Y-10283531D02*
X3836729Y-10312103D01*
X3836729Y-10312103D02*
X3827206Y-10350198D01*
X3827206Y-10350198D02*
X3827206Y-10426389D01*
X3827206Y-10426389D02*
X3836729Y-10445436D01*
X3836729Y-10445436D02*
X3846253Y-10454960D01*
X3846253Y-10454960D02*
X3865301Y-10464484D01*
X3865301Y-10464484D02*
X3903396Y-10464484D01*
X3903396Y-10464484D02*
X3922444Y-10454960D01*
X3922444Y-10454960D02*
X3931968Y-10445436D01*
X3931968Y-10445436D02*
X3941491Y-10426389D01*
X3941491Y-10426389D02*
X3941491Y-10378770D01*
X3941491Y-10378770D02*
X3931968Y-10359722D01*
X3931968Y-10359722D02*
X3922444Y-10350198D01*
X3922444Y-10350198D02*
X3903396Y-10340674D01*
X3903396Y-10340674D02*
X3865301Y-10340674D01*
X3865301Y-10340674D02*
X3846253Y-10350198D01*
X3846253Y-10350198D02*
X3836729Y-10359722D01*
X3836729Y-10359722D02*
X3827206Y-10378770D01*
X4179587Y-10464484D02*
X4179587Y-10264484D01*
X4265301Y-10464484D02*
X4265301Y-10359722D01*
X4265301Y-10359722D02*
X4255777Y-10340674D01*
X4255777Y-10340674D02*
X4236730Y-10331150D01*
X4236730Y-10331150D02*
X4208158Y-10331150D01*
X4208158Y-10331150D02*
X4189110Y-10340674D01*
X4189110Y-10340674D02*
X4179587Y-10350198D01*
X4389111Y-10464484D02*
X4370063Y-10454960D01*
X4370063Y-10454960D02*
X4360539Y-10445436D01*
X4360539Y-10445436D02*
X4351015Y-10426389D01*
X4351015Y-10426389D02*
X4351015Y-10369246D01*
X4351015Y-10369246D02*
X4360539Y-10350198D01*
X4360539Y-10350198D02*
X4370063Y-10340674D01*
X4370063Y-10340674D02*
X4389111Y-10331150D01*
X4389111Y-10331150D02*
X4417682Y-10331150D01*
X4417682Y-10331150D02*
X4436730Y-10340674D01*
X4436730Y-10340674D02*
X4446253Y-10350198D01*
X4446253Y-10350198D02*
X4455777Y-10369246D01*
X4455777Y-10369246D02*
X4455777Y-10426389D01*
X4455777Y-10426389D02*
X4446253Y-10445436D01*
X4446253Y-10445436D02*
X4436730Y-10454960D01*
X4436730Y-10454960D02*
X4417682Y-10464484D01*
X4417682Y-10464484D02*
X4389111Y-10464484D01*
X4570063Y-10464484D02*
X4551015Y-10454960D01*
X4551015Y-10454960D02*
X4541492Y-10435912D01*
X4541492Y-10435912D02*
X4541492Y-10264484D01*
X4722444Y-10454960D02*
X4703396Y-10464484D01*
X4703396Y-10464484D02*
X4665301Y-10464484D01*
X4665301Y-10464484D02*
X4646253Y-10454960D01*
X4646253Y-10454960D02*
X4636730Y-10435912D01*
X4636730Y-10435912D02*
X4636730Y-10359722D01*
X4636730Y-10359722D02*
X4646253Y-10340674D01*
X4646253Y-10340674D02*
X4665301Y-10331150D01*
X4665301Y-10331150D02*
X4703396Y-10331150D01*
X4703396Y-10331150D02*
X4722444Y-10340674D01*
X4722444Y-10340674D02*
X4731968Y-10359722D01*
X4731968Y-10359722D02*
X4731968Y-10378770D01*
X4731968Y-10378770D02*
X4636730Y-10397817D01*
X4808158Y-10454960D02*
X4827206Y-10464484D01*
X4827206Y-10464484D02*
X4865301Y-10464484D01*
X4865301Y-10464484D02*
X4884349Y-10454960D01*
X4884349Y-10454960D02*
X4893873Y-10435912D01*
X4893873Y-10435912D02*
X4893873Y-10426389D01*
X4893873Y-10426389D02*
X4884349Y-10407341D01*
X4884349Y-10407341D02*
X4865301Y-10397817D01*
X4865301Y-10397817D02*
X4836730Y-10397817D01*
X4836730Y-10397817D02*
X4817682Y-10388293D01*
X4817682Y-10388293D02*
X4808158Y-10369246D01*
X4808158Y-10369246D02*
X4808158Y-10359722D01*
X4808158Y-10359722D02*
X4817682Y-10340674D01*
X4817682Y-10340674D02*
X4836730Y-10331150D01*
X4836730Y-10331150D02*
X4865301Y-10331150D01*
X4865301Y-10331150D02*
X4884349Y-10340674D01*
X4960539Y-10540674D02*
X4970063Y-10531150D01*
X4970063Y-10531150D02*
X4989111Y-10502579D01*
X4989111Y-10502579D02*
X4998634Y-10483531D01*
X4998634Y-10483531D02*
X5008158Y-10454960D01*
X5008158Y-10454960D02*
X5017682Y-10407341D01*
X5017682Y-10407341D02*
X5017682Y-10369246D01*
X5017682Y-10369246D02*
X5008158Y-10321627D01*
X5008158Y-10321627D02*
X4998634Y-10293055D01*
X4998634Y-10293055D02*
X4989111Y-10274008D01*
X4989111Y-10274008D02*
X4970063Y-10245436D01*
X4970063Y-10245436D02*
X4960539Y-10235912D01*
D12*
X-21109Y-10675891D02*
X-21109Y-10598109D01*
X-98891Y-10598109D01*
X-98891Y-10675891D01*
X-21109Y-10675891D01*
D11*
X360539Y-10728484D02*
X246253Y-10728484D01*
X303396Y-10728484D02*
X303396Y-10528484D01*
X303396Y-10528484D02*
X284348Y-10557055D01*
X284348Y-10557055D02*
X265301Y-10576103D01*
X265301Y-10576103D02*
X246253Y-10585627D01*
X446253Y-10709436D02*
X455777Y-10718960D01*
X455777Y-10718960D02*
X446253Y-10728484D01*
X446253Y-10728484D02*
X436729Y-10718960D01*
X436729Y-10718960D02*
X446253Y-10709436D01*
X446253Y-10709436D02*
X446253Y-10728484D01*
X646253Y-10728484D02*
X531967Y-10728484D01*
X589110Y-10728484D02*
X589110Y-10528484D01*
X589110Y-10528484D02*
X570063Y-10557055D01*
X570063Y-10557055D02*
X551015Y-10576103D01*
X551015Y-10576103D02*
X531967Y-10585627D01*
X770062Y-10528484D02*
X789110Y-10528484D01*
X789110Y-10528484D02*
X808158Y-10538008D01*
X808158Y-10538008D02*
X817682Y-10547531D01*
X817682Y-10547531D02*
X827205Y-10566579D01*
X827205Y-10566579D02*
X836729Y-10604674D01*
X836729Y-10604674D02*
X836729Y-10652293D01*
X836729Y-10652293D02*
X827205Y-10690389D01*
X827205Y-10690389D02*
X817682Y-10709436D01*
X817682Y-10709436D02*
X808158Y-10718960D01*
X808158Y-10718960D02*
X789110Y-10728484D01*
X789110Y-10728484D02*
X770062Y-10728484D01*
X770062Y-10728484D02*
X751015Y-10718960D01*
X751015Y-10718960D02*
X741491Y-10709436D01*
X741491Y-10709436D02*
X731967Y-10690389D01*
X731967Y-10690389D02*
X722443Y-10652293D01*
X722443Y-10652293D02*
X722443Y-10604674D01*
X722443Y-10604674D02*
X731967Y-10566579D01*
X731967Y-10566579D02*
X741491Y-10547531D01*
X741491Y-10547531D02*
X751015Y-10538008D01*
X751015Y-10538008D02*
X770062Y-10528484D01*
X960539Y-10528484D02*
X979586Y-10528484D01*
X979586Y-10528484D02*
X998634Y-10538008D01*
X998634Y-10538008D02*
X1008158Y-10547531D01*
X1008158Y-10547531D02*
X1017682Y-10566579D01*
X1017682Y-10566579D02*
X1027205Y-10604674D01*
X1027205Y-10604674D02*
X1027205Y-10652293D01*
X1027205Y-10652293D02*
X1017682Y-10690389D01*
X1017682Y-10690389D02*
X1008158Y-10709436D01*
X1008158Y-10709436D02*
X998634Y-10718960D01*
X998634Y-10718960D02*
X979586Y-10728484D01*
X979586Y-10728484D02*
X960539Y-10728484D01*
X960539Y-10728484D02*
X941491Y-10718960D01*
X941491Y-10718960D02*
X931967Y-10709436D01*
X931967Y-10709436D02*
X922443Y-10690389D01*
X922443Y-10690389D02*
X912920Y-10652293D01*
X912920Y-10652293D02*
X912920Y-10604674D01*
X912920Y-10604674D02*
X922443Y-10566579D01*
X922443Y-10566579D02*
X931967Y-10547531D01*
X931967Y-10547531D02*
X941491Y-10538008D01*
X941491Y-10538008D02*
X960539Y-10528484D01*
X1112920Y-10728484D02*
X1112920Y-10595150D01*
X1112920Y-10614198D02*
X1122444Y-10604674D01*
X1122444Y-10604674D02*
X1141491Y-10595150D01*
X1141491Y-10595150D02*
X1170063Y-10595150D01*
X1170063Y-10595150D02*
X1189110Y-10604674D01*
X1189110Y-10604674D02*
X1198634Y-10623722D01*
X1198634Y-10623722D02*
X1198634Y-10728484D01*
X1198634Y-10623722D02*
X1208158Y-10604674D01*
X1208158Y-10604674D02*
X1227205Y-10595150D01*
X1227205Y-10595150D02*
X1255777Y-10595150D01*
X1255777Y-10595150D02*
X1274825Y-10604674D01*
X1274825Y-10604674D02*
X1284348Y-10623722D01*
X1284348Y-10623722D02*
X1284348Y-10728484D01*
X1379586Y-10728484D02*
X1379586Y-10595150D01*
X1379586Y-10614198D02*
X1389110Y-10604674D01*
X1389110Y-10604674D02*
X1408158Y-10595150D01*
X1408158Y-10595150D02*
X1436729Y-10595150D01*
X1436729Y-10595150D02*
X1455777Y-10604674D01*
X1455777Y-10604674D02*
X1465301Y-10623722D01*
X1465301Y-10623722D02*
X1465301Y-10728484D01*
X1465301Y-10623722D02*
X1474824Y-10604674D01*
X1474824Y-10604674D02*
X1493872Y-10595150D01*
X1493872Y-10595150D02*
X1522443Y-10595150D01*
X1522443Y-10595150D02*
X1541491Y-10604674D01*
X1541491Y-10604674D02*
X1551015Y-10623722D01*
X1551015Y-10623722D02*
X1551015Y-10728484D01*
X1941491Y-10518960D02*
X1770063Y-10776103D01*
X2198634Y-10528484D02*
X2217682Y-10528484D01*
X2217682Y-10528484D02*
X2236729Y-10538008D01*
X2236729Y-10538008D02*
X2246253Y-10547531D01*
X2246253Y-10547531D02*
X2255777Y-10566579D01*
X2255777Y-10566579D02*
X2265301Y-10604674D01*
X2265301Y-10604674D02*
X2265301Y-10652293D01*
X2265301Y-10652293D02*
X2255777Y-10690389D01*
X2255777Y-10690389D02*
X2246253Y-10709436D01*
X2246253Y-10709436D02*
X2236729Y-10718960D01*
X2236729Y-10718960D02*
X2217682Y-10728484D01*
X2217682Y-10728484D02*
X2198634Y-10728484D01*
X2198634Y-10728484D02*
X2179587Y-10718960D01*
X2179587Y-10718960D02*
X2170063Y-10709436D01*
X2170063Y-10709436D02*
X2160539Y-10690389D01*
X2160539Y-10690389D02*
X2151015Y-10652293D01*
X2151015Y-10652293D02*
X2151015Y-10604674D01*
X2151015Y-10604674D02*
X2160539Y-10566579D01*
X2160539Y-10566579D02*
X2170063Y-10547531D01*
X2170063Y-10547531D02*
X2179587Y-10538008D01*
X2179587Y-10538008D02*
X2198634Y-10528484D01*
X2351015Y-10709436D02*
X2360539Y-10718960D01*
X2360539Y-10718960D02*
X2351015Y-10728484D01*
X2351015Y-10728484D02*
X2341491Y-10718960D01*
X2341491Y-10718960D02*
X2351015Y-10709436D01*
X2351015Y-10709436D02*
X2351015Y-10728484D01*
X2484348Y-10528484D02*
X2503396Y-10528484D01*
X2503396Y-10528484D02*
X2522444Y-10538008D01*
X2522444Y-10538008D02*
X2531968Y-10547531D01*
X2531968Y-10547531D02*
X2541491Y-10566579D01*
X2541491Y-10566579D02*
X2551015Y-10604674D01*
X2551015Y-10604674D02*
X2551015Y-10652293D01*
X2551015Y-10652293D02*
X2541491Y-10690389D01*
X2541491Y-10690389D02*
X2531968Y-10709436D01*
X2531968Y-10709436D02*
X2522444Y-10718960D01*
X2522444Y-10718960D02*
X2503396Y-10728484D01*
X2503396Y-10728484D02*
X2484348Y-10728484D01*
X2484348Y-10728484D02*
X2465301Y-10718960D01*
X2465301Y-10718960D02*
X2455777Y-10709436D01*
X2455777Y-10709436D02*
X2446253Y-10690389D01*
X2446253Y-10690389D02*
X2436729Y-10652293D01*
X2436729Y-10652293D02*
X2436729Y-10604674D01*
X2436729Y-10604674D02*
X2446253Y-10566579D01*
X2446253Y-10566579D02*
X2455777Y-10547531D01*
X2455777Y-10547531D02*
X2465301Y-10538008D01*
X2465301Y-10538008D02*
X2484348Y-10528484D01*
X2722444Y-10595150D02*
X2722444Y-10728484D01*
X2674825Y-10518960D02*
X2627206Y-10661817D01*
X2627206Y-10661817D02*
X2751015Y-10661817D01*
X2808158Y-10528484D02*
X2931967Y-10528484D01*
X2931967Y-10528484D02*
X2865301Y-10604674D01*
X2865301Y-10604674D02*
X2893872Y-10604674D01*
X2893872Y-10604674D02*
X2912920Y-10614198D01*
X2912920Y-10614198D02*
X2922444Y-10623722D01*
X2922444Y-10623722D02*
X2931967Y-10642770D01*
X2931967Y-10642770D02*
X2931967Y-10690389D01*
X2931967Y-10690389D02*
X2922444Y-10709436D01*
X2922444Y-10709436D02*
X2912920Y-10718960D01*
X2912920Y-10718960D02*
X2893872Y-10728484D01*
X2893872Y-10728484D02*
X2836729Y-10728484D01*
X2836729Y-10728484D02*
X2817682Y-10718960D01*
X2817682Y-10718960D02*
X2808158Y-10709436D01*
X2998634Y-10528484D02*
X3122444Y-10528484D01*
X3122444Y-10528484D02*
X3055777Y-10604674D01*
X3055777Y-10604674D02*
X3084348Y-10604674D01*
X3084348Y-10604674D02*
X3103396Y-10614198D01*
X3103396Y-10614198D02*
X3112920Y-10623722D01*
X3112920Y-10623722D02*
X3122444Y-10642770D01*
X3122444Y-10642770D02*
X3122444Y-10690389D01*
X3122444Y-10690389D02*
X3112920Y-10709436D01*
X3112920Y-10709436D02*
X3103396Y-10718960D01*
X3103396Y-10718960D02*
X3084348Y-10728484D01*
X3084348Y-10728484D02*
X3027206Y-10728484D01*
X3027206Y-10728484D02*
X3008158Y-10718960D01*
X3008158Y-10718960D02*
X2998634Y-10709436D01*
X3198634Y-10528484D02*
X3198634Y-10566579D01*
X3274825Y-10528484D02*
X3274825Y-10566579D01*
X3570063Y-10804674D02*
X3560539Y-10795150D01*
X3560539Y-10795150D02*
X3541491Y-10766579D01*
X3541491Y-10766579D02*
X3531968Y-10747531D01*
X3531968Y-10747531D02*
X3522444Y-10718960D01*
X3522444Y-10718960D02*
X3512920Y-10671341D01*
X3512920Y-10671341D02*
X3512920Y-10633246D01*
X3512920Y-10633246D02*
X3522444Y-10585627D01*
X3522444Y-10585627D02*
X3531968Y-10557055D01*
X3531968Y-10557055D02*
X3541491Y-10538008D01*
X3541491Y-10538008D02*
X3560539Y-10509436D01*
X3560539Y-10509436D02*
X3570063Y-10499912D01*
X3674825Y-10614198D02*
X3655777Y-10604674D01*
X3655777Y-10604674D02*
X3646253Y-10595150D01*
X3646253Y-10595150D02*
X3636729Y-10576103D01*
X3636729Y-10576103D02*
X3636729Y-10566579D01*
X3636729Y-10566579D02*
X3646253Y-10547531D01*
X3646253Y-10547531D02*
X3655777Y-10538008D01*
X3655777Y-10538008D02*
X3674825Y-10528484D01*
X3674825Y-10528484D02*
X3712920Y-10528484D01*
X3712920Y-10528484D02*
X3731968Y-10538008D01*
X3731968Y-10538008D02*
X3741491Y-10547531D01*
X3741491Y-10547531D02*
X3751015Y-10566579D01*
X3751015Y-10566579D02*
X3751015Y-10576103D01*
X3751015Y-10576103D02*
X3741491Y-10595150D01*
X3741491Y-10595150D02*
X3731968Y-10604674D01*
X3731968Y-10604674D02*
X3712920Y-10614198D01*
X3712920Y-10614198D02*
X3674825Y-10614198D01*
X3674825Y-10614198D02*
X3655777Y-10623722D01*
X3655777Y-10623722D02*
X3646253Y-10633246D01*
X3646253Y-10633246D02*
X3636729Y-10652293D01*
X3636729Y-10652293D02*
X3636729Y-10690389D01*
X3636729Y-10690389D02*
X3646253Y-10709436D01*
X3646253Y-10709436D02*
X3655777Y-10718960D01*
X3655777Y-10718960D02*
X3674825Y-10728484D01*
X3674825Y-10728484D02*
X3712920Y-10728484D01*
X3712920Y-10728484D02*
X3731968Y-10718960D01*
X3731968Y-10718960D02*
X3741491Y-10709436D01*
X3741491Y-10709436D02*
X3751015Y-10690389D01*
X3751015Y-10690389D02*
X3751015Y-10652293D01*
X3751015Y-10652293D02*
X3741491Y-10633246D01*
X3741491Y-10633246D02*
X3731968Y-10623722D01*
X3731968Y-10623722D02*
X3712920Y-10614198D01*
X3989110Y-10728484D02*
X3989110Y-10528484D01*
X4074825Y-10728484D02*
X4074825Y-10623722D01*
X4074825Y-10623722D02*
X4065301Y-10604674D01*
X4065301Y-10604674D02*
X4046253Y-10595150D01*
X4046253Y-10595150D02*
X4017682Y-10595150D01*
X4017682Y-10595150D02*
X3998634Y-10604674D01*
X3998634Y-10604674D02*
X3989110Y-10614198D01*
X4198634Y-10728484D02*
X4179587Y-10718960D01*
X4179587Y-10718960D02*
X4170063Y-10709436D01*
X4170063Y-10709436D02*
X4160539Y-10690389D01*
X4160539Y-10690389D02*
X4160539Y-10633246D01*
X4160539Y-10633246D02*
X4170063Y-10614198D01*
X4170063Y-10614198D02*
X4179587Y-10604674D01*
X4179587Y-10604674D02*
X4198634Y-10595150D01*
X4198634Y-10595150D02*
X4227206Y-10595150D01*
X4227206Y-10595150D02*
X4246253Y-10604674D01*
X4246253Y-10604674D02*
X4255777Y-10614198D01*
X4255777Y-10614198D02*
X4265301Y-10633246D01*
X4265301Y-10633246D02*
X4265301Y-10690389D01*
X4265301Y-10690389D02*
X4255777Y-10709436D01*
X4255777Y-10709436D02*
X4246253Y-10718960D01*
X4246253Y-10718960D02*
X4227206Y-10728484D01*
X4227206Y-10728484D02*
X4198634Y-10728484D01*
X4379587Y-10728484D02*
X4360539Y-10718960D01*
X4360539Y-10718960D02*
X4351015Y-10699912D01*
X4351015Y-10699912D02*
X4351015Y-10528484D01*
X4531968Y-10718960D02*
X4512920Y-10728484D01*
X4512920Y-10728484D02*
X4474825Y-10728484D01*
X4474825Y-10728484D02*
X4455777Y-10718960D01*
X4455777Y-10718960D02*
X4446253Y-10699912D01*
X4446253Y-10699912D02*
X4446253Y-10623722D01*
X4446253Y-10623722D02*
X4455777Y-10604674D01*
X4455777Y-10604674D02*
X4474825Y-10595150D01*
X4474825Y-10595150D02*
X4512920Y-10595150D01*
X4512920Y-10595150D02*
X4531968Y-10604674D01*
X4531968Y-10604674D02*
X4541492Y-10623722D01*
X4541492Y-10623722D02*
X4541492Y-10642770D01*
X4541492Y-10642770D02*
X4446253Y-10661817D01*
X4617682Y-10718960D02*
X4636730Y-10728484D01*
X4636730Y-10728484D02*
X4674825Y-10728484D01*
X4674825Y-10728484D02*
X4693873Y-10718960D01*
X4693873Y-10718960D02*
X4703396Y-10699912D01*
X4703396Y-10699912D02*
X4703396Y-10690389D01*
X4703396Y-10690389D02*
X4693873Y-10671341D01*
X4693873Y-10671341D02*
X4674825Y-10661817D01*
X4674825Y-10661817D02*
X4646253Y-10661817D01*
X4646253Y-10661817D02*
X4627206Y-10652293D01*
X4627206Y-10652293D02*
X4617682Y-10633246D01*
X4617682Y-10633246D02*
X4617682Y-10623722D01*
X4617682Y-10623722D02*
X4627206Y-10604674D01*
X4627206Y-10604674D02*
X4646253Y-10595150D01*
X4646253Y-10595150D02*
X4674825Y-10595150D01*
X4674825Y-10595150D02*
X4693873Y-10604674D01*
X4770063Y-10804674D02*
X4779587Y-10795150D01*
X4779587Y-10795150D02*
X4798634Y-10766579D01*
X4798634Y-10766579D02*
X4808158Y-10747531D01*
X4808158Y-10747531D02*
X4817682Y-10718960D01*
X4817682Y-10718960D02*
X4827206Y-10671341D01*
X4827206Y-10671341D02*
X4827206Y-10633246D01*
X4827206Y-10633246D02*
X4817682Y-10585627D01*
X4817682Y-10585627D02*
X4808158Y-10557055D01*
X4808158Y-10557055D02*
X4798634Y-10538008D01*
X4798634Y-10538008D02*
X4779587Y-10509436D01*
X4779587Y-10509436D02*
X4770063Y-10499912D01*
D13*
X-70000Y-10966000D02*
X-5000Y-10901000D01*
X-70000Y-10836000D01*
X-135000Y-10901000D01*
X-70000Y-10966000D01*
D11*
X360539Y-10992484D02*
X246253Y-10992484D01*
X303396Y-10992484D02*
X303396Y-10792484D01*
X303396Y-10792484D02*
X284348Y-10821055D01*
X284348Y-10821055D02*
X265301Y-10840103D01*
X265301Y-10840103D02*
X246253Y-10849627D01*
X446253Y-10973436D02*
X455777Y-10982960D01*
X455777Y-10982960D02*
X446253Y-10992484D01*
X446253Y-10992484D02*
X436729Y-10982960D01*
X436729Y-10982960D02*
X446253Y-10973436D01*
X446253Y-10973436D02*
X446253Y-10992484D01*
X522443Y-10792484D02*
X646253Y-10792484D01*
X646253Y-10792484D02*
X579586Y-10868674D01*
X579586Y-10868674D02*
X608158Y-10868674D01*
X608158Y-10868674D02*
X627205Y-10878198D01*
X627205Y-10878198D02*
X636729Y-10887722D01*
X636729Y-10887722D02*
X646253Y-10906770D01*
X646253Y-10906770D02*
X646253Y-10954389D01*
X646253Y-10954389D02*
X636729Y-10973436D01*
X636729Y-10973436D02*
X627205Y-10982960D01*
X627205Y-10982960D02*
X608158Y-10992484D01*
X608158Y-10992484D02*
X551015Y-10992484D01*
X551015Y-10992484D02*
X531967Y-10982960D01*
X531967Y-10982960D02*
X522443Y-10973436D01*
X770062Y-10792484D02*
X789110Y-10792484D01*
X789110Y-10792484D02*
X808158Y-10802008D01*
X808158Y-10802008D02*
X817682Y-10811531D01*
X817682Y-10811531D02*
X827205Y-10830579D01*
X827205Y-10830579D02*
X836729Y-10868674D01*
X836729Y-10868674D02*
X836729Y-10916293D01*
X836729Y-10916293D02*
X827205Y-10954389D01*
X827205Y-10954389D02*
X817682Y-10973436D01*
X817682Y-10973436D02*
X808158Y-10982960D01*
X808158Y-10982960D02*
X789110Y-10992484D01*
X789110Y-10992484D02*
X770062Y-10992484D01*
X770062Y-10992484D02*
X751015Y-10982960D01*
X751015Y-10982960D02*
X741491Y-10973436D01*
X741491Y-10973436D02*
X731967Y-10954389D01*
X731967Y-10954389D02*
X722443Y-10916293D01*
X722443Y-10916293D02*
X722443Y-10868674D01*
X722443Y-10868674D02*
X731967Y-10830579D01*
X731967Y-10830579D02*
X741491Y-10811531D01*
X741491Y-10811531D02*
X751015Y-10802008D01*
X751015Y-10802008D02*
X770062Y-10792484D01*
X960539Y-10792484D02*
X979586Y-10792484D01*
X979586Y-10792484D02*
X998634Y-10802008D01*
X998634Y-10802008D02*
X1008158Y-10811531D01*
X1008158Y-10811531D02*
X1017682Y-10830579D01*
X1017682Y-10830579D02*
X1027205Y-10868674D01*
X1027205Y-10868674D02*
X1027205Y-10916293D01*
X1027205Y-10916293D02*
X1017682Y-10954389D01*
X1017682Y-10954389D02*
X1008158Y-10973436D01*
X1008158Y-10973436D02*
X998634Y-10982960D01*
X998634Y-10982960D02*
X979586Y-10992484D01*
X979586Y-10992484D02*
X960539Y-10992484D01*
X960539Y-10992484D02*
X941491Y-10982960D01*
X941491Y-10982960D02*
X931967Y-10973436D01*
X931967Y-10973436D02*
X922443Y-10954389D01*
X922443Y-10954389D02*
X912920Y-10916293D01*
X912920Y-10916293D02*
X912920Y-10868674D01*
X912920Y-10868674D02*
X922443Y-10830579D01*
X922443Y-10830579D02*
X931967Y-10811531D01*
X931967Y-10811531D02*
X941491Y-10802008D01*
X941491Y-10802008D02*
X960539Y-10792484D01*
X1112920Y-10992484D02*
X1112920Y-10859150D01*
X1112920Y-10878198D02*
X1122444Y-10868674D01*
X1122444Y-10868674D02*
X1141491Y-10859150D01*
X1141491Y-10859150D02*
X1170063Y-10859150D01*
X1170063Y-10859150D02*
X1189110Y-10868674D01*
X1189110Y-10868674D02*
X1198634Y-10887722D01*
X1198634Y-10887722D02*
X1198634Y-10992484D01*
X1198634Y-10887722D02*
X1208158Y-10868674D01*
X1208158Y-10868674D02*
X1227205Y-10859150D01*
X1227205Y-10859150D02*
X1255777Y-10859150D01*
X1255777Y-10859150D02*
X1274825Y-10868674D01*
X1274825Y-10868674D02*
X1284348Y-10887722D01*
X1284348Y-10887722D02*
X1284348Y-10992484D01*
X1379586Y-10992484D02*
X1379586Y-10859150D01*
X1379586Y-10878198D02*
X1389110Y-10868674D01*
X1389110Y-10868674D02*
X1408158Y-10859150D01*
X1408158Y-10859150D02*
X1436729Y-10859150D01*
X1436729Y-10859150D02*
X1455777Y-10868674D01*
X1455777Y-10868674D02*
X1465301Y-10887722D01*
X1465301Y-10887722D02*
X1465301Y-10992484D01*
X1465301Y-10887722D02*
X1474824Y-10868674D01*
X1474824Y-10868674D02*
X1493872Y-10859150D01*
X1493872Y-10859150D02*
X1522443Y-10859150D01*
X1522443Y-10859150D02*
X1541491Y-10868674D01*
X1541491Y-10868674D02*
X1551015Y-10887722D01*
X1551015Y-10887722D02*
X1551015Y-10992484D01*
X1941491Y-10782960D02*
X1770063Y-11040103D01*
X2198634Y-10792484D02*
X2217682Y-10792484D01*
X2217682Y-10792484D02*
X2236729Y-10802008D01*
X2236729Y-10802008D02*
X2246253Y-10811531D01*
X2246253Y-10811531D02*
X2255777Y-10830579D01*
X2255777Y-10830579D02*
X2265301Y-10868674D01*
X2265301Y-10868674D02*
X2265301Y-10916293D01*
X2265301Y-10916293D02*
X2255777Y-10954389D01*
X2255777Y-10954389D02*
X2246253Y-10973436D01*
X2246253Y-10973436D02*
X2236729Y-10982960D01*
X2236729Y-10982960D02*
X2217682Y-10992484D01*
X2217682Y-10992484D02*
X2198634Y-10992484D01*
X2198634Y-10992484D02*
X2179587Y-10982960D01*
X2179587Y-10982960D02*
X2170063Y-10973436D01*
X2170063Y-10973436D02*
X2160539Y-10954389D01*
X2160539Y-10954389D02*
X2151015Y-10916293D01*
X2151015Y-10916293D02*
X2151015Y-10868674D01*
X2151015Y-10868674D02*
X2160539Y-10830579D01*
X2160539Y-10830579D02*
X2170063Y-10811531D01*
X2170063Y-10811531D02*
X2179587Y-10802008D01*
X2179587Y-10802008D02*
X2198634Y-10792484D01*
X2351015Y-10973436D02*
X2360539Y-10982960D01*
X2360539Y-10982960D02*
X2351015Y-10992484D01*
X2351015Y-10992484D02*
X2341491Y-10982960D01*
X2341491Y-10982960D02*
X2351015Y-10973436D01*
X2351015Y-10973436D02*
X2351015Y-10992484D01*
X2484348Y-10792484D02*
X2503396Y-10792484D01*
X2503396Y-10792484D02*
X2522444Y-10802008D01*
X2522444Y-10802008D02*
X2531968Y-10811531D01*
X2531968Y-10811531D02*
X2541491Y-10830579D01*
X2541491Y-10830579D02*
X2551015Y-10868674D01*
X2551015Y-10868674D02*
X2551015Y-10916293D01*
X2551015Y-10916293D02*
X2541491Y-10954389D01*
X2541491Y-10954389D02*
X2531968Y-10973436D01*
X2531968Y-10973436D02*
X2522444Y-10982960D01*
X2522444Y-10982960D02*
X2503396Y-10992484D01*
X2503396Y-10992484D02*
X2484348Y-10992484D01*
X2484348Y-10992484D02*
X2465301Y-10982960D01*
X2465301Y-10982960D02*
X2455777Y-10973436D01*
X2455777Y-10973436D02*
X2446253Y-10954389D01*
X2446253Y-10954389D02*
X2436729Y-10916293D01*
X2436729Y-10916293D02*
X2436729Y-10868674D01*
X2436729Y-10868674D02*
X2446253Y-10830579D01*
X2446253Y-10830579D02*
X2455777Y-10811531D01*
X2455777Y-10811531D02*
X2465301Y-10802008D01*
X2465301Y-10802008D02*
X2484348Y-10792484D01*
X2731968Y-10792484D02*
X2636729Y-10792484D01*
X2636729Y-10792484D02*
X2627206Y-10887722D01*
X2627206Y-10887722D02*
X2636729Y-10878198D01*
X2636729Y-10878198D02*
X2655777Y-10868674D01*
X2655777Y-10868674D02*
X2703396Y-10868674D01*
X2703396Y-10868674D02*
X2722444Y-10878198D01*
X2722444Y-10878198D02*
X2731968Y-10887722D01*
X2731968Y-10887722D02*
X2741491Y-10906770D01*
X2741491Y-10906770D02*
X2741491Y-10954389D01*
X2741491Y-10954389D02*
X2731968Y-10973436D01*
X2731968Y-10973436D02*
X2722444Y-10982960D01*
X2722444Y-10982960D02*
X2703396Y-10992484D01*
X2703396Y-10992484D02*
X2655777Y-10992484D01*
X2655777Y-10992484D02*
X2636729Y-10982960D01*
X2636729Y-10982960D02*
X2627206Y-10973436D01*
X2931967Y-10992484D02*
X2817682Y-10992484D01*
X2874825Y-10992484D02*
X2874825Y-10792484D01*
X2874825Y-10792484D02*
X2855777Y-10821055D01*
X2855777Y-10821055D02*
X2836729Y-10840103D01*
X2836729Y-10840103D02*
X2817682Y-10849627D01*
X3008158Y-10811531D02*
X3017682Y-10802008D01*
X3017682Y-10802008D02*
X3036729Y-10792484D01*
X3036729Y-10792484D02*
X3084348Y-10792484D01*
X3084348Y-10792484D02*
X3103396Y-10802008D01*
X3103396Y-10802008D02*
X3112920Y-10811531D01*
X3112920Y-10811531D02*
X3122444Y-10830579D01*
X3122444Y-10830579D02*
X3122444Y-10849627D01*
X3122444Y-10849627D02*
X3112920Y-10878198D01*
X3112920Y-10878198D02*
X2998634Y-10992484D01*
X2998634Y-10992484D02*
X3122444Y-10992484D01*
X3198634Y-10792484D02*
X3198634Y-10830579D01*
X3274825Y-10792484D02*
X3274825Y-10830579D01*
X3570063Y-11068674D02*
X3560539Y-11059150D01*
X3560539Y-11059150D02*
X3541491Y-11030579D01*
X3541491Y-11030579D02*
X3531968Y-11011531D01*
X3531968Y-11011531D02*
X3522444Y-10982960D01*
X3522444Y-10982960D02*
X3512920Y-10935341D01*
X3512920Y-10935341D02*
X3512920Y-10897246D01*
X3512920Y-10897246D02*
X3522444Y-10849627D01*
X3522444Y-10849627D02*
X3531968Y-10821055D01*
X3531968Y-10821055D02*
X3541491Y-10802008D01*
X3541491Y-10802008D02*
X3560539Y-10773436D01*
X3560539Y-10773436D02*
X3570063Y-10763912D01*
X3636729Y-10811531D02*
X3646253Y-10802008D01*
X3646253Y-10802008D02*
X3665301Y-10792484D01*
X3665301Y-10792484D02*
X3712920Y-10792484D01*
X3712920Y-10792484D02*
X3731968Y-10802008D01*
X3731968Y-10802008D02*
X3741491Y-10811531D01*
X3741491Y-10811531D02*
X3751015Y-10830579D01*
X3751015Y-10830579D02*
X3751015Y-10849627D01*
X3751015Y-10849627D02*
X3741491Y-10878198D01*
X3741491Y-10878198D02*
X3627206Y-10992484D01*
X3627206Y-10992484D02*
X3751015Y-10992484D01*
X3989110Y-10992484D02*
X3989110Y-10792484D01*
X4074825Y-10992484D02*
X4074825Y-10887722D01*
X4074825Y-10887722D02*
X4065301Y-10868674D01*
X4065301Y-10868674D02*
X4046253Y-10859150D01*
X4046253Y-10859150D02*
X4017682Y-10859150D01*
X4017682Y-10859150D02*
X3998634Y-10868674D01*
X3998634Y-10868674D02*
X3989110Y-10878198D01*
X4198634Y-10992484D02*
X4179587Y-10982960D01*
X4179587Y-10982960D02*
X4170063Y-10973436D01*
X4170063Y-10973436D02*
X4160539Y-10954389D01*
X4160539Y-10954389D02*
X4160539Y-10897246D01*
X4160539Y-10897246D02*
X4170063Y-10878198D01*
X4170063Y-10878198D02*
X4179587Y-10868674D01*
X4179587Y-10868674D02*
X4198634Y-10859150D01*
X4198634Y-10859150D02*
X4227206Y-10859150D01*
X4227206Y-10859150D02*
X4246253Y-10868674D01*
X4246253Y-10868674D02*
X4255777Y-10878198D01*
X4255777Y-10878198D02*
X4265301Y-10897246D01*
X4265301Y-10897246D02*
X4265301Y-10954389D01*
X4265301Y-10954389D02*
X4255777Y-10973436D01*
X4255777Y-10973436D02*
X4246253Y-10982960D01*
X4246253Y-10982960D02*
X4227206Y-10992484D01*
X4227206Y-10992484D02*
X4198634Y-10992484D01*
X4379587Y-10992484D02*
X4360539Y-10982960D01*
X4360539Y-10982960D02*
X4351015Y-10963912D01*
X4351015Y-10963912D02*
X4351015Y-10792484D01*
X4531968Y-10982960D02*
X4512920Y-10992484D01*
X4512920Y-10992484D02*
X4474825Y-10992484D01*
X4474825Y-10992484D02*
X4455777Y-10982960D01*
X4455777Y-10982960D02*
X4446253Y-10963912D01*
X4446253Y-10963912D02*
X4446253Y-10887722D01*
X4446253Y-10887722D02*
X4455777Y-10868674D01*
X4455777Y-10868674D02*
X4474825Y-10859150D01*
X4474825Y-10859150D02*
X4512920Y-10859150D01*
X4512920Y-10859150D02*
X4531968Y-10868674D01*
X4531968Y-10868674D02*
X4541492Y-10887722D01*
X4541492Y-10887722D02*
X4541492Y-10906770D01*
X4541492Y-10906770D02*
X4446253Y-10925817D01*
X4617682Y-10982960D02*
X4636730Y-10992484D01*
X4636730Y-10992484D02*
X4674825Y-10992484D01*
X4674825Y-10992484D02*
X4693873Y-10982960D01*
X4693873Y-10982960D02*
X4703396Y-10963912D01*
X4703396Y-10963912D02*
X4703396Y-10954389D01*
X4703396Y-10954389D02*
X4693873Y-10935341D01*
X4693873Y-10935341D02*
X4674825Y-10925817D01*
X4674825Y-10925817D02*
X4646253Y-10925817D01*
X4646253Y-10925817D02*
X4627206Y-10916293D01*
X4627206Y-10916293D02*
X4617682Y-10897246D01*
X4617682Y-10897246D02*
X4617682Y-10887722D01*
X4617682Y-10887722D02*
X4627206Y-10868674D01*
X4627206Y-10868674D02*
X4646253Y-10859150D01*
X4646253Y-10859150D02*
X4674825Y-10859150D01*
X4674825Y-10859150D02*
X4693873Y-10868674D01*
X4770063Y-11068674D02*
X4779587Y-11059150D01*
X4779587Y-11059150D02*
X4798634Y-11030579D01*
X4798634Y-11030579D02*
X4808158Y-11011531D01*
X4808158Y-11011531D02*
X4817682Y-10982960D01*
X4817682Y-10982960D02*
X4827206Y-10935341D01*
X4827206Y-10935341D02*
X4827206Y-10897246D01*
X4827206Y-10897246D02*
X4817682Y-10849627D01*
X4817682Y-10849627D02*
X4808158Y-10821055D01*
X4808158Y-10821055D02*
X4798634Y-10802008D01*
X4798634Y-10802008D02*
X4779587Y-10773436D01*
X4779587Y-10773436D02*
X4770063Y-10763912D01*
X-205000Y-11065000D02*
X-5000Y-11265000D01*
X-5000Y-11065000D02*
X-205000Y-11265000D01*
X-5000Y-11165000D02*
G75*
G02*
X-205000Y-11165000I-100000J0D01*
G01*
X-205000Y-11165000D02*
G75*
G02*
X-5000Y-11165000I100000J0D01*
G01*
X236729Y-11056484D02*
X360539Y-11056484D01*
X360539Y-11056484D02*
X293872Y-11132674D01*
X293872Y-11132674D02*
X322444Y-11132674D01*
X322444Y-11132674D02*
X341491Y-11142198D01*
X341491Y-11142198D02*
X351015Y-11151722D01*
X351015Y-11151722D02*
X360539Y-11170770D01*
X360539Y-11170770D02*
X360539Y-11218388D01*
X360539Y-11218388D02*
X351015Y-11237436D01*
X351015Y-11237436D02*
X341491Y-11246960D01*
X341491Y-11246960D02*
X322444Y-11256484D01*
X322444Y-11256484D02*
X265301Y-11256484D01*
X265301Y-11256484D02*
X246253Y-11246960D01*
X246253Y-11246960D02*
X236729Y-11237436D01*
X446253Y-11237436D02*
X455777Y-11246960D01*
X455777Y-11246960D02*
X446253Y-11256484D01*
X446253Y-11256484D02*
X436729Y-11246960D01*
X436729Y-11246960D02*
X446253Y-11237436D01*
X446253Y-11237436D02*
X446253Y-11256484D01*
X531967Y-11075531D02*
X541491Y-11066008D01*
X541491Y-11066008D02*
X560539Y-11056484D01*
X560539Y-11056484D02*
X608158Y-11056484D01*
X608158Y-11056484D02*
X627205Y-11066008D01*
X627205Y-11066008D02*
X636729Y-11075531D01*
X636729Y-11075531D02*
X646253Y-11094579D01*
X646253Y-11094579D02*
X646253Y-11113627D01*
X646253Y-11113627D02*
X636729Y-11142198D01*
X636729Y-11142198D02*
X522443Y-11256484D01*
X522443Y-11256484D02*
X646253Y-11256484D01*
X770062Y-11056484D02*
X789110Y-11056484D01*
X789110Y-11056484D02*
X808158Y-11066008D01*
X808158Y-11066008D02*
X817682Y-11075531D01*
X817682Y-11075531D02*
X827205Y-11094579D01*
X827205Y-11094579D02*
X836729Y-11132674D01*
X836729Y-11132674D02*
X836729Y-11180293D01*
X836729Y-11180293D02*
X827205Y-11218388D01*
X827205Y-11218388D02*
X817682Y-11237436D01*
X817682Y-11237436D02*
X808158Y-11246960D01*
X808158Y-11246960D02*
X789110Y-11256484D01*
X789110Y-11256484D02*
X770062Y-11256484D01*
X770062Y-11256484D02*
X751015Y-11246960D01*
X751015Y-11246960D02*
X741491Y-11237436D01*
X741491Y-11237436D02*
X731967Y-11218388D01*
X731967Y-11218388D02*
X722443Y-11180293D01*
X722443Y-11180293D02*
X722443Y-11132674D01*
X722443Y-11132674D02*
X731967Y-11094579D01*
X731967Y-11094579D02*
X741491Y-11075531D01*
X741491Y-11075531D02*
X751015Y-11066008D01*
X751015Y-11066008D02*
X770062Y-11056484D01*
X960539Y-11056484D02*
X979586Y-11056484D01*
X979586Y-11056484D02*
X998634Y-11066008D01*
X998634Y-11066008D02*
X1008158Y-11075531D01*
X1008158Y-11075531D02*
X1017682Y-11094579D01*
X1017682Y-11094579D02*
X1027205Y-11132674D01*
X1027205Y-11132674D02*
X1027205Y-11180293D01*
X1027205Y-11180293D02*
X1017682Y-11218388D01*
X1017682Y-11218388D02*
X1008158Y-11237436D01*
X1008158Y-11237436D02*
X998634Y-11246960D01*
X998634Y-11246960D02*
X979586Y-11256484D01*
X979586Y-11256484D02*
X960539Y-11256484D01*
X960539Y-11256484D02*
X941491Y-11246960D01*
X941491Y-11246960D02*
X931967Y-11237436D01*
X931967Y-11237436D02*
X922443Y-11218388D01*
X922443Y-11218388D02*
X912920Y-11180293D01*
X912920Y-11180293D02*
X912920Y-11132674D01*
X912920Y-11132674D02*
X922443Y-11094579D01*
X922443Y-11094579D02*
X931967Y-11075531D01*
X931967Y-11075531D02*
X941491Y-11066008D01*
X941491Y-11066008D02*
X960539Y-11056484D01*
X1112920Y-11256484D02*
X1112920Y-11123150D01*
X1112920Y-11142198D02*
X1122444Y-11132674D01*
X1122444Y-11132674D02*
X1141491Y-11123150D01*
X1141491Y-11123150D02*
X1170063Y-11123150D01*
X1170063Y-11123150D02*
X1189110Y-11132674D01*
X1189110Y-11132674D02*
X1198634Y-11151722D01*
X1198634Y-11151722D02*
X1198634Y-11256484D01*
X1198634Y-11151722D02*
X1208158Y-11132674D01*
X1208158Y-11132674D02*
X1227205Y-11123150D01*
X1227205Y-11123150D02*
X1255777Y-11123150D01*
X1255777Y-11123150D02*
X1274825Y-11132674D01*
X1274825Y-11132674D02*
X1284348Y-11151722D01*
X1284348Y-11151722D02*
X1284348Y-11256484D01*
X1379586Y-11256484D02*
X1379586Y-11123150D01*
X1379586Y-11142198D02*
X1389110Y-11132674D01*
X1389110Y-11132674D02*
X1408158Y-11123150D01*
X1408158Y-11123150D02*
X1436729Y-11123150D01*
X1436729Y-11123150D02*
X1455777Y-11132674D01*
X1455777Y-11132674D02*
X1465301Y-11151722D01*
X1465301Y-11151722D02*
X1465301Y-11256484D01*
X1465301Y-11151722D02*
X1474824Y-11132674D01*
X1474824Y-11132674D02*
X1493872Y-11123150D01*
X1493872Y-11123150D02*
X1522443Y-11123150D01*
X1522443Y-11123150D02*
X1541491Y-11132674D01*
X1541491Y-11132674D02*
X1551015Y-11151722D01*
X1551015Y-11151722D02*
X1551015Y-11256484D01*
X1941491Y-11046960D02*
X1770063Y-11304103D01*
X2198634Y-11056484D02*
X2217682Y-11056484D01*
X2217682Y-11056484D02*
X2236729Y-11066008D01*
X2236729Y-11066008D02*
X2246253Y-11075531D01*
X2246253Y-11075531D02*
X2255777Y-11094579D01*
X2255777Y-11094579D02*
X2265301Y-11132674D01*
X2265301Y-11132674D02*
X2265301Y-11180293D01*
X2265301Y-11180293D02*
X2255777Y-11218388D01*
X2255777Y-11218388D02*
X2246253Y-11237436D01*
X2246253Y-11237436D02*
X2236729Y-11246960D01*
X2236729Y-11246960D02*
X2217682Y-11256484D01*
X2217682Y-11256484D02*
X2198634Y-11256484D01*
X2198634Y-11256484D02*
X2179587Y-11246960D01*
X2179587Y-11246960D02*
X2170063Y-11237436D01*
X2170063Y-11237436D02*
X2160539Y-11218388D01*
X2160539Y-11218388D02*
X2151015Y-11180293D01*
X2151015Y-11180293D02*
X2151015Y-11132674D01*
X2151015Y-11132674D02*
X2160539Y-11094579D01*
X2160539Y-11094579D02*
X2170063Y-11075531D01*
X2170063Y-11075531D02*
X2179587Y-11066008D01*
X2179587Y-11066008D02*
X2198634Y-11056484D01*
X2351015Y-11237436D02*
X2360539Y-11246960D01*
X2360539Y-11246960D02*
X2351015Y-11256484D01*
X2351015Y-11256484D02*
X2341491Y-11246960D01*
X2341491Y-11246960D02*
X2351015Y-11237436D01*
X2351015Y-11237436D02*
X2351015Y-11256484D01*
X2551015Y-11256484D02*
X2436729Y-11256484D01*
X2493872Y-11256484D02*
X2493872Y-11056484D01*
X2493872Y-11056484D02*
X2474825Y-11085055D01*
X2474825Y-11085055D02*
X2455777Y-11104103D01*
X2455777Y-11104103D02*
X2436729Y-11113627D01*
X2627206Y-11075531D02*
X2636729Y-11066008D01*
X2636729Y-11066008D02*
X2655777Y-11056484D01*
X2655777Y-11056484D02*
X2703396Y-11056484D01*
X2703396Y-11056484D02*
X2722444Y-11066008D01*
X2722444Y-11066008D02*
X2731968Y-11075531D01*
X2731968Y-11075531D02*
X2741491Y-11094579D01*
X2741491Y-11094579D02*
X2741491Y-11113627D01*
X2741491Y-11113627D02*
X2731968Y-11142198D01*
X2731968Y-11142198D02*
X2617682Y-11256484D01*
X2617682Y-11256484D02*
X2741491Y-11256484D01*
X2912920Y-11056484D02*
X2874825Y-11056484D01*
X2874825Y-11056484D02*
X2855777Y-11066008D01*
X2855777Y-11066008D02*
X2846253Y-11075531D01*
X2846253Y-11075531D02*
X2827206Y-11104103D01*
X2827206Y-11104103D02*
X2817682Y-11142198D01*
X2817682Y-11142198D02*
X2817682Y-11218388D01*
X2817682Y-11218388D02*
X2827206Y-11237436D01*
X2827206Y-11237436D02*
X2836729Y-11246960D01*
X2836729Y-11246960D02*
X2855777Y-11256484D01*
X2855777Y-11256484D02*
X2893872Y-11256484D01*
X2893872Y-11256484D02*
X2912920Y-11246960D01*
X2912920Y-11246960D02*
X2922444Y-11237436D01*
X2922444Y-11237436D02*
X2931967Y-11218388D01*
X2931967Y-11218388D02*
X2931967Y-11170770D01*
X2931967Y-11170770D02*
X2922444Y-11151722D01*
X2922444Y-11151722D02*
X2912920Y-11142198D01*
X2912920Y-11142198D02*
X2893872Y-11132674D01*
X2893872Y-11132674D02*
X2855777Y-11132674D01*
X2855777Y-11132674D02*
X2836729Y-11142198D01*
X2836729Y-11142198D02*
X2827206Y-11151722D01*
X2827206Y-11151722D02*
X2817682Y-11170770D01*
X3055777Y-11056484D02*
X3074825Y-11056484D01*
X3074825Y-11056484D02*
X3093872Y-11066008D01*
X3093872Y-11066008D02*
X3103396Y-11075531D01*
X3103396Y-11075531D02*
X3112920Y-11094579D01*
X3112920Y-11094579D02*
X3122444Y-11132674D01*
X3122444Y-11132674D02*
X3122444Y-11180293D01*
X3122444Y-11180293D02*
X3112920Y-11218388D01*
X3112920Y-11218388D02*
X3103396Y-11237436D01*
X3103396Y-11237436D02*
X3093872Y-11246960D01*
X3093872Y-11246960D02*
X3074825Y-11256484D01*
X3074825Y-11256484D02*
X3055777Y-11256484D01*
X3055777Y-11256484D02*
X3036729Y-11246960D01*
X3036729Y-11246960D02*
X3027206Y-11237436D01*
X3027206Y-11237436D02*
X3017682Y-11218388D01*
X3017682Y-11218388D02*
X3008158Y-11180293D01*
X3008158Y-11180293D02*
X3008158Y-11132674D01*
X3008158Y-11132674D02*
X3017682Y-11094579D01*
X3017682Y-11094579D02*
X3027206Y-11075531D01*
X3027206Y-11075531D02*
X3036729Y-11066008D01*
X3036729Y-11066008D02*
X3055777Y-11056484D01*
X3198634Y-11056484D02*
X3198634Y-11094579D01*
X3274825Y-11056484D02*
X3274825Y-11094579D01*
X3570063Y-11332674D02*
X3560539Y-11323150D01*
X3560539Y-11323150D02*
X3541491Y-11294579D01*
X3541491Y-11294579D02*
X3531968Y-11275531D01*
X3531968Y-11275531D02*
X3522444Y-11246960D01*
X3522444Y-11246960D02*
X3512920Y-11199341D01*
X3512920Y-11199341D02*
X3512920Y-11161246D01*
X3512920Y-11161246D02*
X3522444Y-11113627D01*
X3522444Y-11113627D02*
X3531968Y-11085055D01*
X3531968Y-11085055D02*
X3541491Y-11066008D01*
X3541491Y-11066008D02*
X3560539Y-11037436D01*
X3560539Y-11037436D02*
X3570063Y-11027912D01*
X3731968Y-11056484D02*
X3693872Y-11056484D01*
X3693872Y-11056484D02*
X3674825Y-11066008D01*
X3674825Y-11066008D02*
X3665301Y-11075531D01*
X3665301Y-11075531D02*
X3646253Y-11104103D01*
X3646253Y-11104103D02*
X3636729Y-11142198D01*
X3636729Y-11142198D02*
X3636729Y-11218388D01*
X3636729Y-11218388D02*
X3646253Y-11237436D01*
X3646253Y-11237436D02*
X3655777Y-11246960D01*
X3655777Y-11246960D02*
X3674825Y-11256484D01*
X3674825Y-11256484D02*
X3712920Y-11256484D01*
X3712920Y-11256484D02*
X3731968Y-11246960D01*
X3731968Y-11246960D02*
X3741491Y-11237436D01*
X3741491Y-11237436D02*
X3751015Y-11218388D01*
X3751015Y-11218388D02*
X3751015Y-11170770D01*
X3751015Y-11170770D02*
X3741491Y-11151722D01*
X3741491Y-11151722D02*
X3731968Y-11142198D01*
X3731968Y-11142198D02*
X3712920Y-11132674D01*
X3712920Y-11132674D02*
X3674825Y-11132674D01*
X3674825Y-11132674D02*
X3655777Y-11142198D01*
X3655777Y-11142198D02*
X3646253Y-11151722D01*
X3646253Y-11151722D02*
X3636729Y-11170770D01*
X3989110Y-11256484D02*
X3989110Y-11056484D01*
X4074825Y-11256484D02*
X4074825Y-11151722D01*
X4074825Y-11151722D02*
X4065301Y-11132674D01*
X4065301Y-11132674D02*
X4046253Y-11123150D01*
X4046253Y-11123150D02*
X4017682Y-11123150D01*
X4017682Y-11123150D02*
X3998634Y-11132674D01*
X3998634Y-11132674D02*
X3989110Y-11142198D01*
X4198634Y-11256484D02*
X4179587Y-11246960D01*
X4179587Y-11246960D02*
X4170063Y-11237436D01*
X4170063Y-11237436D02*
X4160539Y-11218388D01*
X4160539Y-11218388D02*
X4160539Y-11161246D01*
X4160539Y-11161246D02*
X4170063Y-11142198D01*
X4170063Y-11142198D02*
X4179587Y-11132674D01*
X4179587Y-11132674D02*
X4198634Y-11123150D01*
X4198634Y-11123150D02*
X4227206Y-11123150D01*
X4227206Y-11123150D02*
X4246253Y-11132674D01*
X4246253Y-11132674D02*
X4255777Y-11142198D01*
X4255777Y-11142198D02*
X4265301Y-11161246D01*
X4265301Y-11161246D02*
X4265301Y-11218388D01*
X4265301Y-11218388D02*
X4255777Y-11237436D01*
X4255777Y-11237436D02*
X4246253Y-11246960D01*
X4246253Y-11246960D02*
X4227206Y-11256484D01*
X4227206Y-11256484D02*
X4198634Y-11256484D01*
X4379587Y-11256484D02*
X4360539Y-11246960D01*
X4360539Y-11246960D02*
X4351015Y-11227912D01*
X4351015Y-11227912D02*
X4351015Y-11056484D01*
X4531968Y-11246960D02*
X4512920Y-11256484D01*
X4512920Y-11256484D02*
X4474825Y-11256484D01*
X4474825Y-11256484D02*
X4455777Y-11246960D01*
X4455777Y-11246960D02*
X4446253Y-11227912D01*
X4446253Y-11227912D02*
X4446253Y-11151722D01*
X4446253Y-11151722D02*
X4455777Y-11132674D01*
X4455777Y-11132674D02*
X4474825Y-11123150D01*
X4474825Y-11123150D02*
X4512920Y-11123150D01*
X4512920Y-11123150D02*
X4531968Y-11132674D01*
X4531968Y-11132674D02*
X4541492Y-11151722D01*
X4541492Y-11151722D02*
X4541492Y-11170770D01*
X4541492Y-11170770D02*
X4446253Y-11189817D01*
X4617682Y-11246960D02*
X4636730Y-11256484D01*
X4636730Y-11256484D02*
X4674825Y-11256484D01*
X4674825Y-11256484D02*
X4693873Y-11246960D01*
X4693873Y-11246960D02*
X4703396Y-11227912D01*
X4703396Y-11227912D02*
X4703396Y-11218388D01*
X4703396Y-11218388D02*
X4693873Y-11199341D01*
X4693873Y-11199341D02*
X4674825Y-11189817D01*
X4674825Y-11189817D02*
X4646253Y-11189817D01*
X4646253Y-11189817D02*
X4627206Y-11180293D01*
X4627206Y-11180293D02*
X4617682Y-11161246D01*
X4617682Y-11161246D02*
X4617682Y-11151722D01*
X4617682Y-11151722D02*
X4627206Y-11132674D01*
X4627206Y-11132674D02*
X4646253Y-11123150D01*
X4646253Y-11123150D02*
X4674825Y-11123150D01*
X4674825Y-11123150D02*
X4693873Y-11132674D01*
X4770063Y-11332674D02*
X4779587Y-11323150D01*
X4779587Y-11323150D02*
X4798634Y-11294579D01*
X4798634Y-11294579D02*
X4808158Y-11275531D01*
X4808158Y-11275531D02*
X4817682Y-11246960D01*
X4817682Y-11246960D02*
X4827206Y-11199341D01*
X4827206Y-11199341D02*
X4827206Y-11161246D01*
X4827206Y-11161246D02*
X4817682Y-11113627D01*
X4817682Y-11113627D02*
X4808158Y-11085055D01*
X4808158Y-11085055D02*
X4798634Y-11066008D01*
X4798634Y-11066008D02*
X4779587Y-11037436D01*
X4779587Y-11037436D02*
X4770063Y-11027912D01*
X5131968Y-11332674D02*
X5122444Y-11323150D01*
X5122444Y-11323150D02*
X5103396Y-11294579D01*
X5103396Y-11294579D02*
X5093873Y-11275531D01*
X5093873Y-11275531D02*
X5084349Y-11246960D01*
X5084349Y-11246960D02*
X5074825Y-11199341D01*
X5074825Y-11199341D02*
X5074825Y-11161246D01*
X5074825Y-11161246D02*
X5084349Y-11113627D01*
X5084349Y-11113627D02*
X5093873Y-11085055D01*
X5093873Y-11085055D02*
X5103396Y-11066008D01*
X5103396Y-11066008D02*
X5122444Y-11037436D01*
X5122444Y-11037436D02*
X5131968Y-11027912D01*
X5208158Y-11123150D02*
X5208158Y-11256484D01*
X5208158Y-11142198D02*
X5217682Y-11132674D01*
X5217682Y-11132674D02*
X5236730Y-11123150D01*
X5236730Y-11123150D02*
X5265301Y-11123150D01*
X5265301Y-11123150D02*
X5284349Y-11132674D01*
X5284349Y-11132674D02*
X5293873Y-11151722D01*
X5293873Y-11151722D02*
X5293873Y-11256484D01*
X5417682Y-11256484D02*
X5398634Y-11246960D01*
X5398634Y-11246960D02*
X5389111Y-11237436D01*
X5389111Y-11237436D02*
X5379587Y-11218388D01*
X5379587Y-11218388D02*
X5379587Y-11161246D01*
X5379587Y-11161246D02*
X5389111Y-11142198D01*
X5389111Y-11142198D02*
X5398634Y-11132674D01*
X5398634Y-11132674D02*
X5417682Y-11123150D01*
X5417682Y-11123150D02*
X5446254Y-11123150D01*
X5446254Y-11123150D02*
X5465301Y-11132674D01*
X5465301Y-11132674D02*
X5474825Y-11142198D01*
X5474825Y-11142198D02*
X5484349Y-11161246D01*
X5484349Y-11161246D02*
X5484349Y-11218388D01*
X5484349Y-11218388D02*
X5474825Y-11237436D01*
X5474825Y-11237436D02*
X5465301Y-11246960D01*
X5465301Y-11246960D02*
X5446254Y-11256484D01*
X5446254Y-11256484D02*
X5417682Y-11256484D01*
X5541492Y-11123150D02*
X5617682Y-11123150D01*
X5570063Y-11056484D02*
X5570063Y-11227912D01*
X5570063Y-11227912D02*
X5579587Y-11246960D01*
X5579587Y-11246960D02*
X5598634Y-11256484D01*
X5598634Y-11256484D02*
X5617682Y-11256484D01*
X5836730Y-11123150D02*
X5836730Y-11323150D01*
X5836730Y-11132674D02*
X5855777Y-11123150D01*
X5855777Y-11123150D02*
X5893873Y-11123150D01*
X5893873Y-11123150D02*
X5912920Y-11132674D01*
X5912920Y-11132674D02*
X5922444Y-11142198D01*
X5922444Y-11142198D02*
X5931968Y-11161246D01*
X5931968Y-11161246D02*
X5931968Y-11218388D01*
X5931968Y-11218388D02*
X5922444Y-11237436D01*
X5922444Y-11237436D02*
X5912920Y-11246960D01*
X5912920Y-11246960D02*
X5893873Y-11256484D01*
X5893873Y-11256484D02*
X5855777Y-11256484D01*
X5855777Y-11256484D02*
X5836730Y-11246960D01*
X6046253Y-11256484D02*
X6027206Y-11246960D01*
X6027206Y-11246960D02*
X6017682Y-11227912D01*
X6017682Y-11227912D02*
X6017682Y-11056484D01*
X6208158Y-11256484D02*
X6208158Y-11151722D01*
X6208158Y-11151722D02*
X6198634Y-11132674D01*
X6198634Y-11132674D02*
X6179587Y-11123150D01*
X6179587Y-11123150D02*
X6141492Y-11123150D01*
X6141492Y-11123150D02*
X6122444Y-11132674D01*
X6208158Y-11246960D02*
X6189111Y-11256484D01*
X6189111Y-11256484D02*
X6141492Y-11256484D01*
X6141492Y-11256484D02*
X6122444Y-11246960D01*
X6122444Y-11246960D02*
X6112920Y-11227912D01*
X6112920Y-11227912D02*
X6112920Y-11208865D01*
X6112920Y-11208865D02*
X6122444Y-11189817D01*
X6122444Y-11189817D02*
X6141492Y-11180293D01*
X6141492Y-11180293D02*
X6189111Y-11180293D01*
X6189111Y-11180293D02*
X6208158Y-11170770D01*
X6274825Y-11123150D02*
X6351015Y-11123150D01*
X6303396Y-11056484D02*
X6303396Y-11227912D01*
X6303396Y-11227912D02*
X6312920Y-11246960D01*
X6312920Y-11246960D02*
X6331968Y-11256484D01*
X6331968Y-11256484D02*
X6351015Y-11256484D01*
X6493873Y-11246960D02*
X6474825Y-11256484D01*
X6474825Y-11256484D02*
X6436730Y-11256484D01*
X6436730Y-11256484D02*
X6417682Y-11246960D01*
X6417682Y-11246960D02*
X6408158Y-11227912D01*
X6408158Y-11227912D02*
X6408158Y-11151722D01*
X6408158Y-11151722D02*
X6417682Y-11132674D01*
X6417682Y-11132674D02*
X6436730Y-11123150D01*
X6436730Y-11123150D02*
X6474825Y-11123150D01*
X6474825Y-11123150D02*
X6493873Y-11132674D01*
X6493873Y-11132674D02*
X6503396Y-11151722D01*
X6503396Y-11151722D02*
X6503396Y-11170770D01*
X6503396Y-11170770D02*
X6408158Y-11189817D01*
X6674825Y-11256484D02*
X6674825Y-11056484D01*
X6674825Y-11246960D02*
X6655777Y-11256484D01*
X6655777Y-11256484D02*
X6617682Y-11256484D01*
X6617682Y-11256484D02*
X6598634Y-11246960D01*
X6598634Y-11246960D02*
X6589111Y-11237436D01*
X6589111Y-11237436D02*
X6579587Y-11218388D01*
X6579587Y-11218388D02*
X6579587Y-11161246D01*
X6579587Y-11161246D02*
X6589111Y-11142198D01*
X6589111Y-11142198D02*
X6598634Y-11132674D01*
X6598634Y-11132674D02*
X6617682Y-11123150D01*
X6617682Y-11123150D02*
X6655777Y-11123150D01*
X6655777Y-11123150D02*
X6674825Y-11132674D01*
X6751015Y-11332674D02*
X6760539Y-11323150D01*
X6760539Y-11323150D02*
X6779587Y-11294579D01*
X6779587Y-11294579D02*
X6789111Y-11275531D01*
X6789111Y-11275531D02*
X6798634Y-11246960D01*
X6798634Y-11246960D02*
X6808158Y-11199341D01*
X6808158Y-11199341D02*
X6808158Y-11161246D01*
X6808158Y-11161246D02*
X6798634Y-11113627D01*
X6798634Y-11113627D02*
X6789111Y-11085055D01*
X6789111Y-11085055D02*
X6779587Y-11066008D01*
X6779587Y-11066008D02*
X6760539Y-11037436D01*
X6760539Y-11037436D02*
X6751015Y-11027912D01*
M02*
