%TF.GenerationSoftware,KiCad,Pcbnew,10.0.5*%
%TF.CreationDate,2026-08-31T21:52:52-04:00*%
%TF.ProjectId,binfohub_bridge,62696e66-6f68-4756-925f-627269646765,2.1*%
%TF.SameCoordinates,Original*%
%TF.FileFunction,Copper,L1,Top*%
%TF.FilePolarity,Positive*%
%FSLAX46Y46*%
G04 Gerber Fmt 4.6, Leading zero omitted, Abs format (unit mm)*
G04 Created by KiCad (PCBNEW 10.0.5) date 2026-08-31 21:52:52*
%MOMM*%
%LPD*%
G01*
G04 APERTURE LIST*
G04 Aperture macros list*
%AMRoundRect*
0 Rectangle with rounded corners*
0 $1 Rounding radius*
0 $2 $3 $4 $5 $6 $7 $8 $9 X,Y pos of 4 corners*
0 Add a 4 corners polygon primitive as box body*
4,1,4,$2,$3,$4,$5,$6,$7,$8,$9,$2,$3,0*
0 Add four circle primitives for the rounded corners*
1,1,$1+$1,$2,$3*
1,1,$1+$1,$4,$5*
1,1,$1+$1,$6,$7*
1,1,$1+$1,$8,$9*
0 Add four rect primitives between the rounded corners*
20,1,$1+$1,$2,$3,$4,$5,0*
20,1,$1+$1,$4,$5,$6,$7,0*
20,1,$1+$1,$6,$7,$8,$9,0*
20,1,$1+$1,$8,$9,$2,$3,0*%
G04 Aperture macros list end*
%TA.AperFunction,ComponentPad*%
%ADD10R,1.700000X1.700000*%
%TD*%
%TA.AperFunction,ComponentPad*%
%ADD11C,1.700000*%
%TD*%
%TA.AperFunction,ComponentPad*%
%ADD12RoundRect,0.250000X1.050000X1.050000X-1.050000X1.050000X-1.050000X-1.050000X1.050000X-1.050000X0*%
%TD*%
%TA.AperFunction,ComponentPad*%
%ADD13C,2.600000*%
%TD*%
%TA.AperFunction,SMDPad,CuDef*%
%ADD14RoundRect,0.150000X-0.587500X-0.150000X0.587500X-0.150000X0.587500X0.150000X-0.587500X0.150000X0*%
%TD*%
%TA.AperFunction,SMDPad,CuDef*%
%ADD15RoundRect,0.200000X0.275000X-0.200000X0.275000X0.200000X-0.275000X0.200000X-0.275000X-0.200000X0*%
%TD*%
%TA.AperFunction,SMDPad,CuDef*%
%ADD16RoundRect,0.225000X0.375000X-0.225000X0.375000X0.225000X-0.375000X0.225000X-0.375000X-0.225000X0*%
%TD*%
%TA.AperFunction,SMDPad,CuDef*%
%ADD17RoundRect,0.250000X0.900000X-1.000000X0.900000X1.000000X-0.900000X1.000000X-0.900000X-1.000000X0*%
%TD*%
%TA.AperFunction,SMDPad,CuDef*%
%ADD18RoundRect,0.250000X-1.500000X-0.550000X1.500000X-0.550000X1.500000X0.550000X-1.500000X0.550000X0*%
%TD*%
%TA.AperFunction,SMDPad,CuDef*%
%ADD19RoundRect,0.225000X0.250000X-0.225000X0.250000X0.225000X-0.250000X0.225000X-0.250000X-0.225000X0*%
%TD*%
%TA.AperFunction,SMDPad,CuDef*%
%ADD20RoundRect,0.250000X-0.312500X-1.450000X0.312500X-1.450000X0.312500X1.450000X-0.312500X1.450000X0*%
%TD*%
%TA.AperFunction,SMDPad,CuDef*%
%ADD21RoundRect,0.150000X-0.512500X-0.150000X0.512500X-0.150000X0.512500X0.150000X-0.512500X0.150000X0*%
%TD*%
%TA.AperFunction,SMDPad,CuDef*%
%ADD22RoundRect,0.250000X-0.325000X-0.650000X0.325000X-0.650000X0.325000X0.650000X-0.325000X0.650000X0*%
%TD*%
%TA.AperFunction,SMDPad,CuDef*%
%ADD23R,2.350000X5.100000*%
%TD*%
%TA.AperFunction,SMDPad,CuDef*%
%ADD24RoundRect,0.250000X0.475000X-0.250000X0.475000X0.250000X-0.475000X0.250000X-0.475000X-0.250000X0*%
%TD*%
%TA.AperFunction,ComponentPad*%
%ADD25RoundRect,0.249999X0.850001X0.850001X-0.850001X0.850001X-0.850001X-0.850001X0.850001X-0.850001X0*%
%TD*%
%TA.AperFunction,ComponentPad*%
%ADD26C,2.200000*%
%TD*%
%TA.AperFunction,SMDPad,CuDef*%
%ADD27RoundRect,0.150000X-0.825000X-0.150000X0.825000X-0.150000X0.825000X0.150000X-0.825000X0.150000X0*%
%TD*%
%TA.AperFunction,SMDPad,CuDef*%
%ADD28RoundRect,0.200000X-0.200000X-0.275000X0.200000X-0.275000X0.200000X0.275000X-0.200000X0.275000X0*%
%TD*%
%TA.AperFunction,SMDPad,CuDef*%
%ADD29RoundRect,0.218750X-0.218750X-0.256250X0.218750X-0.256250X0.218750X0.256250X-0.218750X0.256250X0*%
%TD*%
%TA.AperFunction,ViaPad*%
%ADD30C,0.800000*%
%TD*%
%TA.AperFunction,Conductor*%
%ADD31C,0.250000*%
%TD*%
%TA.AperFunction,Conductor*%
%ADD32C,0.300000*%
%TD*%
%TA.AperFunction,Conductor*%
%ADD33C,0.800000*%
%TD*%
%TA.AperFunction,Conductor*%
%ADD34C,0.500000*%
%TD*%
%TA.AperFunction,Conductor*%
%ADD35C,1.000000*%
%TD*%
%TA.AperFunction,Conductor*%
%ADD36C,0.700000*%
%TD*%
%TA.AperFunction,Conductor*%
%ADD37C,0.400000*%
%TD*%
G04 APERTURE END LIST*
D10*
%TO.P,U1,1*%
%TO.N,+3V3*%
X22140000Y-67700000D03*
D11*
%TO.P,U1,2*%
%TO.N,unconnected-(U1-EN-Pad2)*%
X24680000Y-67700000D03*
%TO.P,U1,3*%
%TO.N,unconnected-(U1-IO36{slash}VP-Pad3)*%
X27220000Y-67700000D03*
%TO.P,U1,4*%
%TO.N,unconnected-(U1-IO39{slash}VN-Pad4)*%
X29760000Y-67700000D03*
%TO.P,U1,5*%
%TO.N,unconnected-(U1-IO34-Pad5)*%
X32300000Y-67700000D03*
%TO.P,U1,6*%
%TO.N,unconnected-(U1-IO35-Pad6)*%
X34840000Y-67700000D03*
%TO.P,U1,7*%
%TO.N,unconnected-(U1-IO32-Pad7)*%
X37380000Y-67700000D03*
%TO.P,U1,8*%
%TO.N,unconnected-(U1-IO33-Pad8)*%
X39920000Y-67700000D03*
%TO.P,U1,9*%
%TO.N,LED_WIFI*%
X42460000Y-67700000D03*
%TO.P,U1,10*%
%TO.N,LED_BUS*%
X45000000Y-67700000D03*
%TO.P,U1,11*%
%TO.N,LED_FAULT*%
X47540000Y-67700000D03*
%TO.P,U1,12*%
%TO.N,unconnected-(U1-IO14-Pad12)*%
X50080000Y-67700000D03*
%TO.P,U1,13*%
%TO.N,unconnected-(U1-IO12-Pad13)*%
X52620000Y-67700000D03*
%TO.P,U1,14*%
%TO.N,GND*%
X55160000Y-67700000D03*
%TO.P,U1,15*%
%TO.N,unconnected-(U1-IO13-Pad15)*%
X57700000Y-67700000D03*
%TO.P,U1,16*%
%TO.N,unconnected-(U1-IO9{slash}SD2-Pad16)*%
X60240000Y-67700000D03*
%TO.P,U1,17*%
%TO.N,unconnected-(U1-IO10{slash}SD3-Pad17)*%
X62780000Y-67700000D03*
%TO.P,U1,18*%
%TO.N,unconnected-(U1-IO11{slash}CMD-Pad18)*%
X65320000Y-67700000D03*
%TO.P,U1,19*%
%TO.N,+5V*%
X67860000Y-67700000D03*
D10*
%TO.P,U1,20*%
%TO.N,GND*%
X22140000Y-42300000D03*
D11*
%TO.P,U1,21*%
%TO.N,B_RO*%
X24680000Y-42300000D03*
%TO.P,U1,22*%
%TO.N,B_DI*%
X27220000Y-42300000D03*
%TO.P,U1,23*%
%TO.N,unconnected-(U1-IO1{slash}TX0-Pad23)*%
X29760000Y-42300000D03*
%TO.P,U1,24*%
%TO.N,unconnected-(U1-IO3{slash}RX0-Pad24)*%
X32300000Y-42300000D03*
%TO.P,U1,25*%
%TO.N,B_DE*%
X34840000Y-42300000D03*
%TO.P,U1,26*%
%TO.N,GND*%
X37380000Y-42300000D03*
%TO.P,U1,27*%
%TO.N,unconnected-(U1-IO19-Pad27)*%
X39920000Y-42300000D03*
%TO.P,U1,28*%
%TO.N,unconnected-(U1-IO18-Pad28)*%
X42460000Y-42300000D03*
%TO.P,U1,29*%
%TO.N,unconnected-(U1-IO5-Pad29)*%
X45000000Y-42300000D03*
%TO.P,U1,30*%
%TO.N,A_DI*%
X47540000Y-42300000D03*
%TO.P,U1,31*%
%TO.N,A_RO*%
X50080000Y-42300000D03*
%TO.P,U1,32*%
%TO.N,A_DE*%
X52620000Y-42300000D03*
%TO.P,U1,33*%
%TO.N,unconnected-(U1-IO0-Pad33)*%
X55160000Y-42300000D03*
%TO.P,U1,34*%
%TO.N,unconnected-(U1-IO2-Pad34)*%
X57700000Y-42300000D03*
%TO.P,U1,35*%
%TO.N,unconnected-(U1-IO15-Pad35)*%
X60240000Y-42300000D03*
%TO.P,U1,36*%
%TO.N,unconnected-(U1-IO8{slash}SD1-Pad36)*%
X62780000Y-42300000D03*
%TO.P,U1,37*%
%TO.N,unconnected-(U1-IO7{slash}SD0-Pad37)*%
X65320000Y-42300000D03*
%TO.P,U1,38*%
%TO.N,unconnected-(U1-IO6{slash}CLK-Pad38)*%
X67860000Y-42300000D03*
%TD*%
D12*
%TO.P,J1,1*%
%TO.N,GND*%
X17080000Y-7000000D03*
D13*
%TO.P,J1,2*%
%TO.N,12V_IN*%
X12000000Y-7000000D03*
%TD*%
D14*
%TO.P,Q1,1*%
%TO.N,Q1_G*%
X9062500Y-17050000D03*
%TO.P,Q1,2*%
%TO.N,+12V*%
X9062500Y-18950000D03*
%TO.P,Q1,3*%
%TO.N,12V_IN*%
X10937500Y-18000000D03*
%TD*%
D15*
%TO.P,R1,1*%
%TO.N,Q1_G*%
X16000000Y-18825000D03*
%TO.P,R1,2*%
%TO.N,GND*%
X16000000Y-17175000D03*
%TD*%
D16*
%TO.P,D1,1*%
%TO.N,+12V*%
X21000000Y-19650000D03*
%TO.P,D1,2*%
%TO.N,Q1_G*%
X21000000Y-16350000D03*
%TD*%
D17*
%TO.P,D2,1*%
%TO.N,+12V*%
X26500000Y-20150000D03*
%TO.P,D2,2*%
%TO.N,GND*%
X26500000Y-15850000D03*
%TD*%
D18*
%TO.P,C1,1*%
%TO.N,+12V*%
X32800000Y-18000000D03*
%TO.P,C1,2*%
%TO.N,GND*%
X38200000Y-18000000D03*
%TD*%
D19*
%TO.P,C2,1*%
%TO.N,+12V*%
X41000000Y-18775000D03*
%TO.P,C2,2*%
%TO.N,GND*%
X41000000Y-17225000D03*
%TD*%
D20*
%TO.P,F2,1*%
%TO.N,+12V*%
X43362500Y-33000000D03*
%TO.P,F2,2*%
%TO.N,+12V_IH*%
X47637500Y-33000000D03*
%TD*%
D21*
%TO.P,U2,1*%
%TO.N,5V_BUCK*%
X12862500Y-27050000D03*
%TO.P,U2,2*%
%TO.N,BUCK_EN*%
X12862500Y-28000000D03*
%TO.P,U2,3*%
%TO.N,+12V*%
X12862500Y-28950000D03*
%TO.P,U2,4*%
%TO.N,GND*%
X15137500Y-28950000D03*
%TO.P,U2,5*%
%TO.N,BUCK_SW*%
X15137500Y-28000000D03*
%TO.P,U2,6*%
%TO.N,BUCK_BST*%
X15137500Y-27050000D03*
%TD*%
D22*
%TO.P,C3,1*%
%TO.N,+12V*%
X12525000Y-33500000D03*
%TO.P,C3,2*%
%TO.N,GND*%
X15475000Y-33500000D03*
%TD*%
D15*
%TO.P,R2,1*%
%TO.N,+12V*%
X7500000Y-28825000D03*
%TO.P,R2,2*%
%TO.N,BUCK_EN*%
X7500000Y-27175000D03*
%TD*%
D19*
%TO.P,C4,1*%
%TO.N,BUCK_BST*%
X19000000Y-26775000D03*
%TO.P,C4,2*%
%TO.N,BUCK_SW*%
X19000000Y-25225000D03*
%TD*%
D23*
%TO.P,L1,1*%
%TO.N,BUCK_SW*%
X22925000Y-32000000D03*
%TO.P,L1,2*%
%TO.N,5V_BUCK*%
X27075000Y-32000000D03*
%TD*%
D24*
%TO.P,C5,1*%
%TO.N,5V_BUCK*%
X31000000Y-32950000D03*
%TO.P,C5,2*%
%TO.N,GND*%
X31000000Y-31050000D03*
%TD*%
%TO.P,C6,1*%
%TO.N,5V_BUCK*%
X34000000Y-32950000D03*
%TO.P,C6,2*%
%TO.N,GND*%
X34000000Y-31050000D03*
%TD*%
D20*
%TO.P,F1,1*%
%TO.N,5V_BUCK*%
X29862500Y-26500000D03*
%TO.P,F1,2*%
%TO.N,+5V*%
X34137500Y-26500000D03*
%TD*%
D24*
%TO.P,C7,1*%
%TO.N,+5V*%
X40000000Y-32950000D03*
%TO.P,C7,2*%
%TO.N,GND*%
X40000000Y-31050000D03*
%TD*%
D19*
%TO.P,C8,1*%
%TO.N,+5V*%
X43000000Y-27275000D03*
%TO.P,C8,2*%
%TO.N,GND*%
X43000000Y-25725000D03*
%TD*%
D25*
%TO.P,J2,1*%
%TO.N,BUS_B*%
X52540000Y-7000000D03*
D26*
%TO.P,J2,2*%
%TO.N,BUS_A*%
X50000000Y-7000000D03*
%TD*%
D27*
%TO.P,U3,1*%
%TO.N,A_RO*%
X49525000Y-25095000D03*
%TO.P,U3,2*%
%TO.N,A_DE*%
X49525000Y-26365000D03*
%TO.P,U3,3*%
X49525000Y-27635000D03*
%TO.P,U3,4*%
%TO.N,A_DI*%
X49525000Y-28905000D03*
%TO.P,U3,5*%
%TO.N,GND*%
X54475000Y-28905000D03*
%TO.P,U3,6*%
%TO.N,BUS_A*%
X54475000Y-27635000D03*
%TO.P,U3,7*%
%TO.N,BUS_B*%
X54475000Y-26365000D03*
%TO.P,U3,8*%
%TO.N,+3V3*%
X54475000Y-25095000D03*
%TD*%
D19*
%TO.P,C9,1*%
%TO.N,+3V3*%
X58500000Y-32775000D03*
%TO.P,C9,2*%
%TO.N,GND*%
X58500000Y-31225000D03*
%TD*%
D14*
%TO.P,D3,1*%
%TO.N,BUS_A*%
X49062500Y-19550000D03*
%TO.P,D3,2*%
%TO.N,BUS_B*%
X49062500Y-21450000D03*
%TO.P,D3,3*%
%TO.N,GND*%
X50937500Y-20500000D03*
%TD*%
D28*
%TO.P,R3,1*%
%TO.N,BUS_A*%
X57675000Y-20500000D03*
%TO.P,R3,2*%
%TO.N,TERM_A*%
X59325000Y-20500000D03*
%TD*%
D10*
%TO.P,JP1,1*%
%TO.N,TERM_A*%
X62500000Y-20500000D03*
D11*
%TO.P,JP1,2*%
%TO.N,BUS_B*%
X62500000Y-23040000D03*
%TD*%
D25*
%TO.P,J3,1*%
%TO.N,IH_B*%
X77620000Y-7000000D03*
D26*
%TO.P,J3,2*%
%TO.N,IH_A*%
X75080000Y-7000000D03*
%TO.P,J3,3*%
%TO.N,GND*%
X72540000Y-7000000D03*
%TO.P,J3,4*%
%TO.N,+12V_IH*%
X70000000Y-7000000D03*
%TD*%
D27*
%TO.P,U4,1*%
%TO.N,B_RO*%
X69525000Y-25095000D03*
%TO.P,U4,2*%
%TO.N,B_DE*%
X69525000Y-26365000D03*
%TO.P,U4,3*%
X69525000Y-27635000D03*
%TO.P,U4,4*%
%TO.N,B_DI*%
X69525000Y-28905000D03*
%TO.P,U4,5*%
%TO.N,GND*%
X74475000Y-28905000D03*
%TO.P,U4,6*%
%TO.N,IH_A*%
X74475000Y-27635000D03*
%TO.P,U4,7*%
%TO.N,IH_B*%
X74475000Y-26365000D03*
%TO.P,U4,8*%
%TO.N,+3V3*%
X74475000Y-25095000D03*
%TD*%
D19*
%TO.P,C10,1*%
%TO.N,+3V3*%
X78500000Y-32775000D03*
%TO.P,C10,2*%
%TO.N,GND*%
X78500000Y-31225000D03*
%TD*%
D14*
%TO.P,D4,1*%
%TO.N,IH_A*%
X69062500Y-19550000D03*
%TO.P,D4,2*%
%TO.N,IH_B*%
X69062500Y-21450000D03*
%TO.P,D4,3*%
%TO.N,GND*%
X70937500Y-20500000D03*
%TD*%
D28*
%TO.P,R4,1*%
%TO.N,IH_A*%
X77675000Y-20500000D03*
%TO.P,R4,2*%
%TO.N,TERM_B*%
X79325000Y-20500000D03*
%TD*%
D10*
%TO.P,JP2,1*%
%TO.N,TERM_B*%
X82500000Y-20500000D03*
D11*
%TO.P,JP2,2*%
%TO.N,IH_B*%
X82500000Y-23040000D03*
%TD*%
D28*
%TO.P,R5,1*%
%TO.N,+5V*%
X17175000Y-75000000D03*
%TO.P,R5,2*%
%TO.N,LED_PWR*%
X18825000Y-75000000D03*
%TD*%
D29*
%TO.P,D5,1*%
%TO.N,GND*%
X17212500Y-80000000D03*
%TO.P,D5,2*%
%TO.N,LED_PWR*%
X18787500Y-80000000D03*
%TD*%
D28*
%TO.P,R6,1*%
%TO.N,LED_WIFI*%
X28175000Y-75000000D03*
%TO.P,R6,2*%
%TO.N,LED_WIFI_A*%
X29825000Y-75000000D03*
%TD*%
D29*
%TO.P,D6,1*%
%TO.N,GND*%
X28212500Y-80000000D03*
%TO.P,D6,2*%
%TO.N,LED_WIFI_A*%
X29787500Y-80000000D03*
%TD*%
D28*
%TO.P,R7,1*%
%TO.N,LED_BUS*%
X39175000Y-75000000D03*
%TO.P,R7,2*%
%TO.N,LED_BUS_A*%
X40825000Y-75000000D03*
%TD*%
D29*
%TO.P,D7,1*%
%TO.N,GND*%
X39212500Y-80000000D03*
%TO.P,D7,2*%
%TO.N,LED_BUS_A*%
X40787500Y-80000000D03*
%TD*%
D28*
%TO.P,R8,1*%
%TO.N,LED_FAULT*%
X50175000Y-75000000D03*
%TO.P,R8,2*%
%TO.N,LED_FLT_A*%
X51825000Y-75000000D03*
%TD*%
D29*
%TO.P,D8,1*%
%TO.N,GND*%
X50212500Y-80000000D03*
%TO.P,D8,2*%
%TO.N,LED_FLT_A*%
X51787500Y-80000000D03*
%TD*%
D28*
%TO.P,R9,1*%
%TO.N,A_DE*%
X61175000Y-75000000D03*
%TO.P,R9,2*%
%TO.N,LED_TX_A*%
X62825000Y-75000000D03*
%TD*%
D29*
%TO.P,D9,1*%
%TO.N,GND*%
X61212500Y-80000000D03*
%TO.P,D9,2*%
%TO.N,LED_TX_A*%
X62787500Y-80000000D03*
%TD*%
D10*
%TO.P,J4,1*%
%TO.N,GND*%
X85000000Y-54000000D03*
D11*
%TO.P,J4,2*%
%TO.N,LED_PWR*%
X85000000Y-56540000D03*
%TO.P,J4,3*%
%TO.N,LED_WIFI_A*%
X85000000Y-59080000D03*
%TO.P,J4,4*%
%TO.N,LED_BUS_A*%
X85000000Y-61620000D03*
%TO.P,J4,5*%
%TO.N,LED_FLT_A*%
X85000000Y-64160000D03*
%TO.P,J4,6*%
%TO.N,LED_TX_A*%
X85000000Y-66700000D03*
%TD*%
D30*
%TO.N,BUCK_SW*%
X19250000Y-25250000D03*
X22000000Y-29750000D03*
%TO.N,LED_FAULT*%
X50000000Y-75000000D03*
%TO.N,GND*%
X37250000Y-31000000D03*
X55750000Y-31250000D03*
X53500000Y-29000000D03*
X50250000Y-79750000D03*
%TO.N,+12V*%
X41000000Y-18750000D03*
X35500000Y-18750000D03*
X42500000Y-31000000D03*
X13500000Y-29250000D03*
X20750000Y-19750000D03*
%TO.N,+12V_IH*%
X49000000Y-30500000D03*
%TO.N,+5V*%
X41750000Y-33250000D03*
X44000000Y-28250000D03*
X38250000Y-29750000D03*
X41250000Y-71250000D03*
X45750000Y-69500000D03*
%TO.N,BUS_B*%
X49750000Y-21750000D03*
X52500000Y-23000000D03*
X56250000Y-26250000D03*
%TO.N,IH_A*%
X69750000Y-19500000D03*
X72250000Y-17250000D03*
%TO.N,IH_B*%
X76250000Y-26250000D03*
X70000000Y-21750000D03*
%TO.N,+3V3*%
X32000000Y-36750000D03*
X55000000Y-25000000D03*
X57500000Y-33000000D03*
X73500000Y-23750000D03*
%TO.N,A_DE*%
X47750000Y-27750000D03*
X52750000Y-32750000D03*
X51500000Y-35000000D03*
X61250000Y-75000000D03*
X65500000Y-70750000D03*
%TO.N,B_DE*%
X64250000Y-29250000D03*
X59500000Y-34000000D03*
%TO.N,Q1_G*%
X9750000Y-17000000D03*
X12750000Y-18000000D03*
%TO.N,LED_PWR*%
X38250000Y-73750000D03*
X42000000Y-73500000D03*
%TO.N,LED_WIFI_A*%
X39500000Y-76500000D03*
%TO.N,LED_FLT_A*%
X61500000Y-77500000D03*
%TO.N,LED_WIFI*%
X28500000Y-75000000D03*
%TO.N,B_DI*%
X68750000Y-29250000D03*
X64000000Y-34000000D03*
X44500000Y-38750000D03*
X38750000Y-34250000D03*
X36000000Y-34250000D03*
X32000000Y-38250000D03*
%TO.N,A_DI*%
X52500000Y-29750000D03*
X62500000Y-35250000D03*
%TO.N,A_RO*%
X48750000Y-25000000D03*
X48250000Y-6000000D03*
X68250000Y-22750000D03*
X65500000Y-34000000D03*
%TD*%
%TO.N,A_DE*%
D31*
X49525000Y-26365000D02*
X48000000Y-26365000D01*
X49525000Y-27635000D02*
X48000000Y-27635000D01*
X48000000Y-26365000D02*
X48000000Y-27635000D01*
%TO.N,BUS_A*%
D32*
X54475000Y-27635000D02*
X56600000Y-27635000D01*
%TO.N,BUS_B*%
X54475000Y-26365000D02*
X56600000Y-26365000D01*
%TO.N,B_DE*%
D31*
X69525000Y-26365000D02*
X67500000Y-26365000D01*
X69525000Y-27635000D02*
X67500000Y-27635000D01*
X67500000Y-26365000D02*
X67500000Y-27635000D01*
%TO.N,IH_A*%
D32*
X74475000Y-27635000D02*
X76600000Y-27635000D01*
%TO.N,IH_B*%
X74475000Y-26365000D02*
X76600000Y-26365000D01*
%TO.N,BUCK_EN*%
D31*
X12863000Y-28000000D02*
X10800000Y-28000000D01*
%TO.N,BUCK_BST*%
X15137000Y-27050000D02*
X17400000Y-26200000D01*
%TO.N,5V_BUCK*%
D33*
X30500000Y-32750000D02*
X28000000Y-32750000D01*
X33500000Y-32750000D02*
X31500000Y-32750000D01*
X29750000Y-28000000D02*
X28000000Y-29750000D01*
D34*
X13250000Y-27000000D02*
X14250000Y-26000000D01*
X14250000Y-26000000D02*
X15000000Y-26000000D01*
X15000000Y-26000000D02*
X16500000Y-24500000D01*
X16500000Y-24500000D02*
X17750000Y-24500000D01*
X17750000Y-24500000D02*
X18250000Y-24000000D01*
X18250000Y-24000000D02*
X20000000Y-24000000D01*
X20000000Y-24000000D02*
X20250000Y-24250000D01*
X20250000Y-24250000D02*
X20750000Y-24250000D01*
X20750000Y-24250000D02*
X26250000Y-29750000D01*
%TO.N,BUCK_SW*%
X15500000Y-28000000D02*
X17000000Y-28000000D01*
X17000000Y-28000000D02*
X18750000Y-29750000D01*
X18750000Y-29750000D02*
X22000000Y-29750000D01*
%TO.N,LED_BUS_A*%
D32*
X41000000Y-74750000D02*
X44500000Y-74750000D01*
X44500000Y-74750000D02*
X45000000Y-74250000D01*
X45000000Y-74250000D02*
X48750000Y-74250000D01*
X48750000Y-74250000D02*
X49000000Y-74000000D01*
X49000000Y-74000000D02*
X49250000Y-74000000D01*
X49250000Y-74000000D02*
X49500000Y-73750000D01*
X49500000Y-73750000D02*
X72750000Y-73750000D01*
X72750000Y-73750000D02*
X84500000Y-62000000D01*
X40750000Y-79750000D02*
X40750000Y-75250000D01*
%TO.N,LED_TX_A*%
X63000000Y-74750000D02*
X76750000Y-74750000D01*
X76750000Y-74750000D02*
X84500000Y-67000000D01*
X62750000Y-79750000D02*
X62750000Y-75250000D01*
%TO.N,LED_BUS*%
X39250000Y-74750000D02*
X44500000Y-69500000D01*
X44500000Y-69500000D02*
X44500000Y-69250000D01*
X44500000Y-69250000D02*
X44750000Y-69000000D01*
X44750000Y-69000000D02*
X44750000Y-68250000D01*
%TO.N,B_RO*%
X69000000Y-25000000D02*
X67000000Y-25000000D01*
X67000000Y-25000000D02*
X65500000Y-26500000D01*
X65500000Y-26500000D02*
X59250000Y-26500000D01*
X59250000Y-26500000D02*
X55750000Y-30000000D01*
X55750000Y-30000000D02*
X54000000Y-30000000D01*
X54000000Y-30000000D02*
X48500000Y-35500000D01*
X48500000Y-35500000D02*
X31750000Y-35500000D01*
X31750000Y-35500000D02*
X25250000Y-42000000D01*
%TO.N,BUCK_EN*%
X10750000Y-28000000D02*
X8500000Y-28000000D01*
X8500000Y-28000000D02*
X7750000Y-27250000D01*
%TO.N,GND*%
D34*
X16000000Y-17000000D02*
X16000000Y-8000000D01*
X25750000Y-15000000D02*
X16000000Y-15000000D01*
X36750000Y-17500000D02*
X35750000Y-17500000D01*
X35750000Y-17500000D02*
X34750000Y-16500000D01*
X34750000Y-16500000D02*
X27250000Y-16500000D01*
X40750000Y-17250000D02*
X40000000Y-17250000D01*
X40000000Y-17250000D02*
X39750000Y-17500000D01*
X42750000Y-25500000D02*
X39750000Y-22500000D01*
X39750000Y-22500000D02*
X39750000Y-18500000D01*
X40500000Y-31000000D02*
X40500000Y-30000000D01*
X40500000Y-30000000D02*
X41750000Y-28750000D01*
X41750000Y-28750000D02*
X41750000Y-26500000D01*
X41750000Y-26500000D02*
X42250000Y-26000000D01*
X42250000Y-26000000D02*
X42500000Y-26000000D01*
X42500000Y-26000000D02*
X42750000Y-25750000D01*
X34500000Y-31000000D02*
X39500000Y-31000000D01*
X31500000Y-31000000D02*
X33500000Y-31000000D01*
X15750000Y-34000000D02*
X21750000Y-40000000D01*
X21750000Y-40000000D02*
X21750000Y-41750000D01*
X15500000Y-29000000D02*
X15500000Y-33000000D01*
X50500000Y-20500000D02*
X48000000Y-20500000D01*
X48000000Y-20500000D02*
X43000000Y-25500000D01*
X53750000Y-29000000D02*
X53500000Y-28750000D01*
X53500000Y-28750000D02*
X53250000Y-28750000D01*
X53250000Y-28750000D02*
X51250000Y-26750000D01*
X51250000Y-26750000D02*
X51250000Y-20500000D01*
X58250000Y-31250000D02*
X55750000Y-31250000D01*
X53500000Y-29000000D02*
X53250000Y-28750000D01*
X73750000Y-29000000D02*
X71750000Y-29000000D01*
X71750000Y-29000000D02*
X70250000Y-30500000D01*
X70250000Y-30500000D02*
X59250000Y-30500000D01*
X59250000Y-30500000D02*
X58750000Y-31000000D01*
X78250000Y-31000000D02*
X77000000Y-31000000D01*
X77000000Y-31000000D02*
X75000000Y-29000000D01*
X71250000Y-20500000D02*
X71250000Y-21500000D01*
X71250000Y-21500000D02*
X71750000Y-22000000D01*
X71750000Y-22000000D02*
X71750000Y-29000000D01*
X72250000Y-7750000D02*
X72250000Y-8750000D01*
X72250000Y-8750000D02*
X71000000Y-10000000D01*
X71000000Y-10000000D02*
X71000000Y-20500000D01*
X84500000Y-53500000D02*
X80500000Y-49500000D01*
X80500000Y-49500000D02*
X80500000Y-47750000D01*
X80500000Y-47750000D02*
X80250000Y-47500000D01*
X80250000Y-47500000D02*
X80250000Y-40750000D01*
X80250000Y-40750000D02*
X79750000Y-40250000D01*
X79750000Y-40250000D02*
X79750000Y-32000000D01*
X79750000Y-32000000D02*
X79250000Y-31500000D01*
X79250000Y-31500000D02*
X79000000Y-31500000D01*
X79000000Y-31500000D02*
X78750000Y-31250000D01*
X61000000Y-80250000D02*
X57500000Y-80250000D01*
X57500000Y-80250000D02*
X57000000Y-80750000D01*
X57000000Y-80750000D02*
X53250000Y-80750000D01*
X53250000Y-80750000D02*
X53000000Y-81000000D01*
X53000000Y-81000000D02*
X52750000Y-81000000D01*
X52750000Y-81000000D02*
X52500000Y-81250000D01*
X52500000Y-81250000D02*
X51000000Y-81250000D01*
X51000000Y-81250000D02*
X50250000Y-80500000D01*
X50250000Y-80500000D02*
X50250000Y-80250000D01*
X39250000Y-80250000D02*
X39500000Y-80500000D01*
X39500000Y-80500000D02*
X39500000Y-80750000D01*
X39500000Y-80750000D02*
X40000000Y-81250000D01*
X40000000Y-81250000D02*
X50000000Y-81250000D01*
X50000000Y-81250000D02*
X50500000Y-80750000D01*
X28250000Y-80250000D02*
X28500000Y-80500000D01*
X28500000Y-80500000D02*
X28500000Y-80750000D01*
X28500000Y-80750000D02*
X29000000Y-81250000D01*
X29000000Y-81250000D02*
X38000000Y-81250000D01*
X38000000Y-81250000D02*
X39000000Y-80250000D01*
X17250000Y-80250000D02*
X17500000Y-80500000D01*
X17500000Y-80500000D02*
X17500000Y-80750000D01*
X17500000Y-80750000D02*
X18000000Y-81250000D01*
X18000000Y-81250000D02*
X27000000Y-81250000D01*
X27000000Y-81250000D02*
X28000000Y-80250000D01*
%TO.N,+12V*%
D33*
X21250000Y-19500000D02*
X25750000Y-19500000D01*
D35*
X31250000Y-18500000D02*
X28500000Y-18500000D01*
X28500000Y-18500000D02*
X27750000Y-19250000D01*
X27750000Y-19250000D02*
X27250000Y-19250000D01*
D33*
X35500000Y-18750000D02*
X34500000Y-18750000D01*
X34500000Y-18750000D02*
X34250000Y-18500000D01*
D35*
X43000000Y-31500000D02*
X42500000Y-31000000D01*
D34*
X13250000Y-29000000D02*
X13500000Y-29250000D01*
D35*
X12750000Y-33000000D02*
X12750000Y-32000000D01*
X12750000Y-32000000D02*
X13500000Y-31250000D01*
X13500000Y-31250000D02*
X13500000Y-29250000D01*
D36*
X7750000Y-29000000D02*
X8000000Y-29000000D01*
X8000000Y-29000000D02*
X8250000Y-29250000D01*
X8250000Y-29250000D02*
X12250000Y-29250000D01*
X12250000Y-29250000D02*
X12500000Y-29000000D01*
D34*
X9500000Y-19000000D02*
X12000000Y-19000000D01*
X12000000Y-19000000D02*
X12750000Y-19750000D01*
X12750000Y-19750000D02*
X14750000Y-19750000D01*
X14750000Y-19750000D02*
X15000000Y-20000000D01*
X15000000Y-20000000D02*
X20500000Y-20000000D01*
X20500000Y-20000000D02*
X20750000Y-19750000D01*
%TO.N,12V_IN*%
X11250000Y-18000000D02*
X11250000Y-17000000D01*
X11250000Y-17000000D02*
X11750000Y-16500000D01*
X11750000Y-16500000D02*
X11750000Y-8000000D01*
%TO.N,+12V_IH*%
D35*
X48000000Y-31500000D02*
X49000000Y-30500000D01*
%TO.N,+5V*%
D33*
X40500000Y-33250000D02*
X41750000Y-33250000D01*
X43250000Y-27500000D02*
X44000000Y-28250000D01*
X34750000Y-28000000D02*
X36250000Y-29500000D01*
X36250000Y-29500000D02*
X37500000Y-29500000D01*
X37500000Y-29500000D02*
X37750000Y-29750000D01*
X37750000Y-29750000D02*
X38250000Y-29750000D01*
D36*
X17250000Y-74750000D02*
X17500000Y-74500000D01*
X17500000Y-74500000D02*
X17500000Y-74250000D01*
X17500000Y-74250000D02*
X19000000Y-72750000D01*
X19000000Y-72750000D02*
X24000000Y-72750000D01*
X24000000Y-72750000D02*
X24250000Y-72500000D01*
X24250000Y-72500000D02*
X40000000Y-72500000D01*
X40000000Y-72500000D02*
X41250000Y-71250000D01*
X45750000Y-69500000D02*
X66000000Y-69500000D01*
X66000000Y-69500000D02*
X67500000Y-68000000D01*
%TO.N,BUS_A*%
D37*
X49500000Y-19500000D02*
X49500000Y-18500000D01*
X49500000Y-18500000D02*
X49750000Y-18250000D01*
X49750000Y-18250000D02*
X49750000Y-7750000D01*
X57500000Y-20250000D02*
X54750000Y-20250000D01*
X54750000Y-20250000D02*
X54000000Y-19500000D01*
X54000000Y-19500000D02*
X49500000Y-19500000D01*
X56500000Y-27750000D02*
X57000000Y-27250000D01*
X57000000Y-27250000D02*
X57000000Y-27000000D01*
X57000000Y-27000000D02*
X57500000Y-26500000D01*
X57500000Y-26500000D02*
X57500000Y-20750000D01*
%TO.N,BUS_B*%
X49500000Y-21500000D02*
X49750000Y-21750000D01*
X54500000Y-26250000D02*
X53250000Y-26250000D01*
X53250000Y-26250000D02*
X52500000Y-25500000D01*
X52500000Y-25500000D02*
X52500000Y-23000000D01*
%TO.N,IH_A*%
X77500000Y-20250000D02*
X77500000Y-19250000D01*
X77500000Y-19250000D02*
X75500000Y-17250000D01*
X75500000Y-17250000D02*
X75500000Y-7750000D01*
X76500000Y-27750000D02*
X77000000Y-27250000D01*
X77000000Y-27250000D02*
X77000000Y-27000000D01*
X77000000Y-27000000D02*
X77500000Y-26500000D01*
X77500000Y-26500000D02*
X77500000Y-20750000D01*
X69500000Y-19500000D02*
X69750000Y-19500000D01*
X72250000Y-17250000D02*
X75500000Y-17250000D01*
%TO.N,IH_B*%
X69500000Y-21500000D02*
X69750000Y-21500000D01*
X69750000Y-21500000D02*
X70000000Y-21750000D01*
%TO.N,TERM_A*%
X59500000Y-20250000D02*
X62000000Y-20250000D01*
%TO.N,TERM_B*%
X79500000Y-20250000D02*
X82000000Y-20250000D01*
%TO.N,+3V3*%
D32*
X58250000Y-33000000D02*
X57500000Y-33000000D01*
X57500000Y-33000000D02*
X55000000Y-35500000D01*
X55000000Y-35500000D02*
X54500000Y-35500000D01*
X54500000Y-35500000D02*
X53750000Y-36250000D01*
X53750000Y-36250000D02*
X51750000Y-36250000D01*
X51750000Y-36250000D02*
X51500000Y-36500000D01*
X51500000Y-36500000D02*
X44000000Y-36500000D01*
X44000000Y-36500000D02*
X43750000Y-36750000D01*
X43750000Y-36750000D02*
X32000000Y-36750000D01*
X73750000Y-25000000D02*
X73750000Y-24000000D01*
X73750000Y-24000000D02*
X73500000Y-23750000D01*
X78250000Y-32750000D02*
X58750000Y-32750000D01*
%TO.N,A_DE*%
X48000000Y-27750000D02*
X47750000Y-27750000D01*
X52750000Y-32750000D02*
X52750000Y-33750000D01*
X52750000Y-33750000D02*
X51500000Y-35000000D01*
X48000000Y-26250000D02*
X48000000Y-27750000D01*
X65500000Y-70750000D02*
X65750000Y-70500000D01*
X65750000Y-70500000D02*
X66500000Y-70500000D01*
X66500000Y-70500000D02*
X67750000Y-69250000D01*
X67750000Y-69250000D02*
X68500000Y-69250000D01*
X68500000Y-69250000D02*
X69500000Y-68250000D01*
X69500000Y-68250000D02*
X69500000Y-67250000D01*
X69500000Y-67250000D02*
X69250000Y-67000000D01*
X69250000Y-67000000D02*
X69250000Y-66750000D01*
X69250000Y-66750000D02*
X67000000Y-64500000D01*
X67000000Y-64500000D02*
X67000000Y-56750000D01*
X67000000Y-56750000D02*
X53000000Y-42750000D01*
%TO.N,B_DE*%
X67500000Y-27750000D02*
X65750000Y-27750000D01*
X65750000Y-27750000D02*
X64250000Y-29250000D01*
X59500000Y-34000000D02*
X58000000Y-34000000D01*
X58000000Y-34000000D02*
X57750000Y-34250000D01*
X57750000Y-34250000D02*
X57500000Y-34250000D01*
X57500000Y-34250000D02*
X55250000Y-36500000D01*
X55250000Y-36500000D02*
X54750000Y-36500000D01*
X54750000Y-36500000D02*
X54000000Y-37250000D01*
X54000000Y-37250000D02*
X52000000Y-37250000D01*
X52000000Y-37250000D02*
X51750000Y-37500000D01*
X51750000Y-37500000D02*
X44250000Y-37500000D01*
X44250000Y-37500000D02*
X44000000Y-37750000D01*
X44000000Y-37750000D02*
X39500000Y-37750000D01*
X39500000Y-37750000D02*
X35250000Y-42000000D01*
X67500000Y-26250000D02*
X67500000Y-27750000D01*
%TO.N,Q1_G*%
X16250000Y-18750000D02*
X17750000Y-18750000D01*
X17750000Y-18750000D02*
X19500000Y-17000000D01*
X19500000Y-17000000D02*
X20250000Y-17000000D01*
X20250000Y-17000000D02*
X20750000Y-16500000D01*
X9500000Y-17000000D02*
X9750000Y-17000000D01*
X12750000Y-18000000D02*
X15000000Y-18000000D01*
X15000000Y-18000000D02*
X15750000Y-18750000D01*
%TO.N,LED_PWR*%
X19000000Y-74750000D02*
X22500000Y-74750000D01*
X22500000Y-74750000D02*
X23000000Y-74250000D01*
X23000000Y-74250000D02*
X26750000Y-74250000D01*
X26750000Y-74250000D02*
X27000000Y-74000000D01*
X27000000Y-74000000D02*
X27250000Y-74000000D01*
X27250000Y-74000000D02*
X27500000Y-73750000D01*
X27500000Y-73750000D02*
X38250000Y-73750000D01*
X42000000Y-73500000D02*
X44500000Y-73500000D01*
X44500000Y-73500000D02*
X44750000Y-73250000D01*
X44750000Y-73250000D02*
X48500000Y-73250000D01*
X48500000Y-73250000D02*
X48750000Y-73000000D01*
X48750000Y-73000000D02*
X49000000Y-73000000D01*
X49000000Y-73000000D02*
X49250000Y-72750000D01*
X49250000Y-72750000D02*
X68500000Y-72750000D01*
X68500000Y-72750000D02*
X84500000Y-56750000D01*
X18750000Y-79750000D02*
X18750000Y-75250000D01*
%TO.N,LED_WIFI_A*%
X30000000Y-75250000D02*
X33500000Y-75250000D01*
X33500000Y-75250000D02*
X34000000Y-75750000D01*
X34000000Y-75750000D02*
X37750000Y-75750000D01*
X37750000Y-75750000D02*
X38000000Y-76000000D01*
X38000000Y-76000000D02*
X38250000Y-76000000D01*
X38250000Y-76000000D02*
X38500000Y-76250000D01*
X38500000Y-76250000D02*
X39250000Y-76250000D01*
X39250000Y-76250000D02*
X39500000Y-76500000D01*
X29750000Y-79750000D02*
X29750000Y-75250000D01*
%TO.N,LED_FLT_A*%
X52000000Y-75250000D02*
X54000000Y-75250000D01*
X54000000Y-75250000D02*
X55500000Y-76750000D01*
X55500000Y-76750000D02*
X60750000Y-76750000D01*
X60750000Y-76750000D02*
X61500000Y-77500000D01*
X52000000Y-79750000D02*
X55250000Y-76500000D01*
%TO.N,LED_WIFI*%
X28250000Y-75000000D02*
X28500000Y-75000000D01*
%TO.N,B_DI*%
X69000000Y-29000000D02*
X68750000Y-29250000D01*
X64000000Y-34000000D02*
X62250000Y-34000000D01*
X62250000Y-34000000D02*
X62000000Y-34250000D01*
X62000000Y-34250000D02*
X60750000Y-34250000D01*
X60750000Y-34250000D02*
X59750000Y-35250000D01*
X59750000Y-35250000D02*
X57750000Y-35250000D01*
X57750000Y-35250000D02*
X55500000Y-37500000D01*
X55500000Y-37500000D02*
X55000000Y-37500000D01*
X55000000Y-37500000D02*
X54250000Y-38250000D01*
X54250000Y-38250000D02*
X52250000Y-38250000D01*
X52250000Y-38250000D02*
X52000000Y-38500000D01*
X52000000Y-38500000D02*
X44750000Y-38500000D01*
X44750000Y-38500000D02*
X44500000Y-38750000D01*
X38750000Y-34250000D02*
X36000000Y-34250000D01*
X32000000Y-38250000D02*
X31500000Y-38250000D01*
X31500000Y-38250000D02*
X27750000Y-42000000D01*
%TO.N,A_DI*%
X50250000Y-29000000D02*
X50500000Y-29250000D01*
X50500000Y-29250000D02*
X50750000Y-29250000D01*
X50750000Y-29250000D02*
X51250000Y-29750000D01*
X51250000Y-29750000D02*
X52500000Y-29750000D01*
X62500000Y-35250000D02*
X61000000Y-35250000D01*
X61000000Y-35250000D02*
X60000000Y-36250000D01*
X60000000Y-36250000D02*
X58000000Y-36250000D01*
X58000000Y-36250000D02*
X55750000Y-38500000D01*
X55750000Y-38500000D02*
X55250000Y-38500000D01*
X55250000Y-38500000D02*
X54500000Y-39250000D01*
X54500000Y-39250000D02*
X52500000Y-39250000D01*
X52500000Y-39250000D02*
X52250000Y-39500000D01*
X52250000Y-39500000D02*
X50500000Y-39500000D01*
X50500000Y-39500000D02*
X48000000Y-42000000D01*
%TO.N,A_RO*%
X48250000Y-6000000D02*
X48500000Y-6000000D01*
X48500000Y-6000000D02*
X49250000Y-5250000D01*
X49250000Y-5250000D02*
X54000000Y-5250000D01*
X54000000Y-5250000D02*
X54500000Y-5750000D01*
X54500000Y-5750000D02*
X54500000Y-9000000D01*
X54500000Y-9000000D02*
X68250000Y-22750000D01*
X65500000Y-34000000D02*
X64250000Y-35250000D01*
X64250000Y-35250000D02*
X64000000Y-35250000D01*
X64000000Y-35250000D02*
X62750000Y-36500000D01*
X62750000Y-36500000D02*
X61000000Y-36500000D01*
X61000000Y-36500000D02*
X60250000Y-37250000D01*
X60250000Y-37250000D02*
X58250000Y-37250000D01*
X58250000Y-37250000D02*
X56000000Y-39500000D01*
X56000000Y-39500000D02*
X55500000Y-39500000D01*
X55500000Y-39500000D02*
X54750000Y-40250000D01*
X54750000Y-40250000D02*
X52750000Y-40250000D01*
X52750000Y-40250000D02*
X52500000Y-40500000D01*
X52500000Y-40500000D02*
X52000000Y-40500000D01*
X52000000Y-40500000D02*
X50500000Y-42000000D01*
%TO.N,BUCK_BST*%
X17500000Y-26250000D02*
X18000000Y-26250000D01*
X18000000Y-26250000D02*
X18250000Y-26500000D01*
X18250000Y-26500000D02*
X18500000Y-26500000D01*
X18500000Y-26500000D02*
X18750000Y-26750000D01*
%TD*%
M02*
