%TF.GenerationSoftware,KiCad,Pcbnew,10.0.5*%
%TF.CreationDate,2026-10-01T16:28:30-04:00*%
%TF.ProjectId,binfohub_bridge,62696e66-6f68-4756-925f-627269646765,1.1*%
%TF.SameCoordinates,Original*%
%TF.FileFunction,Legend,Top*%
%TF.FilePolarity,Positive*%
%FSLAX46Y46*%
G04 Gerber Fmt 4.6, Leading zero omitted, Abs format (unit mm)*
G04 Created by KiCad (PCBNEW 10.0.5) date 2026-10-01 16:28:30*
%MOMM*%
%LPD*%
G01*
G04 APERTURE LIST*
G04 Aperture macros list*
%AMRoundRect*
0 Rectangle with rounded corners*
0 $1 Rounding radius*
0 $2 $3 $4 $5 $6 $7 $8 $9 X,Y pos of 4 corners*
0 Add a 4 corners polygon primitive as box body*
4,1,4,$2,$3,$4,$5,$6,$7,$8,$9,$2,$3,0*
0 Add four circle primitives for the rounded corners*
1,1,$1+$1,$2,$3*
1,1,$1+$1,$4,$5*
1,1,$1+$1,$6,$7*
1,1,$1+$1,$8,$9*
0 Add four rect primitives between the rounded corners*
20,1,$1+$1,$2,$3,$4,$5,0*
20,1,$1+$1,$4,$5,$6,$7,0*
20,1,$1+$1,$6,$7,$8,$9,0*
20,1,$1+$1,$8,$9,$2,$3,0*%
G04 Aperture macros list end*
%ADD10C,0.150000*%
%ADD11C,0.135000*%
%ADD12C,0.093000*%
%ADD13C,0.098000*%
%ADD14C,0.120000*%
%ADD15C,0.105000*%
%ADD16R,0.900000X1.500000*%
%ADD17R,1.500000X0.900000*%
%ADD18R,0.900000X0.900000*%
%ADD19C,0.600000*%
%ADD20RoundRect,0.250000X-0.250000X-0.475000X0.250000X-0.475000X0.250000X0.475000X-0.250000X0.475000X0*%
%ADD21RoundRect,0.225000X-0.225000X-0.250000X0.225000X-0.250000X0.225000X0.250000X-0.225000X0.250000X0*%
%ADD22RoundRect,0.200000X-0.200000X-0.275000X0.200000X-0.275000X0.200000X0.275000X-0.200000X0.275000X0*%
%ADD23R,1.500000X1.000000*%
%ADD24R,1.700000X1.700000*%
%ADD25C,1.700000*%
%ADD26RoundRect,0.250000X1.050000X1.050000X-1.050000X1.050000X-1.050000X-1.050000X1.050000X-1.050000X0*%
%ADD27C,2.600000*%
%ADD28RoundRect,0.150000X-0.587500X-0.150000X0.587500X-0.150000X0.587500X0.150000X-0.587500X0.150000X0*%
%ADD29RoundRect,0.200000X0.275000X-0.200000X0.275000X0.200000X-0.275000X0.200000X-0.275000X-0.200000X0*%
%ADD30RoundRect,0.225000X0.375000X-0.225000X0.375000X0.225000X-0.375000X0.225000X-0.375000X-0.225000X0*%
%ADD31RoundRect,0.250000X0.900000X-1.000000X0.900000X1.000000X-0.900000X1.000000X-0.900000X-1.000000X0*%
%ADD32RoundRect,0.250000X-1.500000X-0.550000X1.500000X-0.550000X1.500000X0.550000X-1.500000X0.550000X0*%
%ADD33RoundRect,0.225000X0.250000X-0.225000X0.250000X0.225000X-0.250000X0.225000X-0.250000X-0.225000X0*%
%ADD34RoundRect,0.250000X-0.312500X-1.450000X0.312500X-1.450000X0.312500X1.450000X-0.312500X1.450000X0*%
%ADD35RoundRect,0.150000X-0.512500X-0.150000X0.512500X-0.150000X0.512500X0.150000X-0.512500X0.150000X0*%
%ADD36RoundRect,0.250000X-0.325000X-0.650000X0.325000X-0.650000X0.325000X0.650000X-0.325000X0.650000X0*%
%ADD37R,2.350000X5.100000*%
%ADD38RoundRect,0.250000X0.475000X-0.250000X0.475000X0.250000X-0.475000X0.250000X-0.475000X-0.250000X0*%
%ADD39RoundRect,0.249999X0.850001X0.850001X-0.850001X0.850001X-0.850001X-0.850001X0.850001X-0.850001X0*%
%ADD40C,2.200000*%
%ADD41RoundRect,0.250000X-1.000000X-0.650000X1.000000X-0.650000X1.000000X0.650000X-1.000000X0.650000X0*%
%ADD42RoundRect,0.150000X-0.825000X-0.150000X0.825000X-0.150000X0.825000X0.150000X-0.825000X0.150000X0*%
%ADD43RoundRect,0.218750X-0.218750X-0.256250X0.218750X-0.256250X0.218750X0.256250X-0.218750X0.256250X0*%
%ADD44C,3.200000*%
G04 APERTURE END LIST*
D10*
X36166667Y-89731009D02*
X36309524Y-89778628D01*
X36309524Y-89778628D02*
X36357143Y-89826247D01*
X36357143Y-89826247D02*
X36404762Y-89921485D01*
X36404762Y-89921485D02*
X36404762Y-90064342D01*
X36404762Y-90064342D02*
X36357143Y-90159580D01*
X36357143Y-90159580D02*
X36309524Y-90207200D01*
X36309524Y-90207200D02*
X36214286Y-90254819D01*
X36214286Y-90254819D02*
X35833334Y-90254819D01*
X35833334Y-90254819D02*
X35833334Y-89254819D01*
X35833334Y-89254819D02*
X36166667Y-89254819D01*
X36166667Y-89254819D02*
X36261905Y-89302438D01*
X36261905Y-89302438D02*
X36309524Y-89350057D01*
X36309524Y-89350057D02*
X36357143Y-89445295D01*
X36357143Y-89445295D02*
X36357143Y-89540533D01*
X36357143Y-89540533D02*
X36309524Y-89635771D01*
X36309524Y-89635771D02*
X36261905Y-89683390D01*
X36261905Y-89683390D02*
X36166667Y-89731009D01*
X36166667Y-89731009D02*
X35833334Y-89731009D01*
X36833334Y-89873866D02*
X37595239Y-89873866D01*
X38071429Y-90254819D02*
X38071429Y-89254819D01*
X38547619Y-90254819D02*
X38547619Y-89254819D01*
X38547619Y-89254819D02*
X39119047Y-90254819D01*
X39119047Y-90254819D02*
X39119047Y-89254819D01*
X39928571Y-89731009D02*
X39595238Y-89731009D01*
X39595238Y-90254819D02*
X39595238Y-89254819D01*
X39595238Y-89254819D02*
X40071428Y-89254819D01*
X40642857Y-89254819D02*
X40833333Y-89254819D01*
X40833333Y-89254819D02*
X40928571Y-89302438D01*
X40928571Y-89302438D02*
X41023809Y-89397676D01*
X41023809Y-89397676D02*
X41071428Y-89588152D01*
X41071428Y-89588152D02*
X41071428Y-89921485D01*
X41071428Y-89921485D02*
X41023809Y-90111961D01*
X41023809Y-90111961D02*
X40928571Y-90207200D01*
X40928571Y-90207200D02*
X40833333Y-90254819D01*
X40833333Y-90254819D02*
X40642857Y-90254819D01*
X40642857Y-90254819D02*
X40547619Y-90207200D01*
X40547619Y-90207200D02*
X40452381Y-90111961D01*
X40452381Y-90111961D02*
X40404762Y-89921485D01*
X40404762Y-89921485D02*
X40404762Y-89588152D01*
X40404762Y-89588152D02*
X40452381Y-89397676D01*
X40452381Y-89397676D02*
X40547619Y-89302438D01*
X40547619Y-89302438D02*
X40642857Y-89254819D01*
X41500000Y-90254819D02*
X41500000Y-89254819D01*
X41500000Y-89731009D02*
X42071428Y-89731009D01*
X42071428Y-90254819D02*
X42071428Y-89254819D01*
X42547619Y-89254819D02*
X42547619Y-90064342D01*
X42547619Y-90064342D02*
X42595238Y-90159580D01*
X42595238Y-90159580D02*
X42642857Y-90207200D01*
X42642857Y-90207200D02*
X42738095Y-90254819D01*
X42738095Y-90254819D02*
X42928571Y-90254819D01*
X42928571Y-90254819D02*
X43023809Y-90207200D01*
X43023809Y-90207200D02*
X43071428Y-90159580D01*
X43071428Y-90159580D02*
X43119047Y-90064342D01*
X43119047Y-90064342D02*
X43119047Y-89254819D01*
X43928571Y-89731009D02*
X44071428Y-89778628D01*
X44071428Y-89778628D02*
X44119047Y-89826247D01*
X44119047Y-89826247D02*
X44166666Y-89921485D01*
X44166666Y-89921485D02*
X44166666Y-90064342D01*
X44166666Y-90064342D02*
X44119047Y-90159580D01*
X44119047Y-90159580D02*
X44071428Y-90207200D01*
X44071428Y-90207200D02*
X43976190Y-90254819D01*
X43976190Y-90254819D02*
X43595238Y-90254819D01*
X43595238Y-90254819D02*
X43595238Y-89254819D01*
X43595238Y-89254819D02*
X43928571Y-89254819D01*
X43928571Y-89254819D02*
X44023809Y-89302438D01*
X44023809Y-89302438D02*
X44071428Y-89350057D01*
X44071428Y-89350057D02*
X44119047Y-89445295D01*
X44119047Y-89445295D02*
X44119047Y-89540533D01*
X44119047Y-89540533D02*
X44071428Y-89635771D01*
X44071428Y-89635771D02*
X44023809Y-89683390D01*
X44023809Y-89683390D02*
X43928571Y-89731009D01*
X43928571Y-89731009D02*
X43595238Y-89731009D01*
X45690476Y-89731009D02*
X45833333Y-89778628D01*
X45833333Y-89778628D02*
X45880952Y-89826247D01*
X45880952Y-89826247D02*
X45928571Y-89921485D01*
X45928571Y-89921485D02*
X45928571Y-90064342D01*
X45928571Y-90064342D02*
X45880952Y-90159580D01*
X45880952Y-90159580D02*
X45833333Y-90207200D01*
X45833333Y-90207200D02*
X45738095Y-90254819D01*
X45738095Y-90254819D02*
X45357143Y-90254819D01*
X45357143Y-90254819D02*
X45357143Y-89254819D01*
X45357143Y-89254819D02*
X45690476Y-89254819D01*
X45690476Y-89254819D02*
X45785714Y-89302438D01*
X45785714Y-89302438D02*
X45833333Y-89350057D01*
X45833333Y-89350057D02*
X45880952Y-89445295D01*
X45880952Y-89445295D02*
X45880952Y-89540533D01*
X45880952Y-89540533D02*
X45833333Y-89635771D01*
X45833333Y-89635771D02*
X45785714Y-89683390D01*
X45785714Y-89683390D02*
X45690476Y-89731009D01*
X45690476Y-89731009D02*
X45357143Y-89731009D01*
X46928571Y-90254819D02*
X46595238Y-89778628D01*
X46357143Y-90254819D02*
X46357143Y-89254819D01*
X46357143Y-89254819D02*
X46738095Y-89254819D01*
X46738095Y-89254819D02*
X46833333Y-89302438D01*
X46833333Y-89302438D02*
X46880952Y-89350057D01*
X46880952Y-89350057D02*
X46928571Y-89445295D01*
X46928571Y-89445295D02*
X46928571Y-89588152D01*
X46928571Y-89588152D02*
X46880952Y-89683390D01*
X46880952Y-89683390D02*
X46833333Y-89731009D01*
X46833333Y-89731009D02*
X46738095Y-89778628D01*
X46738095Y-89778628D02*
X46357143Y-89778628D01*
X47357143Y-90254819D02*
X47357143Y-89254819D01*
X47833333Y-90254819D02*
X47833333Y-89254819D01*
X47833333Y-89254819D02*
X48071428Y-89254819D01*
X48071428Y-89254819D02*
X48214285Y-89302438D01*
X48214285Y-89302438D02*
X48309523Y-89397676D01*
X48309523Y-89397676D02*
X48357142Y-89492914D01*
X48357142Y-89492914D02*
X48404761Y-89683390D01*
X48404761Y-89683390D02*
X48404761Y-89826247D01*
X48404761Y-89826247D02*
X48357142Y-90016723D01*
X48357142Y-90016723D02*
X48309523Y-90111961D01*
X48309523Y-90111961D02*
X48214285Y-90207200D01*
X48214285Y-90207200D02*
X48071428Y-90254819D01*
X48071428Y-90254819D02*
X47833333Y-90254819D01*
X49357142Y-89302438D02*
X49261904Y-89254819D01*
X49261904Y-89254819D02*
X49119047Y-89254819D01*
X49119047Y-89254819D02*
X48976190Y-89302438D01*
X48976190Y-89302438D02*
X48880952Y-89397676D01*
X48880952Y-89397676D02*
X48833333Y-89492914D01*
X48833333Y-89492914D02*
X48785714Y-89683390D01*
X48785714Y-89683390D02*
X48785714Y-89826247D01*
X48785714Y-89826247D02*
X48833333Y-90016723D01*
X48833333Y-90016723D02*
X48880952Y-90111961D01*
X48880952Y-90111961D02*
X48976190Y-90207200D01*
X48976190Y-90207200D02*
X49119047Y-90254819D01*
X49119047Y-90254819D02*
X49214285Y-90254819D01*
X49214285Y-90254819D02*
X49357142Y-90207200D01*
X49357142Y-90207200D02*
X49404761Y-90159580D01*
X49404761Y-90159580D02*
X49404761Y-89826247D01*
X49404761Y-89826247D02*
X49214285Y-89826247D01*
X49833333Y-89731009D02*
X50166666Y-89731009D01*
X50309523Y-90254819D02*
X49833333Y-90254819D01*
X49833333Y-90254819D02*
X49833333Y-89254819D01*
X49833333Y-89254819D02*
X50309523Y-89254819D01*
X51404762Y-89588152D02*
X51642857Y-90254819D01*
X51642857Y-90254819D02*
X51880952Y-89588152D01*
X52785714Y-90254819D02*
X52214286Y-90254819D01*
X52500000Y-90254819D02*
X52500000Y-89254819D01*
X52500000Y-89254819D02*
X52404762Y-89397676D01*
X52404762Y-89397676D02*
X52309524Y-89492914D01*
X52309524Y-89492914D02*
X52214286Y-89540533D01*
X53214286Y-90159580D02*
X53261905Y-90207200D01*
X53261905Y-90207200D02*
X53214286Y-90254819D01*
X53214286Y-90254819D02*
X53166667Y-90207200D01*
X53166667Y-90207200D02*
X53214286Y-90159580D01*
X53214286Y-90159580D02*
X53214286Y-90254819D01*
X54214285Y-90254819D02*
X53642857Y-90254819D01*
X53928571Y-90254819D02*
X53928571Y-89254819D01*
X53928571Y-89254819D02*
X53833333Y-89397676D01*
X53833333Y-89397676D02*
X53738095Y-89492914D01*
X53738095Y-89492914D02*
X53642857Y-89540533D01*
D11*
X11585714Y-14109337D02*
X11585714Y-14752194D01*
X11585714Y-14752194D02*
X11542857Y-14880765D01*
X11542857Y-14880765D02*
X11457143Y-14966480D01*
X11457143Y-14966480D02*
X11328571Y-15009337D01*
X11328571Y-15009337D02*
X11242857Y-15009337D01*
X12485714Y-15009337D02*
X11971428Y-15009337D01*
X12228571Y-15009337D02*
X12228571Y-14109337D01*
X12228571Y-14109337D02*
X12142857Y-14237908D01*
X12142857Y-14237908D02*
X12057142Y-14323622D01*
X12057142Y-14323622D02*
X11971428Y-14366480D01*
X14028571Y-15009337D02*
X13514285Y-15009337D01*
X13771428Y-15009337D02*
X13771428Y-14109337D01*
X13771428Y-14109337D02*
X13685714Y-14237908D01*
X13685714Y-14237908D02*
X13599999Y-14323622D01*
X13599999Y-14323622D02*
X13514285Y-14366480D01*
X14371428Y-14195051D02*
X14414285Y-14152194D01*
X14414285Y-14152194D02*
X14500000Y-14109337D01*
X14500000Y-14109337D02*
X14714285Y-14109337D01*
X14714285Y-14109337D02*
X14800000Y-14152194D01*
X14800000Y-14152194D02*
X14842857Y-14195051D01*
X14842857Y-14195051D02*
X14885714Y-14280765D01*
X14885714Y-14280765D02*
X14885714Y-14366480D01*
X14885714Y-14366480D02*
X14842857Y-14495051D01*
X14842857Y-14495051D02*
X14328571Y-15009337D01*
X14328571Y-15009337D02*
X14885714Y-15009337D01*
X15142857Y-14109337D02*
X15442857Y-15009337D01*
X15442857Y-15009337D02*
X15742857Y-14109337D01*
X16728571Y-15009337D02*
X16728571Y-14109337D01*
X17157142Y-15009337D02*
X17157142Y-14109337D01*
X17157142Y-14109337D02*
X17671428Y-15009337D01*
X17671428Y-15009337D02*
X17671428Y-14109337D01*
D10*
X11619048Y-16673866D02*
X12380953Y-16673866D01*
X12000000Y-17054819D02*
X12000000Y-16292914D01*
X16699048Y-16673866D02*
X17460953Y-16673866D01*
D11*
X49307143Y-14109337D02*
X49307143Y-14752194D01*
X49307143Y-14752194D02*
X49264286Y-14880765D01*
X49264286Y-14880765D02*
X49178572Y-14966480D01*
X49178572Y-14966480D02*
X49050000Y-15009337D01*
X49050000Y-15009337D02*
X48964286Y-15009337D01*
X49692857Y-14195051D02*
X49735714Y-14152194D01*
X49735714Y-14152194D02*
X49821429Y-14109337D01*
X49821429Y-14109337D02*
X50035714Y-14109337D01*
X50035714Y-14109337D02*
X50121429Y-14152194D01*
X50121429Y-14152194D02*
X50164286Y-14195051D01*
X50164286Y-14195051D02*
X50207143Y-14280765D01*
X50207143Y-14280765D02*
X50207143Y-14366480D01*
X50207143Y-14366480D02*
X50164286Y-14495051D01*
X50164286Y-14495051D02*
X49650000Y-15009337D01*
X49650000Y-15009337D02*
X50207143Y-15009337D01*
X51578571Y-14537908D02*
X51707143Y-14580765D01*
X51707143Y-14580765D02*
X51750000Y-14623622D01*
X51750000Y-14623622D02*
X51792857Y-14709337D01*
X51792857Y-14709337D02*
X51792857Y-14837908D01*
X51792857Y-14837908D02*
X51750000Y-14923622D01*
X51750000Y-14923622D02*
X51707143Y-14966480D01*
X51707143Y-14966480D02*
X51621428Y-15009337D01*
X51621428Y-15009337D02*
X51278571Y-15009337D01*
X51278571Y-15009337D02*
X51278571Y-14109337D01*
X51278571Y-14109337D02*
X51578571Y-14109337D01*
X51578571Y-14109337D02*
X51664286Y-14152194D01*
X51664286Y-14152194D02*
X51707143Y-14195051D01*
X51707143Y-14195051D02*
X51750000Y-14280765D01*
X51750000Y-14280765D02*
X51750000Y-14366480D01*
X51750000Y-14366480D02*
X51707143Y-14452194D01*
X51707143Y-14452194D02*
X51664286Y-14495051D01*
X51664286Y-14495051D02*
X51578571Y-14537908D01*
X51578571Y-14537908D02*
X51278571Y-14537908D01*
X52178571Y-14109337D02*
X52178571Y-14837908D01*
X52178571Y-14837908D02*
X52221428Y-14923622D01*
X52221428Y-14923622D02*
X52264286Y-14966480D01*
X52264286Y-14966480D02*
X52350000Y-15009337D01*
X52350000Y-15009337D02*
X52521428Y-15009337D01*
X52521428Y-15009337D02*
X52607143Y-14966480D01*
X52607143Y-14966480D02*
X52650000Y-14923622D01*
X52650000Y-14923622D02*
X52692857Y-14837908D01*
X52692857Y-14837908D02*
X52692857Y-14109337D01*
X53078571Y-14966480D02*
X53207143Y-15009337D01*
X53207143Y-15009337D02*
X53421428Y-15009337D01*
X53421428Y-15009337D02*
X53507143Y-14966480D01*
X53507143Y-14966480D02*
X53550000Y-14923622D01*
X53550000Y-14923622D02*
X53592857Y-14837908D01*
X53592857Y-14837908D02*
X53592857Y-14752194D01*
X53592857Y-14752194D02*
X53550000Y-14666480D01*
X53550000Y-14666480D02*
X53507143Y-14623622D01*
X53507143Y-14623622D02*
X53421428Y-14580765D01*
X53421428Y-14580765D02*
X53250000Y-14537908D01*
X53250000Y-14537908D02*
X53164285Y-14495051D01*
X53164285Y-14495051D02*
X53121428Y-14452194D01*
X53121428Y-14452194D02*
X53078571Y-14366480D01*
X53078571Y-14366480D02*
X53078571Y-14280765D01*
X53078571Y-14280765D02*
X53121428Y-14195051D01*
X53121428Y-14195051D02*
X53164285Y-14152194D01*
X53164285Y-14152194D02*
X53250000Y-14109337D01*
X53250000Y-14109337D02*
X53464285Y-14109337D01*
X53464285Y-14109337D02*
X53592857Y-14152194D01*
D12*
X49852381Y-16704844D02*
X50147619Y-16704844D01*
X49793333Y-16881987D02*
X50000000Y-16261987D01*
X50000000Y-16261987D02*
X50206666Y-16881987D01*
X52584285Y-16557225D02*
X52672857Y-16586749D01*
X52672857Y-16586749D02*
X52702380Y-16616273D01*
X52702380Y-16616273D02*
X52731904Y-16675321D01*
X52731904Y-16675321D02*
X52731904Y-16763892D01*
X52731904Y-16763892D02*
X52702380Y-16822940D01*
X52702380Y-16822940D02*
X52672857Y-16852464D01*
X52672857Y-16852464D02*
X52613809Y-16881987D01*
X52613809Y-16881987D02*
X52377619Y-16881987D01*
X52377619Y-16881987D02*
X52377619Y-16261987D01*
X52377619Y-16261987D02*
X52584285Y-16261987D01*
X52584285Y-16261987D02*
X52643333Y-16291511D01*
X52643333Y-16291511D02*
X52672857Y-16321035D01*
X52672857Y-16321035D02*
X52702380Y-16380083D01*
X52702380Y-16380083D02*
X52702380Y-16439130D01*
X52702380Y-16439130D02*
X52672857Y-16498178D01*
X52672857Y-16498178D02*
X52643333Y-16527702D01*
X52643333Y-16527702D02*
X52584285Y-16557225D01*
X52584285Y-16557225D02*
X52377619Y-16557225D01*
D11*
X70221429Y-14109337D02*
X70221429Y-14752194D01*
X70221429Y-14752194D02*
X70178572Y-14880765D01*
X70178572Y-14880765D02*
X70092858Y-14966480D01*
X70092858Y-14966480D02*
X69964286Y-15009337D01*
X69964286Y-15009337D02*
X69878572Y-15009337D01*
X70564286Y-14109337D02*
X71121429Y-14109337D01*
X71121429Y-14109337D02*
X70821429Y-14452194D01*
X70821429Y-14452194D02*
X70950000Y-14452194D01*
X70950000Y-14452194D02*
X71035715Y-14495051D01*
X71035715Y-14495051D02*
X71078572Y-14537908D01*
X71078572Y-14537908D02*
X71121429Y-14623622D01*
X71121429Y-14623622D02*
X71121429Y-14837908D01*
X71121429Y-14837908D02*
X71078572Y-14923622D01*
X71078572Y-14923622D02*
X71035715Y-14966480D01*
X71035715Y-14966480D02*
X70950000Y-15009337D01*
X70950000Y-15009337D02*
X70692857Y-15009337D01*
X70692857Y-15009337D02*
X70607143Y-14966480D01*
X70607143Y-14966480D02*
X70564286Y-14923622D01*
X72192857Y-15009337D02*
X72192857Y-14109337D01*
X72621428Y-15009337D02*
X72621428Y-14109337D01*
X72621428Y-14109337D02*
X73135714Y-15009337D01*
X73135714Y-15009337D02*
X73135714Y-14109337D01*
X73864285Y-14537908D02*
X73564285Y-14537908D01*
X73564285Y-15009337D02*
X73564285Y-14109337D01*
X73564285Y-14109337D02*
X73992857Y-14109337D01*
X74507143Y-14109337D02*
X74678571Y-14109337D01*
X74678571Y-14109337D02*
X74764286Y-14152194D01*
X74764286Y-14152194D02*
X74850000Y-14237908D01*
X74850000Y-14237908D02*
X74892857Y-14409337D01*
X74892857Y-14409337D02*
X74892857Y-14709337D01*
X74892857Y-14709337D02*
X74850000Y-14880765D01*
X74850000Y-14880765D02*
X74764286Y-14966480D01*
X74764286Y-14966480D02*
X74678571Y-15009337D01*
X74678571Y-15009337D02*
X74507143Y-15009337D01*
X74507143Y-15009337D02*
X74421429Y-14966480D01*
X74421429Y-14966480D02*
X74335714Y-14880765D01*
X74335714Y-14880765D02*
X74292857Y-14709337D01*
X74292857Y-14709337D02*
X74292857Y-14409337D01*
X74292857Y-14409337D02*
X74335714Y-14237908D01*
X74335714Y-14237908D02*
X74421429Y-14152194D01*
X74421429Y-14152194D02*
X74507143Y-14109337D01*
X75278571Y-15009337D02*
X75278571Y-14109337D01*
X75278571Y-14537908D02*
X75792857Y-14537908D01*
X75792857Y-15009337D02*
X75792857Y-14109337D01*
X76221428Y-14109337D02*
X76221428Y-14837908D01*
X76221428Y-14837908D02*
X76264285Y-14923622D01*
X76264285Y-14923622D02*
X76307143Y-14966480D01*
X76307143Y-14966480D02*
X76392857Y-15009337D01*
X76392857Y-15009337D02*
X76564285Y-15009337D01*
X76564285Y-15009337D02*
X76650000Y-14966480D01*
X76650000Y-14966480D02*
X76692857Y-14923622D01*
X76692857Y-14923622D02*
X76735714Y-14837908D01*
X76735714Y-14837908D02*
X76735714Y-14109337D01*
X77464285Y-14537908D02*
X77592857Y-14580765D01*
X77592857Y-14580765D02*
X77635714Y-14623622D01*
X77635714Y-14623622D02*
X77678571Y-14709337D01*
X77678571Y-14709337D02*
X77678571Y-14837908D01*
X77678571Y-14837908D02*
X77635714Y-14923622D01*
X77635714Y-14923622D02*
X77592857Y-14966480D01*
X77592857Y-14966480D02*
X77507142Y-15009337D01*
X77507142Y-15009337D02*
X77164285Y-15009337D01*
X77164285Y-15009337D02*
X77164285Y-14109337D01*
X77164285Y-14109337D02*
X77464285Y-14109337D01*
X77464285Y-14109337D02*
X77550000Y-14152194D01*
X77550000Y-14152194D02*
X77592857Y-14195051D01*
X77592857Y-14195051D02*
X77635714Y-14280765D01*
X77635714Y-14280765D02*
X77635714Y-14366480D01*
X77635714Y-14366480D02*
X77592857Y-14452194D01*
X77592857Y-14452194D02*
X77550000Y-14495051D01*
X77550000Y-14495051D02*
X77464285Y-14537908D01*
X77464285Y-14537908D02*
X77164285Y-14537908D01*
D12*
X69616190Y-16881987D02*
X69261905Y-16881987D01*
X69439048Y-16881987D02*
X69439048Y-16261987D01*
X69439048Y-16261987D02*
X69380000Y-16350559D01*
X69380000Y-16350559D02*
X69320952Y-16409606D01*
X69320952Y-16409606D02*
X69261905Y-16439130D01*
X69852381Y-16321035D02*
X69881905Y-16291511D01*
X69881905Y-16291511D02*
X69940952Y-16261987D01*
X69940952Y-16261987D02*
X70088571Y-16261987D01*
X70088571Y-16261987D02*
X70147619Y-16291511D01*
X70147619Y-16291511D02*
X70177143Y-16321035D01*
X70177143Y-16321035D02*
X70206666Y-16380083D01*
X70206666Y-16380083D02*
X70206666Y-16439130D01*
X70206666Y-16439130D02*
X70177143Y-16527702D01*
X70177143Y-16527702D02*
X69822857Y-16881987D01*
X69822857Y-16881987D02*
X70206666Y-16881987D01*
X70383809Y-16261987D02*
X70590476Y-16881987D01*
X70590476Y-16881987D02*
X70797142Y-16261987D01*
X72067618Y-16291511D02*
X72008571Y-16261987D01*
X72008571Y-16261987D02*
X71919999Y-16261987D01*
X71919999Y-16261987D02*
X71831428Y-16291511D01*
X71831428Y-16291511D02*
X71772380Y-16350559D01*
X71772380Y-16350559D02*
X71742857Y-16409606D01*
X71742857Y-16409606D02*
X71713333Y-16527702D01*
X71713333Y-16527702D02*
X71713333Y-16616273D01*
X71713333Y-16616273D02*
X71742857Y-16734368D01*
X71742857Y-16734368D02*
X71772380Y-16793416D01*
X71772380Y-16793416D02*
X71831428Y-16852464D01*
X71831428Y-16852464D02*
X71919999Y-16881987D01*
X71919999Y-16881987D02*
X71979047Y-16881987D01*
X71979047Y-16881987D02*
X72067618Y-16852464D01*
X72067618Y-16852464D02*
X72097142Y-16822940D01*
X72097142Y-16822940D02*
X72097142Y-16616273D01*
X72097142Y-16616273D02*
X71979047Y-16616273D01*
X72362857Y-16881987D02*
X72362857Y-16261987D01*
X72362857Y-16261987D02*
X72717142Y-16881987D01*
X72717142Y-16881987D02*
X72717142Y-16261987D01*
X73012381Y-16881987D02*
X73012381Y-16261987D01*
X73012381Y-16261987D02*
X73160000Y-16261987D01*
X73160000Y-16261987D02*
X73248571Y-16291511D01*
X73248571Y-16291511D02*
X73307619Y-16350559D01*
X73307619Y-16350559D02*
X73337142Y-16409606D01*
X73337142Y-16409606D02*
X73366666Y-16527702D01*
X73366666Y-16527702D02*
X73366666Y-16616273D01*
X73366666Y-16616273D02*
X73337142Y-16734368D01*
X73337142Y-16734368D02*
X73307619Y-16793416D01*
X73307619Y-16793416D02*
X73248571Y-16852464D01*
X73248571Y-16852464D02*
X73160000Y-16881987D01*
X73160000Y-16881987D02*
X73012381Y-16881987D01*
X74932381Y-16704844D02*
X75227619Y-16704844D01*
X74873333Y-16881987D02*
X75080000Y-16261987D01*
X75080000Y-16261987D02*
X75286666Y-16881987D01*
X77664285Y-16557225D02*
X77752857Y-16586749D01*
X77752857Y-16586749D02*
X77782380Y-16616273D01*
X77782380Y-16616273D02*
X77811904Y-16675321D01*
X77811904Y-16675321D02*
X77811904Y-16763892D01*
X77811904Y-16763892D02*
X77782380Y-16822940D01*
X77782380Y-16822940D02*
X77752857Y-16852464D01*
X77752857Y-16852464D02*
X77693809Y-16881987D01*
X77693809Y-16881987D02*
X77457619Y-16881987D01*
X77457619Y-16881987D02*
X77457619Y-16261987D01*
X77457619Y-16261987D02*
X77664285Y-16261987D01*
X77664285Y-16261987D02*
X77723333Y-16291511D01*
X77723333Y-16291511D02*
X77752857Y-16321035D01*
X77752857Y-16321035D02*
X77782380Y-16380083D01*
X77782380Y-16380083D02*
X77782380Y-16439130D01*
X77782380Y-16439130D02*
X77752857Y-16498178D01*
X77752857Y-16498178D02*
X77723333Y-16527702D01*
X77723333Y-16527702D02*
X77664285Y-16557225D01*
X77664285Y-16557225D02*
X77457619Y-16557225D01*
D13*
X60472619Y-24645606D02*
X60472619Y-25109892D01*
X60472619Y-25109892D02*
X60441666Y-25202749D01*
X60441666Y-25202749D02*
X60379762Y-25264654D01*
X60379762Y-25264654D02*
X60286904Y-25295606D01*
X60286904Y-25295606D02*
X60225000Y-25295606D01*
X60782142Y-25295606D02*
X60782142Y-24645606D01*
X60782142Y-24645606D02*
X61029761Y-24645606D01*
X61029761Y-24645606D02*
X61091666Y-24676558D01*
X61091666Y-24676558D02*
X61122619Y-24707511D01*
X61122619Y-24707511D02*
X61153571Y-24769415D01*
X61153571Y-24769415D02*
X61153571Y-24862273D01*
X61153571Y-24862273D02*
X61122619Y-24924177D01*
X61122619Y-24924177D02*
X61091666Y-24955130D01*
X61091666Y-24955130D02*
X61029761Y-24986082D01*
X61029761Y-24986082D02*
X60782142Y-24986082D01*
X61772619Y-25295606D02*
X61401190Y-25295606D01*
X61586904Y-25295606D02*
X61586904Y-24645606D01*
X61586904Y-24645606D02*
X61525000Y-24738463D01*
X61525000Y-24738463D02*
X61463095Y-24800368D01*
X61463095Y-24800368D02*
X61401190Y-24831320D01*
X62453571Y-24645606D02*
X62825000Y-24645606D01*
X62639286Y-25295606D02*
X62639286Y-24645606D01*
X63041666Y-24955130D02*
X63258333Y-24955130D01*
X63351190Y-25295606D02*
X63041666Y-25295606D01*
X63041666Y-25295606D02*
X63041666Y-24645606D01*
X63041666Y-24645606D02*
X63351190Y-24645606D01*
X64001190Y-25295606D02*
X63784523Y-24986082D01*
X63629761Y-25295606D02*
X63629761Y-24645606D01*
X63629761Y-24645606D02*
X63877380Y-24645606D01*
X63877380Y-24645606D02*
X63939285Y-24676558D01*
X63939285Y-24676558D02*
X63970238Y-24707511D01*
X63970238Y-24707511D02*
X64001190Y-24769415D01*
X64001190Y-24769415D02*
X64001190Y-24862273D01*
X64001190Y-24862273D02*
X63970238Y-24924177D01*
X63970238Y-24924177D02*
X63939285Y-24955130D01*
X63939285Y-24955130D02*
X63877380Y-24986082D01*
X63877380Y-24986082D02*
X63629761Y-24986082D01*
X64279761Y-25295606D02*
X64279761Y-24645606D01*
X64279761Y-24645606D02*
X64496428Y-25109892D01*
X64496428Y-25109892D02*
X64713095Y-24645606D01*
X64713095Y-24645606D02*
X64713095Y-25295606D01*
X80472619Y-24645606D02*
X80472619Y-25109892D01*
X80472619Y-25109892D02*
X80441666Y-25202749D01*
X80441666Y-25202749D02*
X80379762Y-25264654D01*
X80379762Y-25264654D02*
X80286904Y-25295606D01*
X80286904Y-25295606D02*
X80225000Y-25295606D01*
X80782142Y-25295606D02*
X80782142Y-24645606D01*
X80782142Y-24645606D02*
X81029761Y-24645606D01*
X81029761Y-24645606D02*
X81091666Y-24676558D01*
X81091666Y-24676558D02*
X81122619Y-24707511D01*
X81122619Y-24707511D02*
X81153571Y-24769415D01*
X81153571Y-24769415D02*
X81153571Y-24862273D01*
X81153571Y-24862273D02*
X81122619Y-24924177D01*
X81122619Y-24924177D02*
X81091666Y-24955130D01*
X81091666Y-24955130D02*
X81029761Y-24986082D01*
X81029761Y-24986082D02*
X80782142Y-24986082D01*
X81401190Y-24707511D02*
X81432142Y-24676558D01*
X81432142Y-24676558D02*
X81494047Y-24645606D01*
X81494047Y-24645606D02*
X81648809Y-24645606D01*
X81648809Y-24645606D02*
X81710714Y-24676558D01*
X81710714Y-24676558D02*
X81741666Y-24707511D01*
X81741666Y-24707511D02*
X81772619Y-24769415D01*
X81772619Y-24769415D02*
X81772619Y-24831320D01*
X81772619Y-24831320D02*
X81741666Y-24924177D01*
X81741666Y-24924177D02*
X81370238Y-25295606D01*
X81370238Y-25295606D02*
X81772619Y-25295606D01*
X82453571Y-24645606D02*
X82825000Y-24645606D01*
X82639286Y-25295606D02*
X82639286Y-24645606D01*
X83041666Y-24955130D02*
X83258333Y-24955130D01*
X83351190Y-25295606D02*
X83041666Y-25295606D01*
X83041666Y-25295606D02*
X83041666Y-24645606D01*
X83041666Y-24645606D02*
X83351190Y-24645606D01*
X84001190Y-25295606D02*
X83784523Y-24986082D01*
X83629761Y-25295606D02*
X83629761Y-24645606D01*
X83629761Y-24645606D02*
X83877380Y-24645606D01*
X83877380Y-24645606D02*
X83939285Y-24676558D01*
X83939285Y-24676558D02*
X83970238Y-24707511D01*
X83970238Y-24707511D02*
X84001190Y-24769415D01*
X84001190Y-24769415D02*
X84001190Y-24862273D01*
X84001190Y-24862273D02*
X83970238Y-24924177D01*
X83970238Y-24924177D02*
X83939285Y-24955130D01*
X83939285Y-24955130D02*
X83877380Y-24986082D01*
X83877380Y-24986082D02*
X83629761Y-24986082D01*
X84279761Y-25295606D02*
X84279761Y-24645606D01*
X84279761Y-24645606D02*
X84496428Y-25109892D01*
X84496428Y-25109892D02*
X84713095Y-24645606D01*
X84713095Y-24645606D02*
X84713095Y-25295606D01*
D14*
X16933333Y-84363855D02*
X16933333Y-83563855D01*
X16933333Y-83563855D02*
X17238095Y-83563855D01*
X17238095Y-83563855D02*
X17314285Y-83601950D01*
X17314285Y-83601950D02*
X17352380Y-83640045D01*
X17352380Y-83640045D02*
X17390476Y-83716236D01*
X17390476Y-83716236D02*
X17390476Y-83830521D01*
X17390476Y-83830521D02*
X17352380Y-83906712D01*
X17352380Y-83906712D02*
X17314285Y-83944807D01*
X17314285Y-83944807D02*
X17238095Y-83982902D01*
X17238095Y-83982902D02*
X16933333Y-83982902D01*
X17657142Y-83563855D02*
X17847618Y-84363855D01*
X17847618Y-84363855D02*
X17999999Y-83792426D01*
X17999999Y-83792426D02*
X18152380Y-84363855D01*
X18152380Y-84363855D02*
X18342857Y-83563855D01*
X19104762Y-84363855D02*
X18838095Y-83982902D01*
X18647619Y-84363855D02*
X18647619Y-83563855D01*
X18647619Y-83563855D02*
X18952381Y-83563855D01*
X18952381Y-83563855D02*
X19028571Y-83601950D01*
X19028571Y-83601950D02*
X19066666Y-83640045D01*
X19066666Y-83640045D02*
X19104762Y-83716236D01*
X19104762Y-83716236D02*
X19104762Y-83830521D01*
X19104762Y-83830521D02*
X19066666Y-83906712D01*
X19066666Y-83906712D02*
X19028571Y-83944807D01*
X19028571Y-83944807D02*
X18952381Y-83982902D01*
X18952381Y-83982902D02*
X18647619Y-83982902D01*
D13*
X17086905Y-86062273D02*
X17086905Y-86588463D01*
X17086905Y-86588463D02*
X17055952Y-86650368D01*
X17055952Y-86650368D02*
X17025000Y-86681320D01*
X17025000Y-86681320D02*
X16963095Y-86712273D01*
X16963095Y-86712273D02*
X16870238Y-86712273D01*
X16870238Y-86712273D02*
X16808333Y-86681320D01*
X17086905Y-86464654D02*
X17025000Y-86495606D01*
X17025000Y-86495606D02*
X16901191Y-86495606D01*
X16901191Y-86495606D02*
X16839286Y-86464654D01*
X16839286Y-86464654D02*
X16808333Y-86433701D01*
X16808333Y-86433701D02*
X16777381Y-86371796D01*
X16777381Y-86371796D02*
X16777381Y-86186082D01*
X16777381Y-86186082D02*
X16808333Y-86124177D01*
X16808333Y-86124177D02*
X16839286Y-86093225D01*
X16839286Y-86093225D02*
X16901191Y-86062273D01*
X16901191Y-86062273D02*
X17025000Y-86062273D01*
X17025000Y-86062273D02*
X17086905Y-86093225D01*
X17396428Y-86495606D02*
X17396428Y-86062273D01*
X17396428Y-86186082D02*
X17427381Y-86124177D01*
X17427381Y-86124177D02*
X17458333Y-86093225D01*
X17458333Y-86093225D02*
X17520238Y-86062273D01*
X17520238Y-86062273D02*
X17582143Y-86062273D01*
X18046428Y-86464654D02*
X17984524Y-86495606D01*
X17984524Y-86495606D02*
X17860714Y-86495606D01*
X17860714Y-86495606D02*
X17798809Y-86464654D01*
X17798809Y-86464654D02*
X17767857Y-86402749D01*
X17767857Y-86402749D02*
X17767857Y-86155130D01*
X17767857Y-86155130D02*
X17798809Y-86093225D01*
X17798809Y-86093225D02*
X17860714Y-86062273D01*
X17860714Y-86062273D02*
X17984524Y-86062273D01*
X17984524Y-86062273D02*
X18046428Y-86093225D01*
X18046428Y-86093225D02*
X18077381Y-86155130D01*
X18077381Y-86155130D02*
X18077381Y-86217034D01*
X18077381Y-86217034D02*
X17767857Y-86278939D01*
X18603571Y-86464654D02*
X18541667Y-86495606D01*
X18541667Y-86495606D02*
X18417857Y-86495606D01*
X18417857Y-86495606D02*
X18355952Y-86464654D01*
X18355952Y-86464654D02*
X18325000Y-86402749D01*
X18325000Y-86402749D02*
X18325000Y-86155130D01*
X18325000Y-86155130D02*
X18355952Y-86093225D01*
X18355952Y-86093225D02*
X18417857Y-86062273D01*
X18417857Y-86062273D02*
X18541667Y-86062273D01*
X18541667Y-86062273D02*
X18603571Y-86093225D01*
X18603571Y-86093225D02*
X18634524Y-86155130D01*
X18634524Y-86155130D02*
X18634524Y-86217034D01*
X18634524Y-86217034D02*
X18325000Y-86278939D01*
X18913095Y-86062273D02*
X18913095Y-86495606D01*
X18913095Y-86124177D02*
X18944048Y-86093225D01*
X18944048Y-86093225D02*
X19005953Y-86062273D01*
X19005953Y-86062273D02*
X19098810Y-86062273D01*
X19098810Y-86062273D02*
X19160714Y-86093225D01*
X19160714Y-86093225D02*
X19191667Y-86155130D01*
X19191667Y-86155130D02*
X19191667Y-86495606D01*
D14*
X27933333Y-83563855D02*
X28123809Y-84363855D01*
X28123809Y-84363855D02*
X28276190Y-83792426D01*
X28276190Y-83792426D02*
X28428571Y-84363855D01*
X28428571Y-84363855D02*
X28619048Y-83563855D01*
X28923810Y-84363855D02*
X28923810Y-83563855D01*
X29571428Y-83944807D02*
X29304762Y-83944807D01*
X29304762Y-84363855D02*
X29304762Y-83563855D01*
X29304762Y-83563855D02*
X29685714Y-83563855D01*
X29990476Y-84363855D02*
X29990476Y-83563855D01*
D13*
X28117857Y-86495606D02*
X28117857Y-85845606D01*
X28117857Y-86093225D02*
X28179762Y-86062273D01*
X28179762Y-86062273D02*
X28303572Y-86062273D01*
X28303572Y-86062273D02*
X28365476Y-86093225D01*
X28365476Y-86093225D02*
X28396429Y-86124177D01*
X28396429Y-86124177D02*
X28427381Y-86186082D01*
X28427381Y-86186082D02*
X28427381Y-86371796D01*
X28427381Y-86371796D02*
X28396429Y-86433701D01*
X28396429Y-86433701D02*
X28365476Y-86464654D01*
X28365476Y-86464654D02*
X28303572Y-86495606D01*
X28303572Y-86495606D02*
X28179762Y-86495606D01*
X28179762Y-86495606D02*
X28117857Y-86464654D01*
X28798810Y-86495606D02*
X28736905Y-86464654D01*
X28736905Y-86464654D02*
X28705952Y-86402749D01*
X28705952Y-86402749D02*
X28705952Y-85845606D01*
X29325000Y-86062273D02*
X29325000Y-86495606D01*
X29046428Y-86062273D02*
X29046428Y-86402749D01*
X29046428Y-86402749D02*
X29077381Y-86464654D01*
X29077381Y-86464654D02*
X29139286Y-86495606D01*
X29139286Y-86495606D02*
X29232143Y-86495606D01*
X29232143Y-86495606D02*
X29294047Y-86464654D01*
X29294047Y-86464654D02*
X29325000Y-86433701D01*
X29882142Y-86464654D02*
X29820238Y-86495606D01*
X29820238Y-86495606D02*
X29696428Y-86495606D01*
X29696428Y-86495606D02*
X29634523Y-86464654D01*
X29634523Y-86464654D02*
X29603571Y-86402749D01*
X29603571Y-86402749D02*
X29603571Y-86155130D01*
X29603571Y-86155130D02*
X29634523Y-86093225D01*
X29634523Y-86093225D02*
X29696428Y-86062273D01*
X29696428Y-86062273D02*
X29820238Y-86062273D01*
X29820238Y-86062273D02*
X29882142Y-86093225D01*
X29882142Y-86093225D02*
X29913095Y-86155130D01*
X29913095Y-86155130D02*
X29913095Y-86217034D01*
X29913095Y-86217034D02*
X29603571Y-86278939D01*
D14*
X39257142Y-83944807D02*
X39371428Y-83982902D01*
X39371428Y-83982902D02*
X39409523Y-84020998D01*
X39409523Y-84020998D02*
X39447619Y-84097188D01*
X39447619Y-84097188D02*
X39447619Y-84211474D01*
X39447619Y-84211474D02*
X39409523Y-84287664D01*
X39409523Y-84287664D02*
X39371428Y-84325760D01*
X39371428Y-84325760D02*
X39295238Y-84363855D01*
X39295238Y-84363855D02*
X38990476Y-84363855D01*
X38990476Y-84363855D02*
X38990476Y-83563855D01*
X38990476Y-83563855D02*
X39257142Y-83563855D01*
X39257142Y-83563855D02*
X39333333Y-83601950D01*
X39333333Y-83601950D02*
X39371428Y-83640045D01*
X39371428Y-83640045D02*
X39409523Y-83716236D01*
X39409523Y-83716236D02*
X39409523Y-83792426D01*
X39409523Y-83792426D02*
X39371428Y-83868617D01*
X39371428Y-83868617D02*
X39333333Y-83906712D01*
X39333333Y-83906712D02*
X39257142Y-83944807D01*
X39257142Y-83944807D02*
X38990476Y-83944807D01*
X39790476Y-83563855D02*
X39790476Y-84211474D01*
X39790476Y-84211474D02*
X39828571Y-84287664D01*
X39828571Y-84287664D02*
X39866666Y-84325760D01*
X39866666Y-84325760D02*
X39942857Y-84363855D01*
X39942857Y-84363855D02*
X40095238Y-84363855D01*
X40095238Y-84363855D02*
X40171428Y-84325760D01*
X40171428Y-84325760D02*
X40209523Y-84287664D01*
X40209523Y-84287664D02*
X40247619Y-84211474D01*
X40247619Y-84211474D02*
X40247619Y-83563855D01*
X40590475Y-84325760D02*
X40704761Y-84363855D01*
X40704761Y-84363855D02*
X40895237Y-84363855D01*
X40895237Y-84363855D02*
X40971428Y-84325760D01*
X40971428Y-84325760D02*
X41009523Y-84287664D01*
X41009523Y-84287664D02*
X41047618Y-84211474D01*
X41047618Y-84211474D02*
X41047618Y-84135283D01*
X41047618Y-84135283D02*
X41009523Y-84059093D01*
X41009523Y-84059093D02*
X40971428Y-84020998D01*
X40971428Y-84020998D02*
X40895237Y-83982902D01*
X40895237Y-83982902D02*
X40742856Y-83944807D01*
X40742856Y-83944807D02*
X40666666Y-83906712D01*
X40666666Y-83906712D02*
X40628571Y-83868617D01*
X40628571Y-83868617D02*
X40590475Y-83792426D01*
X40590475Y-83792426D02*
X40590475Y-83716236D01*
X40590475Y-83716236D02*
X40628571Y-83640045D01*
X40628571Y-83640045D02*
X40666666Y-83601950D01*
X40666666Y-83601950D02*
X40742856Y-83563855D01*
X40742856Y-83563855D02*
X40933333Y-83563855D01*
X40933333Y-83563855D02*
X41047618Y-83601950D01*
D13*
X39086905Y-86062273D02*
X39086905Y-86588463D01*
X39086905Y-86588463D02*
X39055952Y-86650368D01*
X39055952Y-86650368D02*
X39025000Y-86681320D01*
X39025000Y-86681320D02*
X38963095Y-86712273D01*
X38963095Y-86712273D02*
X38870238Y-86712273D01*
X38870238Y-86712273D02*
X38808333Y-86681320D01*
X39086905Y-86464654D02*
X39025000Y-86495606D01*
X39025000Y-86495606D02*
X38901191Y-86495606D01*
X38901191Y-86495606D02*
X38839286Y-86464654D01*
X38839286Y-86464654D02*
X38808333Y-86433701D01*
X38808333Y-86433701D02*
X38777381Y-86371796D01*
X38777381Y-86371796D02*
X38777381Y-86186082D01*
X38777381Y-86186082D02*
X38808333Y-86124177D01*
X38808333Y-86124177D02*
X38839286Y-86093225D01*
X38839286Y-86093225D02*
X38901191Y-86062273D01*
X38901191Y-86062273D02*
X39025000Y-86062273D01*
X39025000Y-86062273D02*
X39086905Y-86093225D01*
X39396428Y-86495606D02*
X39396428Y-86062273D01*
X39396428Y-86186082D02*
X39427381Y-86124177D01*
X39427381Y-86124177D02*
X39458333Y-86093225D01*
X39458333Y-86093225D02*
X39520238Y-86062273D01*
X39520238Y-86062273D02*
X39582143Y-86062273D01*
X40046428Y-86464654D02*
X39984524Y-86495606D01*
X39984524Y-86495606D02*
X39860714Y-86495606D01*
X39860714Y-86495606D02*
X39798809Y-86464654D01*
X39798809Y-86464654D02*
X39767857Y-86402749D01*
X39767857Y-86402749D02*
X39767857Y-86155130D01*
X39767857Y-86155130D02*
X39798809Y-86093225D01*
X39798809Y-86093225D02*
X39860714Y-86062273D01*
X39860714Y-86062273D02*
X39984524Y-86062273D01*
X39984524Y-86062273D02*
X40046428Y-86093225D01*
X40046428Y-86093225D02*
X40077381Y-86155130D01*
X40077381Y-86155130D02*
X40077381Y-86217034D01*
X40077381Y-86217034D02*
X39767857Y-86278939D01*
X40603571Y-86464654D02*
X40541667Y-86495606D01*
X40541667Y-86495606D02*
X40417857Y-86495606D01*
X40417857Y-86495606D02*
X40355952Y-86464654D01*
X40355952Y-86464654D02*
X40325000Y-86402749D01*
X40325000Y-86402749D02*
X40325000Y-86155130D01*
X40325000Y-86155130D02*
X40355952Y-86093225D01*
X40355952Y-86093225D02*
X40417857Y-86062273D01*
X40417857Y-86062273D02*
X40541667Y-86062273D01*
X40541667Y-86062273D02*
X40603571Y-86093225D01*
X40603571Y-86093225D02*
X40634524Y-86155130D01*
X40634524Y-86155130D02*
X40634524Y-86217034D01*
X40634524Y-86217034D02*
X40325000Y-86278939D01*
X40913095Y-86062273D02*
X40913095Y-86495606D01*
X40913095Y-86124177D02*
X40944048Y-86093225D01*
X40944048Y-86093225D02*
X41005953Y-86062273D01*
X41005953Y-86062273D02*
X41098810Y-86062273D01*
X41098810Y-86062273D02*
X41160714Y-86093225D01*
X41160714Y-86093225D02*
X41191667Y-86155130D01*
X41191667Y-86155130D02*
X41191667Y-86495606D01*
D14*
X49723809Y-83944807D02*
X49457143Y-83944807D01*
X49457143Y-84363855D02*
X49457143Y-83563855D01*
X49457143Y-83563855D02*
X49838095Y-83563855D01*
X50104761Y-84135283D02*
X50485714Y-84135283D01*
X50028571Y-84363855D02*
X50295238Y-83563855D01*
X50295238Y-83563855D02*
X50561904Y-84363855D01*
X50828571Y-83563855D02*
X50828571Y-84211474D01*
X50828571Y-84211474D02*
X50866666Y-84287664D01*
X50866666Y-84287664D02*
X50904761Y-84325760D01*
X50904761Y-84325760D02*
X50980952Y-84363855D01*
X50980952Y-84363855D02*
X51133333Y-84363855D01*
X51133333Y-84363855D02*
X51209523Y-84325760D01*
X51209523Y-84325760D02*
X51247618Y-84287664D01*
X51247618Y-84287664D02*
X51285714Y-84211474D01*
X51285714Y-84211474D02*
X51285714Y-83563855D01*
X52047618Y-84363855D02*
X51666666Y-84363855D01*
X51666666Y-84363855D02*
X51666666Y-83563855D01*
X52199999Y-83563855D02*
X52657142Y-83563855D01*
X52428570Y-84363855D02*
X52428570Y-83563855D01*
D13*
X50380952Y-86495606D02*
X50380952Y-86062273D01*
X50380952Y-86186082D02*
X50411905Y-86124177D01*
X50411905Y-86124177D02*
X50442857Y-86093225D01*
X50442857Y-86093225D02*
X50504762Y-86062273D01*
X50504762Y-86062273D02*
X50566667Y-86062273D01*
X51030952Y-86464654D02*
X50969048Y-86495606D01*
X50969048Y-86495606D02*
X50845238Y-86495606D01*
X50845238Y-86495606D02*
X50783333Y-86464654D01*
X50783333Y-86464654D02*
X50752381Y-86402749D01*
X50752381Y-86402749D02*
X50752381Y-86155130D01*
X50752381Y-86155130D02*
X50783333Y-86093225D01*
X50783333Y-86093225D02*
X50845238Y-86062273D01*
X50845238Y-86062273D02*
X50969048Y-86062273D01*
X50969048Y-86062273D02*
X51030952Y-86093225D01*
X51030952Y-86093225D02*
X51061905Y-86155130D01*
X51061905Y-86155130D02*
X51061905Y-86217034D01*
X51061905Y-86217034D02*
X50752381Y-86278939D01*
X51619048Y-86495606D02*
X51619048Y-85845606D01*
X51619048Y-86464654D02*
X51557143Y-86495606D01*
X51557143Y-86495606D02*
X51433334Y-86495606D01*
X51433334Y-86495606D02*
X51371429Y-86464654D01*
X51371429Y-86464654D02*
X51340476Y-86433701D01*
X51340476Y-86433701D02*
X51309524Y-86371796D01*
X51309524Y-86371796D02*
X51309524Y-86186082D01*
X51309524Y-86186082D02*
X51340476Y-86124177D01*
X51340476Y-86124177D02*
X51371429Y-86093225D01*
X51371429Y-86093225D02*
X51433334Y-86062273D01*
X51433334Y-86062273D02*
X51557143Y-86062273D01*
X51557143Y-86062273D02*
X51619048Y-86093225D01*
D14*
X61390476Y-83563855D02*
X61847619Y-83563855D01*
X61619047Y-84363855D02*
X61619047Y-83563855D01*
X62038095Y-83563855D02*
X62571429Y-84363855D01*
X62571429Y-83563855D02*
X62038095Y-84363855D01*
D13*
X60591667Y-86062273D02*
X60746429Y-86495606D01*
X60901190Y-86062273D02*
X60746429Y-86495606D01*
X60746429Y-86495606D02*
X60684524Y-86650368D01*
X60684524Y-86650368D02*
X60653571Y-86681320D01*
X60653571Y-86681320D02*
X60591667Y-86712273D01*
X61396428Y-86464654D02*
X61334524Y-86495606D01*
X61334524Y-86495606D02*
X61210714Y-86495606D01*
X61210714Y-86495606D02*
X61148809Y-86464654D01*
X61148809Y-86464654D02*
X61117857Y-86402749D01*
X61117857Y-86402749D02*
X61117857Y-86155130D01*
X61117857Y-86155130D02*
X61148809Y-86093225D01*
X61148809Y-86093225D02*
X61210714Y-86062273D01*
X61210714Y-86062273D02*
X61334524Y-86062273D01*
X61334524Y-86062273D02*
X61396428Y-86093225D01*
X61396428Y-86093225D02*
X61427381Y-86155130D01*
X61427381Y-86155130D02*
X61427381Y-86217034D01*
X61427381Y-86217034D02*
X61117857Y-86278939D01*
X61798810Y-86495606D02*
X61736905Y-86464654D01*
X61736905Y-86464654D02*
X61705952Y-86402749D01*
X61705952Y-86402749D02*
X61705952Y-85845606D01*
X62139286Y-86495606D02*
X62077381Y-86464654D01*
X62077381Y-86464654D02*
X62046428Y-86402749D01*
X62046428Y-86402749D02*
X62046428Y-85845606D01*
X62479762Y-86495606D02*
X62417857Y-86464654D01*
X62417857Y-86464654D02*
X62386904Y-86433701D01*
X62386904Y-86433701D02*
X62355952Y-86371796D01*
X62355952Y-86371796D02*
X62355952Y-86186082D01*
X62355952Y-86186082D02*
X62386904Y-86124177D01*
X62386904Y-86124177D02*
X62417857Y-86093225D01*
X62417857Y-86093225D02*
X62479762Y-86062273D01*
X62479762Y-86062273D02*
X62572619Y-86062273D01*
X62572619Y-86062273D02*
X62634523Y-86093225D01*
X62634523Y-86093225D02*
X62665476Y-86124177D01*
X62665476Y-86124177D02*
X62696428Y-86186082D01*
X62696428Y-86186082D02*
X62696428Y-86371796D01*
X62696428Y-86371796D02*
X62665476Y-86433701D01*
X62665476Y-86433701D02*
X62634523Y-86464654D01*
X62634523Y-86464654D02*
X62572619Y-86495606D01*
X62572619Y-86495606D02*
X62479762Y-86495606D01*
X62913095Y-86062273D02*
X63036904Y-86495606D01*
X63036904Y-86495606D02*
X63160714Y-86186082D01*
X63160714Y-86186082D02*
X63284523Y-86495606D01*
X63284523Y-86495606D02*
X63408333Y-86062273D01*
D15*
X4618373Y-62633332D02*
X5118373Y-62633332D01*
X5118373Y-62633332D02*
X5218373Y-62666665D01*
X5218373Y-62666665D02*
X5285040Y-62733332D01*
X5285040Y-62733332D02*
X5318373Y-62833332D01*
X5318373Y-62833332D02*
X5318373Y-62899999D01*
X4851706Y-61999999D02*
X5318373Y-61999999D01*
X4585040Y-62166666D02*
X5085040Y-62333332D01*
X5085040Y-62333332D02*
X5085040Y-61899999D01*
X4951706Y-61099999D02*
X4951706Y-60866666D01*
X5318373Y-60766666D02*
X5318373Y-61099999D01*
X5318373Y-61099999D02*
X4618373Y-61099999D01*
X4618373Y-61099999D02*
X4618373Y-60766666D01*
X4618373Y-60533333D02*
X5318373Y-60066666D01*
X4618373Y-60066666D02*
X5318373Y-60533333D01*
X4618373Y-59899999D02*
X4618373Y-59499999D01*
X5318373Y-59699999D02*
X4618373Y-59699999D01*
X5318373Y-58400000D02*
X5318373Y-58733333D01*
X5318373Y-58733333D02*
X4618373Y-58733333D01*
X4951706Y-58166666D02*
X4951706Y-57933333D01*
X5318373Y-57833333D02*
X5318373Y-58166666D01*
X5318373Y-58166666D02*
X4618373Y-58166666D01*
X4618373Y-58166666D02*
X4618373Y-57833333D01*
X5318373Y-57533333D02*
X4618373Y-57533333D01*
X4618373Y-57533333D02*
X4618373Y-57366666D01*
X4618373Y-57366666D02*
X4651706Y-57266666D01*
X4651706Y-57266666D02*
X4718373Y-57200000D01*
X4718373Y-57200000D02*
X4785040Y-57166666D01*
X4785040Y-57166666D02*
X4918373Y-57133333D01*
X4918373Y-57133333D02*
X5018373Y-57133333D01*
X5018373Y-57133333D02*
X5151706Y-57166666D01*
X5151706Y-57166666D02*
X5218373Y-57200000D01*
X5218373Y-57200000D02*
X5285040Y-57266666D01*
X5285040Y-57266666D02*
X5318373Y-57366666D01*
X5318373Y-57366666D02*
X5318373Y-57533333D01*
D12*
X5962380Y-53691511D02*
X5903333Y-53661987D01*
X5903333Y-53661987D02*
X5814761Y-53661987D01*
X5814761Y-53661987D02*
X5726190Y-53691511D01*
X5726190Y-53691511D02*
X5667142Y-53750559D01*
X5667142Y-53750559D02*
X5637619Y-53809606D01*
X5637619Y-53809606D02*
X5608095Y-53927702D01*
X5608095Y-53927702D02*
X5608095Y-54016273D01*
X5608095Y-54016273D02*
X5637619Y-54134368D01*
X5637619Y-54134368D02*
X5667142Y-54193416D01*
X5667142Y-54193416D02*
X5726190Y-54252464D01*
X5726190Y-54252464D02*
X5814761Y-54281987D01*
X5814761Y-54281987D02*
X5873809Y-54281987D01*
X5873809Y-54281987D02*
X5962380Y-54252464D01*
X5962380Y-54252464D02*
X5991904Y-54222940D01*
X5991904Y-54222940D02*
X5991904Y-54016273D01*
X5991904Y-54016273D02*
X5873809Y-54016273D01*
X5637619Y-56821987D02*
X5637619Y-56201987D01*
X5637619Y-56201987D02*
X5873809Y-56201987D01*
X5873809Y-56201987D02*
X5932857Y-56231511D01*
X5932857Y-56231511D02*
X5962380Y-56261035D01*
X5962380Y-56261035D02*
X5991904Y-56320083D01*
X5991904Y-56320083D02*
X5991904Y-56408654D01*
X5991904Y-56408654D02*
X5962380Y-56467702D01*
X5962380Y-56467702D02*
X5932857Y-56497225D01*
X5932857Y-56497225D02*
X5873809Y-56526749D01*
X5873809Y-56526749D02*
X5637619Y-56526749D01*
X5534286Y-58741987D02*
X5681905Y-59361987D01*
X5681905Y-59361987D02*
X5800000Y-58919130D01*
X5800000Y-58919130D02*
X5918095Y-59361987D01*
X5918095Y-59361987D02*
X6065715Y-58741987D01*
X5844285Y-61577225D02*
X5932857Y-61606749D01*
X5932857Y-61606749D02*
X5962380Y-61636273D01*
X5962380Y-61636273D02*
X5991904Y-61695321D01*
X5991904Y-61695321D02*
X5991904Y-61783892D01*
X5991904Y-61783892D02*
X5962380Y-61842940D01*
X5962380Y-61842940D02*
X5932857Y-61872464D01*
X5932857Y-61872464D02*
X5873809Y-61901987D01*
X5873809Y-61901987D02*
X5637619Y-61901987D01*
X5637619Y-61901987D02*
X5637619Y-61281987D01*
X5637619Y-61281987D02*
X5844285Y-61281987D01*
X5844285Y-61281987D02*
X5903333Y-61311511D01*
X5903333Y-61311511D02*
X5932857Y-61341035D01*
X5932857Y-61341035D02*
X5962380Y-61400083D01*
X5962380Y-61400083D02*
X5962380Y-61459130D01*
X5962380Y-61459130D02*
X5932857Y-61518178D01*
X5932857Y-61518178D02*
X5903333Y-61547702D01*
X5903333Y-61547702D02*
X5844285Y-61577225D01*
X5844285Y-61577225D02*
X5637619Y-61577225D01*
X5888571Y-64117225D02*
X5681905Y-64117225D01*
X5681905Y-64441987D02*
X5681905Y-63821987D01*
X5681905Y-63821987D02*
X5977143Y-63821987D01*
X5622857Y-66361987D02*
X5977143Y-66361987D01*
X5800000Y-66981987D02*
X5800000Y-66361987D01*
D14*
X9628571Y-52263855D02*
X9171428Y-52263855D01*
X9400000Y-52263855D02*
X9400000Y-51463855D01*
X9400000Y-51463855D02*
X9323809Y-51578140D01*
X9323809Y-51578140D02*
X9247619Y-51654331D01*
X9247619Y-51654331D02*
X9171428Y-51692426D01*
D15*
X10618373Y-57916666D02*
X11118373Y-57916666D01*
X11118373Y-57916666D02*
X11218373Y-57949999D01*
X11218373Y-57949999D02*
X11285040Y-58016666D01*
X11285040Y-58016666D02*
X11318373Y-58116666D01*
X11318373Y-58116666D02*
X11318373Y-58183333D01*
X10618373Y-57283333D02*
X10618373Y-57416666D01*
X10618373Y-57416666D02*
X10651706Y-57483333D01*
X10651706Y-57483333D02*
X10685040Y-57516666D01*
X10685040Y-57516666D02*
X10785040Y-57583333D01*
X10785040Y-57583333D02*
X10918373Y-57616666D01*
X10918373Y-57616666D02*
X11185040Y-57616666D01*
X11185040Y-57616666D02*
X11251706Y-57583333D01*
X11251706Y-57583333D02*
X11285040Y-57550000D01*
X11285040Y-57550000D02*
X11318373Y-57483333D01*
X11318373Y-57483333D02*
X11318373Y-57350000D01*
X11318373Y-57350000D02*
X11285040Y-57283333D01*
X11285040Y-57283333D02*
X11251706Y-57250000D01*
X11251706Y-57250000D02*
X11185040Y-57216666D01*
X11185040Y-57216666D02*
X11018373Y-57216666D01*
X11018373Y-57216666D02*
X10951706Y-57250000D01*
X10951706Y-57250000D02*
X10918373Y-57283333D01*
X10918373Y-57283333D02*
X10885040Y-57350000D01*
X10885040Y-57350000D02*
X10885040Y-57483333D01*
X10885040Y-57483333D02*
X10918373Y-57550000D01*
X10918373Y-57550000D02*
X10951706Y-57583333D01*
X10951706Y-57583333D02*
X11018373Y-57616666D01*
X11318373Y-56383333D02*
X10618373Y-56383333D01*
X10618373Y-56383333D02*
X10618373Y-56116666D01*
X10618373Y-56116666D02*
X10651706Y-56050000D01*
X10651706Y-56050000D02*
X10685040Y-56016666D01*
X10685040Y-56016666D02*
X10751706Y-55983333D01*
X10751706Y-55983333D02*
X10851706Y-55983333D01*
X10851706Y-55983333D02*
X10918373Y-56016666D01*
X10918373Y-56016666D02*
X10951706Y-56050000D01*
X10951706Y-56050000D02*
X10985040Y-56116666D01*
X10985040Y-56116666D02*
X10985040Y-56383333D01*
X11318373Y-55283333D02*
X10985040Y-55516666D01*
X11318373Y-55683333D02*
X10618373Y-55683333D01*
X10618373Y-55683333D02*
X10618373Y-55416666D01*
X10618373Y-55416666D02*
X10651706Y-55350000D01*
X10651706Y-55350000D02*
X10685040Y-55316666D01*
X10685040Y-55316666D02*
X10751706Y-55283333D01*
X10751706Y-55283333D02*
X10851706Y-55283333D01*
X10851706Y-55283333D02*
X10918373Y-55316666D01*
X10918373Y-55316666D02*
X10951706Y-55350000D01*
X10951706Y-55350000D02*
X10985040Y-55416666D01*
X10985040Y-55416666D02*
X10985040Y-55683333D01*
X10618373Y-54850000D02*
X10618373Y-54716666D01*
X10618373Y-54716666D02*
X10651706Y-54650000D01*
X10651706Y-54650000D02*
X10718373Y-54583333D01*
X10718373Y-54583333D02*
X10851706Y-54550000D01*
X10851706Y-54550000D02*
X11085040Y-54550000D01*
X11085040Y-54550000D02*
X11218373Y-54583333D01*
X11218373Y-54583333D02*
X11285040Y-54650000D01*
X11285040Y-54650000D02*
X11318373Y-54716666D01*
X11318373Y-54716666D02*
X11318373Y-54850000D01*
X11318373Y-54850000D02*
X11285040Y-54916666D01*
X11285040Y-54916666D02*
X11218373Y-54983333D01*
X11218373Y-54983333D02*
X11085040Y-55016666D01*
X11085040Y-55016666D02*
X10851706Y-55016666D01*
X10851706Y-55016666D02*
X10718373Y-54983333D01*
X10718373Y-54983333D02*
X10651706Y-54916666D01*
X10651706Y-54916666D02*
X10618373Y-54850000D01*
X10651706Y-53883333D02*
X10618373Y-53950000D01*
X10618373Y-53950000D02*
X10618373Y-54050000D01*
X10618373Y-54050000D02*
X10651706Y-54150000D01*
X10651706Y-54150000D02*
X10718373Y-54216667D01*
X10718373Y-54216667D02*
X10785040Y-54250000D01*
X10785040Y-54250000D02*
X10918373Y-54283333D01*
X10918373Y-54283333D02*
X11018373Y-54283333D01*
X11018373Y-54283333D02*
X11151706Y-54250000D01*
X11151706Y-54250000D02*
X11218373Y-54216667D01*
X11218373Y-54216667D02*
X11285040Y-54150000D01*
X11285040Y-54150000D02*
X11318373Y-54050000D01*
X11318373Y-54050000D02*
X11318373Y-53983333D01*
X11318373Y-53983333D02*
X11285040Y-53883333D01*
X11285040Y-53883333D02*
X11251706Y-53850000D01*
X11251706Y-53850000D02*
X11018373Y-53850000D01*
X11018373Y-53850000D02*
X11018373Y-53983333D01*
D12*
X15632381Y-49661987D02*
X16016190Y-49661987D01*
X16016190Y-49661987D02*
X15809524Y-49898178D01*
X15809524Y-49898178D02*
X15898095Y-49898178D01*
X15898095Y-49898178D02*
X15957143Y-49927702D01*
X15957143Y-49927702D02*
X15986667Y-49957225D01*
X15986667Y-49957225D02*
X16016190Y-50016273D01*
X16016190Y-50016273D02*
X16016190Y-50163892D01*
X16016190Y-50163892D02*
X15986667Y-50222940D01*
X15986667Y-50222940D02*
X15957143Y-50252464D01*
X15957143Y-50252464D02*
X15898095Y-50281987D01*
X15898095Y-50281987D02*
X15720952Y-50281987D01*
X15720952Y-50281987D02*
X15661905Y-50252464D01*
X15661905Y-50252464D02*
X15632381Y-50222940D01*
X16193333Y-49661987D02*
X16400000Y-50281987D01*
X16400000Y-50281987D02*
X16606666Y-49661987D01*
X16754286Y-49661987D02*
X17138095Y-49661987D01*
X17138095Y-49661987D02*
X16931429Y-49898178D01*
X16931429Y-49898178D02*
X17020000Y-49898178D01*
X17020000Y-49898178D02*
X17079048Y-49927702D01*
X17079048Y-49927702D02*
X17108572Y-49957225D01*
X17108572Y-49957225D02*
X17138095Y-50016273D01*
X17138095Y-50016273D02*
X17138095Y-50163892D01*
X17138095Y-50163892D02*
X17108572Y-50222940D01*
X17108572Y-50222940D02*
X17079048Y-50252464D01*
X17079048Y-50252464D02*
X17020000Y-50281987D01*
X17020000Y-50281987D02*
X16842857Y-50281987D01*
X16842857Y-50281987D02*
X16783810Y-50252464D01*
X16783810Y-50252464D02*
X16754286Y-50222940D01*
X15927618Y-52231511D02*
X15868571Y-52201987D01*
X15868571Y-52201987D02*
X15779999Y-52201987D01*
X15779999Y-52201987D02*
X15691428Y-52231511D01*
X15691428Y-52231511D02*
X15632380Y-52290559D01*
X15632380Y-52290559D02*
X15602857Y-52349606D01*
X15602857Y-52349606D02*
X15573333Y-52467702D01*
X15573333Y-52467702D02*
X15573333Y-52556273D01*
X15573333Y-52556273D02*
X15602857Y-52674368D01*
X15602857Y-52674368D02*
X15632380Y-52733416D01*
X15632380Y-52733416D02*
X15691428Y-52792464D01*
X15691428Y-52792464D02*
X15779999Y-52821987D01*
X15779999Y-52821987D02*
X15839047Y-52821987D01*
X15839047Y-52821987D02*
X15927618Y-52792464D01*
X15927618Y-52792464D02*
X15957142Y-52762940D01*
X15957142Y-52762940D02*
X15957142Y-52556273D01*
X15957142Y-52556273D02*
X15839047Y-52556273D01*
X16222857Y-52821987D02*
X16222857Y-52201987D01*
X16222857Y-52201987D02*
X16577142Y-52821987D01*
X16577142Y-52821987D02*
X16577142Y-52201987D01*
X16872381Y-52821987D02*
X16872381Y-52201987D01*
X16872381Y-52201987D02*
X17020000Y-52201987D01*
X17020000Y-52201987D02*
X17108571Y-52231511D01*
X17108571Y-52231511D02*
X17167619Y-52290559D01*
X17167619Y-52290559D02*
X17197142Y-52349606D01*
X17197142Y-52349606D02*
X17226666Y-52467702D01*
X17226666Y-52467702D02*
X17226666Y-52556273D01*
X17226666Y-52556273D02*
X17197142Y-52674368D01*
X17197142Y-52674368D02*
X17167619Y-52733416D01*
X17167619Y-52733416D02*
X17108571Y-52792464D01*
X17108571Y-52792464D02*
X17020000Y-52821987D01*
X17020000Y-52821987D02*
X16872381Y-52821987D01*
X15927619Y-54741987D02*
X16281905Y-54741987D01*
X16104762Y-55361987D02*
X16104762Y-54741987D01*
X16429524Y-54741987D02*
X16842857Y-55361987D01*
X16842857Y-54741987D02*
X16429524Y-55361987D01*
X16296666Y-57901987D02*
X16090000Y-57606749D01*
X15942381Y-57901987D02*
X15942381Y-57281987D01*
X15942381Y-57281987D02*
X16178571Y-57281987D01*
X16178571Y-57281987D02*
X16237619Y-57311511D01*
X16237619Y-57311511D02*
X16267142Y-57341035D01*
X16267142Y-57341035D02*
X16296666Y-57400083D01*
X16296666Y-57400083D02*
X16296666Y-57488654D01*
X16296666Y-57488654D02*
X16267142Y-57547702D01*
X16267142Y-57547702D02*
X16237619Y-57577225D01*
X16237619Y-57577225D02*
X16178571Y-57606749D01*
X16178571Y-57606749D02*
X15942381Y-57606749D01*
X16503333Y-57281987D02*
X16916666Y-57901987D01*
X16916666Y-57281987D02*
X16503333Y-57901987D01*
X15942381Y-60117225D02*
X16149047Y-60117225D01*
X16237619Y-60441987D02*
X15942381Y-60441987D01*
X15942381Y-60441987D02*
X15942381Y-59821987D01*
X15942381Y-59821987D02*
X16237619Y-59821987D01*
X16503333Y-60441987D02*
X16503333Y-59821987D01*
X16503333Y-59821987D02*
X16857618Y-60441987D01*
X16857618Y-60441987D02*
X16857618Y-59821987D01*
X15780000Y-62981987D02*
X15780000Y-62361987D01*
X16193333Y-62361987D02*
X16311428Y-62361987D01*
X16311428Y-62361987D02*
X16370476Y-62391511D01*
X16370476Y-62391511D02*
X16429523Y-62450559D01*
X16429523Y-62450559D02*
X16459047Y-62568654D01*
X16459047Y-62568654D02*
X16459047Y-62775321D01*
X16459047Y-62775321D02*
X16429523Y-62893416D01*
X16429523Y-62893416D02*
X16370476Y-62952464D01*
X16370476Y-62952464D02*
X16311428Y-62981987D01*
X16311428Y-62981987D02*
X16193333Y-62981987D01*
X16193333Y-62981987D02*
X16134285Y-62952464D01*
X16134285Y-62952464D02*
X16075238Y-62893416D01*
X16075238Y-62893416D02*
X16045714Y-62775321D01*
X16045714Y-62775321D02*
X16045714Y-62568654D01*
X16045714Y-62568654D02*
X16075238Y-62450559D01*
X16075238Y-62450559D02*
X16134285Y-62391511D01*
X16134285Y-62391511D02*
X16193333Y-62361987D01*
X16842857Y-62361987D02*
X16901904Y-62361987D01*
X16901904Y-62361987D02*
X16960952Y-62391511D01*
X16960952Y-62391511D02*
X16990476Y-62421035D01*
X16990476Y-62421035D02*
X17020000Y-62480083D01*
X17020000Y-62480083D02*
X17049523Y-62598178D01*
X17049523Y-62598178D02*
X17049523Y-62745797D01*
X17049523Y-62745797D02*
X17020000Y-62863892D01*
X17020000Y-62863892D02*
X16990476Y-62922940D01*
X16990476Y-62922940D02*
X16960952Y-62952464D01*
X16960952Y-62952464D02*
X16901904Y-62981987D01*
X16901904Y-62981987D02*
X16842857Y-62981987D01*
X16842857Y-62981987D02*
X16783809Y-62952464D01*
X16783809Y-62952464D02*
X16754285Y-62922940D01*
X16754285Y-62922940D02*
X16724762Y-62863892D01*
X16724762Y-62863892D02*
X16695238Y-62745797D01*
X16695238Y-62745797D02*
X16695238Y-62598178D01*
X16695238Y-62598178D02*
X16724762Y-62480083D01*
X16724762Y-62480083D02*
X16754285Y-62421035D01*
X16754285Y-62421035D02*
X16783809Y-62391511D01*
X16783809Y-62391511D02*
X16842857Y-62361987D01*
D14*
X15628571Y-48263855D02*
X15171428Y-48263855D01*
X15400000Y-48263855D02*
X15400000Y-47463855D01*
X15400000Y-47463855D02*
X15323809Y-47578140D01*
X15323809Y-47578140D02*
X15247619Y-47654331D01*
X15247619Y-47654331D02*
X15171428Y-47692426D01*
D12*
X56099524Y-46581987D02*
X55892858Y-46286749D01*
X55745239Y-46581987D02*
X55745239Y-45961987D01*
X55745239Y-45961987D02*
X55981429Y-45961987D01*
X55981429Y-45961987D02*
X56040477Y-45991511D01*
X56040477Y-45991511D02*
X56070000Y-46021035D01*
X56070000Y-46021035D02*
X56099524Y-46080083D01*
X56099524Y-46080083D02*
X56099524Y-46168654D01*
X56099524Y-46168654D02*
X56070000Y-46227702D01*
X56070000Y-46227702D02*
X56040477Y-46257225D01*
X56040477Y-46257225D02*
X55981429Y-46286749D01*
X55981429Y-46286749D02*
X55745239Y-46286749D01*
X56365239Y-46257225D02*
X56571905Y-46257225D01*
X56660477Y-46581987D02*
X56365239Y-46581987D01*
X56365239Y-46581987D02*
X56365239Y-45961987D01*
X56365239Y-45961987D02*
X56660477Y-45961987D01*
X56896667Y-46552464D02*
X56985238Y-46581987D01*
X56985238Y-46581987D02*
X57132857Y-46581987D01*
X57132857Y-46581987D02*
X57191905Y-46552464D01*
X57191905Y-46552464D02*
X57221429Y-46522940D01*
X57221429Y-46522940D02*
X57250952Y-46463892D01*
X57250952Y-46463892D02*
X57250952Y-46404844D01*
X57250952Y-46404844D02*
X57221429Y-46345797D01*
X57221429Y-46345797D02*
X57191905Y-46316273D01*
X57191905Y-46316273D02*
X57132857Y-46286749D01*
X57132857Y-46286749D02*
X57014762Y-46257225D01*
X57014762Y-46257225D02*
X56955714Y-46227702D01*
X56955714Y-46227702D02*
X56926191Y-46198178D01*
X56926191Y-46198178D02*
X56896667Y-46139130D01*
X56896667Y-46139130D02*
X56896667Y-46080083D01*
X56896667Y-46080083D02*
X56926191Y-46021035D01*
X56926191Y-46021035D02*
X56955714Y-45991511D01*
X56955714Y-45991511D02*
X57014762Y-45961987D01*
X57014762Y-45961987D02*
X57162381Y-45961987D01*
X57162381Y-45961987D02*
X57250952Y-45991511D01*
X57516667Y-46257225D02*
X57723333Y-46257225D01*
X57811905Y-46581987D02*
X57516667Y-46581987D01*
X57516667Y-46581987D02*
X57516667Y-45961987D01*
X57516667Y-45961987D02*
X57811905Y-45961987D01*
X57989047Y-45961987D02*
X58343333Y-45961987D01*
X58166190Y-46581987D02*
X58166190Y-45961987D01*
X68158571Y-46257225D02*
X68247143Y-46286749D01*
X68247143Y-46286749D02*
X68276666Y-46316273D01*
X68276666Y-46316273D02*
X68306190Y-46375321D01*
X68306190Y-46375321D02*
X68306190Y-46463892D01*
X68306190Y-46463892D02*
X68276666Y-46522940D01*
X68276666Y-46522940D02*
X68247143Y-46552464D01*
X68247143Y-46552464D02*
X68188095Y-46581987D01*
X68188095Y-46581987D02*
X67951905Y-46581987D01*
X67951905Y-46581987D02*
X67951905Y-45961987D01*
X67951905Y-45961987D02*
X68158571Y-45961987D01*
X68158571Y-45961987D02*
X68217619Y-45991511D01*
X68217619Y-45991511D02*
X68247143Y-46021035D01*
X68247143Y-46021035D02*
X68276666Y-46080083D01*
X68276666Y-46080083D02*
X68276666Y-46139130D01*
X68276666Y-46139130D02*
X68247143Y-46198178D01*
X68247143Y-46198178D02*
X68217619Y-46227702D01*
X68217619Y-46227702D02*
X68158571Y-46257225D01*
X68158571Y-46257225D02*
X67951905Y-46257225D01*
X68690000Y-45961987D02*
X68808095Y-45961987D01*
X68808095Y-45961987D02*
X68867143Y-45991511D01*
X68867143Y-45991511D02*
X68926190Y-46050559D01*
X68926190Y-46050559D02*
X68955714Y-46168654D01*
X68955714Y-46168654D02*
X68955714Y-46375321D01*
X68955714Y-46375321D02*
X68926190Y-46493416D01*
X68926190Y-46493416D02*
X68867143Y-46552464D01*
X68867143Y-46552464D02*
X68808095Y-46581987D01*
X68808095Y-46581987D02*
X68690000Y-46581987D01*
X68690000Y-46581987D02*
X68630952Y-46552464D01*
X68630952Y-46552464D02*
X68571905Y-46493416D01*
X68571905Y-46493416D02*
X68542381Y-46375321D01*
X68542381Y-46375321D02*
X68542381Y-46168654D01*
X68542381Y-46168654D02*
X68571905Y-46050559D01*
X68571905Y-46050559D02*
X68630952Y-45991511D01*
X68630952Y-45991511D02*
X68690000Y-45961987D01*
X69339524Y-45961987D02*
X69457619Y-45961987D01*
X69457619Y-45961987D02*
X69516667Y-45991511D01*
X69516667Y-45991511D02*
X69575714Y-46050559D01*
X69575714Y-46050559D02*
X69605238Y-46168654D01*
X69605238Y-46168654D02*
X69605238Y-46375321D01*
X69605238Y-46375321D02*
X69575714Y-46493416D01*
X69575714Y-46493416D02*
X69516667Y-46552464D01*
X69516667Y-46552464D02*
X69457619Y-46581987D01*
X69457619Y-46581987D02*
X69339524Y-46581987D01*
X69339524Y-46581987D02*
X69280476Y-46552464D01*
X69280476Y-46552464D02*
X69221429Y-46493416D01*
X69221429Y-46493416D02*
X69191905Y-46375321D01*
X69191905Y-46375321D02*
X69191905Y-46168654D01*
X69191905Y-46168654D02*
X69221429Y-46050559D01*
X69221429Y-46050559D02*
X69280476Y-45991511D01*
X69280476Y-45991511D02*
X69339524Y-45961987D01*
X69782381Y-45961987D02*
X70136667Y-45961987D01*
X69959524Y-46581987D02*
X69959524Y-45961987D01*
D15*
X32133333Y-36018373D02*
X32133333Y-36518373D01*
X32133333Y-36518373D02*
X32100000Y-36618373D01*
X32100000Y-36618373D02*
X32033333Y-36685040D01*
X32033333Y-36685040D02*
X31933333Y-36718373D01*
X31933333Y-36718373D02*
X31866667Y-36718373D01*
X32800000Y-36018373D02*
X32466666Y-36018373D01*
X32466666Y-36018373D02*
X32433333Y-36351706D01*
X32433333Y-36351706D02*
X32466666Y-36318373D01*
X32466666Y-36318373D02*
X32533333Y-36285040D01*
X32533333Y-36285040D02*
X32700000Y-36285040D01*
X32700000Y-36285040D02*
X32766666Y-36318373D01*
X32766666Y-36318373D02*
X32800000Y-36351706D01*
X32800000Y-36351706D02*
X32833333Y-36418373D01*
X32833333Y-36418373D02*
X32833333Y-36585040D01*
X32833333Y-36585040D02*
X32800000Y-36651706D01*
X32800000Y-36651706D02*
X32766666Y-36685040D01*
X32766666Y-36685040D02*
X32700000Y-36718373D01*
X32700000Y-36718373D02*
X32533333Y-36718373D01*
X32533333Y-36718373D02*
X32466666Y-36685040D01*
X32466666Y-36685040D02*
X32433333Y-36651706D01*
X33900000Y-36351706D02*
X33666666Y-36351706D01*
X33666666Y-36718373D02*
X33666666Y-36018373D01*
X33666666Y-36018373D02*
X34000000Y-36018373D01*
X34233333Y-36518373D02*
X34566666Y-36518373D01*
X34166666Y-36718373D02*
X34400000Y-36018373D01*
X34400000Y-36018373D02*
X34633333Y-36718373D01*
X34866666Y-36718373D02*
X34866666Y-36018373D01*
X34866666Y-36018373D02*
X35266666Y-36718373D01*
X35266666Y-36718373D02*
X35266666Y-36018373D01*
D12*
X27616190Y-36281987D02*
X27261905Y-36281987D01*
X27439048Y-36281987D02*
X27439048Y-35661987D01*
X27439048Y-35661987D02*
X27380000Y-35750559D01*
X27380000Y-35750559D02*
X27320952Y-35809606D01*
X27320952Y-35809606D02*
X27261905Y-35839130D01*
X27852381Y-35721035D02*
X27881905Y-35691511D01*
X27881905Y-35691511D02*
X27940952Y-35661987D01*
X27940952Y-35661987D02*
X28088571Y-35661987D01*
X28088571Y-35661987D02*
X28147619Y-35691511D01*
X28147619Y-35691511D02*
X28177143Y-35721035D01*
X28177143Y-35721035D02*
X28206666Y-35780083D01*
X28206666Y-35780083D02*
X28206666Y-35839130D01*
X28206666Y-35839130D02*
X28177143Y-35927702D01*
X28177143Y-35927702D02*
X27822857Y-36281987D01*
X27822857Y-36281987D02*
X28206666Y-36281987D01*
X28383809Y-35661987D02*
X28590476Y-36281987D01*
X28590476Y-36281987D02*
X28797142Y-35661987D01*
X30008572Y-36252464D02*
X30097143Y-36281987D01*
X30097143Y-36281987D02*
X30244762Y-36281987D01*
X30244762Y-36281987D02*
X30303810Y-36252464D01*
X30303810Y-36252464D02*
X30333334Y-36222940D01*
X30333334Y-36222940D02*
X30362857Y-36163892D01*
X30362857Y-36163892D02*
X30362857Y-36104844D01*
X30362857Y-36104844D02*
X30333334Y-36045797D01*
X30333334Y-36045797D02*
X30303810Y-36016273D01*
X30303810Y-36016273D02*
X30244762Y-35986749D01*
X30244762Y-35986749D02*
X30126667Y-35957225D01*
X30126667Y-35957225D02*
X30067619Y-35927702D01*
X30067619Y-35927702D02*
X30038096Y-35898178D01*
X30038096Y-35898178D02*
X30008572Y-35839130D01*
X30008572Y-35839130D02*
X30008572Y-35780083D01*
X30008572Y-35780083D02*
X30038096Y-35721035D01*
X30038096Y-35721035D02*
X30067619Y-35691511D01*
X30067619Y-35691511D02*
X30126667Y-35661987D01*
X30126667Y-35661987D02*
X30274286Y-35661987D01*
X30274286Y-35661987D02*
X30362857Y-35691511D01*
X30569524Y-35661987D02*
X30717143Y-36281987D01*
X30717143Y-36281987D02*
X30835238Y-35839130D01*
X30835238Y-35839130D02*
X30953333Y-36281987D01*
X30953333Y-36281987D02*
X31100953Y-35661987D01*
D14*
X74285714Y-62135283D02*
X74666667Y-62135283D01*
X74209524Y-62363855D02*
X74476191Y-61563855D01*
X74476191Y-61563855D02*
X74742857Y-62363855D01*
X75009524Y-62363855D02*
X75009524Y-61563855D01*
X75009524Y-61563855D02*
X75466667Y-62363855D01*
X75466667Y-62363855D02*
X75466667Y-61563855D01*
X75733333Y-61563855D02*
X76190476Y-61563855D01*
X75961904Y-62363855D02*
X75961904Y-61563855D01*
X77066667Y-61830521D02*
X77676191Y-62059093D01*
X77676191Y-62059093D02*
X77066667Y-62287664D01*
%TO.C,U1*%
X53050000Y-52800000D02*
X54000000Y-52800000D01*
X53050000Y-54200000D02*
X53050000Y-52800000D01*
X53050000Y-69800000D02*
X53050000Y-71200000D01*
X53050000Y-71200000D02*
X54000000Y-71200000D01*
X72000000Y-52800000D02*
X72000000Y-52300000D01*
X72500000Y-52800000D01*
X72000000Y-52800000D01*
G36*
X72500000Y-52800000D02*
G01*
X72000000Y-52800000D01*
X72000000Y-52300000D01*
X72500000Y-52800000D01*
G37*
%TO.C,C7*%
X68738748Y-48265000D02*
X69261252Y-48265000D01*
X68738748Y-49735000D02*
X69261252Y-49735000D01*
%TO.C,C8*%
X72359420Y-45990000D02*
X72640580Y-45990000D01*
X72359420Y-47010000D02*
X72640580Y-47010000D01*
%TO.C,R14*%
X64762742Y-48477500D02*
X65237258Y-48477500D01*
X64762742Y-49522500D02*
X65237258Y-49522500D01*
%TO.C,C11*%
X60859420Y-48490000D02*
X61140580Y-48490000D01*
X60859420Y-49510000D02*
X61140580Y-49510000D01*
%TO.C,R15*%
X46762742Y-70977500D02*
X47237258Y-70977500D01*
X46762742Y-72022500D02*
X47237258Y-72022500D01*
%TO.C,SW1*%
X54800000Y-39450000D02*
X59200000Y-39450000D01*
X54800000Y-44550000D02*
X59200000Y-44550000D01*
X58500000Y-42000000D02*
G75*
G02*
X55500000Y-42000000I-1500000J0D01*
G01*
X55500000Y-42000000D02*
G75*
G02*
X58500000Y-42000000I1500000J0D01*
G01*
%TO.C,SW2*%
X66800000Y-39450000D02*
X71200000Y-39450000D01*
X66800000Y-44550000D02*
X71200000Y-44550000D01*
X70500000Y-42000000D02*
G75*
G02*
X67500000Y-42000000I-1500000J0D01*
G01*
X67500000Y-42000000D02*
G75*
G02*
X70500000Y-42000000I1500000J0D01*
G01*
%TO.C,J6*%
X12620000Y-48620000D02*
X14000000Y-48620000D01*
X12620000Y-50000000D02*
X12620000Y-48620000D01*
X12620000Y-51270000D02*
X12620000Y-64080000D01*
X12620000Y-51270000D02*
X15380000Y-51270000D01*
X12620000Y-64080000D02*
X15380000Y-64080000D01*
X15380000Y-51270000D02*
X15380000Y-64080000D01*
%TO.C,J1*%
X19740000Y-12320000D02*
X9340000Y-12320000D01*
X19740000Y-9300000D02*
X9340000Y-9300000D01*
X19740000Y-4400000D02*
X9340000Y-4400000D01*
X19740000Y-2900000D02*
X9340000Y-2900000D01*
X19740000Y-2280000D02*
X19740000Y-12320000D01*
X17380000Y-2280000D02*
X19740000Y-2280000D01*
X9340000Y-12320000D02*
X9340000Y-2280000D01*
X9340000Y-2280000D02*
X16780000Y-2280000D01*
X17080000Y-2280000D02*
X16640000Y-1670000D01*
X17520000Y-1670000D01*
X17080000Y-2280000D01*
G36*
X17080000Y-2280000D02*
G01*
X16640000Y-1670000D01*
X17520000Y-1670000D01*
X17080000Y-2280000D01*
G37*
%TO.C,Q1*%
X9240000Y-16440000D02*
X10760000Y-16440000D01*
X9240000Y-16490000D02*
X9240000Y-16440000D01*
X9240000Y-18390000D02*
X9240000Y-17610000D01*
X9240000Y-19560000D02*
X9240000Y-19510000D01*
X10760000Y-16440000D02*
X10760000Y-17440000D01*
X10760000Y-18560000D02*
X10760000Y-19560000D01*
X10760000Y-19560000D02*
X9240000Y-19560000D01*
X8700000Y-17620000D02*
X8940000Y-17950000D01*
X8460000Y-17950000D01*
X8700000Y-17620000D01*
G36*
X8940000Y-17950000D02*
G01*
X8460000Y-17950000D01*
X8700000Y-17620000D01*
X8940000Y-17950000D01*
G37*
%TO.C,R1*%
X15477500Y-18237258D02*
X15477500Y-17762742D01*
X16522500Y-18237258D02*
X16522500Y-17762742D01*
%TO.C,D1*%
X20000000Y-20360000D02*
X22000000Y-20360000D01*
X20000000Y-20360000D02*
X20000000Y-16350000D01*
X22000000Y-20360000D02*
X22000000Y-16350000D01*
%TO.C,D2*%
X24350000Y-21660000D02*
X28650000Y-21660000D01*
X24350000Y-21660000D02*
X24350000Y-15850000D01*
X28650000Y-21660000D02*
X28650000Y-15850000D01*
%TO.C,C1*%
X31062500Y-16152500D02*
X31850000Y-16152500D01*
X31456250Y-15758750D02*
X31456250Y-16546250D01*
X32090000Y-15654437D02*
X32090000Y-16940000D01*
X32090000Y-15654437D02*
X33154437Y-14590000D01*
X32090000Y-20345563D02*
X32090000Y-19060000D01*
X32090000Y-20345563D02*
X33154437Y-21410000D01*
X33154437Y-14590000D02*
X38910000Y-14590000D01*
X33154437Y-21410000D02*
X38910000Y-21410000D01*
X38910000Y-14590000D02*
X38910000Y-16940000D01*
X38910000Y-21410000D02*
X38910000Y-19060000D01*
%TO.C,C2*%
X40490000Y-18140580D02*
X40490000Y-17859420D01*
X41510000Y-18140580D02*
X41510000Y-17859420D01*
%TO.C,F2*%
X44113748Y-31790000D02*
X46886252Y-31790000D01*
X44113748Y-35210000D02*
X46886252Y-35210000D01*
%TO.C,U2*%
X13090000Y-26440000D02*
X14910000Y-26440000D01*
X13090000Y-26490000D02*
X13090000Y-26440000D01*
X13090000Y-29560000D02*
X13090000Y-29510000D01*
X14910000Y-26440000D02*
X14910000Y-26490000D01*
X14910000Y-29510000D02*
X14910000Y-29560000D01*
X14910000Y-29560000D02*
X13090000Y-29560000D01*
X12550000Y-26490000D02*
X12310000Y-26160000D01*
X12790000Y-26160000D01*
X12550000Y-26490000D01*
G36*
X12550000Y-26490000D02*
G01*
X12310000Y-26160000D01*
X12790000Y-26160000D01*
X12550000Y-26490000D01*
G37*
%TO.C,C3*%
X13288748Y-32590000D02*
X14711252Y-32590000D01*
X13288748Y-34410000D02*
X14711252Y-34410000D01*
%TO.C,R2*%
X6977500Y-28237258D02*
X6977500Y-27762742D01*
X8022500Y-28237258D02*
X8022500Y-27762742D01*
%TO.C,C4*%
X18490000Y-26140580D02*
X18490000Y-25859420D01*
X19510000Y-26140580D02*
X19510000Y-25859420D01*
%TO.C,L1*%
X21900000Y-28900000D02*
X21900000Y-29350000D01*
X21900000Y-28900000D02*
X28100000Y-28900000D01*
X21900000Y-35100000D02*
X21900000Y-34650000D01*
X28100000Y-28900000D02*
X28100000Y-29350000D01*
X28100000Y-35100000D02*
X21900000Y-35100000D01*
X28100000Y-35100000D02*
X28100000Y-34650000D01*
%TO.C,C5*%
X30265000Y-32261252D02*
X30265000Y-31738748D01*
X31735000Y-32261252D02*
X31735000Y-31738748D01*
%TO.C,C6*%
X33265000Y-32261252D02*
X33265000Y-31738748D01*
X34735000Y-32261252D02*
X34735000Y-31738748D01*
%TO.C,F1*%
X30613748Y-24790000D02*
X33386252Y-24790000D01*
X30613748Y-28210000D02*
X33386252Y-28210000D01*
%TO.C,J5*%
X32160000Y-45220000D02*
X26380000Y-45220000D01*
X32160000Y-44700000D02*
X26380000Y-44700000D01*
X32160000Y-39400000D02*
X31570000Y-39400000D01*
X32160000Y-38780000D02*
X32160000Y-45220000D01*
X31570000Y-38780000D02*
X32160000Y-38780000D01*
X29510000Y-39400000D02*
X29030000Y-39400000D01*
X29030000Y-38780000D02*
X29510000Y-38780000D01*
X26970000Y-39400000D02*
X26380000Y-39400000D01*
X26380000Y-45220000D02*
X26380000Y-38780000D01*
X26380000Y-38780000D02*
X26970000Y-38780000D01*
X30540000Y-38430000D02*
X30100000Y-37820000D01*
X30980000Y-37820000D01*
X30540000Y-38430000D01*
G36*
X30540000Y-38430000D02*
G01*
X30100000Y-37820000D01*
X30980000Y-37820000D01*
X30540000Y-38430000D01*
G37*
%TO.C,F3*%
X36113748Y-40290000D02*
X38886252Y-40290000D01*
X36113748Y-43710000D02*
X38886252Y-43710000D01*
%TO.C,D10*%
X33990000Y-45850000D02*
X33990000Y-49150000D01*
X33990000Y-45850000D02*
X39500000Y-45850000D01*
X33990000Y-49150000D02*
X39500000Y-49150000D01*
%TO.C,Q2*%
X28240000Y-49440000D02*
X29760000Y-49440000D01*
X28240000Y-49490000D02*
X28240000Y-49440000D01*
X28240000Y-51390000D02*
X28240000Y-50610000D01*
X28240000Y-52560000D02*
X28240000Y-52510000D01*
X29760000Y-49440000D02*
X29760000Y-50440000D01*
X29760000Y-51560000D02*
X29760000Y-52560000D01*
X29760000Y-52560000D02*
X28240000Y-52560000D01*
X27700000Y-50620000D02*
X27940000Y-50950000D01*
X27460000Y-50950000D01*
X27700000Y-50620000D01*
G36*
X27940000Y-50950000D02*
G01*
X27460000Y-50950000D01*
X27700000Y-50620000D01*
X27940000Y-50950000D01*
G37*
%TO.C,R12*%
X22762742Y-50477500D02*
X23237258Y-50477500D01*
X22762742Y-51522500D02*
X23237258Y-51522500D01*
%TO.C,R13*%
X22762742Y-54477500D02*
X23237258Y-54477500D01*
X22762742Y-55522500D02*
X23237258Y-55522500D01*
%TO.C,J2*%
X54160000Y-10220000D02*
X48380000Y-10220000D01*
X54160000Y-9700000D02*
X48380000Y-9700000D01*
X54160000Y-4400000D02*
X53570000Y-4400000D01*
X54160000Y-3780000D02*
X54160000Y-10220000D01*
X53570000Y-3780000D02*
X54160000Y-3780000D01*
X51510000Y-4400000D02*
X51030000Y-4400000D01*
X51030000Y-3780000D02*
X51510000Y-3780000D01*
X48970000Y-4400000D02*
X48380000Y-4400000D01*
X48380000Y-10220000D02*
X48380000Y-3780000D01*
X48380000Y-3780000D02*
X48970000Y-3780000D01*
X52540000Y-3430000D02*
X52100000Y-2820000D01*
X52980000Y-2820000D01*
X52540000Y-3430000D01*
G36*
X52540000Y-3430000D02*
G01*
X52100000Y-2820000D01*
X52980000Y-2820000D01*
X52540000Y-3430000D01*
G37*
%TO.C,U3*%
X49940000Y-24440000D02*
X54060000Y-24440000D01*
X49940000Y-24535000D02*
X49940000Y-24440000D01*
X49940000Y-29560000D02*
X49940000Y-29465000D01*
X54060000Y-24440000D02*
X54060000Y-24535000D01*
X54060000Y-29465000D02*
X54060000Y-29560000D01*
X54060000Y-29560000D02*
X49940000Y-29560000D01*
X49400000Y-24530000D02*
X49160000Y-24200000D01*
X49640000Y-24200000D01*
X49400000Y-24530000D01*
G36*
X49400000Y-24530000D02*
G01*
X49160000Y-24200000D01*
X49640000Y-24200000D01*
X49400000Y-24530000D01*
G37*
%TO.C,C9*%
X57990000Y-32140580D02*
X57990000Y-31859420D01*
X59010000Y-32140580D02*
X59010000Y-31859420D01*
%TO.C,D3*%
X49240000Y-18940000D02*
X50760000Y-18940000D01*
X49240000Y-18990000D02*
X49240000Y-18940000D01*
X49240000Y-20890000D02*
X49240000Y-20110000D01*
X49240000Y-22060000D02*
X49240000Y-22010000D01*
X50760000Y-18940000D02*
X50760000Y-19940000D01*
X50760000Y-21060000D02*
X50760000Y-22060000D01*
X50760000Y-22060000D02*
X49240000Y-22060000D01*
X48700000Y-20120000D02*
X48940000Y-20450000D01*
X48460000Y-20450000D01*
X48700000Y-20120000D01*
G36*
X48940000Y-20450000D02*
G01*
X48460000Y-20450000D01*
X48700000Y-20120000D01*
X48940000Y-20450000D01*
G37*
%TO.C,R3*%
X58262742Y-19977500D02*
X58737258Y-19977500D01*
X58262742Y-21022500D02*
X58737258Y-21022500D01*
%TO.C,JP1*%
X61120000Y-19120000D02*
X62500000Y-19120000D01*
X61120000Y-20500000D02*
X61120000Y-19120000D01*
X61120000Y-21770000D02*
X61120000Y-24420000D01*
X61120000Y-21770000D02*
X63880000Y-21770000D01*
X61120000Y-24420000D02*
X63880000Y-24420000D01*
X63880000Y-21770000D02*
X63880000Y-24420000D01*
%TO.C,J3*%
X79240000Y-10220000D02*
X68380000Y-10220000D01*
X79240000Y-9700000D02*
X68380000Y-9700000D01*
X79240000Y-4400000D02*
X68380000Y-4400000D01*
X79240000Y-3780000D02*
X79240000Y-10220000D01*
X77920000Y-3780000D02*
X79240000Y-3780000D01*
X68380000Y-10220000D02*
X68380000Y-3780000D01*
X68380000Y-3780000D02*
X77320000Y-3780000D01*
X77620000Y-3780000D02*
X77180000Y-3170000D01*
X78060000Y-3170000D01*
X77620000Y-3780000D01*
G36*
X77620000Y-3780000D02*
G01*
X77180000Y-3170000D01*
X78060000Y-3170000D01*
X77620000Y-3780000D01*
G37*
%TO.C,U4*%
X69940000Y-24440000D02*
X74060000Y-24440000D01*
X69940000Y-24535000D02*
X69940000Y-24440000D01*
X69940000Y-29560000D02*
X69940000Y-29465000D01*
X74060000Y-24440000D02*
X74060000Y-24535000D01*
X74060000Y-29465000D02*
X74060000Y-29560000D01*
X74060000Y-29560000D02*
X69940000Y-29560000D01*
X69400000Y-24530000D02*
X69160000Y-24200000D01*
X69640000Y-24200000D01*
X69400000Y-24530000D01*
G36*
X69400000Y-24530000D02*
G01*
X69160000Y-24200000D01*
X69640000Y-24200000D01*
X69400000Y-24530000D01*
G37*
%TO.C,C10*%
X63990000Y-33140580D02*
X63990000Y-32859420D01*
X65010000Y-33140580D02*
X65010000Y-32859420D01*
%TO.C,D4*%
X69240000Y-18940000D02*
X70760000Y-18940000D01*
X69240000Y-18990000D02*
X69240000Y-18940000D01*
X69240000Y-20890000D02*
X69240000Y-20110000D01*
X69240000Y-22060000D02*
X69240000Y-22010000D01*
X70760000Y-18940000D02*
X70760000Y-19940000D01*
X70760000Y-21060000D02*
X70760000Y-22060000D01*
X70760000Y-22060000D02*
X69240000Y-22060000D01*
X68700000Y-20120000D02*
X68940000Y-20450000D01*
X68460000Y-20450000D01*
X68700000Y-20120000D01*
G36*
X68940000Y-20450000D02*
G01*
X68460000Y-20450000D01*
X68700000Y-20120000D01*
X68940000Y-20450000D01*
G37*
%TO.C,R4*%
X78262742Y-19977500D02*
X78737258Y-19977500D01*
X78262742Y-21022500D02*
X78737258Y-21022500D01*
%TO.C,JP2*%
X81120000Y-19120000D02*
X82500000Y-19120000D01*
X81120000Y-20500000D02*
X81120000Y-19120000D01*
X81120000Y-21770000D02*
X81120000Y-24420000D01*
X81120000Y-21770000D02*
X83880000Y-21770000D01*
X81120000Y-24420000D02*
X83880000Y-24420000D01*
X83880000Y-21770000D02*
X83880000Y-24420000D01*
%TO.C,R10*%
X65477500Y-25237258D02*
X65477500Y-24762742D01*
X66522500Y-25237258D02*
X66522500Y-24762742D01*
%TO.C,R11*%
X65477500Y-29237258D02*
X65477500Y-28762742D01*
X66522500Y-29237258D02*
X66522500Y-28762742D01*
%TO.C,R5*%
X17762742Y-76977500D02*
X18237258Y-76977500D01*
X17762742Y-78022500D02*
X18237258Y-78022500D01*
%TO.C,D5*%
X16515000Y-79265000D02*
X16515000Y-80735000D01*
X16515000Y-80735000D02*
X18800000Y-80735000D01*
X18800000Y-79265000D02*
X16515000Y-79265000D01*
%TO.C,R6*%
X28762742Y-76977500D02*
X29237258Y-76977500D01*
X28762742Y-78022500D02*
X29237258Y-78022500D01*
%TO.C,D6*%
X27515000Y-79265000D02*
X27515000Y-80735000D01*
X27515000Y-80735000D02*
X29800000Y-80735000D01*
X29800000Y-79265000D02*
X27515000Y-79265000D01*
%TO.C,R7*%
X39762742Y-76977500D02*
X40237258Y-76977500D01*
X39762742Y-78022500D02*
X40237258Y-78022500D01*
%TO.C,D7*%
X38515000Y-79265000D02*
X38515000Y-80735000D01*
X38515000Y-80735000D02*
X40800000Y-80735000D01*
X40800000Y-79265000D02*
X38515000Y-79265000D01*
%TO.C,R8*%
X50762742Y-76977500D02*
X51237258Y-76977500D01*
X50762742Y-78022500D02*
X51237258Y-78022500D01*
%TO.C,D8*%
X49515000Y-79265000D02*
X49515000Y-80735000D01*
X49515000Y-80735000D02*
X51800000Y-80735000D01*
X51800000Y-79265000D02*
X49515000Y-79265000D01*
%TO.C,R9*%
X61762742Y-76977500D02*
X62237258Y-76977500D01*
X61762742Y-78022500D02*
X62237258Y-78022500D01*
%TO.C,D9*%
X60515000Y-79265000D02*
X60515000Y-80735000D01*
X60515000Y-80735000D02*
X62800000Y-80735000D01*
X62800000Y-79265000D02*
X60515000Y-79265000D01*
%TO.C,J4*%
X6620000Y-52620000D02*
X8000000Y-52620000D01*
X6620000Y-54000000D02*
X6620000Y-52620000D01*
X6620000Y-55270000D02*
X6620000Y-68080000D01*
X6620000Y-55270000D02*
X9380000Y-55270000D01*
X6620000Y-68080000D02*
X9380000Y-68080000D01*
X9380000Y-55270000D02*
X9380000Y-68080000D01*
%TD*%
%LPC*%
D16*
%TO.C,U1*%
X71260000Y-53250000D03*
X69990000Y-53250000D03*
X68720000Y-53250000D03*
X67450000Y-53250000D03*
X66180000Y-53250000D03*
X64910000Y-53250000D03*
X63640000Y-53250000D03*
X62370000Y-53250000D03*
X61100000Y-53250000D03*
X59830000Y-53250000D03*
X58560000Y-53250000D03*
X57290000Y-53250000D03*
X56020000Y-53250000D03*
X54750000Y-53250000D03*
D17*
X53500000Y-56285000D03*
X53500000Y-57555000D03*
X53500000Y-58825000D03*
X53500000Y-60095000D03*
X53500000Y-61365000D03*
X53500000Y-62635000D03*
X53500000Y-63905000D03*
X53500000Y-65175000D03*
X53500000Y-66445000D03*
X53500000Y-67715000D03*
D16*
X54750000Y-70750000D03*
X56020000Y-70750000D03*
X57290000Y-70750000D03*
X58560000Y-70750000D03*
X59830000Y-70750000D03*
X61100000Y-70750000D03*
X62370000Y-70750000D03*
X63640000Y-70750000D03*
X64910000Y-70750000D03*
X66180000Y-70750000D03*
X67450000Y-70750000D03*
X68720000Y-70750000D03*
X69990000Y-70750000D03*
X71260000Y-70750000D03*
D18*
X64940000Y-59100000D03*
D19*
X64240000Y-59100000D03*
D18*
X63540000Y-59100000D03*
D19*
X62840000Y-59100000D03*
D18*
X62140000Y-59100000D03*
D19*
X64940000Y-59800000D03*
X63540000Y-59800000D03*
X62140000Y-59800000D03*
D18*
X64940000Y-60500000D03*
D19*
X64240000Y-60500000D03*
D18*
X63540000Y-60500000D03*
D19*
X62840000Y-60500000D03*
D18*
X62140000Y-60500000D03*
D19*
X64940000Y-61200000D03*
X63540000Y-61200000D03*
X62140000Y-61200000D03*
D18*
X64940000Y-61900000D03*
D19*
X64240000Y-61900000D03*
D18*
X63540000Y-61900000D03*
D19*
X62840000Y-61900000D03*
D18*
X62140000Y-61900000D03*
%TD*%
D20*
%TO.C,C7*%
X68050000Y-49000000D03*
X69950000Y-49000000D03*
%TD*%
D21*
%TO.C,C8*%
X71725000Y-46500000D03*
X73275000Y-46500000D03*
%TD*%
D22*
%TO.C,R14*%
X64175000Y-49000000D03*
X65825000Y-49000000D03*
%TD*%
D21*
%TO.C,C11*%
X60225000Y-49000000D03*
X61775000Y-49000000D03*
%TD*%
D22*
%TO.C,R15*%
X46175000Y-71500000D03*
X47825000Y-71500000D03*
%TD*%
D23*
%TO.C,SW1*%
X53750000Y-40150000D03*
X60250000Y-43850000D03*
X60250000Y-40150000D03*
X53750000Y-43850000D03*
%TD*%
%TO.C,SW2*%
X65750000Y-40150000D03*
X72250000Y-43850000D03*
X72250000Y-40150000D03*
X65750000Y-43850000D03*
%TD*%
D24*
%TO.C,J6*%
X14000000Y-50000000D03*
D25*
X14000000Y-52540000D03*
X14000000Y-55080000D03*
X14000000Y-57620000D03*
X14000000Y-60160000D03*
X14000000Y-62700000D03*
%TD*%
D26*
%TO.C,J1*%
X17080000Y-7000000D03*
D27*
X12000000Y-7000000D03*
%TD*%
D28*
%TO.C,Q1*%
X9062500Y-17050000D03*
X9062500Y-18950000D03*
X10937500Y-18000000D03*
%TD*%
D29*
%TO.C,R1*%
X16000000Y-18825000D03*
X16000000Y-17175000D03*
%TD*%
D30*
%TO.C,D1*%
X21000000Y-19650000D03*
X21000000Y-16350000D03*
%TD*%
D31*
%TO.C,D2*%
X26500000Y-20150000D03*
X26500000Y-15850000D03*
%TD*%
D32*
%TO.C,C1*%
X32800000Y-18000000D03*
X38200000Y-18000000D03*
%TD*%
D33*
%TO.C,C2*%
X41000000Y-18775000D03*
X41000000Y-17225000D03*
%TD*%
D34*
%TO.C,F2*%
X43362500Y-33500000D03*
X47637500Y-33500000D03*
%TD*%
D35*
%TO.C,U2*%
X12862500Y-27050000D03*
X12862500Y-28000000D03*
X12862500Y-28950000D03*
X15137500Y-28950000D03*
X15137500Y-28000000D03*
X15137500Y-27050000D03*
%TD*%
D36*
%TO.C,C3*%
X12525000Y-33500000D03*
X15475000Y-33500000D03*
%TD*%
D29*
%TO.C,R2*%
X7500000Y-28825000D03*
X7500000Y-27175000D03*
%TD*%
D33*
%TO.C,C4*%
X19000000Y-26775000D03*
X19000000Y-25225000D03*
%TD*%
D37*
%TO.C,L1*%
X22925000Y-32000000D03*
X27075000Y-32000000D03*
%TD*%
D38*
%TO.C,C5*%
X31000000Y-32950000D03*
X31000000Y-31050000D03*
%TD*%
%TO.C,C6*%
X34000000Y-32950000D03*
X34000000Y-31050000D03*
%TD*%
D34*
%TO.C,F1*%
X29862500Y-26500000D03*
X34137500Y-26500000D03*
%TD*%
D39*
%TO.C,J5*%
X30540000Y-42000000D03*
D40*
X28000000Y-42000000D03*
%TD*%
D34*
%TO.C,F3*%
X35362500Y-42000000D03*
X39637500Y-42000000D03*
%TD*%
D41*
%TO.C,D10*%
X35500000Y-47500000D03*
X39500000Y-47500000D03*
%TD*%
D28*
%TO.C,Q2*%
X28062500Y-50050000D03*
X28062500Y-51950000D03*
X29937500Y-51000000D03*
%TD*%
D22*
%TO.C,R12*%
X22175000Y-51000000D03*
X23825000Y-51000000D03*
%TD*%
%TO.C,R13*%
X22175000Y-55000000D03*
X23825000Y-55000000D03*
%TD*%
D39*
%TO.C,J2*%
X52540000Y-7000000D03*
D40*
X50000000Y-7000000D03*
%TD*%
D42*
%TO.C,U3*%
X49525000Y-25095000D03*
X49525000Y-26365000D03*
X49525000Y-27635000D03*
X49525000Y-28905000D03*
X54475000Y-28905000D03*
X54475000Y-27635000D03*
X54475000Y-26365000D03*
X54475000Y-25095000D03*
%TD*%
D33*
%TO.C,C9*%
X58500000Y-32775000D03*
X58500000Y-31225000D03*
%TD*%
D28*
%TO.C,D3*%
X49062500Y-19550000D03*
X49062500Y-21450000D03*
X50937500Y-20500000D03*
%TD*%
D22*
%TO.C,R3*%
X57675000Y-20500000D03*
X59325000Y-20500000D03*
%TD*%
D24*
%TO.C,JP1*%
X62500000Y-20500000D03*
D25*
X62500000Y-23040000D03*
%TD*%
D39*
%TO.C,J3*%
X77620000Y-7000000D03*
D40*
X75080000Y-7000000D03*
X72540000Y-7000000D03*
X70000000Y-7000000D03*
%TD*%
D42*
%TO.C,U4*%
X69525000Y-25095000D03*
X69525000Y-26365000D03*
X69525000Y-27635000D03*
X69525000Y-28905000D03*
X74475000Y-28905000D03*
X74475000Y-27635000D03*
X74475000Y-26365000D03*
X74475000Y-25095000D03*
%TD*%
D33*
%TO.C,C10*%
X64500000Y-33775000D03*
X64500000Y-32225000D03*
%TD*%
D28*
%TO.C,D4*%
X69062500Y-19550000D03*
X69062500Y-21450000D03*
X70937500Y-20500000D03*
%TD*%
D22*
%TO.C,R4*%
X77675000Y-20500000D03*
X79325000Y-20500000D03*
%TD*%
D24*
%TO.C,JP2*%
X82500000Y-20500000D03*
D25*
X82500000Y-23040000D03*
%TD*%
D29*
%TO.C,R10*%
X66000000Y-25825000D03*
X66000000Y-24175000D03*
%TD*%
%TO.C,R11*%
X66000000Y-29825000D03*
X66000000Y-28175000D03*
%TD*%
D22*
%TO.C,R5*%
X17175000Y-77500000D03*
X18825000Y-77500000D03*
%TD*%
D43*
%TO.C,D5*%
X17212500Y-80000000D03*
X18787500Y-80000000D03*
%TD*%
D22*
%TO.C,R6*%
X28175000Y-77500000D03*
X29825000Y-77500000D03*
%TD*%
D43*
%TO.C,D6*%
X28212500Y-80000000D03*
X29787500Y-80000000D03*
%TD*%
D22*
%TO.C,R7*%
X39175000Y-77500000D03*
X40825000Y-77500000D03*
%TD*%
D43*
%TO.C,D7*%
X39212500Y-80000000D03*
X40787500Y-80000000D03*
%TD*%
D22*
%TO.C,R8*%
X50175000Y-77500000D03*
X51825000Y-77500000D03*
%TD*%
D43*
%TO.C,D8*%
X50212500Y-80000000D03*
X51787500Y-80000000D03*
%TD*%
D22*
%TO.C,R9*%
X61175000Y-77500000D03*
X62825000Y-77500000D03*
%TD*%
D43*
%TO.C,D9*%
X61212500Y-80000000D03*
X62787500Y-80000000D03*
%TD*%
D24*
%TO.C,J4*%
X8000000Y-54000000D03*
D25*
X8000000Y-56540000D03*
X8000000Y-59080000D03*
X8000000Y-61620000D03*
X8000000Y-64160000D03*
X8000000Y-66700000D03*
%TD*%
D44*
%TO.C,H1*%
X4500000Y-4500000D03*
%TD*%
%TO.C,H2*%
X85500000Y-4500000D03*
%TD*%
%TO.C,H3*%
X4500000Y-87500000D03*
%TD*%
%TO.C,H4*%
X85500000Y-87500000D03*
%TD*%
%TO.C,H5*%
X4500000Y-46000000D03*
%TD*%
%TO.C,H6*%
X85500000Y-46000000D03*
%TD*%
%LPD*%
M02*
