%TF.GenerationSoftware,KiCad,Pcbnew,10.0.5*%
%TF.CreationDate,2026-08-31T21:52:52-04:00*%
%TF.ProjectId,binfohub_bridge,62696e66-6f68-4756-925f-627269646765,2.1*%
%TF.SameCoordinates,Original*%
%TF.FileFunction,Soldermask,Top*%
%TF.FilePolarity,Negative*%
%FSLAX46Y46*%
G04 Gerber Fmt 4.6, Leading zero omitted, Abs format (unit mm)*
G04 Created by KiCad (PCBNEW 10.0.5) date 2026-08-31 21:52:52*
%MOMM*%
%LPD*%
G01*
G04 APERTURE LIST*
G04 Aperture macros list*
%AMRoundRect*
0 Rectangle with rounded corners*
0 $1 Rounding radius*
0 $2 $3 $4 $5 $6 $7 $8 $9 X,Y pos of 4 corners*
0 Add a 4 corners polygon primitive as box body*
4,1,4,$2,$3,$4,$5,$6,$7,$8,$9,$2,$3,0*
0 Add four circle primitives for the rounded corners*
1,1,$1+$1,$2,$3*
1,1,$1+$1,$4,$5*
1,1,$1+$1,$6,$7*
1,1,$1+$1,$8,$9*
0 Add four rect primitives between the rounded corners*
20,1,$1+$1,$2,$3,$4,$5,0*
20,1,$1+$1,$4,$5,$6,$7,0*
20,1,$1+$1,$6,$7,$8,$9,0*
20,1,$1+$1,$8,$9,$2,$3,0*%
G04 Aperture macros list end*
%ADD10R,1.700000X1.700000*%
%ADD11C,1.700000*%
%ADD12RoundRect,0.250000X1.050000X1.050000X-1.050000X1.050000X-1.050000X-1.050000X1.050000X-1.050000X0*%
%ADD13C,2.600000*%
%ADD14RoundRect,0.150000X-0.587500X-0.150000X0.587500X-0.150000X0.587500X0.150000X-0.587500X0.150000X0*%
%ADD15RoundRect,0.200000X0.275000X-0.200000X0.275000X0.200000X-0.275000X0.200000X-0.275000X-0.200000X0*%
%ADD16RoundRect,0.225000X0.375000X-0.225000X0.375000X0.225000X-0.375000X0.225000X-0.375000X-0.225000X0*%
%ADD17RoundRect,0.250000X0.900000X-1.000000X0.900000X1.000000X-0.900000X1.000000X-0.900000X-1.000000X0*%
%ADD18RoundRect,0.250000X-1.500000X-0.550000X1.500000X-0.550000X1.500000X0.550000X-1.500000X0.550000X0*%
%ADD19RoundRect,0.225000X0.250000X-0.225000X0.250000X0.225000X-0.250000X0.225000X-0.250000X-0.225000X0*%
%ADD20RoundRect,0.250000X-0.312500X-1.450000X0.312500X-1.450000X0.312500X1.450000X-0.312500X1.450000X0*%
%ADD21RoundRect,0.150000X-0.512500X-0.150000X0.512500X-0.150000X0.512500X0.150000X-0.512500X0.150000X0*%
%ADD22RoundRect,0.250000X-0.325000X-0.650000X0.325000X-0.650000X0.325000X0.650000X-0.325000X0.650000X0*%
%ADD23R,2.350000X5.100000*%
%ADD24RoundRect,0.250000X0.475000X-0.250000X0.475000X0.250000X-0.475000X0.250000X-0.475000X-0.250000X0*%
%ADD25RoundRect,0.249999X0.850001X0.850001X-0.850001X0.850001X-0.850001X-0.850001X0.850001X-0.850001X0*%
%ADD26C,2.200000*%
%ADD27RoundRect,0.150000X-0.825000X-0.150000X0.825000X-0.150000X0.825000X0.150000X-0.825000X0.150000X0*%
%ADD28RoundRect,0.200000X-0.200000X-0.275000X0.200000X-0.275000X0.200000X0.275000X-0.200000X0.275000X0*%
%ADD29RoundRect,0.218750X-0.218750X-0.256250X0.218750X-0.256250X0.218750X0.256250X-0.218750X0.256250X0*%
%ADD30C,3.200000*%
G04 APERTURE END LIST*
D10*
%TO.C,U1*%
X22140000Y-67700000D03*
D11*
X24680000Y-67700000D03*
X27220000Y-67700000D03*
X29760000Y-67700000D03*
X32300000Y-67700000D03*
X34840000Y-67700000D03*
X37380000Y-67700000D03*
X39920000Y-67700000D03*
X42460000Y-67700000D03*
X45000000Y-67700000D03*
X47540000Y-67700000D03*
X50080000Y-67700000D03*
X52620000Y-67700000D03*
X55160000Y-67700000D03*
X57700000Y-67700000D03*
X60240000Y-67700000D03*
X62780000Y-67700000D03*
X65320000Y-67700000D03*
X67860000Y-67700000D03*
D10*
X22140000Y-42300000D03*
D11*
X24680000Y-42300000D03*
X27220000Y-42300000D03*
X29760000Y-42300000D03*
X32300000Y-42300000D03*
X34840000Y-42300000D03*
X37380000Y-42300000D03*
X39920000Y-42300000D03*
X42460000Y-42300000D03*
X45000000Y-42300000D03*
X47540000Y-42300000D03*
X50080000Y-42300000D03*
X52620000Y-42300000D03*
X55160000Y-42300000D03*
X57700000Y-42300000D03*
X60240000Y-42300000D03*
X62780000Y-42300000D03*
X65320000Y-42300000D03*
X67860000Y-42300000D03*
%TD*%
D12*
%TO.C,J1*%
X17080000Y-7000000D03*
D13*
X12000000Y-7000000D03*
%TD*%
D14*
%TO.C,Q1*%
X9062500Y-17050000D03*
X9062500Y-18950000D03*
X10937500Y-18000000D03*
%TD*%
D15*
%TO.C,R1*%
X16000000Y-18825000D03*
X16000000Y-17175000D03*
%TD*%
D16*
%TO.C,D1*%
X21000000Y-19650000D03*
X21000000Y-16350000D03*
%TD*%
D17*
%TO.C,D2*%
X26500000Y-20150000D03*
X26500000Y-15850000D03*
%TD*%
D18*
%TO.C,C1*%
X32800000Y-18000000D03*
X38200000Y-18000000D03*
%TD*%
D19*
%TO.C,C2*%
X41000000Y-18775000D03*
X41000000Y-17225000D03*
%TD*%
D20*
%TO.C,F2*%
X43362500Y-33000000D03*
X47637500Y-33000000D03*
%TD*%
D21*
%TO.C,U2*%
X12862500Y-27050000D03*
X12862500Y-28000000D03*
X12862500Y-28950000D03*
X15137500Y-28950000D03*
X15137500Y-28000000D03*
X15137500Y-27050000D03*
%TD*%
D22*
%TO.C,C3*%
X12525000Y-33500000D03*
X15475000Y-33500000D03*
%TD*%
D15*
%TO.C,R2*%
X7500000Y-28825000D03*
X7500000Y-27175000D03*
%TD*%
D19*
%TO.C,C4*%
X19000000Y-26775000D03*
X19000000Y-25225000D03*
%TD*%
D23*
%TO.C,L1*%
X22925000Y-32000000D03*
X27075000Y-32000000D03*
%TD*%
D24*
%TO.C,C5*%
X31000000Y-32950000D03*
X31000000Y-31050000D03*
%TD*%
%TO.C,C6*%
X34000000Y-32950000D03*
X34000000Y-31050000D03*
%TD*%
D20*
%TO.C,F1*%
X29862500Y-26500000D03*
X34137500Y-26500000D03*
%TD*%
D24*
%TO.C,C7*%
X40000000Y-32950000D03*
X40000000Y-31050000D03*
%TD*%
D19*
%TO.C,C8*%
X43000000Y-27275000D03*
X43000000Y-25725000D03*
%TD*%
D25*
%TO.C,J2*%
X52540000Y-7000000D03*
D26*
X50000000Y-7000000D03*
%TD*%
D27*
%TO.C,U3*%
X49525000Y-25095000D03*
X49525000Y-26365000D03*
X49525000Y-27635000D03*
X49525000Y-28905000D03*
X54475000Y-28905000D03*
X54475000Y-27635000D03*
X54475000Y-26365000D03*
X54475000Y-25095000D03*
%TD*%
D19*
%TO.C,C9*%
X58500000Y-32775000D03*
X58500000Y-31225000D03*
%TD*%
D14*
%TO.C,D3*%
X49062500Y-19550000D03*
X49062500Y-21450000D03*
X50937500Y-20500000D03*
%TD*%
D28*
%TO.C,R3*%
X57675000Y-20500000D03*
X59325000Y-20500000D03*
%TD*%
D10*
%TO.C,JP1*%
X62500000Y-20500000D03*
D11*
X62500000Y-23040000D03*
%TD*%
D25*
%TO.C,J3*%
X77620000Y-7000000D03*
D26*
X75080000Y-7000000D03*
X72540000Y-7000000D03*
X70000000Y-7000000D03*
%TD*%
D27*
%TO.C,U4*%
X69525000Y-25095000D03*
X69525000Y-26365000D03*
X69525000Y-27635000D03*
X69525000Y-28905000D03*
X74475000Y-28905000D03*
X74475000Y-27635000D03*
X74475000Y-26365000D03*
X74475000Y-25095000D03*
%TD*%
D19*
%TO.C,C10*%
X78500000Y-32775000D03*
X78500000Y-31225000D03*
%TD*%
D14*
%TO.C,D4*%
X69062500Y-19550000D03*
X69062500Y-21450000D03*
X70937500Y-20500000D03*
%TD*%
D28*
%TO.C,R4*%
X77675000Y-20500000D03*
X79325000Y-20500000D03*
%TD*%
D10*
%TO.C,JP2*%
X82500000Y-20500000D03*
D11*
X82500000Y-23040000D03*
%TD*%
D28*
%TO.C,R5*%
X17175000Y-75000000D03*
X18825000Y-75000000D03*
%TD*%
D29*
%TO.C,D5*%
X17212500Y-80000000D03*
X18787500Y-80000000D03*
%TD*%
D28*
%TO.C,R6*%
X28175000Y-75000000D03*
X29825000Y-75000000D03*
%TD*%
D29*
%TO.C,D6*%
X28212500Y-80000000D03*
X29787500Y-80000000D03*
%TD*%
D28*
%TO.C,R7*%
X39175000Y-75000000D03*
X40825000Y-75000000D03*
%TD*%
D29*
%TO.C,D7*%
X39212500Y-80000000D03*
X40787500Y-80000000D03*
%TD*%
D28*
%TO.C,R8*%
X50175000Y-75000000D03*
X51825000Y-75000000D03*
%TD*%
D29*
%TO.C,D8*%
X50212500Y-80000000D03*
X51787500Y-80000000D03*
%TD*%
D28*
%TO.C,R9*%
X61175000Y-75000000D03*
X62825000Y-75000000D03*
%TD*%
D29*
%TO.C,D9*%
X61212500Y-80000000D03*
X62787500Y-80000000D03*
%TD*%
D10*
%TO.C,J4*%
X85000000Y-54000000D03*
D11*
X85000000Y-56540000D03*
X85000000Y-59080000D03*
X85000000Y-61620000D03*
X85000000Y-64160000D03*
X85000000Y-66700000D03*
%TD*%
D30*
%TO.C,H1*%
X4500000Y-4500000D03*
%TD*%
%TO.C,H2*%
X85500000Y-4500000D03*
%TD*%
%TO.C,H3*%
X4500000Y-87500000D03*
%TD*%
%TO.C,H4*%
X85500000Y-87500000D03*
%TD*%
%TO.C,H5*%
X4500000Y-46000000D03*
%TD*%
%TO.C,H6*%
X85500000Y-46000000D03*
%TD*%
M02*
