M48
; DRILL file KiCad 10.0.5 date 2026-10-01T16:28:30
; FORMAT={-:-/ absolute / metric / decimal}
; #@! TF.CreationDate,2026-10-01T16:28:30-04:00
; #@! TF.GenerationSoftware,Kicad,Pcbnew,10.0.5
; #@! TF.FileFunction,MixedPlating,1,2
FMAT,2
METRIC
; #@! TA.AperFunction,Plated,PTH,ComponentDrill
T1C0.300
; #@! TA.AperFunction,Plated,PTH,ViaDrill
T2C0.400
; #@! TA.AperFunction,Plated,PTH,ComponentDrill
T3C1.000
; #@! TA.AperFunction,Plated,PTH,ComponentDrill
T4C1.100
; #@! TA.AperFunction,Plated,PTH,ComponentDrill
T5C1.300
; #@! TA.AperFunction,NonPlated,NPTH,ComponentDrill
T6C3.200
%
G90
G05
T1
X62.14Y-59.8
X62.14Y-61.2
X62.84Y-59.1
X62.84Y-60.5
X62.84Y-61.9
X63.54Y-59.8
X63.54Y-61.2
X64.24Y-59.1
X64.24Y-60.5
X64.24Y-61.9
X64.94Y-59.8
X64.94Y-61.2
T2
X8.0Y-27.25
X9.75Y-17.0
X11.0Y-28.25
X12.5Y-18.75
X12.5Y-51.25
X14.0Y-69.0
X14.25Y-47.25
X16.5Y-76.75
X16.75Y-48.75
X17.5Y-55.25
X17.5Y-71.0
X17.75Y-72.75
X17.75Y-74.25
X18.5Y-77.5
X18.75Y-80.0
X19.25Y-25.25
X19.25Y-51.25
X20.0Y-57.75
X21.0Y-76.0
X22.0Y-29.75
X22.0Y-54.75
X22.5Y-57.75
X23.75Y-51.25
X23.75Y-55.25
X23.75Y-78.75
X24.5Y-52.5
X25.0Y-73.5
X27.5Y-76.0
X29.75Y-51.0
X29.75Y-80.0
X30.0Y-53.5
X32.0Y-65.75
X34.75Y-67.0
X35.5Y-18.75
X36.5Y-66.25
X37.5Y-67.0
X39.0Y-65.5
X40.5Y-77.75
X41.0Y-18.75
X42.25Y-77.5
X42.5Y-31.5
X44.75Y-68.5
X46.0Y-74.0
X46.25Y-71.25
X47.25Y-30.75
X47.25Y-55.5
X48.0Y-71.5
X48.75Y-15.75
X48.75Y-19.75
X48.75Y-25.0
X49.5Y-21.5
X49.5Y-73.25
X49.75Y-27.5
X50.0Y-54.5
X50.5Y-77.0
X51.0Y-68.25
X51.25Y-17.75
X51.25Y-20.75
X51.75Y-26.25
X52.0Y-74.0
X52.0Y-80.0
X53.0Y-77.5
X53.25Y-54.0
X53.75Y-29.0
X55.0Y-56.25
X56.0Y-32.5
X56.0Y-55.25
X56.25Y-26.5
X56.25Y-48.25
X56.25Y-59.5
X56.5Y-57.75
X57.5Y-69.25
X58.0Y-24.75
X58.5Y-31.0
X58.75Y-27.5
X59.5Y-80.75
X59.75Y-72.5
X60.0Y-75.0
X60.25Y-48.75
X61.5Y-75.0
X62.0Y-76.25
X62.25Y-57.0
X62.5Y-48.75
X62.75Y-77.5
X63.5Y-49.75
X64.25Y-28.0
X65.5Y-40.25
X65.5Y-46.75
X65.75Y-21.5
X66.0Y-29.75
X66.0Y-55.0
X66.25Y-23.75
X66.5Y-47.5
X67.5Y-27.75
X68.0Y-69.0
X68.5Y-48.5
X69.0Y-31.0
X69.5Y-21.25
X70.25Y-25.0
X70.75Y-69.0
X71.25Y-46.75
X73.0Y-26.25
X76.25Y-27.5
X77.5Y-20.75
T3
X8.0Y-54.0
X8.0Y-56.54
X8.0Y-59.08
X8.0Y-61.62
X8.0Y-64.16
X8.0Y-66.7
X14.0Y-50.0
X14.0Y-52.54
X14.0Y-55.08
X14.0Y-57.62
X14.0Y-60.16
X14.0Y-62.7
X62.5Y-20.5
X62.5Y-23.04
X82.5Y-20.5
X82.5Y-23.04
T4
X28.0Y-42.0
X30.54Y-42.0
X50.0Y-7.0
X52.54Y-7.0
X70.0Y-7.0
X72.54Y-7.0
X75.08Y-7.0
X77.62Y-7.0
T5
X12.0Y-7.0
X17.08Y-7.0
T6
X4.5Y-4.5
X4.5Y-46.0
X4.5Y-87.5
X85.5Y-4.5
X85.5Y-46.0
X85.5Y-87.5
M30
