%TF.GenerationSoftware,KiCad,Pcbnew,10.0.5*%
%TF.CreationDate,2026-10-01T17:17:47-04:00*%
%TF.ProjectId,binfohub_bridge,62696e66-6f68-4756-925f-627269646765,1.1*%
%TF.SameCoordinates,Original*%
%TF.FileFunction,Soldermask,Bot*%
%TF.FilePolarity,Negative*%
%FSLAX46Y46*%
G04 Gerber Fmt 4.6, Leading zero omitted, Abs format (unit mm)*
G04 Created by KiCad (PCBNEW 10.0.5) date 2026-10-01 17:17:47*
%MOMM*%
%LPD*%
G01*
G04 APERTURE LIST*
G04 Aperture macros list*
%AMRoundRect*
0 Rectangle with rounded corners*
0 $1 Rounding radius*
0 $2 $3 $4 $5 $6 $7 $8 $9 X,Y pos of 4 corners*
0 Add a 4 corners polygon primitive as box body*
4,1,4,$2,$3,$4,$5,$6,$7,$8,$9,$2,$3,0*
0 Add four circle primitives for the rounded corners*
1,1,$1+$1,$2,$3*
1,1,$1+$1,$4,$5*
1,1,$1+$1,$6,$7*
1,1,$1+$1,$8,$9*
0 Add four rect primitives between the rounded corners*
20,1,$1+$1,$2,$3,$4,$5,0*
20,1,$1+$1,$4,$5,$6,$7,0*
20,1,$1+$1,$6,$7,$8,$9,0*
20,1,$1+$1,$8,$9,$2,$3,0*%
G04 Aperture macros list end*
%ADD10C,0.600000*%
%ADD11R,1.700000X1.700000*%
%ADD12C,1.700000*%
%ADD13RoundRect,0.250000X1.050000X1.050000X-1.050000X1.050000X-1.050000X-1.050000X1.050000X-1.050000X0*%
%ADD14C,2.600000*%
%ADD15RoundRect,0.249999X0.850001X0.850001X-0.850001X0.850001X-0.850001X-0.850001X0.850001X-0.850001X0*%
%ADD16C,2.200000*%
%ADD17C,3.200000*%
G04 APERTURE END LIST*
D10*
%TO.C,U1*%
X64240000Y-59100000D03*
X62840000Y-59100000D03*
X64940000Y-59800000D03*
X63540000Y-59800000D03*
X62140000Y-59800000D03*
X64240000Y-60500000D03*
X62840000Y-60500000D03*
X64940000Y-61200000D03*
X63540000Y-61200000D03*
X62140000Y-61200000D03*
X64240000Y-61900000D03*
X62840000Y-61900000D03*
%TD*%
D11*
%TO.C,J6*%
X14000000Y-50000000D03*
D12*
X14000000Y-52540000D03*
X14000000Y-55080000D03*
X14000000Y-57620000D03*
X14000000Y-60160000D03*
X14000000Y-62700000D03*
%TD*%
D13*
%TO.C,J1*%
X17080000Y-7000000D03*
D14*
X12000000Y-7000000D03*
%TD*%
D15*
%TO.C,J5*%
X30540000Y-42000000D03*
D16*
X28000000Y-42000000D03*
%TD*%
D15*
%TO.C,J2*%
X52540000Y-7000000D03*
D16*
X50000000Y-7000000D03*
%TD*%
D11*
%TO.C,JP1*%
X62500000Y-20500000D03*
D12*
X62500000Y-23040000D03*
%TD*%
D15*
%TO.C,J3*%
X77620000Y-7000000D03*
D16*
X75080000Y-7000000D03*
X72540000Y-7000000D03*
X70000000Y-7000000D03*
%TD*%
D11*
%TO.C,JP2*%
X82500000Y-20500000D03*
D12*
X82500000Y-23040000D03*
%TD*%
D11*
%TO.C,J4*%
X8000000Y-54000000D03*
D12*
X8000000Y-56540000D03*
X8000000Y-59080000D03*
X8000000Y-61620000D03*
X8000000Y-64160000D03*
X8000000Y-66700000D03*
%TD*%
D17*
%TO.C,H1*%
X4500000Y-4500000D03*
%TD*%
%TO.C,H2*%
X85500000Y-4500000D03*
%TD*%
%TO.C,H3*%
X4500000Y-87500000D03*
%TD*%
%TO.C,H4*%
X85500000Y-87500000D03*
%TD*%
%TO.C,H5*%
X4500000Y-46000000D03*
%TD*%
%TO.C,H6*%
X85500000Y-46000000D03*
%TD*%
M02*
