M48
; DRILL file KiCad 10.0.5 date 2026-10-01T17:17:48
; FORMAT={-:-/ absolute / metric / decimal}
; #@! TF.CreationDate,2026-10-01T17:17:48-04:00
; #@! TF.GenerationSoftware,Kicad,Pcbnew,10.0.5
; #@! TF.FileFunction,MixedPlating,1,2
FMAT,2
METRIC
; #@! TA.AperFunction,Plated,PTH,ComponentDrill
T1C0.300
; #@! TA.AperFunction,Plated,PTH,ViaDrill
T2C0.400
; #@! TA.AperFunction,Plated,PTH,ComponentDrill
T3C1.000
; #@! TA.AperFunction,Plated,PTH,ComponentDrill
T4C1.100
; #@! TA.AperFunction,Plated,PTH,ComponentDrill
T5C1.300
; #@! TA.AperFunction,NonPlated,NPTH,ComponentDrill
T6C3.200
%
G90
G05
T1
X62.14Y-59.8
X62.14Y-61.2
X62.84Y-59.1
X62.84Y-60.5
X62.84Y-61.9
X63.54Y-59.8
X63.54Y-61.2
X64.24Y-59.1
X64.24Y-60.5
X64.24Y-61.9
X64.94Y-59.8
X64.94Y-61.2
T2
X8.0Y-27.25
X9.75Y-17.0
X11.0Y-28.0
X12.5Y-18.75
X13.5Y-26.75
X16.5Y-76.75
X17.5Y-55.25
X18.5Y-77.5
X18.75Y-80.0
X19.25Y-25.25
X19.5Y-72.25
X19.75Y-28.25
X20.75Y-73.5
X22.0Y-29.75
X22.25Y-55.0
X23.75Y-51.25
X25.0Y-52.5
X25.75Y-73.5
X27.5Y-55.0
X28.25Y-32.75
X28.5Y-53.75
X29.75Y-51.0
X29.75Y-77.5
X30.75Y-32.75
X31.75Y-69.5
X39.5Y-77.0
X40.25Y-19.75
X40.5Y-70.5
X40.75Y-77.5
X40.75Y-80.0
X41.0Y-28.25
X41.25Y-41.0
X41.25Y-66.5
X41.25Y-73.0
X41.5Y-69.75
X42.5Y-15.75
X42.5Y-31.5
X42.5Y-72.5
X43.5Y-71.75
X44.0Y-67.25
X44.25Y-75.75
X44.75Y-77.5
X45.25Y-15.75
X45.25Y-30.75
X46.25Y-68.0
X46.25Y-71.25
X46.5Y-21.5
X46.5Y-28.25
X47.5Y-60.25
X47.75Y-63.5
X48.0Y-32.0
X48.5Y-71.25
X48.75Y-61.0
X49.0Y-15.75
X49.5Y-21.5
X49.5Y-30.0
X50.0Y-77.5
X51.25Y-17.75
X51.25Y-20.75
X51.5Y-71.25
X51.75Y-9.25
X51.75Y-62.5
X51.75Y-67.5
X53.75Y-29.0
X54.75Y-17.5
X55.25Y-55.75
X55.25Y-60.5
X55.75Y-57.0
X56.0Y-72.0
X56.25Y-26.5
X56.25Y-28.0
X57.0Y-58.75
X57.25Y-52.0
X57.25Y-69.5
X57.25Y-75.25
X57.75Y-82.5
X58.5Y-31.0
X58.5Y-60.75
X58.5Y-62.25
X58.5Y-72.5
X58.75Y-14.25
X59.25Y-73.5
X59.75Y-74.75
X61.0Y-62.75
X61.5Y-13.0
X61.75Y-49.25
X62.75Y-77.5
X62.75Y-80.0
X63.0Y-32.0
X63.5Y-49.75
X64.5Y-32.0
X65.75Y-40.0
X65.75Y-69.0
X66.0Y-29.75
X66.0Y-49.0
X66.25Y-23.75
X68.25Y-48.75
X68.75Y-51.75
X68.75Y-72.25
X69.5Y-21.25
X70.25Y-25.0
X70.75Y-69.0
X71.0Y-47.0
X72.0Y-28.25
X72.5Y-18.75
X73.0Y-26.25
X76.25Y-27.5
X77.5Y-20.75
X78.75Y-28.0
T3
X8.0Y-54.0
X8.0Y-56.54
X8.0Y-59.08
X8.0Y-61.62
X8.0Y-64.16
X8.0Y-66.7
X14.0Y-50.0
X14.0Y-52.54
X14.0Y-55.08
X14.0Y-57.62
X14.0Y-60.16
X14.0Y-62.7
X62.5Y-20.5
X62.5Y-23.04
X82.5Y-20.5
X82.5Y-23.04
T4
X28.0Y-42.0
X30.54Y-42.0
X50.0Y-7.0
X52.54Y-7.0
X70.0Y-7.0
X72.54Y-7.0
X75.08Y-7.0
X77.62Y-7.0
T5
X12.0Y-7.0
X17.08Y-7.0
T6
X4.5Y-4.5
X4.5Y-46.0
X4.5Y-87.5
X85.5Y-4.5
X85.5Y-46.0
X85.5Y-87.5
M30
