M48
; DRILL file KiCad 10.0.5 date 2026-08-31T21:52:53
; FORMAT={-:-/ absolute / metric / decimal}
; #@! TF.CreationDate,2026-08-31T21:52:53-04:00
; #@! TF.GenerationSoftware,Kicad,Pcbnew,10.0.5
; #@! TF.FileFunction,MixedPlating,1,2
FMAT,2
METRIC
; #@! TA.AperFunction,Plated,PTH,ViaDrill
T1C0.400
; #@! TA.AperFunction,Plated,PTH,ComponentDrill
T2C1.000
; #@! TA.AperFunction,Plated,PTH,ComponentDrill
T3C1.100
; #@! TA.AperFunction,Plated,PTH,ComponentDrill
T4C1.300
; #@! TA.AperFunction,NonPlated,NPTH,ComponentDrill
T5C3.200
%
G90
G05
T1
X9.75Y-17.0
X12.75Y-18.0
X13.5Y-29.25
X19.25Y-25.25
X20.75Y-19.75
X22.0Y-29.75
X28.5Y-75.0
X32.0Y-36.75
X32.0Y-38.25
X35.5Y-18.75
X36.0Y-34.25
X37.25Y-31.0
X38.25Y-29.75
X38.25Y-73.75
X38.75Y-34.25
X39.5Y-76.5
X41.0Y-18.75
X41.25Y-71.25
X41.75Y-33.25
X42.0Y-73.5
X42.5Y-31.0
X44.0Y-28.25
X44.5Y-38.75
X45.75Y-69.5
X47.75Y-27.75
X48.25Y-6.0
X48.75Y-25.0
X49.0Y-30.5
X49.75Y-21.75
X50.0Y-75.0
X50.25Y-79.75
X51.5Y-35.0
X52.5Y-23.0
X52.5Y-29.75
X52.75Y-32.75
X53.5Y-29.0
X55.0Y-25.0
X55.75Y-31.25
X56.25Y-26.25
X57.5Y-33.0
X59.5Y-34.0
X61.25Y-75.0
X61.5Y-77.5
X62.5Y-35.25
X64.0Y-34.0
X64.25Y-29.25
X65.5Y-34.0
X65.5Y-70.75
X68.25Y-22.75
X68.75Y-29.25
X69.75Y-19.5
X70.0Y-21.75
X72.25Y-17.25
X73.5Y-23.75
X76.25Y-26.25
T2
X22.14Y-42.3
X22.14Y-67.7
X24.68Y-42.3
X24.68Y-67.7
X27.22Y-42.3
X27.22Y-67.7
X29.76Y-42.3
X29.76Y-67.7
X32.3Y-42.3
X32.3Y-67.7
X34.84Y-42.3
X34.84Y-67.7
X37.38Y-42.3
X37.38Y-67.7
X39.92Y-42.3
X39.92Y-67.7
X42.46Y-42.3
X42.46Y-67.7
X45.0Y-42.3
X45.0Y-67.7
X47.54Y-42.3
X47.54Y-67.7
X50.08Y-42.3
X50.08Y-67.7
X52.62Y-42.3
X52.62Y-67.7
X55.16Y-42.3
X55.16Y-67.7
X57.7Y-42.3
X57.7Y-67.7
X60.24Y-42.3
X60.24Y-67.7
X62.5Y-20.5
X62.5Y-23.04
X62.78Y-42.3
X62.78Y-67.7
X65.32Y-42.3
X65.32Y-67.7
X67.86Y-42.3
X67.86Y-67.7
X82.5Y-20.5
X82.5Y-23.04
X85.0Y-54.0
X85.0Y-56.54
X85.0Y-59.08
X85.0Y-61.62
X85.0Y-64.16
X85.0Y-66.7
T3
X50.0Y-7.0
X52.54Y-7.0
X70.0Y-7.0
X72.54Y-7.0
X75.08Y-7.0
X77.62Y-7.0
T4
X12.0Y-7.0
X17.08Y-7.0
T5
X4.5Y-4.5
X4.5Y-46.0
X4.5Y-87.5
X85.5Y-4.5
X85.5Y-46.0
X85.5Y-87.5
M30
